<?xml version="1.0" encoding="UTF-8"?><svg id="Capa_1" xmlns="http://www.w3.org/2000/svg" viewBox="0 0 34.9 69.57"><defs><style>.cls-1{fill:#f8eff4;}.cls-1,.cls-2,.cls-3{stroke-width:0px;}.cls-2{fill:#efb1cf;}.cls-3{fill:#fff;}</style></defs><path class="cls-3" d="M30.67,41.74c-.62-8.4-7.53-12.47-7.9-15.19-.37-2.72,1.85-6.05,1.85-6.05,4.2-3.34,4.08-10.74,4.08-10.74,0,0-1.1-.24-2.56-.34,1.02-1.28,4.54-5.74,4.54-6.69,0-1.11-4.82-2.72-4.82-2.72l-1.19,9.37c-.96.01-1.97.12-2.89.39-2.35.7-4.08,5.21-4.7,7.02-.61-1.82-2.35-6.32-4.7-7.02-.92-.27-1.93-.38-2.89-.39L8.31,0S3.49,1.61,3.49,2.72c0,.95,3.52,5.42,4.54,6.69-1.47.1-2.56.34-2.56.34,0,0-.12,7.41,4.08,10.74,0,0,2.22,3.33,1.85,6.05-.37,2.72-7.29,6.79-7.9,15.19,0,0,.81,18.12-2.25,22.93-.76,1.2-1.39,3.74-1.2,3.87.86.62,5.06.12,6.48,0,.67-.06,1.15.23,1.96.51.9.32,2.23.64,4.7.48,1.34-.09,3.05-.78,3.91-.81,2.49.67,4.32.32,5.97-.03,1.55-.33,2.95-.66,4.59-.15,3.31,1.03,6.32.62,7.18,0,.19-.13.02-1.4-1.07-3.5-3.39-6.5-3.09-23.3-3.09-23.3h0Z"/><path class="cls-2" d="M34.71,67.3h0c-.13-.42-.32-.95-.61-1.56.29.62.48,1.14.61,1.56h0ZM33.76,65.05c-3.39-6.5-3.09-23.3-3.09-23.3h0s-.3,16.81,3.09,23.3h0Z"/><path class="cls-2" d="M30.67,2.72h0s0,0,0,0h0ZM30.67,2.71h0s0,0,0,0h0ZM30.67,2.71h0s0,0,0,0h0ZM30.67,2.71h0s0,0,0,0h0ZM30.67,2.7h0s0,0,0,0h0ZM30.67,2.7h0s0,0,0,0h0ZM30.67,2.7h0s0,0,0,0h0ZM30.67,2.69s0,0,0,0c0,0,0,0,0,0h0ZM30.67,2.69h0s0,0,0,0h0ZM30.67,2.69h0s0,0,0,0h0ZM30.67,2.68h0s0,0,0,0h0ZM30.67,2.68s0,0,0-.01c0,0,0,0,0,.01h0ZM30.67,2.67s0,0,0,0c0,0,0,0,0,0h0ZM30.67,2.67h0s0,0,0,0h0ZM30.67,2.66h0s0,0,0,0h0ZM30.67,2.66s0,0,0,0t0,0h0ZM30.67,2.66h0s0,0,0,0h0ZM30.67,2.65s0,0,0,0t0,0h0ZM30.66,2.65h0s0,0,0,0h0ZM30.66,2.65s0,0,0,0c0,0,0,0,0,0h0ZM30.66,2.64h0s0,0,0,0h0ZM30.66,2.64s0,0,0,0c0,0,0,0,0,0h0ZM30.66,2.64h0s0,0,0,0h0ZM30.66,2.63s0,0,0,0c0,0,0,0,0,0h0ZM30.66,2.63h0s0,0,0,0h0ZM30.66,2.62h0s0,0,0,0h0ZM30.66,2.62s0,0,0,0t0,0h0ZM30.66,2.62h0s0,0,0,0h0ZM30.66,2.61h0s0,0,0,0h0ZM30.66,2.61h0s0,0,0,0h0ZM30.66,2.61s0,0,0,0c0,0,0,0,0,0h0ZM30.65,2.6h0s0,0,0,0h0ZM30.65,2.6h0s0,0,0,0h0ZM30.65,2.6h0ZM30.65,2.6s0,0,0,0t0,0h0ZM30.65,2.58h0s0,0,0,0h0ZM30.65,2.58h0ZM30.65,2.58h0ZM30.64,2.57h0ZM30.64,2.57h0ZM30.64,2.57h0ZM30.64,2.56h0Z"/><path class="cls-1" d="M34.71,67.3c-.94-1.15-1.96-1.96-3.2-2.1-.37-.04-1.04-.07-1.95-.09-1.61-2.57-1.48-12.87-1.48-21.39,0-7.08-4-11.17-6.14-14.12-.1-.14.79-1.08.7-1.22-.01-.01-.03-.02-.05-.02-.12,0-.39.2-.67.4-.27.2-.54.4-.65.4-.02,0-.03,0-.04-.02-.15-.25.96-1.46.86-1.69,0-.01-.01-.02-.03-.02-.15,0-.79.57-1.44,1.15-.65.57-1.29,1.15-1.42,1.15-.01,0-.02,0-.02-.02-.08-.23,2.46-3.05,2.39-3.28-.7-2.58-1.45-4.82-1.45-4.82l-2.68-.12c-.58.08-1.12.12-1.63.12-2.54,0-4.16-.86-4.16-.86.26.11.61.15,1.02.15,1.96,0,5.22-1.01,5.22-1.01h2.16c7.53-2.84,5.06-9.39,5.06-9.39,0,0,2.22-4.94,3.21-7.29.32-.75.33-1.49.2-2.15,1,.47,1.95,1.02,2.12,1.5h0s0,0,0,0h0s0,0,0,0h0s0,0,0,0h0s0,0,0,0h0s0,0,0,0h0s0,0,0,0h0s0,0,0,.01t0,0h0s0,0,0,0h0s0,0,0,0h0s0,0,0,0h0s0,0,0,0h0s0,0,0,0h0s0,0,0,0h0s0,0,0,.01h0s0,0,0,0h0s0,0,0,0h0s0,0,0,0h0s0,0,0,0h0s0,0,0,0h0s0,0,0,.01h0s0,.01,0,.01h0v.02h0c0,.33-.4,1.05-.98,1.92-.26.39-.56.82-.87,1.25-1.02,1.41-2.18,2.88-2.7,3.53h0c1.47.1,2.56.34,2.56.34h0v.06h0c0,.75-.11,7.53-4.08,10.68,0,0-1.89,2.84-1.89,5.41,0,.22.01.43.04.64.37,2.72,7.29,6.79,7.9,15.19,0,0-.3,16.81,3.09,23.3h0c.13.24.24.47.34.69.29.62.48,1.14.61,1.56h0Z"/><path class="cls-1" d="M6.83,65.15c.11-.43.22-.91.32-1.45.83-4.32,2.39-15.3,2.39-15.3,0,0-.57,13.64-.99,15.77-.06.32-.13.64-.21.96-.53,0-1.04.01-1.52.02h0Z"/><path class="cls-1" d="M16.43,65.07c.17-3.08.47-11.52.47-11.52,0,0-.02,7.92.3,11.51-.26,0-.51,0-.77,0h0Z"/></svg>