<?xml version="1.0" encoding="UTF-8"?><svg id="Capa_1" xmlns="http://www.w3.org/2000/svg" viewBox="0 0 12.31 16.13"><defs><style>.cls-1{fill:#f8f6f7;}.cls-1,.cls-2,.cls-3,.cls-4,.cls-5{stroke-width:0px;}.cls-2{fill:#dddddb;}.cls-3{fill:#ececec;}.cls-4{fill:#e3e1e2;}.cls-5{fill:#fff;}</style></defs><polygon class="cls-1" points="12.14 13.26 12.14 14.01 10.28 14.01 10.28 13.26 12.14 13.26 12.14 13.26"/><polygon class="cls-5" points="10.9 1.72 12.31 13.51 10.38 13.51 9.53 9.06 10.9 1.72 10.9 1.72"/><polygon class="cls-1" points=".16 13.26 .16 14.01 2.03 14.01 2.03 13.26 .16 13.26 .16 13.26"/><polygon class="cls-5" points="1.41 1.72 0 13.51 1.93 13.51 2.77 9.06 1.41 1.72 1.41 1.72"/><path class="cls-3" d="M6.28,0l.06,14.32s-2.14,1.81-2.26,1.81-2.65-1.58-2.71-1.72c-.06-.14.51-1.88.63-2.73.13-.85.38-1.99.32-2.75-.06-.76-.96-7.08-.9-7.22.06-.14,3.02-1.33,3.11-1.35.03,0,.1-.12.11-.37C5.11,0,6.28,0,6.28,0h0Z"/><path class="cls-3" d="M6.15,0v14.47s1.96,1.67,2.08,1.67,2.65-1.58,2.71-1.72c.06-.14-.5-1.88-.63-2.73-.13-.85-.38-1.99-.32-2.75.06-.76.96-7.08.9-7.22-.06-.14-3.02-1.33-3.11-1.35-.03,0-.1-.12-.11-.37C7.2,0,6.15,0,6.15,0h0Z"/><polygon class="cls-5" points="4.51 .37 6.15 7.32 6.33 .95 4.51 .37 4.51 .37"/><polygon class="cls-4" points="4.62 0 4.51 .37 4.84 1.76 6.15 .89 4.62 0 4.62 0"/><polygon class="cls-5" points="4.62 0 6.15 7.32 6.15 8.57 4.34 4.62 4.77 3.58 4 3.33 4.14 .51 4.62 0 4.62 0"/><path class="cls-5" d="M4.23,11.34l-2.1-.5c-.03.2-.07.39-.1.57l2.06.49.13-.56h0Z"/><polygon class="cls-1" points="7.79 .37 6.15 7.32 6.15 .89 7.79 .37 7.79 .37"/><polygon class="cls-2" points="7.69 0 7.79 .37 7.47 1.76 6.15 .89 7.69 0 7.69 0"/><polygon class="cls-5" points="7.69 0 6.15 7.32 6.15 8.57 7.97 4.62 7.54 3.58 8.31 3.33 8.17 .51 7.69 0 7.69 0"/><path class="cls-5" d="M8.08,11.34l2.1-.5c.03.2.07.39.1.57l-2.06.49-.13-.56h0Z"/><polygon class="cls-1" points="8.39 3.95 9.68 3.95 9.23 3.25 8.39 3.95 8.39 3.95"/><polygon class="cls-5" points="9.78 4.14 8.27 4.14 8.27 3.9 9.78 3.9 9.78 4.14 9.78 4.14"/></svg>