<?xml version="1.0" encoding="UTF-8"?>
<svg id="Capa_1" data-name="Capa 1" xmlns="http://www.w3.org/2000/svg" viewBox="0 0 269 32.2">
  <defs>
    <style>
      .cls-1, .cls-2, .cls-3 {
        stroke-width: 0px;
      }

      .cls-1, .cls-3 {
        fill: #ebc8b2;
      }

      .cls-2 {
        fill: #89624d;
      }

      .cls-3 {
        fill-rule: evenodd;
      }
    </style>
  </defs>
  <g>
    <path class="cls-3" d="m130.9,29.31c-.11,0-.22-.04-.31-.11-.34-.27-.7-.65-1.04-1.02-.16-.17-.31-.33-.46-.48l-4.81-3.9c-6.25-4.6-5.57-9.25-4.98-11.04.92-2.81,3.45-4.77,6.14-4.77,1.02,0,1.99.28,2.89.82.39.26,1.31.9,1.78,1.49.14.18.3.4.46.63.12.16.23.33.35.48.07-.09.15-.19.23-.29.93-1.17,2.48-3.14,5.09-3.14.78,0,1.6.18,2.45.54,2.58,1.01,4.96,4.06,4.04,8.33-.89,3.71-4.08,6.14-6.9,8.29-.54.41-1.08.82-1.59,1.23-1.02.78-1.83,1.63-2.37,2.2-.3.32-.5.53-.66.64-.09.07-.19.1-.3.1Z"/>
    <path class="cls-2" d="m136.24,8.48c.67,0,1.42.15,2.25.5,2.56,1.01,4.57,3.93,3.75,7.77-1.01,4.2-5.12,6.67-8.32,9.23-1.55,1.19-2.65,2.56-3.02,2.83-.46-.37-1.01-1.01-1.46-1.46l-4.84-3.93c-9.15-6.72-4.39-14.92.84-14.92.88,0,1.78.23,2.63.75.55.37,1.28.91,1.65,1.37.37.46.82,1.19,1.19,1.55.82-.75,2.32-3.7,5.33-3.7m0-1h0c-2.68,0-4.3,1.85-5.3,3.11-.15-.21-.3-.42-.44-.59-.49-.62-1.38-1.25-1.87-1.58-1.01-.62-2.07-.92-3.18-.92-2.91,0-5.63,2.1-6.62,5.11-1.29,3.94.64,8.28,5.18,11.61l4.76,3.87c.13.13.27.28.41.43.36.38.73.78,1.1,1.07.18.15.4.22.62.22s.42-.07.6-.2c.19-.14.4-.36.72-.7.53-.55,1.33-1.39,2.3-2.14.53-.42,1.06-.82,1.6-1.23,2.89-2.2,6.16-4.68,7.09-8.56.98-4.58-1.57-7.84-4.35-8.93-.89-.37-1.77-.57-2.62-.57h0Z"/>
  </g>
  <g>
    <g>
      <path class="cls-1" d="m13.56,31.7c-.31,0-.62-.01-.94-.04-1.03-.08-2.05-.29-3.04-.61-.98-.32-1.93-.76-2.82-1.31-.9-.55-1.71-1.2-2.41-1.93-1.34-1.4-2.35-2.99-2.99-4.74-.64-1.74-.93-3.61-.84-5.53.03-1.09.28-2.13.76-3.08s1.09-1.77,1.83-2.47c.75-.7,1.62-1.26,2.61-1.66.99-.4,2.04-.6,3.13-.6,1.01,0,2,.2,2.96.61.97.41,1.8,1.09,2.44,2,.08.16.15.26.22.37.13.19.22.39.26.6.02.13.06.44-.15.67-.09.11-.32.2-.46.2-.06,0-.13,0-.2-.03-.17-.05-.33-.1-.48-.16-.82-.38-1.68-.57-2.57-.57-.8,0-1.59.15-2.36.43-.77.29-1.48.7-2.11,1.22-.63.52-1.17,1.13-1.6,1.82-.43.69-.72,1.43-.87,2.21-.18,1.01-.17,2.01.02,2.95.19.95.54,1.85,1.03,2.66.49.81,1.13,1.53,1.9,2.14.76.61,1.64,1.07,2.64,1.37.81.24,1.65.37,2.48.37.21,0,.42,0,.63-.02,1.03-.08,2.03-.37,2.97-.88.91-.5,1.7-1.17,2.35-1.97.65-.81,1.16-1.71,1.52-2.68.36-.98.58-2.03.66-3.11.08-1.08-.01-2.15-.27-3.17-.19-.77-.41-1.54-.66-2.27-.22-.64-.42-1.28-.61-1.92-.05,0-.1,0-.15,0-.6,0-1.21-.07-1.81-.22-.79-.19-1.55-.48-2.26-.88-.57-.31-1.12-.71-1.62-1.16-.5-.46-.94-.97-1.28-1.52-.35-.56-.61-1.15-.77-1.77-.17-.63-.2-1.27-.11-1.9.09-.62.34-1.22.73-1.81.39-.58.84-1.04,1.36-1.38.42-.3.96-.51,1.58-.6h.62c.22,0,.39.04.54.13.12.07.26.25.29.39.03.12.03.3-.11.5-.31.62-.59,1.33-.81,2.06-.2.67-.21,1.34-.02,2.04.23.75.72,1.44,1.44,2.02.52.42,1.06.72,1.64.91-.08-.54-.12-1.08-.12-1.62,0-.81.13-1.62.39-2.43.26-.77.62-1.52,1.07-2.21.48-.73,1.11-1.31,1.89-1.73.48-.27,1.02-.45,1.6-.54.27-.04.54-.06.8-.06.31,0,.61.03.91.09.56.11,1.09.31,1.59.61.51.31.93.71,1.27,1.2.32.55.51,1.09.57,1.63.06.53.03,1.06-.09,1.57-.12.5-.3.99-.55,1.47-.24.47-.53.92-.84,1.32-.68.9-1.51,1.67-2.49,2.29.24.57.47,1.14.69,1.7.28.71.52,1.44.71,2.19.47,1.76.59,3.52.36,5.23-.24,1.7-.78,3.37-1.62,4.95-.84,1.62-1.97,3.02-3.37,4.17-1.41,1.16-3.06,1.93-4.89,2.3-.71.14-1.44.21-2.17.21ZM23.96,3.21c-.18,0-.36.04-.55.12-.42.17-.71.44-.87.83-.19.46-.3.93-.33,1.41-.05.57.03,1.16.24,1.76.16.48.33.95.5,1.41.14-.09.29-.19.44-.31.3-.22.6-.51.9-.86.3-.34.55-.72.74-1.12.19-.39.33-.79.4-1.2.07-.37.04-.71-.09-1.03-.17-.42-.44-.71-.82-.89-.19-.09-.38-.13-.57-.13Z"/>
      <path class="cls-2" d="m23.48,1.27c.28,0,.55.03.82.08.5.1.97.28,1.42.55.45.27.82.62,1.12,1.06.27.46.43.93.49,1.4.05.47.03.94-.08,1.4-.11.46-.28.91-.51,1.36-.23.45-.49.86-.79,1.24-.73.97-1.64,1.77-2.72,2.39.3.7.58,1.4.85,2.09.27.69.5,1.4.69,2.13.46,1.71.57,3.38.34,5.03-.23,1.65-.75,3.25-1.56,4.79-.81,1.57-1.89,2.91-3.25,4.02-1.35,1.11-2.91,1.84-4.67,2.19-.68.13-1.37.2-2.07.2-.3,0-.6-.01-.89-.04-1-.08-1.98-.28-2.92-.59-.95-.31-1.85-.73-2.72-1.26-.87-.53-1.64-1.14-2.31-1.85-1.3-1.35-2.26-2.87-2.88-4.57-.62-1.69-.89-3.47-.81-5.34.03-1.03.26-1.99.71-2.88.45-.89,1.02-1.67,1.73-2.33.7-.66,1.52-1.18,2.46-1.56.93-.38,1.91-.57,2.94-.57.95,0,1.87.19,2.76.57.89.38,1.64.99,2.23,1.83.05.11.13.23.22.37.09.14.16.27.18.41.02.18-.02.27-.12.27-.02,0-.04,0-.06,0-.15-.04-.29-.09-.43-.14-.87-.41-1.79-.61-2.76-.61-.87,0-1.71.16-2.54.47-.83.31-1.58.74-2.25,1.3-.68.56-1.25,1.2-1.7,1.95-.46.74-.77,1.54-.93,2.37-.19,1.08-.18,2.13.02,3.15.2,1.01.57,1.96,1.1,2.82.53.87,1.2,1.62,2.01,2.27.81.65,1.75,1.14,2.8,1.46.87.26,1.74.39,2.62.39.22,0,.44,0,.66-.02,1.11-.08,2.16-.39,3.17-.93.97-.54,1.81-1.24,2.5-2.09.69-.85,1.22-1.79,1.6-2.82.38-1.03.61-2.11.69-3.25.08-1.14-.01-2.25-.28-3.33-.19-.78-.41-1.56-.67-2.31-.26-.76-.49-1.52-.71-2.27-.17.01-.35.02-.52.02-.56,0-1.13-.07-1.69-.2-.74-.18-1.45-.45-2.13-.83-.54-.3-1.05-.66-1.52-1.1-.47-.43-.87-.91-1.2-1.42-.32-.51-.56-1.06-.71-1.62-.15-.57-.18-1.14-.1-1.7.08-.54.3-1.08.65-1.6.35-.53.76-.94,1.22-1.24.38-.27.84-.45,1.38-.53h.55c.12,0,.22.02.28.06.07.04.07.1.02.18-.35.7-.64,1.43-.87,2.19-.23.76-.24,1.53-.02,2.31.27.87.81,1.62,1.6,2.27.8.65,1.66,1.04,2.58,1.18-.16-.76-.24-1.52-.24-2.27s.12-1.52.37-2.27c.24-.73.58-1.43,1.01-2.09.43-.66,1-1.18,1.7-1.56.43-.24.91-.41,1.44-.49.24-.04.48-.06.72-.06m-.78,8.18c.32-.14.66-.34,1.01-.61.32-.24.65-.55.97-.93.32-.38.59-.78.81-1.22.22-.43.37-.88.45-1.34.08-.46.04-.89-.12-1.3-.22-.54-.58-.93-1.08-1.16-.26-.12-.52-.18-.78-.18-.25,0-.49.05-.74.16-.54.22-.92.58-1.14,1.1-.22.51-.34,1.04-.37,1.58-.05.62.03,1.27.26,1.95.23.68.47,1.33.71,1.95m.78-9.18c-.29,0-.58.02-.87.07-.64.1-1.24.3-1.78.6-.83.45-1.53,1.09-2.05,1.89-.48.73-.86,1.51-1.13,2.32-.28.86-.42,1.73-.42,2.59,0,.27,0,.55.03.82-.25-.14-.49-.3-.73-.5-.65-.53-1.07-1.12-1.28-1.8-.16-.57-.15-1.15.02-1.72.21-.69.47-1.36.79-2,.15-.26.19-.54.13-.82-.07-.29-.25-.54-.51-.7-.23-.14-.49-.2-.8-.2h-.55s-.1,0-.15.01c-.7.1-1.31.34-1.81.7-.54.35-1.04.86-1.47,1.5-.43.65-.7,1.32-.81,2.01-.1.71-.06,1.41.12,2.11.17.66.45,1.3.83,1.9.13.21.28.42.44.62-.86-.3-1.74-.45-2.64-.45-1.15,0-2.27.22-3.32.64-1.05.42-1.98,1.02-2.77,1.76-.79.74-1.44,1.62-1.93,2.62C.32,15.25.05,16.37.01,17.54c-.09,1.98.21,3.9.87,5.71.67,1.81,1.71,3.47,3.1,4.91.73.76,1.58,1.44,2.52,2.01.93.56,1.91,1.02,2.93,1.35,1.02.33,2.08.55,3.15.64.32.03.65.04.98.04.76,0,1.52-.07,2.26-.22,1.92-.38,3.64-1.19,5.11-2.4,1.45-1.19,2.63-2.65,3.5-4.33.86-1.63,1.42-3.35,1.67-5.11.25-1.78.12-3.6-.37-5.43-.2-.75-.44-1.51-.72-2.24-.17-.44-.35-.89-.54-1.33.88-.61,1.64-1.34,2.27-2.19.32-.41.62-.88.88-1.38.27-.52.47-1.05.59-1.59.13-.57.17-1.16.1-1.74-.07-.61-.28-1.22-.62-1.79-.01-.02-.03-.04-.04-.06-.38-.55-.86-1-1.42-1.34-.55-.33-1.14-.56-1.75-.68-.33-.06-.67-.09-1.01-.09h0Zm-.27,7.69c-.09-.26-.18-.52-.27-.79-.18-.54-.26-1.06-.21-1.54.02-.46.12-.88.29-1.28.11-.27.29-.44.59-.56.14-.06.26-.09.37-.09s.24.03.36.09c.27.12.44.31.56.62.09.23.11.48.07.75-.06.36-.18.72-.36,1.07-.18.36-.41.7-.68,1.01-.24.28-.48.52-.72.71h0Zm-9.07,6.69c.32,0,.62-.14.83-.37.16-.18.34-.51.28-1.02,0-.03,0-.05-.01-.07-.05-.27-.17-.53-.34-.78-.04-.06-.08-.12-.11-.17.56.26,1.14.46,1.74.6.56.13,1.14.21,1.7.23.16.53.33,1.06.51,1.58.25.72.46,1.47.64,2.23.25.98.33,2,.26,3.02-.07,1.04-.29,2.04-.63,2.97-.34.92-.82,1.77-1.44,2.54-.61.75-1.35,1.37-2.2,1.85-.86.47-1.79.74-2.75.81-.2.01-.39.02-.59.02-.78,0-1.57-.12-2.34-.35-.92-.28-1.75-.72-2.46-1.28-.72-.57-1.32-1.25-1.78-2.01-.46-.76-.79-1.6-.97-2.5-.18-.89-.18-1.82-.02-2.78.14-.7.41-1.38.8-2.02.4-.65.9-1.22,1.49-1.7.59-.48,1.25-.87,1.97-1.14.71-.27,1.44-.4,2.18-.4.83,0,1.6.17,2.34.51.02,0,.03.01.05.02.17.07.35.13.54.18.11.03.22.04.33.04h0Z"/>
    </g>
    <g>
      <path class="cls-1" d="m39.74,29.27c-1.15,0-2.07-.29-2.73-.88-.45-.39-.76-.93-.94-1.61-.48.5-1.02.97-1.6,1.41-.95.71-2.06,1.07-3.3,1.07-1.34,0-2.41-.47-3.17-1.4-.72-.89-1.15-2-1.27-3.32-.11-1.28.06-2.67.51-4.15.45-1.47,1.19-2.86,2.2-4.12,1.01-1.27,2.33-2.33,3.91-3.17,1.59-.85,3.51-1.28,5.69-1.28,1.53,0,2.75.21,3.64.64.91.43,1.65,1.1,2.22,1.99.08.13.1.28.05.43-.54,1.63-1.04,3.09-1.5,4.39-.19.56-.38,1.12-.57,1.68-.19.56-.37,1.07-.53,1.53l-.43,1.2c-.11.31-.18.52-.21.62-.43,1.2-.42,1.68-.38,1.86.05.24.12.24.18.24s.25-.02.66-.21c.31-.15.66-.41,1.02-.78.38-.38.78-.89,1.19-1.52.41-.63.8-1.42,1.17-2.36.13-.34.33-.58.6-.7.16-.07.31-.11.46-.11.11,0,.21.02.31.06.16.06.39.2.54.54.12.28.12.59,0,.93-.78,2.09-1.87,3.8-3.23,5.06-1.4,1.3-2.92,1.96-4.5,1.96Zm-1.14-15.3c-.66,0-1.29.28-1.91.86-.68.63-1.31,1.43-1.88,2.38-.58.97-1.07,2.04-1.48,3.18-.41,1.14-.69,2.21-.85,3.18-.15.94-.18,1.73-.08,2.34.09.58.29.58.4.58.23,0,.46-.07.69-.21.27-.16.53-.39.78-.67.27-.31.53-.66.79-1.06.26-.4.49-.81.7-1.23.5-.98,1-2.13,1.48-3.4l2.03-5.69s-.08-.08-.14-.13c-.09-.08-.28-.12-.53-.12Z"/>
      <path class="cls-2" d="m39.05,12.33c1.46,0,2.6.2,3.43.59.83.39,1.5.99,2.01,1.81-.54,1.62-1.04,3.09-1.5,4.38-.19.57-.38,1.13-.57,1.68-.19.56-.37,1.06-.53,1.52-.16.46-.3.86-.43,1.2-.12.34-.2.56-.22.67-.35.97-.48,1.67-.39,2.09.09.42.32.63.67.63.22,0,.51-.09.87-.26.37-.18.75-.47,1.16-.87.41-.41.83-.94,1.26-1.6.43-.66.84-1.48,1.22-2.46.08-.22.2-.36.34-.43.09-.04.18-.06.26-.06.05,0,.09,0,.13.02.11.04.2.14.26.28.07.15.06.33-.02.55-.76,2.03-1.79,3.65-3.11,4.87-1.31,1.22-2.7,1.83-4.16,1.83-1.03,0-1.83-.25-2.4-.75-.57-.5-.88-1.29-.93-2.37-.62.79-1.37,1.5-2.23,2.15-.87.65-1.87.97-3,.97s-2.12-.41-2.78-1.22c-.66-.81-1.05-1.83-1.16-3.04-.11-1.22.05-2.54.49-3.96.43-1.42,1.14-2.74,2.11-3.96.97-1.22,2.23-2.23,3.76-3.04,1.53-.81,3.35-1.22,5.46-1.22m-6.25,14.65c.32,0,.64-.09.95-.28.31-.19.61-.45.89-.77.28-.32.56-.7.83-1.12.27-.42.51-.85.73-1.28.51-1,1.01-2.15,1.5-3.45l2.11-5.93c-.05-.14-.18-.28-.37-.45-.19-.16-.47-.24-.85-.24-.79,0-1.54.33-2.25.99-.72.66-1.37,1.5-1.97,2.5-.6,1-1.1,2.09-1.52,3.27-.42,1.18-.71,2.27-.87,3.27-.16,1-.19,1.83-.08,2.5.11.66.41.99.89.99m6.25-15.65c-2.27,0-4.26.45-5.93,1.33-1.64.87-3.01,1.98-4.07,3.3-1.05,1.31-1.82,2.76-2.29,4.29-.47,1.54-.65,3-.53,4.34.13,1.42.59,2.62,1.38,3.59.86,1.05,2.05,1.59,3.55,1.59,1.35,0,2.56-.4,3.6-1.17.39-.29.75-.59,1.09-.91.2.43.48.79.81,1.08.75.66,1.78,1,3.06,1,1.71,0,3.34-.7,4.84-2.09,1.42-1.32,2.55-3.09,3.36-5.25.22-.58.12-1.03,0-1.31-.23-.5-.57-.72-.82-.81-.15-.06-.32-.09-.48-.09-.22,0-.45.05-.67.15-.27.13-.65.4-.87.99-.35.9-.73,1.66-1.12,2.26-.39.6-.77,1.09-1.13,1.44-.32.32-.62.55-.88.68-.05.02-.09.04-.13.06.03-.22.11-.62.35-1.27.01-.03.02-.07.03-.1,0-.02.04-.14.19-.57.12-.34.26-.74.43-1.2.16-.46.34-.97.53-1.53.19-.56.38-1.12.57-1.69.45-1.28.96-2.76,1.5-4.38.1-.29.06-.6-.1-.85-.61-.97-1.43-1.7-2.42-2.17-.97-.46-2.24-.69-3.86-.69h0Zm-6.13,14.64s-.02-.08-.03-.14c-.09-.55-.06-1.29.08-2.18.15-.94.43-1.98.83-3.09.4-1.11.88-2.15,1.44-3.09.54-.91,1.14-1.68,1.79-2.27.53-.49,1.04-.73,1.57-.73.02,0,.03,0,.05,0l-1.88,5.28c-.46,1.24-.95,2.36-1.45,3.33-.21.41-.43.81-.68,1.19-.24.38-.49.71-.74,1-.22.25-.44.44-.66.57-.11.07-.21.11-.31.13h0Z"/>
    </g>
    <g>
      <path class="cls-1" d="m47.86,29.31c-.07,0-.14-.01-.2-.04-1.36,0-2.34-.54-2.9-1.58-.54-1-.53-2.32.03-3.92l4.02-11.61c.07-.2.26-.34.47-.34h.45c.55,0,1.05.13,1.51.39.44.25.81.58,1.09.97.28.39.47.83.56,1.31.49-.56.99-1.05,1.5-1.45.99-.79,2.07-1.18,3.21-1.18,2.35,0,3.78.86,4.24,2.57.42,1.59.05,3.81-1.14,6.79-.82,2.07-1.29,3.57-1.39,4.45-.08.71.04.86.04.86.31-.02.67-.13,1.08-.36.44-.25.89-.59,1.33-1.03.45-.45.89-.99,1.3-1.61.42-.63.79-1.3,1.1-2,.12-.32.32-.55.59-.68.16-.07.31-.11.46-.11.11,0,.21.02.31.05.17.06.41.22.54.58.1.26.08.57-.04.9-.28.76-.68,1.56-1.18,2.38-.51.83-1.11,1.59-1.8,2.26-.69.68-1.47,1.24-2.31,1.69-.87.46-1.8.69-2.77.69-.82,0-1.56-.2-2.19-.58-.65-.39-1.13-1-1.44-1.79-.3-.76-.4-1.69-.32-2.76.08-1.05.43-2.29,1.01-3.68.93-2.23,1.51-3.84,1.72-4.77.21-.95-.08-1.02-.19-1.05h-.02c-.26,0-.58.09-1.11.48-.57.42-1.23,1.19-1.95,2.29-.74,1.12-1.56,2.65-2.44,4.52-.88,1.88-1.79,4.23-2.7,6.99-.05.17-.19.29-.36.33-.04,0-.08.01-.11.01Z"/>
      <path class="cls-2" d="m49.73,12.33c.46,0,.88.11,1.26.32.38.22.69.49.93.83.24.34.41.72.49,1.16.08.43.04.87-.12,1.3l-.16.41c.81-1.22,1.67-2.19,2.58-2.9.91-.72,1.87-1.08,2.9-1.08,2.11,0,3.36.73,3.76,2.2.39,1.47.02,3.62-1.12,6.47-.84,2.12-1.31,3.64-1.42,4.58-.11.94.07,1.4.53,1.4.41,0,.85-.14,1.34-.41.49-.27.97-.64,1.44-1.12.47-.47.93-1.04,1.36-1.68.43-.65.81-1.34,1.14-2.07.08-.22.2-.36.34-.43.09-.04.18-.06.26-.06.05,0,.09,0,.13.02.11.04.19.14.24.28.05.15.04.33-.04.55-.27.73-.65,1.5-1.14,2.29-.49.8-1.06,1.52-1.73,2.17-.66.65-1.39,1.18-2.19,1.6-.8.42-1.64.64-2.54.64-.73,0-1.37-.17-1.93-.51-.56-.34-.97-.85-1.24-1.54-.27-.69-.37-1.54-.28-2.54.08-1,.41-2.18.97-3.53.95-2.27,1.53-3.89,1.75-4.85.22-.96.03-1.51-.57-1.64-.06-.01-.12-.02-.19-.02-.37,0-.82.2-1.35.59-.62.46-1.31,1.27-2.07,2.42-.76,1.15-1.58,2.68-2.48,4.59-.89,1.91-1.8,4.26-2.72,7.04l-.04-.04h-.12c-1.19,0-2.02-.44-2.5-1.32-.47-.88-.45-2.05.06-3.51l4.02-11.61h.45m0-1h-.45c-.43,0-.81.27-.94.67l-4.02,11.61c-.61,1.73-.61,3.18,0,4.31.44.82,1.37,1.8,3.25,1.84.09.03.19.04.29.04.08,0,.15,0,.23-.03.34-.08.61-.33.72-.66.9-2.74,1.8-5.07,2.68-6.93.87-1.85,1.68-3.36,2.41-4.46.69-1.05,1.3-1.77,1.83-2.16.28-.21.48-.31.6-.35,0,.09-.02.22-.06.4-.2.9-.77,2.48-1.69,4.69-.61,1.44-.96,2.73-1.05,3.84-.09,1.15.02,2.15.35,2.98.35.89.9,1.58,1.65,2.03.71.43,1.53.65,2.45.65,1.05,0,2.07-.25,3.01-.75.88-.47,1.69-1.06,2.42-1.77.72-.7,1.35-1.5,1.88-2.36.52-.85.93-1.68,1.22-2.47.17-.44.18-.86.04-1.24-.16-.43-.45-.74-.83-.88-.15-.06-.32-.09-.48-.09-.22,0-.45.05-.67.15-.27.12-.63.39-.86.95-.3.67-.65,1.3-1.05,1.9-.39.59-.81,1.11-1.23,1.53-.41.41-.82.73-1.22.95-.14.08-.28.14-.41.19,0-.06,0-.12.02-.2.07-.58.36-1.8,1.36-4.33,1.23-3.08,1.61-5.4,1.15-7.1-.36-1.34-1.47-2.94-4.72-2.94-1.25,0-2.44.43-3.52,1.29-.33.26-.66.56-.98.88-.1-.22-.23-.44-.37-.64-.33-.45-.75-.83-1.25-1.12-.53-.3-1.12-.46-1.76-.46h0Z"/>
    </g>
    <g>
      <path class="cls-1" d="m76.93,29.27c-1.12,0-2.02-.29-2.7-.85-.47-.39-.8-.94-.98-1.63-.48.5-1.01.96-1.59,1.4-.95.71-2.06,1.07-3.3,1.07-1.34,0-2.41-.47-3.17-1.4-.72-.89-1.15-2-1.27-3.32-.11-1.28.05-2.67.49-4.14.44-1.48,1.18-2.87,2.2-4.13s2.35-2.33,3.93-3.17c1.59-.85,3.5-1.28,5.65-1.28.28,0,.54,0,.76.02.09,0,.19.01.28.02l2.18-6.28c.49-1.47,1.17-2.54,2.02-3.18.86-.65,2.1-.97,3.69-.97h.97c.16,0,.31.08.41.21s.12.3.06.46c-1.41,4-2.65,7.6-3.73,10.79-.46,1.35-.92,2.7-1.38,4.02-.46,1.33-.87,2.52-1.24,3.59-.37,1.07-.67,1.95-.92,2.64-.23.66-.37,1.05-.39,1.15-.43,1.2-.42,1.68-.38,1.86.05.24.12.24.22.24.06,0,.25-.02.63-.21.3-.15.64-.41,1.01-.78.38-.38.78-.89,1.19-1.52.41-.63.8-1.42,1.17-2.36.13-.34.33-.58.6-.7.16-.07.32-.11.47-.11.1,0,.21.02.3.05.19.06.44.21.57.59.1.27.08.57-.04.9-.78,2.09-1.87,3.8-3.23,5.06-1.4,1.3-2.92,1.96-4.5,1.96Zm-1.26-15.02c-.66,0-1.29.28-1.92.84-.68.61-1.3,1.4-1.85,2.34-.56.96-1.05,2-1.44,3.1-.39,1.1-.67,2.14-.81,3.09-.14.93-.16,1.71-.06,2.3.09.56.29.56.4.56.23,0,.46-.07.69-.21.27-.16.54-.39.81-.68.27-.3.53-.65.77-1.04.25-.41.5-.83.74-1.26.5-.97.99-2.11,1.47-3.38l1.83-5.41s-.08-.08-.14-.14c-.04-.03-.16-.11-.49-.11Z"/>
      <path class="cls-2" d="m86.1,1.93h0m0,0c-1.41,4.01-2.65,7.61-3.73,10.8-.46,1.35-.92,2.69-1.38,4.02-.46,1.33-.87,2.52-1.24,3.59-.37,1.07-.67,1.95-.91,2.64-.24.69-.38,1.09-.41,1.2-.35.97-.48,1.67-.39,2.09.09.42.33.63.71.63.22,0,.5-.09.85-.26.35-.18.73-.47,1.14-.87.41-.41.83-.94,1.26-1.6.43-.66.84-1.48,1.22-2.46.08-.22.2-.36.34-.43.09-.04.18-.06.26-.06.05,0,.1,0,.14.02.12.04.21.14.26.28.05.15.04.33-.04.55-.76,2.03-1.79,3.65-3.11,4.87-1.31,1.22-2.7,1.83-4.16,1.83-1,0-1.79-.24-2.37-.73-.58-.49-.9-1.26-.95-2.31v-.08c-.62.79-1.37,1.5-2.23,2.15-.87.65-1.87.97-3,.97s-2.12-.41-2.78-1.22c-.66-.81-1.05-1.83-1.16-3.04-.11-1.22.05-2.54.47-3.96.42-1.42,1.12-2.74,2.11-3.96.99-1.22,2.25-2.23,3.78-3.04,1.53-.81,3.34-1.22,5.42-1.22.27,0,.51,0,.73.02.22.01.43.03.65.06l2.31-6.66c.46-1.38,1.08-2.36,1.85-2.94.77-.58,1.9-.87,3.39-.87h.97m-16.12,25.05c.32,0,.64-.09.95-.28.31-.19.62-.45.91-.77.3-.32.57-.7.83-1.12.26-.42.51-.85.75-1.28.51-1,1.02-2.15,1.5-3.45l1.91-5.64c-.05-.14-.17-.28-.34-.45-.18-.16-.45-.24-.83-.24-.79,0-1.54.32-2.25.97-.72.65-1.37,1.47-1.95,2.46-.58.99-1.08,2.05-1.48,3.19-.41,1.14-.68,2.2-.83,3.19-.15.99-.17,1.81-.06,2.46.11.65.41.97.89.97M86.1.93h-.98c-1.7,0-3.05.36-3.99,1.07-.93.7-1.67,1.86-2.19,3.42l-2.05,5.91c-.21-.01-.44-.02-.69-.02-2.24,0-4.22.45-5.89,1.33-1.64.87-3.02,1.98-4.08,3.3-1.07,1.31-1.84,2.76-2.29,4.3-.45,1.53-.62,2.99-.5,4.33.13,1.42.59,2.62,1.38,3.59.86,1.05,2.05,1.59,3.55,1.59,1.35,0,2.56-.4,3.6-1.17.38-.29.74-.59,1.08-.9.21.44.5.81.86,1.11.76.64,1.78.96,3.02.96,1.71,0,3.34-.7,4.84-2.09,1.42-1.32,2.55-3.09,3.36-5.25.17-.44.18-.86.04-1.24-.16-.44-.48-.76-.89-.89-.15-.05-.3-.07-.46-.07-.23,0-.45.05-.68.15-.27.13-.65.4-.87.99-.35.9-.73,1.66-1.12,2.26-.39.6-.77,1.09-1.13,1.44-.41.41-.7.6-.88.69-.05.02-.09.05-.13.06.02-.23.11-.63.34-1.29.01-.03.02-.07.03-.1.01-.04.07-.23.38-1.1.24-.69.55-1.57.92-2.65.37-1.07.78-2.26,1.24-3.59.46-1.33.92-2.67,1.38-4.02,1.08-3.18,2.33-6.79,3.71-10.73.05-.12.08-.25.08-.39,0-.55-.45-1-1-1h0Zm0,2h0,0Zm-16,23.04s-.02-.07-.03-.13c-.09-.54-.07-1.26.06-2.14.14-.92.4-1.93.79-3,.38-1.07.85-2.09,1.4-3.02.53-.9,1.12-1.64,1.76-2.22.53-.48,1.05-.72,1.58-.72,0,0,.01,0,.02,0l-1.69,5.01c-.46,1.22-.95,2.35-1.44,3.31-.22.39-.46.8-.71,1.21-.22.36-.46.69-.72.96-.23.25-.47.45-.7.59-.11.07-.21.11-.31.13h0Z"/>
    </g>
    <g>
      <path class="cls-1" d="m89.27,29.27c-.81,0-1.52-.16-2.1-.46-.61-.32-1.07-.83-1.36-1.5-.27-.64-.38-1.45-.32-2.4.06-.92.3-2.01.72-3.24l1.79-5.12c.14-.41.22-.84.24-1.27.01-.4-.07-.74-.24-1.04-.09-.16-.19-.31-.3-.44l-.13-.16c-.09.31-.2.67-.32,1.05l-.79,2.5c-.29.9-.59,1.8-.9,2.69-.31.9-.61,1.69-.88,2.38-.17.42-.37.71-.61.88-.2.15-.4.23-.6.23-.12,0-.23-.03-.33-.08-.25-.13-.42-.37-.49-.73-.06-.3-.02-.63.12-1.02.64-1.77,1.2-3.36,1.64-4.71.44-1.35.8-2.51,1.07-3.45.29-1.07.54-2.01.72-2.82.04-.16.15-.29.31-.35.06-.02.12-.03.18-.03.1,0,.2.03.29.09.73.52,1.44,1.02,2.12,1.5.6.48,1.18.97,1.78,1.49.62.54,1.13,1.09,1.51,1.64.53.77.84,1.52.92,2.22.08.7-.05,1.51-.37,2.41l-1.66,4.83c-.42,1.16-.41,1.64-.37,1.82.05.24.12.24.22.24.06,0,.25-.02.63-.21.3-.15.64-.41,1.01-.78.38-.38.79-.9,1.22-1.53.42-.63.82-1.42,1.19-2.36.12-.33.32-.57.57-.69.15-.08.31-.12.47-.12.1,0,.2.02.3.05.19.06.44.21.57.59.1.26.08.57-.04.9-.78,2.09-1.87,3.8-3.23,5.06-1.4,1.3-2.92,1.96-4.5,1.96Z"/>
      <path class="cls-2" d="m86.67,10.66c.73.51,1.43,1.01,2.11,1.5.57.46,1.15.95,1.75,1.46.59.51,1.07,1.03,1.42,1.54.49.7.76,1.37.83,1.99.07.62-.05,1.35-.34,2.19l-1.66,4.83c-.35.97-.48,1.67-.39,2.09.09.42.33.63.71.63.22,0,.5-.09.85-.26.35-.18.73-.47,1.14-.87.41-.41.83-.94,1.28-1.6.45-.66.86-1.48,1.24-2.46.08-.22.19-.36.32-.43.08-.04.17-.06.25-.06.05,0,.09,0,.14.02.12.04.21.14.26.28.05.15.04.33-.04.55-.76,2.03-1.79,3.65-3.11,4.87-1.31,1.22-2.7,1.83-4.16,1.83-.73,0-1.35-.14-1.87-.41-.51-.27-.89-.69-1.14-1.26-.24-.57-.34-1.29-.28-2.17.05-.88.28-1.91.69-3.11l1.79-5.11c.16-.46.25-.93.26-1.42.01-.49-.09-.92-.3-1.3-.11-.19-.22-.36-.34-.51-.12-.15-.24-.29-.34-.43l-.41-.41c-.14.49-.32,1.12-.57,1.89-.24.77-.51,1.6-.79,2.5-.28.89-.58,1.79-.89,2.68-.31.89-.6,1.68-.87,2.35-.14.32-.28.55-.45.67-.11.08-.21.13-.3.13-.04,0-.07,0-.11-.03-.11-.05-.18-.18-.22-.39-.04-.2,0-.45.1-.75.65-1.79,1.2-3.36,1.64-4.73.45-1.37.8-2.52,1.08-3.47.3-1.08.54-2.03.73-2.84m0-1c-.12,0-.24.02-.36.07-.31.12-.54.38-.62.71-.19.8-.43,1.74-.72,2.8-.27.93-.62,2.08-1.06,3.43-.44,1.35-.99,2.93-1.63,4.7-.17.48-.22.9-.14,1.29.13.65.48.95.76,1.08.17.09.36.13.55.13.31,0,.61-.11.9-.33.31-.23.56-.59.77-1.08.28-.7.58-1.51.89-2.41.32-.91.62-1.82.9-2.71.28-.88.54-1.7.78-2.46.02.12.03.24.03.38-.01.38-.08.76-.21,1.12l-1.79,5.12c-.44,1.28-.69,2.41-.74,3.37-.06,1.03.06,1.92.36,2.63.34.78.87,1.37,1.59,1.75.65.35,1.44.52,2.33.52,1.71,0,3.34-.7,4.84-2.09,1.42-1.32,2.55-3.09,3.36-5.25.17-.44.18-.86.04-1.24-.16-.44-.48-.76-.89-.89-.15-.05-.3-.07-.46-.07-.24,0-.47.06-.69.17-.37.18-.64.51-.81.97-.35.89-.73,1.65-1.13,2.25-.41.61-.8,1.1-1.16,1.45-.41.41-.7.6-.88.69-.05.02-.09.05-.13.06.02-.23.11-.63.34-1.29l1.67-4.84c.34-.97.48-1.85.39-2.63-.09-.79-.42-1.61-1-2.45-.4-.58-.93-1.16-1.59-1.73-.6-.52-1.2-1.02-1.77-1.48-.01-.01-.03-.02-.05-.04-.68-.49-1.39-.99-2.12-1.51-.17-.12-.37-.18-.58-.18h0Z"/>
    </g>
    <g>
      <path class="cls-1" d="m107.9,29.27c-1.15,0-2.07-.29-2.73-.88-.45-.39-.76-.93-.94-1.61-.48.5-1.02.97-1.6,1.41-.95.71-2.06,1.07-3.3,1.07-1.34,0-2.41-.47-3.17-1.4-.72-.89-1.15-2-1.27-3.32-.11-1.28.06-2.67.51-4.15.45-1.47,1.19-2.86,2.2-4.12,1.01-1.27,2.33-2.33,3.91-3.17,1.59-.85,3.51-1.28,5.69-1.28,1.53,0,2.75.21,3.64.64.91.43,1.65,1.1,2.22,1.99.08.13.1.28.05.43-.54,1.63-1.04,3.09-1.51,4.39-.19.56-.38,1.12-.57,1.68-.19.56-.37,1.07-.53,1.53-.16.46-.3.86-.43,1.2-.11.31-.18.52-.21.62-.43,1.2-.42,1.68-.38,1.86.05.24.12.24.18.24s.25-.02.66-.21c.31-.15.66-.41,1.02-.78s.78-.89,1.19-1.52c.41-.63.8-1.42,1.17-2.36.13-.34.33-.58.6-.7.16-.07.31-.11.46-.11.11,0,.21.02.31.06.16.06.39.2.54.54.12.28.12.59,0,.93-.78,2.09-1.87,3.8-3.23,5.06-1.4,1.3-2.92,1.96-4.5,1.96Zm-1.14-15.3c-.66,0-1.29.28-1.91.86-.68.63-1.31,1.43-1.88,2.38-.58.97-1.07,2.04-1.48,3.18-.41,1.14-.69,2.21-.85,3.18-.15.94-.18,1.73-.08,2.34.09.58.29.58.4.58.23,0,.46-.07.69-.21.27-.16.53-.39.78-.67.27-.3.53-.66.79-1.06.26-.4.49-.81.7-1.23.51-.99,1-2.13,1.48-3.4l2.03-5.69s-.08-.08-.14-.13c-.09-.08-.28-.12-.53-.12Z"/>
      <path class="cls-2" d="m107.21,12.33c1.46,0,2.6.2,3.43.59.83.39,1.5.99,2.01,1.81-.54,1.62-1.04,3.09-1.5,4.38-.19.57-.38,1.13-.57,1.68-.19.56-.37,1.06-.53,1.52-.16.46-.3.86-.43,1.2-.12.34-.2.56-.22.67-.35.97-.48,1.67-.39,2.09.09.42.32.63.67.63.22,0,.51-.09.87-.26.37-.18.75-.47,1.16-.87.41-.41.83-.94,1.26-1.6.43-.66.84-1.48,1.22-2.46.08-.22.2-.36.34-.43.09-.04.18-.06.26-.06.05,0,.09,0,.13.02.11.04.2.14.26.28.07.15.06.33-.02.55-.76,2.03-1.79,3.65-3.11,4.87-1.31,1.22-2.7,1.83-4.16,1.83-1.03,0-1.83-.25-2.4-.75-.57-.5-.88-1.29-.93-2.37-.62.79-1.37,1.5-2.23,2.15s-1.87.97-3,.97-2.12-.41-2.78-1.22c-.66-.81-1.05-1.83-1.16-3.04-.11-1.22.05-2.54.49-3.96.43-1.42,1.14-2.74,2.11-3.96.97-1.22,2.23-2.23,3.76-3.04,1.53-.81,3.35-1.22,5.46-1.22m-6.25,14.65c.32,0,.64-.09.95-.28.31-.19.61-.45.89-.77.28-.32.56-.7.83-1.12.27-.42.51-.85.73-1.28.51-1,1.01-2.15,1.5-3.45l2.11-5.93c-.05-.14-.18-.28-.37-.45-.19-.16-.47-.24-.85-.24-.79,0-1.54.33-2.25.99-.72.66-1.37,1.5-1.97,2.5-.6,1-1.1,2.09-1.52,3.27-.42,1.18-.71,2.27-.87,3.27-.16,1-.19,1.83-.08,2.5.11.66.41.99.89.99m6.25-15.65c-2.27,0-4.26.45-5.93,1.33-1.64.87-3.01,1.98-4.07,3.3-1.05,1.31-1.82,2.76-2.29,4.29-.47,1.54-.65,3-.53,4.34.13,1.42.59,2.62,1.38,3.59.86,1.05,2.05,1.58,3.55,1.58,1.35,0,2.56-.4,3.6-1.17.39-.29.75-.59,1.09-.91.2.43.48.79.81,1.08.75.66,1.78,1,3.06,1,1.71,0,3.34-.7,4.84-2.09,1.42-1.32,2.55-3.09,3.36-5.25.22-.58.12-1.03,0-1.31-.23-.5-.57-.72-.82-.81-.15-.06-.32-.09-.48-.09-.22,0-.45.05-.67.15-.27.13-.65.4-.87.99-.35.9-.73,1.66-1.12,2.26-.39.6-.77,1.09-1.13,1.44-.32.32-.62.55-.88.68-.05.02-.09.04-.13.06.03-.22.11-.62.35-1.27.01-.03.02-.07.03-.1,0-.02.04-.14.19-.57.12-.34.26-.74.43-1.2.16-.46.34-.97.53-1.53.19-.56.38-1.12.57-1.69.45-1.28.96-2.76,1.5-4.38.1-.29.06-.6-.1-.85-.61-.97-1.43-1.7-2.42-2.17-.97-.46-2.24-.69-3.86-.69h0Zm-6.13,14.64s-.02-.08-.03-.14c-.09-.55-.06-1.29.08-2.18.15-.94.43-1.98.83-3.09.4-1.11.88-2.15,1.44-3.09.54-.91,1.14-1.68,1.79-2.27.53-.49,1.04-.73,1.57-.73.02,0,.03,0,.05,0l-1.88,5.28c-.46,1.24-.95,2.36-1.45,3.33-.21.41-.43.81-.68,1.19-.24.38-.49.71-.74,1-.22.25-.44.44-.66.57-.11.07-.21.11-.31.13h0Z"/>
    </g>
  </g>
  <g>
    <g>
      <path class="cls-1" d="m155.63,31.04c-.55,0-1.1-.05-1.66-.16-1.05-.21-1.99-.65-2.79-1.33-.85-.7-1.46-1.58-1.83-2.61-.35-.99-.55-2.04-.58-3.12-.03-1.07.09-2.15.34-3.21.25-1.06.58-2.03.96-2.89.31-.65.7-1.29,1.15-1.92.41-.56.87-1.09,1.36-1.58,0-1.06.18-2.13.54-3.18.38-1.11.88-2.13,1.5-3.02,1.69-2.53,3.89-4.4,6.52-5.55,2.24-.98,4.69-1.48,7.29-1.48.44,0,.88.01,1.33.04.81.06,1.74.2,2.76.44,1.03.24,2.04.59,2.99,1.05.97.47,1.83,1.08,2.57,1.82.77.77,1.27,1.72,1.48,2.82.21,1.05.16,2.04-.14,2.93-.29.87-.74,1.67-1.33,2.38-.58.7-1.28,1.32-2.07,1.86-.59.4-1.21.77-1.84,1.1.33.44.62.91.86,1.4.32.67.59,1.36.82,2.08.22.71.4,1.45.54,2.21.13.74.28,1.47.44,2.19.11.52.22,1.06.33,1.62.1.51.26.99.49,1.44.21.42.49.77.85,1.05.33.26.83.4,1.48.42h0c.33,0,.51.15.61.28s.18.35.08.68c-.1.28-.29.56-.59.87-.27.27-.6.53-.99.76-.42.26-.86.41-1.32.44-.31.05-.65.08-.97.08-.85,0-1.61-.2-2.25-.6-.86-.54-1.55-1.33-2.05-2.36-.48-.99-.81-2.17-.96-3.51-.15-1.31-.17-2.72-.06-4.17.05-.69.07-1.42.06-2.17-.01-.57-.16-1.09-.45-1.56-.36.04-.72.07-1.06.07h-.23c-.41-.01-.84-.06-1.29-.15-.55,1.28-1.05,2.41-1.49,3.35-.48,1.02-.96,2.01-1.45,2.96-.43.87-.91,1.74-1.41,2.6-.52.89-1.14,1.7-1.84,2.43-.73.75-1.52,1.42-2.36,1.98-.87.58-1.85.96-2.92,1.13-.46.08-.93.12-1.4.12Zm-2.26-13.3c-.69.86-1.24,1.83-1.64,2.88-.49,1.27-.67,2.59-.54,3.92.1.91.4,1.75.91,2.49.47.69,1.16,1.09,2.1,1.21.2.03.38.04.56.04.68,0,1.26-.17,1.8-.53.71-.47,1.32-1.11,1.83-1.89.58-.87,1.08-1.78,1.48-2.73.42-.97.82-1.96,1.19-2.94.38-1,.75-2,1.11-3.02.37-1.02.79-2.03,1.26-2.99.38-.79.85-1.63,1.39-2.5.54-.88,1.16-1.69,1.85-2.41.69-.74,1.48-1.36,2.35-1.86.89-.51,1.89-.8,2.96-.86.11,0,.22-.01.34-.01.51,0,1,.09,1.45.26-.19-.36-.42-.7-.7-1.03-.58-.68-1.37-1.25-2.32-1.68-1.25-.54-2.6-.82-4.01-.82-.18,0-.36,0-.53.01-1.61.08-3.1.49-4.43,1.24-1.46.82-2.68,1.96-3.62,3.39-.79,1.19-1.31,2.5-1.57,3.89.38-.12.77-.21,1.16-.27.29-.04.57-.06.86-.06.41,0,.83.04,1.24.13.41.09.81.21,1.2.37.41.17.79.38,1.15.65.1.09.17.15.27.23.25.19.38.41.38.66,0,.33-.24.69-.76.69-.07,0-.14,0-.22-.02-.24-.04-.4-.06-.49-.06-.25-.02-.47-.02-.68-.02-1.42,0-2.83.35-4.17,1.06.12.66.34,1.3.65,1.92.37.73.83,1.39,1.36,1.98.11.14.22.25.33.35.26.23.26.49.23.61-.03.17-.15.39-.51.53-.18.07-.4.11-.66.11-.23,0-.42-.02-.59-.05-.94-.08-1.86-.49-2.67-1.21-.38-.32-.71-.7-.98-1.12-.11-.17-.22-.35-.31-.53Zm16.7-4.73c.7.09,1.37.3,2,.64.35-.24.66-.52.94-.84.59-.69.99-1.46,1.19-2.3.17-.74.2-1.48.08-2.21,0,0,0,0,0,0-1.09.58-1.99,1.35-2.67,2.27-.57.76-1.08,1.58-1.53,2.44Z"/>
      <path class="cls-2" d="m168.44,1.49c.43,0,.86.01,1.29.04.78.05,1.68.2,2.68.43,1,.23,1.96.57,2.88,1.01.92.45,1.73,1.02,2.44,1.73.7.7,1.15,1.56,1.34,2.56.19.97.15,1.87-.12,2.68-.27.81-.68,1.55-1.24,2.21-.56.66-1.21,1.25-1.97,1.77-.76.51-1.54.96-2.35,1.34.49.54.89,1.14,1.2,1.79.31.65.57,1.32.79,2.01.22.69.39,1.41.53,2.15.14.74.28,1.48.45,2.21.11.51.22,1.05.32,1.6.11.56.28,1.08.53,1.56.24.49.57.89.99,1.22.42.32,1.01.5,1.77.53.22,0,.29.1.22.3-.07.2-.22.43-.47.67-.24.24-.54.47-.89.69-.35.22-.72.34-1.1.37-.33.05-.64.08-.93.08-.76,0-1.43-.18-1.99-.53-.78-.49-1.41-1.2-1.87-2.15-.46-.95-.76-2.06-.91-3.35-.15-1.29-.17-2.65-.06-4.08.05-.7.07-1.44.06-2.21-.01-.77-.25-1.47-.71-2.09-.44.07-.88.1-1.31.1-.07,0-.14,0-.22,0-.5-.01-1.04-.09-1.6-.22-.62,1.46-1.17,2.7-1.64,3.71-.47,1.01-.95,2-1.44,2.94-.43.87-.9,1.73-1.4,2.58-.5.85-1.09,1.63-1.77,2.33-.7.73-1.46,1.37-2.27,1.91-.81.54-1.72.89-2.72,1.06-.44.07-.88.11-1.32.11-.52,0-1.04-.05-1.56-.15-.97-.19-1.83-.6-2.56-1.22-.79-.65-1.35-1.45-1.69-2.4-.34-.95-.52-1.93-.55-2.96-.03-1.03.08-2.06.32-3.09.24-1.03.55-1.96.93-2.8.3-.62.66-1.23,1.1-1.83.43-.59.92-1.15,1.46-1.66-.03-1.08.14-2.16.51-3.23.37-1.07.85-2.04,1.44-2.9,1.65-2.46,3.76-4.26,6.31-5.38,2.19-.96,4.55-1.44,7.09-1.44m-12.47,11.08c.6-.27,1.21-.45,1.85-.55.26-.04.53-.06.79-.06.38,0,.76.04,1.14.12.38.08.75.2,1.12.34.37.15.71.34,1.04.59.05.05.14.13.26.22.12.1.18.18.18.26,0,.13-.09.19-.26.19-.04,0-.09,0-.15-.01-.27-.04-.46-.06-.57-.06-.23-.02-.45-.02-.68-.02-1.63,0-3.2.43-4.72,1.28.11.84.36,1.64.75,2.42.39.77.87,1.47,1.44,2.09.11.14.23.26.37.39.13.12.09.22-.12.3-.14.05-.3.08-.49.08s-.35-.01-.49-.04c-.89-.08-1.7-.45-2.44-1.1-.35-.3-.65-.64-.89-1.01-.24-.38-.45-.77-.61-1.18-.97,1.06-1.72,2.26-2.23,3.61-.52,1.35-.7,2.73-.57,4.14.11,1,.44,1.91.99,2.72.55.81,1.37,1.29,2.46,1.42.21.03.42.04.63.04.77,0,1.46-.2,2.07-.61.77-.51,1.43-1.19,1.97-2.03.6-.89,1.1-1.83,1.52-2.8.42-.97.82-1.96,1.2-2.96.38-1,.75-2.01,1.12-3.02.37-1.01.78-2,1.24-2.94.38-.78.83-1.6,1.36-2.46.53-.85,1.12-1.63,1.79-2.33s1.41-1.29,2.23-1.77,1.74-.74,2.74-.79c.1,0,.21-.01.31-.01.61,0,1.17.14,1.68.42.19.11.2.24.04.41-1.16.62-2.11,1.43-2.84,2.42-.73.99-1.37,2.05-1.91,3.19,1,0,1.93.26,2.8.77.49-.3.92-.66,1.3-1.1.65-.76,1.08-1.6,1.3-2.52.22-.92.22-1.83.02-2.72-.2-.89-.62-1.71-1.26-2.46-.64-.74-1.47-1.35-2.5-1.81-1.32-.58-2.73-.87-4.21-.87-.19,0-.37,0-.56.01-1.69.08-3.24.51-4.65,1.3-1.54.87-2.81,2.05-3.8,3.55-.99,1.5-1.58,3.15-1.77,4.93m13.18,2.5c.06,0,.13,0,.2,0,.34-.01.57-.05.71-.1-.05-.08-.23-.17-.53-.26-.3-.09-.54-.16-.73-.18l-.2.49c.13.04.31.07.56.07m-.71-14.58c-2.66,0-5.18.51-7.49,1.53-2.72,1.2-4.99,3.13-6.74,5.74-.64.93-1.16,1.99-1.56,3.14-.35,1.03-.54,2.08-.56,3.13-.46.47-.89.97-1.27,1.49-.47.65-.87,1.31-1.19,1.98-.41.91-.75,1.91-1,3-.26,1.11-.38,2.23-.35,3.34.03,1.13.23,2.23.61,3.27.4,1.11,1.07,2.07,1.99,2.83.85.72,1.86,1.21,3,1.43.58.11,1.17.17,1.75.17.5,0,1-.04,1.49-.13,1.13-.18,2.18-.59,3.11-1.21.87-.58,1.69-1.27,2.44-2.05.73-.75,1.37-1.6,1.91-2.52.51-.87.99-1.76,1.43-2.64.48-.94.97-1.94,1.45-2.97.39-.85.84-1.85,1.34-3,.34.05.66.08.98.09.08,0,.16,0,.24,0,.26,0,.52-.01.78-.03.15.32.22.67.23,1.04.01.73,0,1.45-.06,2.12-.11,1.49-.09,2.93.06,4.27.16,1.39.5,2.63,1.01,3.67.54,1.11,1.3,1.98,2.24,2.56.72.45,1.57.68,2.52.68.34,0,.69-.03,1.05-.09.52-.05,1.03-.22,1.5-.51.42-.26.78-.54,1.08-.83.36-.36.59-.71.71-1.06.18-.56-.01-.95-.14-1.13-.13-.18-.44-.49-1.03-.49-.5-.02-.91-.13-1.15-.32-.3-.23-.53-.52-.71-.87-.2-.41-.35-.85-.44-1.31-.11-.56-.22-1.1-.33-1.62-.16-.73-.31-1.46-.44-2.19-.14-.78-.33-1.55-.56-2.27-.23-.73-.51-1.45-.84-2.14-.17-.35-.36-.69-.57-1.01.47-.26.94-.55,1.39-.86.83-.56,1.56-1.22,2.17-1.95.63-.76,1.11-1.61,1.42-2.54.32-.97.38-2.05.16-3.19-.23-1.19-.77-2.23-1.61-3.07-.78-.78-1.69-1.43-2.71-1.92-.98-.48-2.02-.84-3.09-1.09-1.05-.24-2-.39-2.83-.45-.46-.03-.92-.04-1.36-.04h0Zm-11.18,10.62c.28-1.03.72-2.01,1.32-2.92.89-1.36,2.05-2.45,3.45-3.23,1.26-.7,2.68-1.1,4.21-1.17.17,0,.34-.01.51-.01,1.34,0,2.62.26,3.81.78.86.38,1.56.89,2.1,1.49-.11,0-.22-.01-.33-.01-.13,0-.25,0-.38.01-1.13.06-2.21.37-3.16.92-.91.52-1.73,1.17-2.46,1.95-.71.75-1.35,1.59-1.91,2.49-.4.64-.76,1.27-1.07,1.87-.05-.25-.19-.56-.55-.84-.07-.06-.13-.1-.17-.14-.03-.03-.08-.07-.11-.1-.39-.29-.81-.53-1.26-.71-.42-.17-.85-.3-1.28-.4-.45-.09-.9-.14-1.35-.14-.31,0-.63.02-.94.07-.14.02-.28.05-.41.07h0Zm13.58,1.54c.35-.62.74-1.21,1.16-1.78.5-.67,1.12-1.25,1.85-1.74,0,.42-.04.84-.14,1.26-.18.77-.54,1.45-1.08,2.09-.18.21-.39.41-.61.58-.38-.18-.77-.32-1.18-.42h0Zm-8.75,2.05c.24,0,.45-.05.62-.14-.36.79-.7,1.61-1,2.44-.36,1.01-.73,2.01-1.11,3.01-.37.98-.77,1.97-1.18,2.92-.39.92-.88,1.8-1.44,2.64-.47.73-1.04,1.32-1.69,1.75-.45.3-.94.44-1.52.44-.16,0-.33-.01-.5-.03-.81-.1-1.37-.42-1.76-.99-.47-.68-.74-1.42-.83-2.26-.12-1.24.05-2.48.51-3.68.29-.77.67-1.49,1.13-2.16.28.42.63.81,1.03,1.14.86.76,1.85,1.21,2.94,1.32.19.03.39.05.63.05.32,0,.61-.05.86-.15.59-.22.76-.65.81-.89.08-.39-.07-.79-.39-1.08-.1-.09-.18-.18-.25-.27-.01-.02-.03-.03-.04-.05-.51-.55-.94-1.18-1.29-1.87-.23-.46-.41-.93-.53-1.41,1.17-.55,2.38-.83,3.6-.83.2,0,.4,0,.61.02.02,0,.05,0,.07,0,0,0,.1,0,.42.05.11.02.21.02.29.02h0Z"/>
    </g>
    <g>
      <path class="cls-1" d="m185.5,29.46c-.27,0-.55-.01-.83-.03-1.85-.12-3.27-.69-4.22-1.7-.94-.99-1.5-2.2-1.67-3.59-.17-1.35,0-2.81.53-4.33.52-1.5,1.3-2.88,2.32-4.11,1.03-1.24,2.31-2.26,3.81-3.03,1.29-.66,2.71-1,4.21-1,.27,0,.55.01.83.03,1.88.15,3.31.72,4.28,1.71.95.98,1.52,2.19,1.68,3.58.16,1.36-.03,2.81-.55,4.32-.52,1.5-1.31,2.88-2.34,4.12-1.04,1.24-2.33,2.25-3.83,3.03-1.29.66-2.71,1-4.21,1Zm3.22-15.54c-.59.04-1.13.37-1.63,1.01-.56.7-1.04,1.57-1.42,2.6-.39,1.05-.69,2.18-.89,3.38-.2,1.18-.26,2.29-.18,3.29.08.96.28,1.76.61,2.35.25.45.58.66,1.04.66h.12c.58-.07,1.12-.42,1.64-1.06.56-.7,1.04-1.57,1.42-2.58.39-1.03.69-2.16.89-3.35.2-1.19.26-2.3.2-3.3-.06-.96-.27-1.75-.6-2.34-.26-.45-.6-.67-1.07-.67h-.13Z"/>
      <path class="cls-2" d="m189.65,12.17c.26,0,.52.01.79.03,1.76.14,3.08.66,3.96,1.56.88.91,1.39,2,1.54,3.29.15,1.29-.03,2.65-.53,4.1-.5,1.45-1.25,2.77-2.25,3.96-1,1.19-2.23,2.16-3.67,2.9-1.22.63-2.55.94-3.98.94-.26,0-.52-.01-.79-.03-1.73-.11-3.03-.62-3.9-1.54-.87-.92-1.38-2.02-1.54-3.31-.16-1.28,0-2.65.51-4.1.5-1.45,1.25-2.77,2.23-3.96.99-1.19,2.21-2.16,3.65-2.9,1.23-.63,2.55-.94,3.98-.94m-3.39,15.54c.05,0,.11,0,.16,0,.73-.08,1.39-.49,1.99-1.24.59-.74,1.1-1.65,1.5-2.72.41-1.07.71-2.22.91-3.45.2-1.23.27-2.37.2-3.41-.07-1.04-.29-1.89-.67-2.56-.35-.61-.85-.92-1.5-.92-.05,0-.11,0-.16,0-.73.05-1.39.45-1.99,1.2-.6.74-1.1,1.66-1.5,2.74-.41,1.08-.71,2.24-.91,3.47-.2,1.23-.26,2.37-.18,3.41.08,1.04.3,1.89.67,2.56.34.61.83.92,1.48.92m3.39-16.54h0c-1.58,0-3.08.36-4.44,1.06-1.56.8-2.9,1.86-3.97,3.15-1.06,1.28-1.87,2.71-2.41,4.27-.55,1.59-.74,3.12-.55,4.55.19,1.5.8,2.8,1.81,3.87,1.04,1.11,2.58,1.73,4.56,1.85.28.02.57.03.85.03,1.58,0,3.08-.36,4.44-1.06,1.56-.8,2.9-1.86,3.98-3.15,1.08-1.28,1.89-2.72,2.43-4.27.55-1.58.74-3.11.58-4.54-.17-1.5-.79-2.8-1.82-3.87-1.05-1.08-2.6-1.71-4.6-1.86-.29-.02-.58-.03-.87-.03h0Zm-3.39,15.54c-.24,0-.42-.07-.61-.4-.29-.53-.48-1.26-.55-2.15-.07-.96-.02-2.02.17-3.17.19-1.16.48-2.27.86-3.28.37-.98.82-1.81,1.35-2.47.42-.52.84-.79,1.28-.83.03,0,.06,0,.09,0,.24,0,.44.07.63.42.3.53.48,1.24.54,2.13.06.96,0,2.03-.19,3.18-.19,1.16-.48,2.25-.86,3.26-.37.96-.82,1.79-1.35,2.45-.43.53-.86.82-1.32.87,0,0,0,0,0,0,0,0-.03,0-.05,0h0Z"/>
    </g>
    <g>
      <path class="cls-1" d="m201.44,29.31c-.58,0-1.18-.08-1.77-.24-.6-.16-1.16-.4-1.66-.71-.5-.31-.95-.69-1.33-1.13-.41-.47-.68-1.01-.8-1.61-.02-.09-.01-.18.02-.27l3.57-10.33c.57-1.76,1.24-3.53,2-5.24.77-1.73,1.64-3.29,2.61-4.64.97-1.36,2.05-2.48,3.2-3.32,1.19-.87,2.48-1.32,3.83-1.32s2.32.44,2.79,1.3c.44.8.51,1.82.21,3.03-.28,1.13-.86,2.41-1.73,3.79-.7,1.13-1.55,2.25-2.54,3.35.6.15,1.14.4,1.59.75.68.53,1.18,1.24,1.47,2.1.28.84.36,1.81.25,2.91-.11,1.08-.44,2.23-.97,3.44-.72,1.67-1.59,3.04-2.57,4.1-.98,1.05-1.98,1.88-2.99,2.48-1.01.6-1.99,1.02-2.9,1.23-.91.21-1.65.32-2.27.32Zm-.99-2.77c.3.38.59.43.79.43.5-.02,1.01-.28,1.58-.75.61-.52,1.25-1.28,1.9-2.25.66-.98,1.27-2.18,1.82-3.54.76-1.88,1.16-3.44,1.2-4.62.02-.74-.13-1.05-.26-1.19-.07-.07-.19-.16-.48-.16-.31,0-.7.25-1.14.71-.51.55-1.07,1.36-1.66,2.42-.6,1.08-1.22,2.4-1.86,3.95-.62,1.51-1.26,3.19-1.89,5.01Zm10.24-23.9c-.27,0-.61.23-.98.66-.45.52-.93,1.3-1.44,2.3-.52,1.02-1.06,2.27-1.62,3.71-.42,1.08-.85,2.26-1.28,3.54.27-.3.54-.61.79-.93.71-.89,1.37-1.79,1.94-2.69.57-.9,1.06-1.79,1.47-2.67.41-.87.71-1.64.91-2.29.18-.62.27-1.11.24-1.47,0-.14-.04-.19-.04-.19v.02Z"/>
      <path class="cls-2" d="m211.1,1c1.19,0,1.98.35,2.35,1.04.38.69.43,1.58.16,2.67-.27,1.09-.83,2.3-1.66,3.65-.84,1.34-1.88,2.67-3.13,3.97.92.05,1.69.32,2.29.79s1.04,1.1,1.3,1.87.33,1.67.22,2.7c-.11,1.03-.42,2.12-.93,3.29-.7,1.62-1.53,2.94-2.48,3.96-.95,1.01-1.91,1.81-2.88,2.4-.97.58-1.89.97-2.76,1.18s-1.58.3-2.15.3-1.09-.07-1.64-.22c-.56-.15-1.06-.37-1.52-.65-.46-.28-.87-.63-1.22-1.04-.35-.41-.58-.87-.69-1.38l3.57-10.33c.57-1.76,1.23-3.5,1.99-5.2.76-1.71,1.61-3.22,2.56-4.55.95-1.33,1.98-2.4,3.08-3.21,1.11-.81,2.29-1.22,3.53-1.22m-6.9,13.68c.84-.73,1.62-1.55,2.35-2.46.73-.91,1.39-1.82,1.97-2.74.58-.92,1.08-1.83,1.5-2.72s.73-1.68.93-2.35c.2-.68.29-1.22.26-1.64-.03-.42-.2-.63-.53-.63-.43,0-.89.28-1.36.83-.47.56-.97,1.35-1.5,2.4-.53,1.04-1.08,2.29-1.64,3.76-.57,1.46-1.15,3.1-1.75,4.91-.05.24-.14.46-.24.65m-2.96,12.79s.05,0,.07,0c.57-.03,1.18-.32,1.83-.87.65-.55,1.31-1.34,1.99-2.35.68-1.01,1.3-2.23,1.87-3.63.78-1.95,1.2-3.55,1.24-4.79.04-1.24-.37-1.87-1.24-1.87-.46,0-.96.29-1.5.87-.54.58-1.12,1.42-1.73,2.52s-1.24,2.43-1.89,4c-.65,1.57-1.31,3.33-1.99,5.28.36.57.81.85,1.35.85M211.1,0c-1.46,0-2.84.48-4.12,1.41-1.19.87-2.3,2.03-3.31,3.44-.98,1.38-1.88,2.97-2.66,4.73-.77,1.73-1.45,3.51-2.03,5.3l-3.57,10.31c-.06.17-.07.36-.03.53.14.68.45,1.3.91,1.83.42.48.9.9,1.45,1.23.54.33,1.14.59,1.79.77.63.17,1.28.26,1.9.26s1.43-.11,2.38-.33c.97-.23,1.99-.66,3.05-1.29,1.05-.63,2.09-1.49,3.1-2.57,1.02-1.09,1.92-2.52,2.66-4.24.55-1.25.89-2.45,1.01-3.58.12-1.17.03-2.22-.27-3.12-.32-.96-.87-1.75-1.63-2.34-.31-.24-.65-.44-1.03-.6.8-.94,1.5-1.89,2.09-2.85.89-1.43,1.49-2.75,1.79-3.93.33-1.33.25-2.47-.26-3.39-.39-.71-1.27-1.56-3.23-1.56h0Zm-4.24,10.17c.09-.24.18-.47.26-.69.55-1.42,1.09-2.66,1.6-3.67.49-.97.95-1.71,1.37-2.2.02-.02.03-.04.05-.06-.03.16-.08.35-.15.56-.19.63-.48,1.37-.88,2.22-.4.85-.89,1.73-1.44,2.61-.26.41-.53.82-.82,1.22h0Zm-5.83,16.23c.6-1.7,1.19-3.27,1.78-4.68.63-1.53,1.25-2.84,1.84-3.89.57-1.02,1.1-1.8,1.58-2.32.51-.55.76-.55.77-.55.08,0,.12.01.13.02h0s.13.17.11.82c-.04,1.12-.43,2.62-1.17,4.45-.54,1.33-1.14,2.5-1.77,3.45-.62.93-1.23,1.66-1.81,2.15-.47.4-.89.62-1.22.63h-.03s-.12,0-.21-.06h0Z"/>
    </g>
    <g>
      <path class="cls-1" d="m221,29.47c-2.08,0-3.75-.46-4.96-1.36-1.22-.9-2.04-2.06-2.44-3.43-.39-1.35-.41-2.81-.07-4.35.34-1.52.99-2.96,1.95-4.28.96-1.32,2.21-2.44,3.73-3.31,1.53-.88,3.31-1.32,5.28-1.32,1.48,0,2.63.28,3.43.84.83.58,1.32,1.32,1.47,2.21.14.85-.03,1.79-.51,2.77-.46.95-1.17,1.84-2.11,2.67-.93.81-2.1,1.52-3.49,2.11-1.24.53-2.64.87-4.17,1.01.06.43.15.85.27,1.24.16.51.39.97.7,1.35.31.38.69.68,1.13.9.44.22.98.33,1.6.33.54,0,1.12-.11,1.72-.32.61-.21,1.23-.54,1.84-.99.61-.45,1.21-1.01,1.78-1.69.56-.67,1.07-1.48,1.51-2.41.16-.32.36-.54.59-.66.16-.08.31-.12.47-.12.1,0,.2.02.3.05.28.09.48.32.57.63.07.25.04.54-.08.86-.46,1.08-1.04,2.07-1.74,2.96-.71.89-1.53,1.66-2.44,2.3-.92.64-1.92,1.14-2.99,1.49-1.07.35-2.21.52-3.36.52Zm2.92-15.83c-.62,0-1.19.21-1.74.64-.58.46-1.1,1.07-1.54,1.81-.45.76-.82,1.62-1.11,2.57-.22.74-.37,1.48-.43,2.22.61-.12,1.19-.34,1.73-.66.74-.43,1.39-.95,1.94-1.52.55-.57,1.01-1.19,1.37-1.84.35-.64.57-1.23.65-1.77.08-.48.04-.86-.12-1.13-.08-.14-.24-.32-.74-.32Z"/>
      <path class="cls-2" d="m224.49,11.92c1.38,0,2.43.25,3.15.75.72.5,1.14,1.13,1.26,1.88.12.76-.03,1.58-.47,2.47-.43.89-1.1,1.73-1.99,2.51-.89.78-2.01,1.46-3.35,2.02-1.34.57-2.85.9-4.53,1.01.05.65.17,1.26.35,1.84.18.58.44,1.09.79,1.52.35.43.78.78,1.3,1.03.51.26,1.12.38,1.83.38.59,0,1.22-.11,1.89-.34.66-.23,1.32-.58,1.97-1.06.65-.47,1.27-1.06,1.87-1.77.59-.7,1.12-1.54,1.58-2.52.11-.22.23-.36.37-.43.08-.04.17-.06.25-.06.05,0,.09,0,.14.02.12.04.2.14.24.28.04.15.02.33-.06.55-.43,1.03-.99,1.97-1.66,2.82-.68.85-1.45,1.59-2.33,2.2-.88.61-1.83,1.09-2.86,1.42-1.03.33-2.1.5-3.21.5-1.98,0-3.53-.42-4.67-1.26-1.14-.84-1.89-1.89-2.25-3.17-.37-1.27-.39-2.64-.06-4.1s.95-2.83,1.87-4.1c.92-1.27,2.11-2.33,3.57-3.17,1.46-.84,3.14-1.26,5.03-1.26m-5.93,9.54c.89-.08,1.73-.35,2.52-.81.78-.46,1.47-.99,2.05-1.6.58-.61,1.06-1.26,1.44-1.95.38-.69.61-1.33.71-1.93.09-.59.03-1.08-.18-1.46-.22-.38-.61-.57-1.18-.57-.73,0-1.41.25-2.05.75-.64.5-1.19,1.15-1.66,1.95-.47.8-.86,1.69-1.16,2.68-.3.99-.46,1.97-.49,2.94m5.93-10.54c-2.06,0-3.92.47-5.53,1.39-1.58.91-2.89,2.07-3.88,3.45-1,1.38-1.68,2.88-2.03,4.47-.36,1.62-.33,3.16.08,4.59.43,1.48,1.31,2.73,2.62,3.7,1.31.96,3.08,1.45,5.26,1.45,1.21,0,2.39-.18,3.52-.55,1.12-.36,2.17-.88,3.13-1.55.95-.67,1.81-1.47,2.54-2.4.73-.92,1.34-1.95,1.8-3.06.17-.45.2-.84.11-1.2-.13-.47-.46-.83-.89-.97-.15-.05-.3-.07-.46-.07-.24,0-.47.06-.69.17-.33.17-.61.46-.81.87-.43.91-.92,1.68-1.45,2.32-.54.64-1.11,1.18-1.69,1.6-.57.41-1.14.72-1.71.92-.55.19-1.08.29-1.56.29-.54,0-1.01-.09-1.38-.28-.39-.19-.71-.45-.97-.77-.27-.33-.47-.72-.61-1.18-.06-.21-.12-.43-.17-.66,1.37-.17,2.64-.5,3.78-.99,1.43-.61,2.65-1.34,3.62-2.19.99-.87,1.74-1.82,2.23-2.83.52-1.08.71-2.11.55-3.07-.17-1.03-.73-1.88-1.67-2.54-.9-.63-2.11-.93-3.72-.93h0Zm-4.81,9.28c.07-.46.18-.93.32-1.4.27-.91.63-1.73,1.06-2.46.41-.69.89-1.25,1.42-1.67.46-.36.93-.54,1.43-.54.14,0,.28.02.31.07.1.17.12.45.06.81-.08.48-.28,1.02-.6,1.6-.34.61-.77,1.2-1.29,1.74-.52.54-1.13,1.02-1.83,1.43-.29.17-.59.31-.89.42h0Z"/>
    </g>
    <g>
      <path class="cls-1" d="m236.18,29.27c-.81,0-1.52-.16-2.1-.46-.61-.32-1.07-.83-1.36-1.5-.27-.64-.38-1.45-.32-2.4.06-.92.3-2.01.72-3.24l1.79-5.12c.14-.41.22-.84.24-1.27.01-.4-.07-.74-.24-1.04-.09-.16-.19-.31-.3-.44-.04-.05-.09-.11-.13-.16-.09.31-.2.66-.32,1.05l-.79,2.5c-.29.9-.59,1.8-.9,2.69-.31.9-.61,1.69-.88,2.38-.17.42-.37.71-.61.88-.2.15-.4.23-.6.23-.12,0-.23-.03-.33-.08-.25-.13-.42-.37-.49-.73-.06-.3-.02-.63.12-1.02.64-1.78,1.2-3.36,1.64-4.71.44-1.36.8-2.51,1.07-3.45.29-1.07.54-2.01.72-2.82.04-.16.15-.29.31-.35.06-.02.12-.03.18-.03.1,0,.2.03.29.09.73.52,1.44,1.02,2.12,1.5.59.48,1.18.97,1.78,1.49.63.54,1.13,1.09,1.51,1.64.53.77.84,1.51.92,2.22.08.7-.05,1.51-.37,2.41l-1.66,4.83c-.42,1.16-.41,1.64-.37,1.82.05.24.12.24.22.24.06,0,.25-.02.63-.21.3-.15.64-.41,1.01-.78.38-.38.79-.9,1.22-1.53.42-.63.82-1.42,1.19-2.36.12-.33.31-.56.57-.69.16-.08.31-.12.47-.12.1,0,.2.02.3.05.18.06.44.21.57.59.1.27.08.57-.04.9-.78,2.09-1.87,3.8-3.23,5.06-1.4,1.3-2.92,1.96-4.5,1.96Z"/>
      <path class="cls-2" d="m233.59,10.66c.73.51,1.43,1.01,2.11,1.5.57.46,1.15.95,1.74,1.46.6.51,1.07,1.03,1.42,1.54.49.7.76,1.37.83,1.99.07.62-.05,1.35-.34,2.19l-1.66,4.83c-.35.97-.48,1.67-.39,2.09.09.42.33.63.71.63.22,0,.5-.09.85-.26.35-.18.73-.47,1.14-.87.41-.41.83-.94,1.28-1.6.45-.66.86-1.48,1.24-2.46.08-.22.19-.36.32-.43.08-.04.17-.06.25-.06.05,0,.09,0,.14.02.12.04.21.14.26.28.05.15.04.33-.04.55-.76,2.03-1.79,3.65-3.11,4.87-1.31,1.22-2.7,1.83-4.16,1.83-.73,0-1.35-.14-1.87-.41-.51-.27-.89-.69-1.14-1.26-.24-.57-.34-1.29-.28-2.17.05-.88.28-1.91.69-3.11l1.79-5.11c.16-.46.25-.93.26-1.42.01-.49-.09-.92-.3-1.3-.11-.19-.22-.36-.34-.51-.12-.15-.24-.29-.35-.43l-.41-.41c-.14.49-.32,1.12-.57,1.89-.24.77-.51,1.6-.79,2.5-.28.89-.58,1.79-.89,2.68-.31.89-.6,1.68-.87,2.35-.14.32-.28.55-.45.67-.11.08-.21.13-.3.13-.04,0-.07,0-.11-.03-.11-.05-.18-.18-.22-.39-.04-.2,0-.45.1-.75.65-1.79,1.2-3.36,1.64-4.73.45-1.37.8-2.52,1.08-3.47.3-1.08.54-2.03.73-2.84m0-1c-.12,0-.24.02-.36.07-.31.12-.54.38-.62.71-.19.8-.43,1.74-.72,2.8-.27.94-.63,2.09-1.06,3.43-.44,1.35-.99,2.93-1.63,4.7-.17.48-.22.9-.14,1.29.13.65.48.95.76,1.09.17.09.36.13.55.13.31,0,.61-.11.9-.33.31-.23.56-.59.77-1.08.28-.7.58-1.51.89-2.41.32-.91.62-1.82.9-2.71l.78-2.46c.02.12.03.24.03.38-.01.38-.08.76-.21,1.12l-1.79,5.12c-.44,1.28-.69,2.41-.74,3.37-.06,1.03.06,1.92.36,2.63.34.78.87,1.37,1.59,1.75.66.35,1.44.52,2.33.52,1.71,0,3.34-.7,4.84-2.09,1.42-1.32,2.55-3.09,3.36-5.25.17-.44.18-.86.05-1.24-.16-.44-.48-.76-.89-.9-.15-.05-.3-.07-.45-.07-.24,0-.47.06-.69.17-.37.18-.64.51-.81.97-.35.89-.73,1.65-1.13,2.25-.41.6-.8,1.09-1.16,1.45-.41.41-.7.6-.88.69-.05.02-.09.05-.13.06.02-.23.11-.63.34-1.29l1.67-4.84c.35-.98.48-1.85.39-2.63-.09-.79-.42-1.61-1-2.45-.4-.58-.93-1.16-1.59-1.73-.59-.51-1.18-1.01-1.77-1.48-.02-.01-.03-.02-.05-.04-.68-.49-1.39-.99-2.12-1.51-.17-.12-.37-.18-.58-.18h0Z"/>
    </g>
    <g>
      <path class="cls-1" d="m245.07,29.27c-.81,0-1.52-.16-2.12-.46-.63-.32-1.1-.83-1.39-1.51-.28-.65-.38-1.43-.3-2.41.07-.92.32-2.01.74-3.23.16-.51.35-1.09.57-1.73.22-.64.45-1.31.69-2.01.25-.71.5-1.43.77-2.18.19-.51.36-1.01.54-1.5h-1c-.17,0-.33-.09-.42-.23-.09-.14-.1-.32-.03-.48l.53-1.14c.08-.18.26-.29.45-.29h1.19l.25-.68c.3-.91.65-1.7,1.04-2.34.4-.67.89-1.2,1.46-1.6.57-.39,1.23-.67,1.96-.83.71-.16,1.55-.23,2.5-.23.16,0,.33.08.42.2.09.13.14.29.09.45-.17.52-.36,1.08-.58,1.68-.19.51-.41,1.11-.65,1.8-.17.47-.34.96-.52,1.48,0,0,1.9-.17,1.91-.17.17,0,.33.08.42.23.1.16.11.35.02.52l-.77,1.38c-.09.16-.26.26-.44.26h-1.92l-3.46,10.09c-.42,1.16-.41,1.64-.37,1.82.05.24.12.24.18.24s.26-.02.66-.21c.31-.15.66-.41,1.02-.78.38-.38.78-.89,1.19-1.52.41-.63.81-1.43,1.17-2.36.12-.33.32-.57.57-.69.16-.08.31-.12.47-.12.1,0,.2.02.3.05.18.06.42.2.58.55.12.27.12.59,0,.93-.78,2.09-1.87,3.8-3.23,5.06-1.4,1.3-2.92,1.96-4.5,1.96Z"/>
      <path class="cls-2" d="m252.54,6.93h0m0,0c-.16.51-.35,1.07-.57,1.66-.19.51-.41,1.12-.65,1.81-.24.69-.5,1.43-.77,2.21l2.64-.24-.77,1.38h-2.27l-3.57,10.43c-.35.97-.48,1.67-.39,2.09.09.42.32.63.67.63.22,0,.51-.09.87-.26.37-.18.75-.47,1.16-.87.41-.41.83-.94,1.26-1.6.43-.66.84-1.48,1.22-2.46.08-.22.19-.36.32-.43.08-.04.17-.06.25-.06.05,0,.09,0,.14.02.12.04.22.14.28.28.07.15.06.33-.02.55-.76,2.03-1.79,3.65-3.11,4.87-1.31,1.22-2.7,1.83-4.16,1.83-.73,0-1.36-.14-1.89-.41-.53-.27-.91-.69-1.16-1.26-.24-.57-.33-1.29-.26-2.17.07-.88.3-1.91.71-3.11.16-.51.35-1.09.57-1.73.22-.64.45-1.31.69-2.01.24-.7.5-1.43.77-2.17.27-.74.53-1.47.77-2.17h-1.7l.53-1.14h1.54l.37-1.01c.3-.89.63-1.64.99-2.25.37-.61.81-1.09,1.32-1.44.51-.35,1.11-.6,1.79-.75.68-.15,1.47-.22,2.39-.22h.04m.65,5.44h0m-.65-6.44h-.05c-.99,0-1.86.08-2.61.25-.8.18-1.52.48-2.14.9-.63.43-1.17,1.02-1.61,1.75-.4.67-.77,1.5-1.09,2.45l-.12.33h-.84c-.39,0-.74.23-.91.58l-.53,1.14c-.14.31-.12.67.06.96.18.29.5.46.84.46h.29c-.1.27-.2.55-.3.83-.27.75-.53,1.48-.78,2.19-.24.71-.48,1.38-.69,2.02-.22.64-.41,1.23-.58,1.75-.42,1.24-.68,2.37-.75,3.33-.08,1.05.03,1.92.34,2.64.34.79.88,1.38,1.62,1.75.67.34,1.46.52,2.34.52,1.71,0,3.34-.7,4.84-2.09,1.42-1.32,2.55-3.09,3.36-5.25.22-.58.12-1.03,0-1.31-.24-.52-.61-.73-.88-.82-.15-.05-.3-.07-.45-.07-.23,0-.47.06-.69.17-.37.18-.64.51-.82.97-.35.89-.73,1.66-1.12,2.26-.39.6-.77,1.09-1.13,1.44-.32.32-.62.55-.88.68-.05.02-.09.04-.13.06.03-.22.11-.62.35-1.27l3.35-9.77h1.56c.36,0,.7-.2.87-.51l.74-1.33c.1-.16.16-.34.16-.54,0-.55-.45-1-1-1h0s0,0,0,0c0,0-.02,0-.02,0-.03,0-.05,0-.08,0l-1.08.1c.09-.25.18-.5.26-.74.24-.68.46-1.28.64-1.79.21-.59.4-1.14.56-1.65.04-.11.07-.24.07-.37,0-.55-.45-1-1-1h0Zm0,2h0,0Z"/>
    </g>
    <g>
      <path class="cls-1" d="m257.52,29.46c-.27,0-.55-.01-.83-.03-1.85-.12-3.27-.69-4.22-1.7-.94-.99-1.5-2.2-1.67-3.59-.17-1.36,0-2.81.53-4.33.52-1.5,1.3-2.88,2.32-4.11,1.03-1.24,2.31-2.26,3.81-3.03,1.29-.66,2.71-1,4.21-1,.27,0,.55.01.83.03,1.88.15,3.32.72,4.28,1.71.95.98,1.52,2.19,1.68,3.58.16,1.35-.03,2.81-.55,4.32-.52,1.5-1.31,2.88-2.34,4.12-1.04,1.24-2.33,2.25-3.83,3.03-1.29.66-2.71,1-4.21,1Zm3.22-15.54c-.59.04-1.13.37-1.63,1.01-.56.7-1.04,1.58-1.42,2.6-.39,1.05-.69,2.18-.89,3.38-.2,1.18-.26,2.29-.18,3.29.08.97.28,1.76.61,2.35.25.45.58.66,1.04.66h.12c.58-.07,1.12-.42,1.64-1.06.56-.7,1.04-1.57,1.42-2.58.39-1.04.69-2.17.89-3.35.2-1.19.26-2.3.2-3.3-.06-.96-.27-1.75-.61-2.34-.26-.46-.6-.67-1.07-.67h-.13Z"/>
      <path class="cls-2" d="m261.66,12.17c.26,0,.52.01.79.03,1.76.14,3.08.66,3.96,1.56.88.91,1.39,2,1.54,3.29.15,1.29-.03,2.65-.53,4.1-.5,1.45-1.25,2.77-2.25,3.96-1,1.19-2.23,2.16-3.67,2.9-1.22.63-2.55.94-3.98.94-.26,0-.52-.01-.79-.03-1.73-.11-3.03-.62-3.9-1.54-.87-.92-1.38-2.02-1.54-3.31-.16-1.28,0-2.65.51-4.1.5-1.45,1.25-2.77,2.23-3.96.99-1.19,2.21-2.16,3.65-2.9,1.23-.63,2.55-.94,3.98-.94m-3.39,15.54c.05,0,.11,0,.16,0,.73-.08,1.39-.49,1.99-1.24.59-.74,1.1-1.65,1.5-2.72.41-1.07.71-2.22.91-3.45.2-1.23.27-2.37.2-3.41-.07-1.04-.29-1.89-.67-2.56-.35-.61-.85-.92-1.5-.92-.05,0-.11,0-.16,0-.73.05-1.39.45-1.99,1.2-.6.74-1.1,1.66-1.5,2.74-.41,1.08-.71,2.24-.91,3.47-.2,1.23-.26,2.37-.18,3.41.08,1.04.3,1.89.67,2.56.34.61.83.92,1.48.92m3.39-16.54h0c-1.58,0-3.08.36-4.44,1.06-1.56.8-2.9,1.86-3.97,3.15-1.06,1.28-1.87,2.71-2.41,4.27-.55,1.59-.74,3.12-.55,4.55.19,1.5.8,2.8,1.81,3.87,1.04,1.11,2.58,1.73,4.56,1.85.28.02.57.03.85.03,1.58,0,3.08-.36,4.44-1.06,1.56-.8,2.9-1.86,3.98-3.15,1.08-1.28,1.89-2.72,2.43-4.27.55-1.58.74-3.11.58-4.54-.17-1.5-.79-2.8-1.82-3.87-1.05-1.08-2.6-1.71-4.6-1.86-.29-.02-.58-.03-.87-.03h0Zm-3.39,15.54c-.24,0-.42-.07-.61-.4-.29-.53-.48-1.26-.55-2.15-.07-.96-.02-2.02.17-3.17.19-1.16.48-2.27.86-3.28.37-.98.82-1.81,1.35-2.47.42-.52.84-.79,1.28-.83.03,0,.06,0,.09,0,.24,0,.44.07.63.42.3.53.48,1.24.54,2.13.06.96,0,2.03-.19,3.18-.19,1.16-.48,2.25-.86,3.26-.37.96-.82,1.79-1.35,2.45-.43.53-.86.82-1.32.87,0,0,0,0,0,0,0,0-.03,0-.05,0h0Z"/>
    </g>
  </g>
</svg>