<?xml version="1.0" encoding="UTF-8"?>
<svg id="Capa_1" data-name="Capa 1" xmlns="http://www.w3.org/2000/svg" viewBox="0 0 203.82 57.12">
  <defs>
    <style>
      .cls-1, .cls-2 {
        stroke-width: 0px;
      }

      .cls-2 {
        fill: #fff;
      }
    </style>
  </defs>
  <g>
    <path class="cls-2" d="m36.05,56.87c-.16,0-.32-.04-.47-.11-.84-.42-1.6-1.02-2.19-1.76-.53-.62-.96-1.36-1.37-2.32-.31-.71-.56-1.51-.78-2.46-.2-.84-.34-1.67-.42-2.47-.17-1.49-.24-3.08-.21-4.86.01-.8.04-1.59.07-2.39.04-.79.1-1.59.16-2.38.15-1.76.3-3.3.47-4.69l.58-4.61c.19-1.49.38-3.03.43-4.49.03-.79.01-1.49-.06-2.08-.03-.29-.1-.59-.18-.86-.08-.24-.18-.4-.24-.47-.05-.05-.07-.07-.2-.09l-.18-.24.07.24c-.06.02-.13.04-.22.08-.15.08-.34.25-.56.48-.17.2-.36.46-.58.78-.64,1.02-1.22,2.29-1.82,3.99-.89,2.5-1.66,5.31-2.42,8.87-.64,3.01-1.17,6.08-1.59,9.13-.23,1.67-.4,3.17-.52,4.6-.07.77-.12,1.53-.15,2.29-.01.38-.02.75-.02,1.12,0,.19,0,.36.02.53,0,.06,0,.1.02.15.02.14.03.18.03.19.22.49.06,1.07-.39,1.35-.17.11-.37.17-.58.17-.33,0-.65-.16-.85-.42-.14-.19-.27-.36-.39-.53-.07-.12-.13-.23-.19-.34l-.11-.21c-.06-.13-.11-.24-.16-.35l-.04-.09c-.08.59-.51,1.04-1.04,1.04-.58,0-1.05-.55-1.05-1.22s.47-1.22,1.05-1.22c.25,0,.47.1.65.26-.16-.54-.26-1.09-.37-1.64-.04-.24-.08-.48-.12-.72.01.16,0,.31-.03.46-.08.43-.34.78-.71.95-.03.01-.06.02-.09.02-.14.05-.29.08-.44.08-.6,0-1.19-.42-1.5-1.06-.41-.85-.17-1.82.54-2.16.16-.08.34-.12.52-.12.61,0,1.2.42,1.5,1.07.07.14.12.29.15.44-.16-1.12-.25-2.18-.32-3.12-.18-2.7-.2-5.29-.21-8.17,0-.68,0-1.35.01-2.03,0-.67,0-1.34,0-2.01v-5.98c0-.66,0-1.3-.03-1.95-.04-1.5-.12-2.71-.26-3.7,0-.01,0-.1,0-.11-.07-.4.04-.84.31-1.2.26-.36.65-.59,1.09-.65.08-.01.16-.02.24-.02.71,0,1.35.46,1.57,1.14.46,1.42.65,2.76.78,4.34.05.71.09,1.4.11,2.09v.12c.01.65.02,1.29.02,1.94,0,1.2-.05,2.41-.11,3.57l-.22,4.55c-.05.99-.1,1.97-.15,2.96.27-2.01.59-4.01.94-5.96.51-2.75,1.17-6,2.19-9.23.47-1.46,1.03-3.02,1.91-4.55.25-.43.5-.78.77-1.12.36-.45.72-.79,1.15-1.07.29-.19.58-.33.87-.41.15-.05.32-.08.52-.11l.25-.02h.25c.69.01,1.43.29,1.93.74.54.47.84,1.03,1.04,1.46.22.53.35,1,.44,1.4.19.89.27,1.76.32,2.57.09,1.81.01,3.54-.06,4.85-.14,2.42-.4,4.82-.66,7.15-.08.72-.16,1.44-.23,2.17-.08.76-.16,1.52-.22,2.28-.07.76-.13,1.52-.18,2.28-.04.56-.06,1.12-.08,1.67l-.02.58c-.03.79-.02,1.57,0,2.22.03.85.09,1.54.18,2.16.1.73.24,1.43.42,2.06.41,1.42,1.08,2.49,1.98,3.17.02,0,.05.02.06.03.48.36.58,1.03.22,1.52-.23.3-.55.46-.89.46Zm-16.06-4.68s-.08.12-.08.24c0,.15.07.24.09.25,0-.01.07-.1.07-.25,0-.13-.05-.21-.08-.24Zm-1.54-3.92s-.07,0-.1.02c-.09.04-.13.13-.16.2-.07.19-.04.45.07.68.16.33.43.51.62.51h0s.08,0,.11-.02c.12-.05.16-.19.18-.27.04-.18,0-.39-.09-.61-.16-.33-.43-.5-.62-.5Zm-5.41-.66c-.49,0-.99-.15-1.41-.41-.44-.27-.81-.67-1.07-1.14-.28-.55-.39-1.1-.32-1.63.06-.61.46-1.24,1-1.56.07-.05.18-.1.28-.15l.1-.05s.09-.03.1-.04c.11-.04.23-.08.34-.1.11-.03.24-.05.38-.06.13-.01.26-.02.37-.02.23,0,.42.02.63.04.26.02.46.04.68.07.27.04.54.08.8.13.51.09,1,.17,1.45.17.34,0,.67-.05,1-.14.33-.09.66-.22,1-.37.04-.04.16-.09.27-.09.08,0,.17.02.23.07.1.05.19.16.22.29.03.1.02.2-.01.29,0,.04-.01.08-.03.12-.43.65-.94,1.28-1.54,1.93-.63.66-1.25,1.19-1.9,1.62-.39.25-.75.46-1.11.63l-.2.09c-.13.06-.27.12-.42.17-.21.07-.46.12-.73.14,0,0-.11,0-.11,0Zm-.17-3.51c-.35.02-.59.08-.73.18-.08.05-.13.1-.18.17-.04.06-.07.14-.08.23-.03.21,0,.48.1.72.16.42.57.95,1.18,1.02.06,0,.11.01.16.01h0c.25,0,.52-.08.77-.17.32-.12.66-.27,1-.47.63-.36,1.22-.84,1.76-1.42.08-.09.17-.18.25-.27-.22.06-.43.1-.64.12-.23.03-.45.04-.68.04s-.44,0-.65-.03l-1.19-.1c-.17-.02-.34-.03-.51-.04h-.42s-.1,0-.14,0Zm-8.09-2.55c-.51,0-1.02-.08-1.51-.25-1.4-.47-2.5-1.62-2.88-2.99-.21-.74-.18-1.55.08-2.27.12-.33.29-.66.54-1,.25-.32.48-.55.75-.78.58-.48,1.32-.78,2.03-.83.12-.01.24-.02.35-.02.52,0,1.05.09,1.63.29.51.17,1.03.4,1.66.75.49.27.97.57,1.48.91.49.33.96.66,1.44,1,.44.31.89.62,1.33.92.88.59,1.82,1.2,2.82,1.67.54.25,1.02.43,1.47.53.36.09.72.14,1.05.14.13,0,.27,0,.39-.02h.01c.44,0,.74.27.79.63.02.19-.03.38-.15.53-.12.15-.29.24-.48.26,0,0-.11,0-.11,0-.6-.02-1.21-.13-1.85-.35-.61-.21-1.17-.47-1.63-.7-1.03-.54-1.98-1.14-2.94-1.75l-.53-.33c-.77-.49-1.53-.97-2.31-1.42-.92-.52-1.9-1.04-2.87-1.26-.3-.07-.58-.1-.83-.1-.17,0-.34.02-.48.05-.36.07-.66.25-.95.53,0,.02-.02.03-.03.04-.59.59-.79,1.29-.59,2.01.19.73.77,1.4,1.54,1.82.6.33,1.35.49,2.24.49.19,0,.38,0,.57-.02h0c.29,0,.5.2.52.45,0,.21-.09.37-.24.46-.55.32-1.16.51-1.83.59-.16.02-.33.03-.5.03Zm11.57-2.92s-.16-.03-.19-.04c-.22-.11-.33-.34-.27-.56,0,0,0,0,0-.01,0-.11-.01-.16-.08-.25l-.11-.15c-.1-.13-.21-.28-.3-.46-.16-.28-.25-.64-.25-.99,0-.15.02-.32.06-.49.06-.21.11-.36.18-.5.32-.6.81-.94,1.2-1.21l.19-.13c.31-.2.57-.37.71-.58.07-.2.25-.31.44-.31.03,0,.16.03.19.04.21.08.33.32.29.54-.06.26.04.59.15.94l.06.19c.15.52.3,1.04.23,1.64l-.04.22c-.03.12-.06.2-.1.28-.06.14-.13.28-.24.42-.18.25-.45.47-.76.62-.17.08-.34.14-.49.19-.07.02-.14.04-.2.07-.1.04-.15.09-.18.14,0,.01-.02.04-.04.09-.01.03-.05.09-.07.11-.05.1-.21.19-.39.19Zm.29-2.03c.02.07.06.15.1.23.02.05.05.11.07.16.04-.02.08-.04.12-.06.09-.04.17-.07.24-.12.14-.08.24-.17.32-.29.05-.06.09-.14.12-.21l.06-.21c.05-.32-.06-.76-.15-1.15v-.02s-.06.05-.09.08c-.31.28-.63.56-.76.81-.02.04-.03.07-.04.1,0,0-.04.09-.04.1,0,.05-.02.11-.02.15-.02.15,0,.24.04.37.01.02.02.04.02.05Zm-2.43-1.53c-.08,0-.16-.02-.24-.06h0s-.06-.03-.08-.05c-.02-.01-.06-.07-.07-.08h0c-.33-.44-.81-.84-1.5-1.27-.6-.37-1.22-.69-1.85-1.02l-.34-.18c-.53-.27-1.07-.55-1.61-.85-.34-.18-.66-.39-.99-.61-.4-.28-.7-.52-.97-.78-.41-.39-.68-.8-.83-1.26-.04-.09-.06-.2-.07-.3l-.02-.12c-.02-.15-.02-.27-.02-.39,0-.01,0-.12,0-.13.03-.17.05-.3.07-.42,0,0,.03-.09.03-.1.03-.11.07-.22.13-.33.23-.54.79-1.02,1.39-1.17.27-.08.56-.13.88-.13.2,0,.39.02.58.04.82.13,1.61.45,2.35.95.24.17.44.32.61.48.02-.12.05-.24.07-.36.14-.55.41-1.35,1.1-1.97.18-.16.37-.28.58-.36.19-.08.42-.13.69-.16h.02c.28,0,.5.03.69.09.06.02.12.04.18.06l.1.04s.11.06.12.06c.08.05.18.1.28.19.2.15.37.4.47.73l.03.14c.02.08.03.16.04.23v.32c0,.42-.09.76-.18,1.1-.14.52-.31,1.01-.47,1.49l-.12.36c-.2.59-.4,1.18-.54,1.76-.18.7-.27,1.24-.28,1.74-.04.54.05,1.1.25,1.66,0,.03.01.13.01.15,0,.22-.13.41-.33.47-.02,0-.12.02-.15.02Zm-6.72-6.76c.06.17.19.37.37.56.4.43.99.82,1.55,1.19.33.22.67.43,1.02.64.27.17.55.34.83.52.61.39,1.25.82,1.84,1.31.05.04.09.07.13.11-.02-.59.04-1.2.18-1.9.16-.8.4-1.57.64-2.32.15-.46.29-.91.41-1.36.06-.25.12-.53.13-.78,0-.1,0-.19-.01-.27-.03-.02-.04-.06-.06-.08,0,0,0,.01-.01.01-.01,0-.04,0-.06-.02-.14-.05-.22-.06-.31-.07h0c-.06,0-.14.01-.23.04-.05.02-.13.07-.23.14-.16.12-.32.31-.44.52-.14.22-.25.46-.35.74-.1.27-.16.53-.2.81-.05.33-.05.58-.01.77.04.28-.12.52-.38.58-.01,0-.03,0-.04,0-.22,0-.36-.08-.45-.2-.42-.49-1.05-.8-1.55-1.02-.62-.27-1.24-.44-1.79-.49-.07,0-.15,0-.23,0-.25,0-.38.03-.46.06-.17.06-.21.1-.25.19-.02.06-.04.11-.08.17h.01v.09s0,.05.01.07Zm9.47,4.82c-.2,0-.38-.12-.46-.32-.08-.2-.01-.43.16-.56.23-.18.36-.46.41-.9.05-.42.03-.9,0-1.36-.02-.49-.04-1,0-1.53.02-.33.08-.59.16-.84.12-.34.3-.61.51-.8.03-.03.1-.05.16-.07-.11-.05-.2-.13-.25-.25,0-.02-.02-.06-.02-.07-.04-.11-.24-.27-.42-.41-.33-.25-.78-.59-.89-1.16-.11-.62.16-1.01.32-1.24.03-.04.1-.13.11-.17,0-.02-.03-.12-.03-.14-.02-.23.1-.43.31-.5.03-.01.13-.03.16-.03.21,0,.39.13.46.32.08.04.12.05.17.06.09.03.21.06.33.12.21.08.43.25.59.46.06.08.11.16.15.24.1.22.13.35.14.48.04.46-.1.82-.21,1.11,0,0-.05.13-.06.13-.09.21-.19.43-.18.55-.02.32-.19.5-.41.54.03.02.06.04.09.07.09.11.11.24.08.35,0,.03-.01.07-.03.1-.19.32-.19.74-.17,1.18.02.32.06.65.09.99l.05.45c.04.53.07,1.05-.02,1.62-.06.34-.17.63-.33.89-.2.32-.49.56-.8.67-.03.01-.14.03-.17.03Zm.33-8.44c.03.18.23.34.45.51.07-.24.13-.46.11-.61l-.04-.12c-.04-.06-.07-.1-.16-.15-.03-.02-.07-.04-.12-.06-.03-.01-.06-.03-.09-.04-.12.17-.18.27-.16.44,0,0,0,.02,0,.02Zm.16-3.41c-.08,0-.15-.02-.22-.05-.21-.1-.31-.33-.25-.56.05-.19.03-.47,0-.75,0-.04,0-.08,0-.12v-.08c-.02-.32-.04-.65,0-1.02.06-.45.37-1.03.92-1.24.17-.06.32-.09.44-.12l.11-.02.06.07c.01-.05.04-.11.07-.14.04-.1.21-.2.39-.2.08,0,.15.02.22.05.2.1.3.34.24.57,0,.03-.02.1-.04.16,0,0,0,0,.01,0,.02,0,.05.06.09.14.15.29.37.7.18,1.27-.17.52-.68.88-1.14,1.2-.25.18-.56.39-.63.52,0,.02-.02.05-.03.06-.09.17-.26.27-.44.27Zm1.16-2.81c-.08.03-.14.05-.18.07-.15.08-.22.18-.25.36-.04.19-.05.41-.06.65.28-.2.59-.44.66-.62.06-.18.02-.28-.1-.48-.03,0-.05.02-.07.02Z"/>
    <path class="cls-1" d="m18.98,17.3s.07,0,.11.03c.1.05.14.17.11.27v.02s-.02.09-.04.14c0,.08.04.17.12.32.13.25.32.59.16,1.08-.14.44-.61.77-1.05,1.08-.3.21-.62.43-.71.62,0,.02-.01.03-.02.05-.04.08-.13.13-.21.13-.04,0-.07,0-.11-.03-.1-.05-.15-.16-.12-.27v-.02c.07-.23.03-.57,0-.9h.02c-.02-.34-.05-.69,0-1.08.05-.39.32-.87.76-1.04.21-.08.4-.1.52-.13.13-.03.16-.02.24-.11,0,0,0-.02,0-.03.04-.08.13-.13.21-.13m-1.12,2.74s0,0-.01,0h.01c.09-.07.18-.13.27-.2.37-.26.78-.55.88-.84.1-.3,0-.49-.13-.71-.03-.05-.06-.11-.08-.17-.02,0-.04.02-.06.03-.2.08-.34.11-.44.17-.19.1-.32.26-.37.53-.06.27-.06.6-.07.94v.24m13.94-1.69c.59.01,1.28.25,1.76.68.49.42.77.92.98,1.38.2.47.32.91.42,1.35.19.87.26,1.71.31,2.53.08,1.64.03,3.24-.06,4.82-.18,3.16-.57,6.24-.89,9.3-.08.76-.16,1.53-.22,2.29-.07.76-.13,1.52-.18,2.28-.05.76-.07,1.51-.1,2.26s-.02,1.5,0,2.24c.03.74.08,1.47.18,2.19.1.72.24,1.42.43,2.09.39,1.34,1.04,2.54,2.11,3.33h.02c.37.28.44.8.17,1.17l-.02.03c-.16.22-.41.33-.66.33-.12,0-.24-.03-.36-.08-.81-.4-1.54-.99-2.1-1.69-.58-.69-1-1.47-1.34-2.26-.34-.79-.58-1.61-.77-2.42-.19-.81-.33-1.63-.41-2.44-.19-1.62-.24-3.24-.21-4.83,0-.8.04-1.59.07-2.39.04-.79.1-1.58.16-2.37.13-1.57.28-3.13.47-4.68l.58-4.61c.19-1.52.38-3.04.43-4.51.03-.73.02-1.46-.06-2.12-.04-.33-.11-.64-.19-.9-.09-.26-.2-.46-.29-.56s-.17-.15-.36-.17h-.11s-.06,0-.1,0c-.07.02-.16.05-.26.1-.2.11-.42.31-.63.54-.21.24-.41.52-.6.81-.75,1.2-1.34,2.61-1.85,4.04-1.02,2.87-1.78,5.88-2.43,8.9-.64,3.03-1.17,6.08-1.59,9.15-.21,1.53-.39,3.07-.52,4.61-.07.77-.12,1.54-.15,2.3,0,.38-.02.76-.02,1.13,0,.19.01.37.02.54,0,.09.02.17.03.25.01.08.03.15.04.17.17.37.06.82-.29,1.04-.14.09-.29.14-.45.14-.25,0-.49-.11-.65-.33-.13-.17-.26-.34-.38-.52-.1-.17-.19-.35-.29-.53-.09-.18-.15-.35-.23-.53-.03-.09-.07-.18-.1-.26l-.08-.26c-.24-.7-.38-1.4-.51-2.09-.25-1.39-.38-2.76-.48-4.13-.18-2.74-.2-5.45-.21-8.15,0-1.35.02-2.7.02-4.04v-5.98c0-.66,0-1.31-.03-1.96-.03-1.29-.1-2.58-.26-3.72v-.08c-.12-.77.41-1.49,1.18-1.6.07,0,.14-.01.2-.01.61,0,1.15.4,1.34.96.48,1.47.65,2.88.77,4.28.05.7.09,1.39.11,2.08.01.69.02,1.37.02,2.05,0,1.37-.07,2.72-.13,4.07-.07,1.35-.13,2.7-.2,4.04-.07,1.34-.14,2.68-.2,4.01-.07,1.33-.11,2.66-.13,3.99v.9c.08-.85.17-1.7.26-2.55.35-3.11.8-6.21,1.36-9.3.57-3.08,1.22-6.16,2.18-9.2.49-1.52,1.04-3.03,1.89-4.5.22-.37.46-.73.75-1.09.29-.36.63-.71,1.09-1.02.23-.15.5-.29.8-.38.15-.05.31-.08.48-.1.08,0,.17,0,.25-.02h.22m-14.59,4.7c.1,0,.19.06.22.15v.03c.05.09.08.1.19.14.1.04.26.07.44.15.18.07.36.21.49.38.07.09.11.18.16.27.04.1.07.21.08.32.04.43-.11.77-.22,1.05-.12.28-.24.54-.23.73v.06c-.01.12-.1.21-.22.22-.1,0-.19-.05-.23-.14,0-.01,0-.03-.01-.04-.06-.19-.28-.36-.51-.54-.33-.25-.7-.54-.79-1h0c-.09-.51.12-.82.28-1.05.11-.15.16-.23.15-.32-.01-.04-.02-.09-.03-.13v-.02c-.01-.11.04-.21.15-.25.03,0,.05-.01.08-.01m-.17,1.71v-.02c.05.29.33.5.61.72.08.06.15.12.23.18.02-.11.05-.21.08-.3.09-.3.16-.56.14-.76,0-.05-.02-.09-.03-.13-.02-.05-.04-.1-.07-.13-.05-.08-.12-.14-.22-.2-.1-.06-.25-.11-.42-.22-.04.06-.07.11-.11.17-.14.2-.26.38-.21.69m-2.93-.04c.21,0,.42.02.61.08.1.03.19.07.28.1.1.06.21.11.31.2.21.16.33.4.4.62.02.11.05.22.06.32v.29c-.01.38-.09.71-.17,1.04-.17.64-.39,1.24-.59,1.83-.2.59-.4,1.18-.55,1.78-.15.59-.27,1.19-.29,1.79-.04.6.06,1.19.26,1.75v.07c0,.1-.05.2-.15.23-.02,0-.05.01-.07.01-.04,0-.09-.01-.13-.03,0,0,0,0-.02-.01-.01,0-.02-.02-.03-.03,0,0-.02-.01-.02-.02-.41-.54-.97-.96-1.57-1.33-.6-.37-1.23-.7-1.87-1.03-.64-.33-1.29-.66-1.95-1.02-.33-.18-.65-.38-.97-.6-.32-.22-.64-.46-.94-.75-.3-.29-.6-.66-.77-1.16-.05-.12-.06-.26-.09-.39v-.02c-.02-.13-.01-.28-.01-.41.02-.13.04-.27.07-.4.04-.12.07-.24.14-.37.22-.51.74-.92,1.23-1.05.28-.09.56-.12.82-.12.19,0,.37.02.55.04.84.13,1.58.46,2.24.91.33.23.64.48.9.79.01.01.02.03.04.05.02-.29.06-.58.13-.86.17-.65.44-1.32,1.02-1.84.15-.13.32-.24.51-.32.19-.08.41-.12.62-.14m-1.92,4.5c-.08,0-.15-.05-.19-.1l-.02-.02c-.42-.49-1.03-.82-1.63-1.08-.61-.26-1.26-.45-1.86-.51-.08,0-.17,0-.25,0-.2,0-.4.02-.54.07-.21.07-.31.15-.39.31-.02.04-.03.1-.06.14-.02.05-.01.09-.03.14v-.02.13s0,.09.03.14c.06.19.21.42.42.64.42.45,1.01.84,1.6,1.23.59.39,1.22.76,1.84,1.16.62.4,1.24.81,1.82,1.29.21.17.41.36.6.56-.03-.17-.04-.35-.05-.52-.04-.67.04-1.33.17-1.97.25-1.28.73-2.49,1.04-3.66.07-.29.13-.58.14-.83.01-.13,0-.24-.02-.33-.03-.08-.05-.14-.1-.17-.02-.03-.06-.04-.09-.06-.06-.02-.11-.05-.17-.07-.11-.04-.22-.05-.32-.06-.1,0-.21.02-.31.05-.1.04-.2.1-.3.17-.19.15-.37.36-.51.6-.15.24-.27.5-.37.78-.1.28-.17.56-.21.86-.04.29-.06.59-.01.85.02.14-.06.26-.19.29-.01,0-.03,0-.04,0m5.8-2.23s.07.02.1.04c.03.04.03.09,0,.14h0c-.23.38-.23.85-.21,1.32.03.47.09.95.14,1.45.04.5.07,1.01-.02,1.55-.05.27-.14.54-.3.8-.16.25-.4.47-.67.57-.03.01-.06.02-.09.02-.09,0-.18-.06-.22-.16-.04-.1,0-.21.08-.27.33-.26.46-.63.51-1.07.05-.44.03-.92.01-1.4-.02-.49-.04-.99,0-1.5.02-.26.06-.52.15-.78.09-.25.23-.51.44-.69.02-.02.05-.02.07-.02m-.05,6.21s.06,0,.1.02c.1.04.16.16.14.26-.08.37.08.8.21,1.25.13.45.29.96.22,1.54-.01.07-.03.14-.04.22-.02.07-.05.14-.08.21-.06.13-.12.25-.21.37-.17.24-.42.43-.67.55-.25.12-.49.18-.67.25-.14.06-.23.13-.3.24-.02.04-.04.08-.06.13,0,.01-.01.02-.02.03-.04.07-.13.12-.21.12-.03,0-.06,0-.09-.02-.1-.05-.16-.16-.13-.27,0-.01,0-.03.01-.04.02-.19-.02-.3-.12-.44-.1-.15-.26-.33-.39-.58-.14-.25-.22-.56-.22-.87,0-.15.02-.3.05-.44.04-.15.09-.3.16-.44.29-.55.75-.86,1.13-1.12.39-.26.76-.47.96-.77,0,0,.01-.04.02-.06.04-.09.12-.14.21-.14m-1.27,4.16c.24-.14.46-.21.63-.31.17-.1.3-.22.4-.37.05-.07.1-.16.14-.25,0-.04.03-.08.04-.12l.03-.13c.06-.37-.04-.81-.15-1.27-.03-.15-.07-.31-.09-.48-.14.15-.27.28-.41.41-.35.31-.66.6-.81.88-.04.07-.06.15-.09.22-.02.09-.04.17-.04.25-.02.17,0,.31.07.49h.01c.06.19.18.39.27.66v.02m-12.52-3.69c.55,0,1.08.12,1.55.27.58.19,1.11.45,1.62.73.51.28.99.58,1.46.9.94.63,1.85,1.3,2.77,1.92.92.62,1.86,1.22,2.85,1.69.49.23,1,.43,1.52.55.37.09.74.15,1.1.15.14,0,.29,0,.43-.03.02,0,.04,0,.06,0,.24,0,.44.17.46.41.03.26-.15.49-.41.52h-.07c-.63-.02-1.22-.15-1.78-.34-.56-.19-1.08-.43-1.6-.69-1.02-.53-1.97-1.13-2.92-1.74-.95-.6-1.89-1.21-2.85-1.76-.96-.54-1.94-1.06-2.94-1.29-.3-.07-.6-.11-.88-.11-.19,0-.37.02-.54.06-.43.09-.79.31-1.1.63h0c-.66.67-.88,1.47-.65,2.27.21.8.84,1.53,1.66,1.97.67.37,1.48.52,2.36.52.19,0,.39,0,.59-.02,0,0,.01,0,.02,0,.12,0,.23.1.24.22,0,.1-.04.18-.12.23-.52.3-1.11.48-1.73.55-.15.02-.31.03-.47.03-.48,0-.96-.08-1.43-.24-1.24-.42-2.34-1.44-2.72-2.82-.19-.68-.17-1.44.07-2.12.12-.34.3-.65.51-.94.22-.28.44-.51.71-.73.52-.43,1.21-.73,1.89-.78.11-.01.23-.01.34-.01m14.5,8.86s.07,0,.1.03c.11.06.16.2.09.32,0,0,0,.01-.01.02h.02c-.46.7-.97,1.32-1.52,1.91-.56.59-1.17,1.13-1.85,1.58-.34.22-.7.43-1.08.61-.19.08-.37.18-.59.25-.21.07-.44.11-.68.13-.03,0-.06,0-.09,0-.44,0-.89-.13-1.28-.37-.41-.25-.75-.62-.98-1.05-.22-.43-.36-.94-.29-1.48.05-.54.41-1.1.88-1.38.11-.08.24-.13.36-.19.12-.04.25-.09.37-.11.12-.03.24-.05.36-.06.12-.01.24-.02.35-.02.24,0,.43.02.65.04.21.02.41.04.62.07.82.11,1.58.3,2.29.3.36,0,.72-.05,1.07-.15.35-.09.7-.24,1.05-.39.04-.04.1-.06.16-.06m-.77,1.03c-.06.03-.12.06-.19.09-.39.17-.82.3-1.26.35-.22.02-.44.03-.65.03s-.42-.01-.63-.02l-1.19-.1c-.19-.02-.38-.03-.57-.04-.13,0-.26,0-.38,0-.06,0-.12,0-.17,0-.33.02-.64.08-.84.22-.11.06-.18.15-.24.24s-.1.2-.12.33c-.04.25,0,.56.11.85.22.58.72,1.1,1.38,1.18.06,0,.13.01.19.01.27,0,.55-.08.85-.18.36-.13.71-.3,1.04-.49.67-.39,1.28-.89,1.82-1.46.3-.31.57-.65.83-1h.02m.57,4c.49,0,1,.35,1.28.92.16.34.22.72.15,1.06-.07.36-.28.64-.57.78h-.01c-.13.05-.27.08-.41.08-.49,0-1-.35-1.27-.92-.35-.73-.16-1.55.42-1.83.13-.06.27-.09.41-.09m.43,2.38c.08,0,.15-.02.22-.05.16-.07.27-.23.31-.45.05-.24,0-.51-.11-.76-.19-.39-.54-.65-.85-.65-.08,0-.15.02-.21.05-.34.16-.44.72-.2,1.21.18.39.53.65.84.65m1.11,1.53c.44,0,.8.43.8.97s-.36.97-.8.97-.8-.43-.8-.97.36-.97.8-.97m0,1.47c.18,0,.33-.23.33-.5s-.15-.5-.33-.5-.33.23-.33.5.15.5.33.5m-1.01-36.14h0c-.23,0-.44.1-.58.28-.03,0-.06.01-.1.02-.12.02-.29.06-.48.13-.65.25-1.01.91-1.08,1.44-.05.39-.03.73-.01,1.04-.01.05-.02.1-.01.15v.08c.03.23.06.51.02.63-.01.03-.02.07-.02.11-.05.32.1.63.39.78.1.05.22.08.33.08.27,0,.52-.15.65-.39,0-.02.03-.05.04-.09.07-.09.34-.28.51-.39.52-.37,1.08-.76,1.27-1.36.22-.67-.04-1.17-.18-1.44-.02-.04-.04-.07-.05-.1,0-.03.01-.07.02-.11.06-.32-.1-.63-.39-.78-.1-.05-.22-.08-.33-.08h0Zm-.57,2.2s0-.02,0-.04c.03-.15.07-.17.11-.2,0,0,.01,0,.02,0,0,.03,0,.05-.01.09-.01.04-.06.09-.13.15h0Zm13.39-1.15h-.22s-.04,0-.06,0c-.03,0-.06,0-.09,0-.05,0-.11,0-.16.01-.22.03-.41.06-.58.12-.3.09-.61.24-.92.44-.45.3-.83.66-1.21,1.13-.28.35-.53.71-.79,1.15-.9,1.55-1.46,3.13-1.94,4.6-1.03,3.25-1.69,6.5-2.2,9.26-.07.38-.14.77-.2,1.15,0-.05,0-.1,0-.15.03-.66.06-1.32.1-1.97l.02-.5c.05-1.17.11-2.38.11-3.59,0-.67,0-1.35-.02-2.03-.02-.66-.05-1.33-.11-2.14-.14-1.61-.32-2.96-.79-4.4-.26-.78-.99-1.31-1.81-1.31-.09,0-.18,0-.27.02-.5.07-.95.34-1.25.75-.3.4-.42.89-.36,1.38v.04s0,.05,0,.07c.1.7.17,1.52.21,2.48-.02-.13-.05-.26-.11-.39,0-.02-.02-.04-.03-.06l-.03-.06c-.05-.09-.1-.18-.17-.28-.18-.24-.44-.44-.7-.54-.11-.05-.24-.09-.34-.12-.02,0-.03,0-.05-.01-.13-.23-.37-.37-.64-.37-.08,0-.16.01-.23.04-.33.12-.52.43-.49.77,0,.02,0,.06,0,.08-.01.01-.02.03-.04.05-.18.25-.49.7-.37,1.4,0,.02,0,.03,0,.05.13.66.64,1.05.98,1.3.12.09.29.23.34.3,0,.03.02.06.03.09.02.04.04.08.07.12-.21.21-.37.48-.49.81-.1.28-.15.56-.18.91-.04.54-.02,1.06,0,1.56.02.47.04.92,0,1.32-.04.37-.14.59-.32.73-.26.19-.36.54-.23.85.11.28.38.47.69.47.02,0,.05,0,.07,0-.11.08-.23.16-.37.25l-.18.12c-.41.28-.95.65-1.29,1.3-.08.16-.15.34-.2.54-.05.21-.07.4-.07.57,0,.39.1.79.28,1.11.1.19.22.35.32.48.03.05.07.09.09.13.04.05.04.06.04.06h0s0,0,0,.01c-.09.33.08.69.39.84.11.05.21.07.31.07.25,0,.49-.13.63-.35.02-.04.04-.07.06-.12h0s.02-.04.03-.06c0,0,.03-.02.07-.04.04-.01.1-.03.17-.06.15-.05.33-.11.52-.2.35-.17.66-.42.86-.71.12-.15.19-.31.26-.45.04-.1.08-.19.11-.28,0-.02.01-.05.02-.08,0-.03,0-.06.02-.08,0-.04.02-.09.02-.13.08-.66-.08-1.23-.22-1.69l-.02-.06-.06-.19c-.1-.32-.19-.62-.14-.81.07-.35-.12-.7-.44-.83-.06-.02-.12-.04-.19-.05.03-.04.07-.09.1-.14.18-.3.3-.62.37-.98.1-.6.07-1.16.03-1.68l-.05-.45c-.04-.34-.07-.67-.09-.99-.02-.39-.02-.77.14-1.03.03-.06.06-.12.07-.18.03-.13.02-.26-.03-.38.15-.12.25-.3.27-.51,0-.01,0-.06,0-.07,0,0,0-.05,0-.06,0-.07.1-.29.16-.44l.03-.07.03-.07c.1-.24.22-.55.24-.94.01.27.02.54.03.83.03.65.03,1.28.03,1.95v5.98c0,.67,0,1.34,0,2.01,0,.68-.01,1.35-.01,2.03.01,2.88.03,5.49.21,8.18.04.59.09,1.23.17,1.89-.35-.34-.8-.54-1.25-.54-.22,0-.44.05-.63.14-.83.4-1.12,1.52-.65,2.5.35.73,1.02,1.2,1.72,1.2.17,0,.34-.03.5-.09.05,0,.09-.02.13-.04.23-.11.43-.28.58-.49.05.24.1.48.15.72-.09-.02-.18-.03-.27-.03-.72,0-1.3.66-1.3,1.47s.58,1.47,1.3,1.47c.44,0,.83-.25,1.07-.63l.06.11c.06.11.12.23.19.34.14.21.28.39.41.57.25.33.64.52,1.05.52.26,0,.51-.08.72-.22.54-.34.75-1.06.47-1.66,0,0,0,0,0,0,0,0,0-.01,0-.03v-.1s-.03-.06-.03-.09c-.01-.19-.02-.36-.02-.54,0-.37,0-.74.02-1.12.03-.75.08-1.51.15-2.27.12-1.43.29-2.93.52-4.59.42-3.04.95-6.11,1.58-9.11.76-3.54,1.53-6.35,2.41-8.84.6-1.68,1.17-2.93,1.8-3.94.2-.3.38-.55.55-.75.25-.28.42-.39.49-.43.04-.02.08-.04.13-.05h.03s.04,0,.04,0c.02,0,.03,0,.03,0,0,.02.09.15.17.39.07.24.13.52.17.8.07.57.09,1.26.06,2.04-.05,1.45-.24,2.98-.43,4.47l-.58,4.61c-.17,1.4-.33,2.94-.47,4.7-.06.8-.12,1.59-.16,2.39,0,0,0,.05,0,.05-.03.79-.06,1.57-.07,2.36-.03,1.78.04,3.38.21,4.89.08.81.22,1.65.42,2.5.23.96.49,1.78.8,2.5.42.98.87,1.73,1.42,2.38.6.75,1.39,1.38,2.26,1.82.18.09.38.13.58.13.42,0,.81-.2,1.06-.53,0,0,.03-.04.04-.05.42-.57.3-1.41-.28-1.85-.03-.02-.06-.04-.09-.06-.84-.65-1.46-1.66-1.86-3.01-.17-.62-.31-1.3-.41-2.02-.09-.62-.14-1.3-.18-2.14-.02-.65-.03-1.42,0-2.2l.02-.57c.02-.56.04-1.11.08-1.68.05-.76.11-1.51.18-2.27.06-.76.14-1.53.22-2.28.08-.72.16-1.45.23-2.17.26-2.32.52-4.72.66-7.15.07-1.31.15-3.05.06-4.87-.06-.95-.13-1.76-.32-2.61-.09-.41-.22-.9-.45-1.44-.22-.47-.53-1.06-1.11-1.56-.53-.48-1.33-.79-2.08-.8,0,0,0,0,0,0h0Zm-14.27,6.78s0-.05.01-.07c.03.02.04.03.04.03,0,0,.01.02.02.03,0,0,0,.01,0,.02,0,.04,0,.08-.01.12-.03-.04-.05-.07-.06-.09,0,0,0-.02,0-.02h0Zm-.69,11.46s.01-.04.02-.06c0-.02.01-.04.02-.06.09-.16.27-.36.48-.55.05.25.08.49.05.68l-.02.1s-.01.04-.02.05c-.02.05-.05.1-.08.14-.07.1-.14.17-.25.23-.03.02-.07.04-.11.06-.02-.05-.04-.1-.06-.14,0-.03-.02-.06-.04-.08-.03-.08-.03-.13-.02-.2,0-.02,0-.04,0-.06,0-.02.01-.06.02-.1h0Zm2.05,13.35h0c-.07,0-.27-.11-.39-.36-.14-.28-.07-.51-.03-.55.06,0,.27.11.39.37.07.15.1.32.07.44-.01.07-.03.1-.03.1h0Zm-4.78-25.22s-.03,0-.05,0c-.3.03-.55.09-.77.18-.23.1-.45.23-.64.4-.72.65-1.01,1.47-1.17,2.05-.1-.07-.2-.15-.31-.23-.78-.53-1.6-.86-2.45-.99-.25-.03-.44-.04-.63-.04-.35,0-.66.05-.97.14-.65.17-1.27.71-1.54,1.33-.06.1-.1.24-.13.34l-.02.07c-.04.17-.06.31-.08.44,0,.02-.01.1-.01.12v.09c0,.11,0,.24.01.37,0,.03,0,.06.01.09,0,.03.01.07.02.11.02.1.04.23.1.36.16.46.45.91.88,1.33.36.34.72.61,1,.8.35.24.68.45,1.01.63.55.3,1.09.58,1.63.86l.33.17c.63.33,1.25.65,1.84,1.01.66.41,1.12.79,1.43,1.21h0s.03.03.04.05c.07.08.14.13.21.16.11.05.23.08.35.08.07,0,.14,0,.21-.03.31-.09.51-.38.51-.71v-.07c0-.06,0-.11-.03-.17-.19-.52-.27-1.05-.23-1.55.02-.5.1-1.02.28-1.7.15-.58.35-1.17.54-1.74l.12-.36c.16-.48.34-.97.48-1.5.09-.36.18-.72.19-1.16v-.15s0-.15,0-.15c-.01-.13-.03-.22-.05-.31l-.02-.1s0-.04-.02-.06c-.12-.38-.31-.67-.57-.87-.08-.08-.2-.14-.29-.19l-.07-.04s-.06-.03-.1-.05l-.09-.03c-.06-.02-.13-.05-.2-.07-.21-.07-.46-.1-.75-.1h0Zm-1.92,5.5s.11,0,.15-.02c.39-.09.63-.45.58-.85-.04-.19-.03-.41.01-.71.03-.26.1-.51.19-.76.09-.26.2-.48.32-.68.11-.2.25-.36.4-.47.06-.04.12-.08.18-.1.02,0,.08-.01.12-.01.03,0,.1.01.15.03l.05.02s0,0,0,0c0,.03,0,.06,0,.1,0,.24-.07.53-.13.75-.11.43-.25.87-.4,1.33-.24.75-.48,1.53-.64,2.35-.1.52-.17.98-.18,1.42-.52-.41-1.07-.77-1.59-1.11-.28-.18-.56-.36-.84-.53-.34-.21-.67-.42-.99-.63-.56-.37-1.13-.75-1.51-1.15-.18-.19-.28-.36-.31-.45,0-.01,0-.03,0-.04,0,0,0-.02,0-.03.02-.04.03-.07.04-.1,0-.01.02-.03.09-.05.04-.01.15-.04.38-.04.07,0,.15,0,.22,0,.5.05,1.09.21,1.7.47.43.19,1.06.49,1.45.95,0,0,.01.01.02.02.14.17.35.28.57.28h0Zm-8.04,3.44c-.13,0-.25,0-.38.02-.75.06-1.55.38-2.16.89-.29.23-.54.49-.78.81-.27.38-.46.73-.59,1.08-.27.77-.3,1.63-.08,2.42.4,1.45,1.56,2.66,3.04,3.16.51.17,1.05.26,1.59.26.18,0,.35,0,.53-.03.71-.08,1.36-.29,1.92-.61.24-.15.37-.39.37-.66-.03-.42-.36-.72-.74-.72-.01,0-.04,0-.06,0-.19.01-.37.02-.55.02-.85,0-1.56-.15-2.12-.46-.72-.38-1.25-1-1.42-1.66-.18-.64,0-1.26.52-1.78.02-.02.04-.04.05-.06.24-.23.5-.38.79-.44.14-.03.28-.05.43-.05.23,0,.49.03.78.1.94.22,1.9.73,2.8,1.24.77.44,1.55.94,2.3,1.42l.52.33c.97.62,1.92,1.22,2.96,1.76.47.24,1.04.51,1.67.72.67.23,1.3.35,1.92.37h.09s.04,0,.06,0c.53-.06.91-.54.85-1.07-.06-.49-.47-.86-.96-.86-.04,0-.08,0-.11,0-.12.02-.24.02-.37.02-.31,0-.64-.04-.98-.13-.44-.1-.9-.27-1.43-.52-.99-.47-1.92-1.07-2.78-1.65-.44-.3-.88-.61-1.32-.92-.48-.34-.96-.68-1.45-1-.51-.35-1-.65-1.5-.92-.44-.24-1.03-.55-1.7-.77-.6-.2-1.16-.3-1.71-.3h0Zm14.5,8.86c-.14,0-.28.04-.4.12-.32.14-.63.27-.93.34-.32.09-.63.13-.95.13-.43,0-.91-.08-1.41-.17-.27-.05-.54-.09-.82-.13-.21-.03-.42-.05-.64-.07h-.07c-.21-.03-.4-.04-.63-.04-.12,0-.26.01-.39.02-.15.01-.29.04-.44.07-.08.01-.21.05-.34.1l-.07.02s-.04.02-.07.03l-.09.04c-.11.05-.22.1-.34.19-.57.34-1.02,1.05-1.08,1.74-.07.56.05,1.17.34,1.75.28.53.68.96,1.16,1.25.45.29,1,.45,1.54.45h.12c.32-.03.58-.08.82-.16.16-.05.31-.12.45-.19.06-.03.12-.05.17-.08.38-.18.76-.39,1.16-.65.67-.44,1.3-.98,1.94-1.66.62-.67,1.13-1.31,1.57-1.97.05-.07.08-.15.08-.24.03-.12.03-.25,0-.38-.05-.19-.18-.35-.36-.45-.08-.05-.21-.09-.34-.09h0Zm-5.33,4.17s-.08,0-.12,0c-.51-.06-.85-.5-.99-.86-.08-.21-.11-.43-.08-.59.01-.07.03-.11.04-.13.04-.06.06-.07.06-.08.02,0,.03-.02.05-.03.04-.03.19-.11.58-.13.07,0,.1,0,.14,0,.05,0,.11,0,.17,0,.07,0,.14,0,.21,0,.16,0,.34.02.52.04l1.2.1c.22.02.44.03.67.03.21,0,.41,0,.61-.03-.45.43-.93.8-1.43,1.09-.33.19-.65.34-.96.45-.22.08-.47.15-.68.15h0Z"/>
  </g>
  <g>
    <path class="cls-2" d="m42.37,52.84c-.47,0-.9-.04-1.29-.13-.88-.18-1.75-.62-2.44-1.24-.65-.59-1.17-1.33-1.51-2.15-.15-.34-.28-.72-.39-1.16-.09-.37-.15-.75-.2-1.17-.08-.71-.07-1.46.02-2.27.18-1.48.67-2.88,1.43-4.17.27-.45.57-.87.9-1.25.04-.82.2-1.53.48-2.18.26-.6.74-1.42,1.62-1.91.23-.12.43-.21.62-.27.07-.03.15-.05.23-.06l.19.22-.05-.24.22-.05c.25-.04.5-.06.75-.06.16,0,.33,0,.49.03.78.1,1.55.47,2.19,1.04.52.46.96,1.03,1.34,1.75.32.58.59,1.22.81,1.9.39,1.22.63,2.51.73,3.96.03.58.04,1.17.02,1.76.52-.14,1.07-.34,1.62-.59.62-.29,1.09-.55,1.51-.83.42-.27.87-.61,1.4-1.05.15-.13.35-.21.55-.21.24,0,.48.11.63.3.27.32.26.79-.01,1.1-.02.02-.04.04-.07.06-.42.46-.89.89-1.42,1.31-.56.44-1.11.81-1.7,1.12-.91.5-1.86.87-2.84,1.1,0,.02-.01.04-.02.05-.17.71-.42,1.4-.73,2.03-.4.79-.88,1.42-1.45,1.92-.67.6-1.5,1.03-2.33,1.21-.43.09-.88.15-1.29.15Zm-2.03-8.44c-.03.23-.05.46-.07.69-.04.46-.03.95.03,1.5.03.23.07.46.12.68.05.23.11.44.18.63.17.43.35.75.55.98.22.25.48.44.82.57.27.1.61.16.93.16.07,0,.14,0,.21-.01.19-.02.37-.06.53-.12.17-.06.34-.16.48-.26.46-.33.88-.88,1.22-1.59-.04,0-.53-.12-.53-.12-.72-.19-1.4-.47-2.03-.84-.96-.56-1.8-1.35-2.45-2.29Zm1.02-3.27c.14.46.31.89.53,1.28.5.94,1.23,1.72,2.1,2.26.41.26.88.47,1.43.63l.2.06s.14.03.14.03c.09.01.17.03.27.04.13-.65.2-1.31.22-1.99.04-1.17-.1-2.36-.39-3.44,0-.03-.01-.06,0-.09-.15-.52-.35-1.01-.58-1.48-.28-.52-.58-.92-.92-1.23-.33-.31-.73-.49-1.15-.54-.08-.01-.15-.02-.22-.02-.13,0-.27.02-.4.05l-.1.03-.16.05c-.15.05-.22.09-.29.13-.15.1-.29.24-.41.41.03,0,.06,0,.09,0,.45,0,.86.25,1.06.65.23.44.17.98-.16,1.34-.5.57-.9,1.15-1.25,1.82Z"/>
    <path class="cls-1" d="m42.93,34.99c.15,0,.31,0,.46.03.79.1,1.51.49,2.05.98.55.49.96,1.07,1.29,1.68.33.6.59,1.23.79,1.86.41,1.27.63,2.58.72,3.9.04.68.04,1.37,0,2.07.67-.16,1.34-.4,1.99-.69.53-.25,1.05-.52,1.55-.85.5-.32.97-.69,1.42-1.07.11-.1.25-.15.39-.15.17,0,.33.07.44.21.19.23.18.56,0,.78v-.02c-.44.49-.93.94-1.45,1.35-.52.41-1.07.78-1.66,1.1-.91.5-1.89.88-2.93,1.11-.01.06-.02.12-.04.17-.16.67-.39,1.35-.72,2.01-.33.65-.77,1.3-1.39,1.84-.61.54-1.39.97-2.22,1.15-.41.09-.84.14-1.24.14s-.82-.03-1.24-.12c-.84-.17-1.67-.59-2.33-1.18-.65-.59-1.14-1.32-1.45-2.06-.16-.37-.28-.75-.38-1.13-.09-.38-.15-.76-.19-1.13-.08-.75-.06-1.49.02-2.22.18-1.45.66-2.83,1.4-4.07.27-.45.58-.88.93-1.28v-.07c.03-.71.17-1.42.46-2.11.29-.68.77-1.37,1.51-1.79.18-.1.37-.19.57-.25.1-.04.19-.05.28-.07s.18-.04.28-.06c.23-.04.46-.06.7-.06m-1.83,2.78c.06-.03.11-.07.16-.09.14-.07.29-.11.44-.11.34,0,.67.18.84.51.19.36.13.78-.12,1.06l-.04.04c-.52.59-.94,1.23-1.29,1.92.14.5.33.98.58,1.43.52.97,1.27,1.78,2.19,2.35.46.29.96.5,1.49.66l.2.06c.06.01.11.03.17.04.12.02.24.04.37.05h.14c.16-.73.25-1.48.27-2.24.04-1.18-.09-2.38-.4-3.51h.02c-.16-.56-.37-1.1-.63-1.61-.27-.5-.59-.95-.98-1.3-.38-.35-.83-.55-1.29-.6-.08-.01-.17-.02-.25-.02-.15,0-.31.02-.46.06-.06,0-.12.03-.18.05-.06.02-.13.03-.17.05-.1.04-.19.08-.28.14-.34.22-.61.6-.78,1.06m1.8,12.1c.08,0,.16,0,.23-.01.2-.02.4-.06.59-.13.19-.07.38-.17.55-.3.59-.42,1.08-1.15,1.43-1.98h.01c-.1-.02-.19-.03-.29-.05-.09-.01-.19-.04-.29-.06l-.26-.06c-.68-.18-1.34-.45-1.96-.81-1.13-.66-2.07-1.64-2.71-2.76-.09.45-.15.91-.18,1.36-.04.52-.02,1.04.03,1.54.03.25.07.49.13.72.05.23.11.45.19.66.16.41.35.78.6,1.06.24.28.54.49.91.64.3.11.68.18,1.02.18m.03-15.38c-.25,0-.52.02-.78.06-.12.02-.22.04-.31.07h-.06c-.1.03-.19.05-.3.09-.17.05-.39.14-.63.28-.94.53-1.46,1.4-1.73,2.03-.29.68-.45,1.41-.49,2.18-.32.38-.61.78-.86,1.21-.79,1.32-1.28,2.75-1.47,4.27-.09.84-.1,1.6-.02,2.33.05.43.11.82.2,1.19.12.47.26.86.41,1.21.35.85.9,1.62,1.57,2.23.73.65,1.64,1.11,2.57,1.3.41.09.85.13,1.34.13.43,0,.9-.05,1.35-.15.87-.19,1.74-.64,2.44-1.26.6-.52,1.09-1.17,1.5-1.99.3-.61.55-1.28.73-1.99.95-.24,1.88-.6,2.76-1.09.59-.32,1.16-.7,1.73-1.15.53-.41,1.01-.86,1.43-1.31.03-.02.07-.05.09-.08.35-.41.36-1.01.02-1.43-.21-.25-.51-.39-.83-.39-.26,0-.52.1-.72.27-.51.43-.95.76-1.36,1.02-.42.28-.88.53-1.49.82-.42.19-.84.35-1.25.48,0-.48,0-.96-.03-1.43-.1-1.47-.34-2.79-.74-4.02-.22-.69-.5-1.35-.83-1.95-.4-.74-.86-1.33-1.4-1.81-.67-.61-1.49-1-2.32-1.1-.17-.02-.35-.03-.52-.03h0Zm-.37,2.48s.05,0,.07-.01c.11-.03.22-.04.34-.04.06,0,.13,0,.19.01.38.04.72.2,1.02.47.32.29.61.67.88,1.17.22.43.41.9.55,1.39,0,.04,0,.08.02.12.29,1.05.42,2.22.38,3.36-.02.58-.07,1.16-.17,1.72,0,0-.02,0-.03,0-.06-.02-.1-.03-.13-.03l-.18-.05c-.53-.16-.98-.36-1.37-.6-.84-.52-1.54-1.27-2.02-2.16-.2-.35-.36-.73-.48-1.14.33-.61.7-1.15,1.13-1.64l.02-.02c.41-.46.49-1.12.21-1.65-.18-.34-.48-.6-.84-.71,0,0,0,0,.01,0,.06-.04.12-.06.19-.1.06-.02.1-.03.14-.04,0,0,.06-.02.06-.02,0,0,.01,0,.01,0h0Zm.34,12.4c-.28,0-.6-.06-.84-.15-.29-.12-.52-.28-.71-.5-.19-.21-.35-.51-.51-.92-.06-.16-.12-.36-.17-.58-.05-.21-.09-.42-.12-.67-.05-.53-.06-1-.03-1.44,0-.02,0-.03,0-.05.6.74,1.32,1.37,2.14,1.84.65.38,1.35.67,2.08.86l.23.05c-.29.53-.63.95-.99,1.21-.14.1-.28.18-.43.24-.14.05-.29.08-.47.1-.06,0-.12,0-.18,0h0Z"/>
  </g>
  <g>
    <path class="cls-2" d="m54.62,53.58c-.38,0-.78-.06-1.15-.18-.44-.14-.86-.4-1.17-.72-.52-.54-.84-1.21-.96-2.03-.09-.6-.07-1.22.06-1.88.23-1.12.74-2.16,1.52-3.1.41-.49.88-.93,1.4-1.32l-.73-.57c-.33-.26-.68-.54-1.03-.85-.38-.36-.83-.79-1.23-1.36-.3-.43-.7-1.12-.87-2.01-.07-.38-.1-.78-.06-1.15,0-.18.03-.36.06-.54,0-.08.03-.19.07-.31.02-.09.05-.2.08-.3.15-.43.36-.84.63-1.17.26-.32.58-.6.95-.83.62-.38,1.32-.6,2.09-.65.11,0,.23-.01.34-.01.56,0,1.11.08,1.64.25.68.21,1.27.54,1.76.97.53.47.94,1.04,1.2,1.68.24.6.34,1.27.3,1.93-.04.62-.56,1.11-1.19,1.11-.65-.04-1.11-.48-1.17-1.05-.08-.69-.36-1.18-.84-1.48-.35-.23-.8-.36-1.25-.36-.15,0-.29.01-.42.04-.25.05-.49.15-.6.26-.11.1-.13.16-.13.23l-.25.12h.25v.2c0,.09.04.19.06.28.05.17.16.35.35.59.39.47,1.06,1.02,1.78,1.58l.24.19c.54.43,1.16.92,1.75,1.52h.06c.12-.04.24-.07.35-.09.96-.19,1.99-.29,3.05-.29.95,0,1.93.07,3,.23.46.07.77.48.71.94,0,.04-.02.08-.05.12-.1.35-.42.6-.8.6-.7-.06-1.31-.08-1.88-.08-1.14,0-2.17.1-3.12.31.04.07.08.15.13.23.08.15.15.31.21.47.06.17.13.34.18.51.1.33.17.67.2,1.04.06.67,0,1.33-.16,1.99-.15.62-.38,1.2-.68,1.74-.7,1.21-1.55,2.08-2.62,2.66-.67.36-1.39.55-2.07.55Zm1.4-7.7c-.5.38-.93.8-1.26,1.26-.48.66-.78,1.37-.87,2.07-.05.35-.04.69.03.98.07.3.2.47.24.49.13.05.19.05.24.05,0,0,.1,0,.11,0,.21-.03.45-.12.66-.27.48-.33.93-.91,1.21-1.55.26-.61.37-1.3.27-1.84-.02-.14-.06-.25-.1-.37-.02-.08-.05-.13-.07-.17-.06-.11-.08-.15-.09-.17-.09-.16-.2-.31-.35-.48Z"/>
    <path class="cls-1" d="m54.63,34.85c.54,0,1.06.08,1.56.24.6.19,1.18.49,1.67.92.49.43.89.98,1.13,1.58.24.6.32,1.24.28,1.82-.03.5-.45.88-.94.88-.02,0-.04,0-.06,0-.46-.03-.82-.38-.87-.83v-.03c-.09-.75-.43-1.3-.96-1.63-.39-.26-.89-.4-1.38-.4-.16,0-.32.02-.47.05-.3.06-.57.18-.72.32-.16.14-.2.26-.21.39v.34c0,.13.04.24.07.35.07.22.2.43.4.68.4.49,1.08,1.04,1.82,1.62.65.52,1.37,1.07,2.06,1.79.18-.04.36-.09.53-.12,1-.2,2.01-.28,3.01-.28s1.99.09,2.96.23c.32.05.54.34.5.66h-.02c-.04.28-.29.49-.57.49-.02,0-.04,0-.06,0-.61-.05-1.22-.08-1.82-.08-1.2,0-2.38.11-3.51.4.1.16.2.33.3.51.07.14.14.29.2.44.06.16.12.32.17.49.1.33.16.66.19.99.06.66,0,1.31-.15,1.91-.15.6-.37,1.16-.66,1.68-.59,1.03-1.39,1.95-2.52,2.56-.56.3-1.23.52-1.95.52-.36,0-.73-.06-1.07-.17-.41-.13-.79-.37-1.07-.66-.57-.59-.8-1.27-.89-1.89-.09-.63-.05-1.23.06-1.8.23-1.14.77-2.15,1.47-2.99.48-.57,1.03-1.06,1.63-1.47-.26-.2-.54-.41-.82-.63-.38-.3-.79-.61-1.19-.98-.4-.37-.82-.79-1.19-1.32-.37-.52-.69-1.18-.83-1.91-.07-.36-.09-.73-.06-1.08.01-.18.03-.35.06-.52,0-.08.03-.18.06-.28.02-.1.05-.2.08-.29.13-.39.33-.77.59-1.09.26-.32.57-.58.89-.78.65-.4,1.33-.57,1.97-.61.11,0,.22-.01.33-.01m-.24,16.14s.09,0,.13-.01c.24-.03.51-.13.77-.31.53-.36,1.01-.99,1.3-1.66.29-.67.39-1.4.29-1.98h0c-.02-.16-.07-.29-.12-.42-.02-.07-.05-.13-.08-.19-.04-.07-.07-.14-.11-.2-.13-.23-.31-.45-.52-.68-.58.41-1.09.89-1.5,1.45-.49.67-.82,1.43-.92,2.19-.05.38-.04.75.03,1.07.07.32.22.57.35.65.06.05.11.06.16.07.07.01.14.02.22.02m.24-16.64c-.12,0-.24,0-.36.01-.81.05-1.55.28-2.2.68-.4.25-.74.55-1.02.89-.29.36-.52.79-.68,1.25-.04.11-.07.23-.1.35-.03.08-.05.21-.07.32-.03.17-.05.36-.06.55-.03.38,0,.8.07,1.2.18.93.6,1.66.91,2.1.41.58.86,1.03,1.26,1.4.35.32.69.59,1.03.86l.19.15c.1.08.2.16.3.23-.43.35-.83.73-1.18,1.15-.81.98-1.34,2.06-1.58,3.21-.13.7-.16,1.34-.06,1.97.13.88.46,1.58,1.03,2.17.34.36.8.64,1.28.79.39.13.81.19,1.22.19.72,0,1.48-.2,2.19-.58,1.1-.59,2.01-1.52,2.72-2.75.31-.56.55-1.17.71-1.81.17-.68.23-1.38.16-2.08-.03-.38-.1-.74-.21-1.09-.05-.18-.12-.35-.18-.52-.06-.15-.13-.3-.19-.43.84-.16,1.74-.24,2.74-.24.56,0,1.16.03,1.78.08.03,0,.06,0,.1,0,.48,0,.89-.31,1.03-.76.03-.05.05-.11.06-.18.07-.59-.33-1.12-.92-1.22-1.08-.16-2.08-.23-3.04-.23-1.08,0-2.12.1-3.11.29-.08.01-.18.04-.27.06-.57-.57-1.15-1.03-1.68-1.45l-.23-.18c-.68-.53-1.37-1.09-1.75-1.55-.17-.21-.26-.37-.31-.52-.02-.08-.04-.15-.05-.24v-.16s0-.08,0-.08v-.05s0,0,0,0c0,0,.02-.01.04-.03.08-.07.25-.16.49-.21.12-.03.24-.04.37-.04.39,0,.8.12,1.11.32.42.26.66.68.73,1.25,0,.02,0,.04,0,.05.08.69.64,1.23,1.33,1.27h.09c.77,0,1.4-.59,1.44-1.35.05-.69-.06-1.4-.31-2.03-.27-.67-.7-1.28-1.26-1.77-.52-.45-1.14-.8-1.85-1.02-.55-.17-1.13-.26-1.71-.26h0Zm-.34,16.13s0,0-.01,0c0,0-.08-.12-.12-.33-.06-.26-.07-.57-.02-.9.09-.66.37-1.34.83-1.96.28-.38.62-.74,1.02-1.06.07.09.12.17.16.24.03.05.04.08.06.1.02.03.04.07.05.1,0,0,.02.04.03.08.05.14.09.24.1.32,0,.02,0,.03,0,.05.09.49-.01,1.13-.26,1.7-.26.6-.69,1.15-1.12,1.44-.18.13-.38.21-.55.23-.04,0-.06,0-.07,0-.03,0-.07,0-.1,0h0Z"/>
  </g>
  <g>
    <path class="cls-2" d="m92.68,55.79c-.52,0-1.03-.07-1.54-.22-.6-.17-1.19-.46-1.72-.83-.49-.34-.95-.76-1.35-1.23-.67-.78-1.24-1.72-1.74-2.88-.75-1.78-1.24-3.77-1.49-6.1-.13-1.17-.19-2.3-.18-3.46-.34-.16-.65-.35-.94-.56-.48-.36-.91-.81-1.27-1.35-.34-.53-.6-1.07-.76-1.62-.32-1-.42-2.12-.29-3.34.24-2.03,1.08-4.03,2.44-5.81.19-.24.46-.38.76-.38.21,0,.41.07.58.2.4.3.49.87.21,1.29-1.07,1.59-1.69,3.29-1.79,4.9-.06.88.04,1.71.3,2.41.2.56.5,1.04.88,1.41.07-.92.18-1.85.34-2.84.17-1.04.37-2.02.61-3,.27-1.07.57-2.04.91-2.96.36-1,.79-1.96,1.25-2.87.54-1.04,1.09-1.92,1.69-2.72.73-.96,1.47-1.75,2.27-2.4.97-.79,1.98-1.37,3.02-1.71.47-.16,1.1-.34,1.84-.34h.13c.74,0,1.54.25,2.17.69.3.21.58.46.84.75.23.27.42.55.58.86.28.52.5,1.1.63,1.73.22,1.01.29,2.09.21,3.31-.17,2.09-.71,4.14-1.61,6.09-.45.96-.99,1.89-1.59,2.74-.6.84-1.33,1.64-2.16,2.37-.35.31-.78.65-1.27.99-.42.29-.86.57-1.3.83-1.04.6-1.95,1.02-2.88,1.34-.75.26-1.48.42-2.17.5-.02.91,0,1.8.05,2.65.12,2.06.43,3.78.94,5.24.31.87.68,1.59,1.1,2.16.48.63,1.01,1.06,1.6,1.27.32.12.65.18.97.18.39,0,.71-.05.99-.15.6-.19,1.22-.64,1.8-1.3.51-.59.99-1.33,1.41-2.2.2-.41.39-.83.56-1.26.18-.43.34-.87.5-1.32.12-.33.44-.56.79-.56.1,0,.19.02.28.05.38.14.61.53.54.94-.2,1.1-.46,2.06-.77,2.95-.43,1.17-.89,2.08-1.45,2.85-.77,1.06-1.69,1.82-2.73,2.25-.59.24-1.23.39-1.85.42-.11,0-.23.01-.34.01Zm4.14-33.33c-.22,0-.52.08-.85.21-.67.28-1.32.71-1.94,1.28-1.07,1-2,2.38-2.86,4.22-.7,1.53-1.29,3.26-1.75,5.12-.22.9-.41,1.81-.57,2.69-.16.93-.27,1.87-.37,2.74,0,.08-.02.15-.02.23.38-.08.76-.2,1.12-.34.76-.29,1.55-.69,2.36-1.19.38-.25.76-.49,1.13-.76.35-.25.69-.51,1.02-.81,1.24-1.14,2.28-2.56,3.06-4.22.78-1.67,1.24-3.43,1.34-5.09.05-.93-.01-1.76-.19-2.46-.19-.72-.54-1.32-.87-1.5-.08-.05-.17-.08-.27-.11-.08-.02-.18-.03-.32-.03Zm-10.97,31.83c-.58,0-1.05-.55-1.05-1.22s.47-1.22,1.05-1.22,1.05.55,1.05,1.22-.47,1.22-1.05,1.22Zm0-1.46s-.08.12-.08.24c0,.15.07.24.09.25,0-.01.07-.1.07-.25,0-.13-.05-.21-.08-.24Zm-2.03-1.94c-.63,0-1.24-.47-1.51-1.16-.16-.4-.19-.83-.09-1.22.12-.43.4-.76.77-.91.14-.06.29-.09.45-.09.24,0,.5.07.73.21.34.21.62.54.77.94.16.4.19.84.09,1.22-.12.43-.4.76-.77.91-.12.06-.27.09-.44.09Zm-.39-2.41s-.08,0-.09.01c-.08.03-.15.13-.19.27-.05.18-.03.39.05.6.14.34.42.54.61.54.17-.05.24-.15.28-.28.04-.17.03-.39-.05-.6-.08-.21-.21-.38-.38-.48-.08-.05-.16-.07-.23-.07Zm-5.42.66c-.49,0-.99-.15-1.41-.41-.44-.27-.81-.66-1.07-1.14-.28-.54-.39-1.1-.32-1.63.06-.61.46-1.24,1-1.56.07-.06.18-.11.29-.16l.09-.04s.09-.03.1-.04c.11-.04.23-.08.34-.1.11-.03.26-.05.38-.06.15-.01.27-.02.37-.02.22,0,.4.02.59.03.3.03.5.05.72.08.27.04.54.08.8.13.51.09,1,.17,1.45.17.34,0,.68-.05,1-.14.34-.09.69-.24,1.02-.38.02-.04.14-.08.26-.08.08,0,.17.02.23.07.1.06.19.16.22.29.03.1.02.2-.01.29,0,.04-.01.09-.03.12-.43.65-.94,1.28-1.54,1.93-.63.66-1.25,1.19-1.9,1.62-.39.25-.75.46-1.11.63l-.19.09c-.13.06-.27.13-.43.18-.21.07-.46.12-.74.14,0,0-.11,0-.12,0Zm-.02-3.52s-.1,0-.14,0c-.43.03-.63.11-.73.18-.08.05-.13.1-.17.17-.04.06-.07.14-.08.23-.03.21,0,.48.1.72.16.42.57.95,1.18,1.02.06,0,.11.01.16.01.25,0,.52-.08.77-.17.32-.12.66-.27,1-.47.62-.36,1.22-.84,1.76-1.42.08-.09.17-.18.25-.27-.22.06-.43.1-.64.12-.23.03-.46.04-.68.04s-.44-.01-.65-.03l-1.19-.1c-.19-.02-.38-.03-.56-.04h-.37Zm-7.8-1.96c-.51,0-1.02-.08-1.51-.25-1.4-.47-2.5-1.62-2.88-2.99-.21-.74-.18-1.54.08-2.27.12-.33.29-.66.54-1,.24-.31.48-.55.75-.78.56-.48,1.31-.78,2.03-.83.12-.01.24-.02.36-.02.52,0,1.05.09,1.63.29.66.22,1.23.51,1.66.75.49.27.97.57,1.48.91.49.33.97.67,1.45,1,.44.31.88.62,1.32.92.87.59,1.81,1.19,2.82,1.67.55.25,1.03.43,1.47.53.36.09.71.14,1.05.14.13,0,.27,0,.39-.02h.01c.44,0,.75.27.79.63.02.19-.03.38-.15.53-.12.15-.29.24-.48.27,0,0-.11,0-.11,0-.6-.02-1.21-.13-1.85-.35-.63-.21-1.2-.49-1.63-.7-1.02-.53-1.98-1.13-2.94-1.75l-.5-.32c-.78-.49-1.55-.98-2.34-1.44-.92-.51-1.89-1.04-2.87-1.26-.3-.07-.58-.1-.83-.1-.17,0-.33.02-.48.05-.35.07-.66.25-.94.53,0,.02-.02.03-.04.05-.59.59-.79,1.29-.59,2.01.19.73.77,1.4,1.54,1.82.6.33,1.36.49,2.24.49.19,0,.38,0,.57-.02h0c.29,0,.51.2.52.45,0,.21-.08.37-.24.46-.54.31-1.16.51-1.83.59-.16.02-.33.03-.5.03Zm9.94-4.1c-.08,0-.16-.02-.24-.06h0s-.1-.05-.13-.09c-.01-.01-.03-.04-.03-.04-.33-.44-.8-.83-1.49-1.27-.59-.37-1.21-.69-1.85-1.02l-.32-.17c-.54-.28-1.08-.56-1.63-.86-.34-.18-.66-.39-.99-.61-.4-.28-.7-.52-.97-.78-.41-.39-.68-.8-.83-1.26-.04-.09-.06-.2-.07-.29l-.02-.12c-.02-.16-.02-.28-.02-.39,0-.01,0-.12,0-.13.03-.17.05-.3.07-.42.05-.15.09-.28.16-.42.24-.55.8-1.03,1.39-1.19.27-.08.56-.13.88-.13.2,0,.39.02.58.04.82.13,1.61.45,2.35.95.24.17.44.32.61.48.02-.12.05-.24.07-.36.14-.55.41-1.35,1.1-1.97.18-.16.37-.28.58-.36.19-.08.42-.13.69-.16h.02c.28,0,.5.03.69.09.06.02.28.1.28.1.01,0,.11.06.12.06.08.04.18.1.28.2.19.15.36.4.46.72l.03.14c.02.08.03.16.04.23v.32c-.01.43-.1.79-.19,1.1-.13.51-.3,1-.47,1.47l-.13.37c-.19.57-.4,1.17-.54,1.76-.18.7-.27,1.24-.28,1.74-.04.54.05,1.1.25,1.66,0,.03.01.13.01.15,0,.22-.13.41-.33.47-.02,0-.12.02-.15.02Zm-6.72-6.75c.06.17.19.37.37.56.4.43.99.82,1.56,1.19.33.22.67.43,1.02.64.27.17.55.34.82.52.61.39,1.25.81,1.84,1.31.05.04.09.07.14.11-.02-.58.04-1.19.18-1.9.16-.8.4-1.57.64-2.32.15-.46.29-.91.41-1.36.06-.25.12-.53.13-.78,0-.1,0-.19-.01-.27-.03-.02-.04-.05-.06-.08,0,.01,0,.01-.01.01-.01,0-.03,0-.05-.02-.15-.06-.23-.06-.32-.07-.05,0-.14.01-.22.04-.05.02-.13.07-.23.13-.16.12-.32.31-.44.52-.14.22-.25.46-.35.74-.1.27-.16.54-.2.81-.05.33-.05.58-.01.77.04.28-.12.52-.38.58-.02,0-.03,0-.05,0-.22,0-.36-.08-.44-.2-.43-.49-1.05-.8-1.55-1.02-.63-.27-1.24-.44-1.79-.49-.07,0-.15,0-.23,0-.25,0-.38.03-.46.05-.17.06-.21.1-.25.19-.02.06-.04.12-.08.17h.01v.09s0,.05.01.07Zm8.6-3.34c-.2,0-.38-.12-.46-.32-.01-.03-.02-.06-.02-.1-.03-.17.04-.35.19-.46.23-.18.36-.46.41-.9.05-.42.03-.9,0-1.36-.02-.49-.04-1,0-1.53.02-.33.08-.59.16-.84.12-.35.3-.61.51-.8.04-.04.17-.08.23-.08.1,0,.2.04.28.12.13.17.12.34.02.47-.17.3-.17.72-.16,1.15.02.32.06.65.09.99l.05.44c.04.53.07,1.05-.02,1.62-.06.35-.18.64-.34.89-.2.31-.49.56-.79.67-.03.01-.14.03-.17.03Zm3.12-1.81s-.16-.03-.19-.04c-.22-.11-.33-.35-.27-.56,0,0,0,0,0-.01.01-.11,0-.16-.08-.26l-.11-.15c-.1-.13-.21-.28-.3-.46-.16-.28-.25-.64-.25-.99,0-.16.02-.32.06-.49.05-.2.11-.36.18-.5.32-.6.8-.94,1.19-1.2l.2-.13c.31-.2.57-.37.71-.58.07-.2.25-.31.44-.31.07,0,.14.02.21.05.19.07.32.31.27.53-.06.26.04.59.15.94l.06.19c.15.52.3,1.04.23,1.64,0,0-.04.22-.04.22-.03.11-.06.19-.09.26-.07.15-.14.29-.25.44-.18.25-.45.48-.76.63-.17.08-.34.14-.49.19-.07.02-.14.05-.2.07-.1.04-.15.09-.18.14l-.04.09s-.05.09-.08.11c-.05.1-.21.19-.39.19Zm.28-2.03c.02.07.06.15.1.23.02.05.05.11.07.16.04-.02.08-.04.12-.06.09-.04.17-.08.24-.12.14-.08.24-.17.32-.29.05-.06.09-.14.12-.21l.06-.21c.05-.31-.05-.72-.15-1.16v-.02s-.06.05-.09.08c-.31.28-.63.57-.76.81-.02.04-.03.07-.04.11,0,0-.03.09-.04.1,0,.05-.02.11-.02.15-.02.15,0,.24.04.37.01.02.02.03.02.05Zm3.61-2.73c-.2,0-.38-.11-.46-.29,0-.02-.02-.06-.02-.07-.04-.11-.24-.27-.42-.41-.33-.25-.78-.59-.89-1.16-.11-.62.16-1.01.32-1.24.03-.04.1-.14.11-.17,0-.02-.03-.12-.03-.14-.02-.23.1-.43.31-.5.03-.01.13-.03.16-.03.21,0,.39.13.46.32.08.04.12.05.16.06.1.03.21.06.33.12.21.08.43.25.59.46.06.07.11.16.15.23,0,0,.05.09.05.1.05.13.09.26.1.39.04.46-.1.82-.21,1.11,0,0-.05.13-.05.13-.09.2-.19.44-.18.55,0,.32-.19.52-.45.54,0,0-.01,0-.02,0Zm-.83-2.1c.03.17.23.34.45.51.07-.23.13-.46.11-.61l-.04-.12c-.04-.06-.07-.1-.16-.15-.03-.02-.18-.09-.21-.1-.12.17-.18.28-.16.45,0,0,0,.01,0,.02Zm2.47,1.12c-.08,0-.16-.02-.23-.05-.21-.1-.31-.33-.25-.56.05-.21.02-.55,0-.83,0-.04,0-.07.01-.11h0c-.02-.32-.04-.65,0-1.03.06-.45.37-1.03.92-1.24.17-.06.32-.09.44-.12l.11-.02.06.07c.01-.05.04-.11.08-.15.04-.1.2-.19.38-.19.08,0,.15.02.22.05.2.1.3.34.24.57,0,.03-.01.1-.04.16,0,0,0,0,.01,0,.02,0,.05.06.09.14.15.29.36.7.18,1.28-.16.52-.68.88-1.14,1.2-.22.16-.55.39-.63.53-.02.05-.04.09-.07.12-.04.1-.2.2-.38.2Zm1.15-2.81c-.08.03-.14.05-.18.07-.15.08-.22.18-.25.36-.04.19-.05.41-.06.65.28-.2.59-.44.66-.62.06-.18.02-.28-.1-.48-.03,0-.05.02-.07.03Z"/>
    <path class="cls-1" d="m92.18,17.94s.07,0,.11.03c.1.05.14.17.11.27v.02s-.02.09-.04.14c0,.08.04.17.12.32.13.25.32.59.16,1.08-.14.44-.61.77-1.05,1.08-.3.21-.61.43-.71.62,0,.02,0,.04-.02.05-.04.08-.12.13-.21.13-.04,0-.08,0-.11-.03-.1-.05-.15-.16-.12-.27v-.02c.06-.23.03-.57,0-.9h.02c-.02-.34-.05-.69,0-1.08.05-.39.32-.87.76-1.04.21-.08.4-.1.52-.13.13-.03.16-.02.24-.11,0,0,0-.02.01-.03.04-.08.13-.13.21-.13m-1.12,2.74s0,0,0,0h0c.09-.07.18-.13.27-.2.37-.26.78-.55.88-.84.1-.3,0-.49-.13-.71-.03-.05-.06-.11-.08-.17-.02.01-.04.02-.06.03-.2.08-.34.11-.44.17-.19.1-.32.26-.37.53-.06.27-.06.6-.07.94v.24m-2.95-1.52c.1,0,.19.06.22.15v.03c.05.09.08.1.19.14.1.04.26.07.44.15.18.07.36.21.49.38.07.08.11.18.16.27.04.1.07.21.08.32.04.43-.11.77-.22,1.05-.12.28-.24.54-.23.73v.06c0,.12-.1.21-.22.22-.1,0-.19-.05-.23-.14,0,0,0-.03,0-.04-.06-.19-.28-.36-.51-.54-.33-.25-.7-.54-.79-1h0c-.09-.51.12-.82.28-1.05.11-.15.16-.23.15-.32-.01-.04-.02-.09-.03-.13v-.02c0-.11.04-.21.15-.25.03,0,.05-.01.08-.01m-.17,1.7h0c.05.28.33.49.61.71.08.06.15.12.23.18.02-.11.05-.21.08-.3.09-.3.16-.56.14-.76,0-.05-.02-.09-.03-.13-.02-.05-.04-.1-.07-.13-.05-.08-.12-.14-.22-.2-.1-.06-.25-.11-.42-.22-.04.06-.07.11-.11.17-.14.2-.26.38-.21.68m8.78-1.22s.08,0,.13,0c.69,0,1.44.23,2.04.64.3.21.56.45.79.71.22.26.4.53.55.81.3.55.49,1.12.61,1.67.24,1.11.27,2.19.2,3.24-.17,2.1-.72,4.12-1.59,6-.44.94-.96,1.84-1.57,2.7-.61.85-1.33,1.63-2.12,2.33-.39.35-.83.68-1.25.97-.42.29-.85.56-1.29.82-.89.51-1.82.97-2.83,1.32-.73.25-1.51.44-2.32.51h0c-.03.97-.02,1.93.04,2.89.11,1.83.38,3.66.95,5.31.29.82.66,1.59,1.14,2.23.48.64,1.05,1.12,1.71,1.36.33.12.69.19,1.06.19s.73-.04,1.07-.16c.69-.22,1.34-.73,1.9-1.37.56-.65,1.04-1.42,1.45-2.25.2-.42.39-.84.57-1.27.18-.44.34-.88.5-1.33.09-.24.32-.39.55-.39.07,0,.13.01.2.03.28.1.43.38.38.66-.18.97-.42,1.95-.76,2.91-.35.96-.78,1.91-1.42,2.79-.63.87-1.49,1.7-2.62,2.17-.56.23-1.17.37-1.77.4-.11,0-.22.01-.33.01-.49,0-.99-.07-1.47-.21-.59-.17-1.16-.45-1.65-.79-.49-.34-.93-.75-1.3-1.19-.75-.87-1.28-1.84-1.7-2.82-.83-1.97-1.25-4-1.47-6.03-.13-1.2-.19-2.39-.18-3.59-.37-.16-.72-.36-1.04-.6-.48-.36-.88-.8-1.21-1.29-.32-.49-.57-1.01-.73-1.55-.34-1.07-.39-2.18-.28-3.24.25-2.12,1.15-4.06,2.39-5.68.14-.18.35-.28.56-.28.15,0,.3.05.43.15.3.23.36.65.16.95-1.02,1.52-1.72,3.26-1.83,5.02-.06.87.03,1.74.31,2.51.27.76.73,1.41,1.33,1.83,0-.1.01-.2.02-.3.07-1.01.19-2.01.35-3.01.16-1,.36-1.99.61-2.98.25-.99.54-1.96.9-2.93.35-.96.76-1.91,1.24-2.84.48-.92,1.02-1.82,1.67-2.68.64-.85,1.37-1.66,2.23-2.36.86-.7,1.84-1.3,2.94-1.67.54-.18,1.12-.32,1.76-.32m-8.54,19.64s0,0,0,0h0s0,0,0,0c.5-.09,1-.23,1.49-.42.82-.31,1.63-.73,2.4-1.21.39-.25.77-.5,1.14-.77.37-.26.71-.53,1.04-.82,1.3-1.19,2.35-2.67,3.12-4.3.76-1.63,1.26-3.41,1.36-5.18.05-.88,0-1.76-.2-2.54-.2-.77-.58-1.44-1-1.66-.1-.06-.21-.1-.33-.13-.11-.03-.24-.04-.38-.04-.27,0-.61.09-.95.23-.72.3-1.4.76-2.01,1.33-1.22,1.14-2.16,2.67-2.92,4.3-.75,1.63-1.33,3.38-1.77,5.17-.22.9-.41,1.8-.57,2.71-.16.91-.27,1.83-.37,2.76-.02.19-.04.37-.05.57m-1.46-17.05s.07,0,.1.02c.1.04.16.16.14.26-.08.37.08.8.21,1.25.13.45.29.96.22,1.54-.01.07-.03.14-.04.22-.02.07-.05.14-.08.21-.06.13-.12.25-.21.37-.17.24-.42.43-.67.55-.25.12-.49.18-.67.25-.14.06-.23.13-.3.24-.02.04-.04.08-.06.13,0,0-.01.02-.02.03-.04.07-.13.12-.21.12-.03,0-.06,0-.09-.02-.1-.05-.16-.16-.13-.27,0-.01,0-.03.01-.04.02-.19-.02-.3-.12-.44-.1-.15-.26-.33-.39-.58-.14-.25-.22-.56-.22-.87,0-.15.02-.3.05-.44.04-.15.09-.3.16-.44.29-.55.75-.86,1.13-1.12.39-.26.76-.47.96-.77,0,0,0-.04.02-.06.04-.09.12-.14.21-.14m-1.28,4.16c.24-.14.46-.21.63-.31s.3-.22.4-.37c.05-.07.1-.16.14-.25,0-.04.03-.08.04-.12l.03-.13c.06-.37-.04-.8-.15-1.27-.03-.15-.07-.31-.09-.48-.14.15-.27.28-.41.41-.35.31-.66.6-.81.88-.04.07-.06.15-.09.22-.02.09-.04.17-.04.25-.02.17,0,.31.07.49h0c.06.19.18.39.27.66v.02m-2.38-3.05s.07.02.1.04c.03.04.04.09,0,.14-.23.39-.23.86-.21,1.32.03.47.09.95.14,1.45.04.5.07,1.01-.02,1.55-.05.27-.14.55-.3.8-.16.25-.4.47-.67.57-.03.01-.06.02-.09.02-.09,0-.18-.06-.22-.16h0c-.04-.1,0-.21.08-.27.33-.26.46-.63.51-1.07s.03-.92.01-1.4c-.02-.49-.04-.99,0-1.5.02-.26.06-.52.15-.78.09-.25.23-.51.44-.69.02-.02.05-.02.07-.02m-3.02,5.88c.21,0,.42.02.61.08.1.03.19.07.28.1.1.06.21.1.31.2.21.16.33.4.4.62.02.11.05.22.06.32v.29c-.01.38-.09.71-.18,1.03-.17.64-.39,1.24-.59,1.83s-.4,1.18-.55,1.78c-.15.59-.27,1.19-.29,1.79-.04.6.06,1.19.26,1.75v.07c0,.1-.05.2-.15.23-.02,0-.05.01-.07.01-.04,0-.09-.01-.13-.03h-.02s-.02-.02-.03-.03c0,0-.02-.01-.02-.02-.41-.54-.97-.96-1.56-1.33-.6-.37-1.23-.7-1.87-1.03s-1.29-.66-1.95-1.02c-.33-.18-.65-.38-.97-.6-.32-.22-.64-.46-.94-.75-.3-.29-.6-.66-.77-1.16-.05-.12-.06-.26-.09-.39v-.02c-.02-.14-.01-.28-.01-.41.02-.13.04-.27.07-.4.04-.12.08-.24.14-.37.22-.51.74-.92,1.23-1.05.28-.09.56-.12.82-.12.19,0,.37.02.55.04.84.13,1.58.46,2.24.91.33.23.64.48.9.79.01.02.03.03.04.05.02-.29.06-.58.13-.86.17-.65.44-1.32,1.02-1.84.15-.13.32-.24.51-.32.19-.08.41-.12.62-.14m-1.92,4.5c-.08,0-.15-.05-.19-.1l-.02-.02c-.42-.49-1.03-.82-1.63-1.08-.61-.26-1.26-.45-1.86-.51-.08,0-.17,0-.25,0-.2,0-.4.02-.54.07-.21.07-.31.15-.39.31-.02.04-.03.1-.06.14-.02.05-.01.09-.03.14v-.02.02s0,0,0,0v.11s0,.09.03.14c.06.19.21.42.42.64.42.45,1.01.84,1.6,1.23.59.39,1.22.76,1.84,1.16.62.4,1.24.81,1.82,1.29.21.17.41.36.6.56-.03-.17-.04-.35-.05-.52-.04-.67.04-1.33.17-1.97.25-1.28.73-2.49,1.04-3.66.07-.29.13-.58.14-.83.01-.13,0-.24-.02-.33-.03-.08-.05-.14-.1-.17-.02-.03-.06-.04-.09-.06-.06-.02-.11-.05-.17-.07-.11-.04-.22-.05-.32-.06-.1,0-.21.02-.31.05-.1.04-.2.1-.3.17-.19.15-.37.36-.51.6-.15.24-.27.5-.37.78-.1.28-.17.56-.21.86-.04.29-.06.59-.01.85.02.14-.06.26-.19.29-.01,0-.03,0-.04,0m-8.56,2.05c.55,0,1.08.12,1.55.27.58.19,1.11.45,1.62.73.51.28.99.58,1.46.9.94.63,1.85,1.3,2.77,1.92.92.62,1.86,1.22,2.85,1.69.49.23,1,.43,1.52.55.37.09.74.15,1.1.15.14,0,.29,0,.43-.03.02,0,.04,0,.06,0,.24,0,.44.17.46.41.03.26-.15.49-.41.52h-.07c-.63-.02-1.22-.15-1.78-.34-.56-.19-1.08-.43-1.6-.69-1.02-.53-1.97-1.13-2.92-1.74-.95-.6-1.89-1.21-2.85-1.76-.96-.54-1.94-1.06-2.94-1.29-.3-.07-.6-.11-.88-.11-.19,0-.37.02-.54.06-.43.09-.79.31-1.1.63h0c-.66.67-.88,1.47-.65,2.27.21.8.84,1.53,1.66,1.97.68.37,1.49.52,2.36.52.19,0,.39,0,.59-.02,0,0,.01,0,.02,0,.12,0,.23.1.24.22,0,.1-.04.18-.12.23-.52.3-1.11.48-1.73.55-.16.02-.31.03-.47.03-.48,0-.96-.08-1.43-.24-1.24-.42-2.34-1.44-2.72-2.82-.19-.68-.17-1.44.07-2.12.12-.34.3-.65.51-.94.22-.28.44-.51.71-.73.52-.44,1.21-.73,1.89-.78.11-.01.23-.01.34-.01m14.07,8.27s.07,0,.1.03c.11.06.16.2.09.32,0,0,0,.01-.01.02h.02c-.46.7-.97,1.32-1.52,1.91-.56.59-1.17,1.13-1.85,1.58-.34.22-.7.43-1.08.61-.19.08-.37.18-.59.25-.21.07-.44.11-.68.13-.03,0-.06,0-.09,0-.44,0-.89-.13-1.28-.37-.41-.25-.75-.62-.98-1.05-.22-.43-.36-.94-.29-1.48.05-.54.41-1.1.88-1.38.11-.08.24-.13.36-.19.12-.04.25-.09.37-.11.12-.03.25-.05.36-.06.12-.01.24-.02.35-.02.24,0,.43.02.65.04.21.02.41.04.62.07.82.11,1.58.3,2.29.3.36,0,.72-.05,1.07-.15.35-.09.7-.24,1.05-.39.04-.04.1-.06.16-.06m-.77,1.03c-.06.03-.12.06-.19.09-.39.17-.82.3-1.26.35-.22.02-.44.03-.65.03s-.42-.01-.63-.03l-1.19-.1c-.19-.02-.38-.03-.57-.04-.13,0-.26,0-.38,0-.06,0-.12,0-.17,0-.33.02-.64.08-.84.22-.11.06-.18.15-.24.24-.06.09-.1.2-.12.33-.04.25,0,.56.11.85.22.58.72,1.1,1.38,1.18.06,0,.13.01.19.01.27,0,.55-.08.85-.18.36-.13.71-.3,1.04-.49.67-.39,1.28-.89,1.82-1.46.3-.31.57-.65.83-1h.02s0,0,0-.01h0m.58,2.7c.2,0,.41.06.6.18.29.18.53.47.67.82.14.35.17.73.08,1.06-.1.35-.32.62-.62.74-.11.05-.23.07-.35.07-.51,0-1.04-.39-1.28-1-.14-.35-.17-.73-.08-1.06.1-.35.32-.62.62-.74.11-.05.23-.07.36-.07m.38,2.38c.06,0,.12-.01.18-.03.16-.06.28-.22.34-.42.06-.23.04-.5-.06-.76-.1-.26-.27-.47-.48-.6-.12-.07-.24-.11-.36-.11-.06,0-.13.01-.18.03-.16.06-.28.22-.34.43-.06.23-.04.5.06.76.17.42.52.7.84.7m2.04,1.95c.44,0,.8.43.8.97s-.36.97-.8.97-.8-.43-.8-.97.36-.97.8-.97m0,1.47c.18,0,.33-.23.33-.5s-.15-.5-.33-.5-.33.23-.33.5.15.5.33.5m6.33-36.13h0c-.23,0-.44.1-.58.28-.03,0-.06.01-.1.02-.12.02-.29.06-.48.13-.65.25-1.01.91-1.08,1.44-.02.17-.03.33-.03.48-.02-.04-.05-.08-.09-.11-.16-.22-.42-.41-.69-.52-.11-.05-.24-.09-.34-.12-.02,0-.03,0-.05-.01-.13-.23-.37-.37-.64-.37-.08,0-.16.01-.23.04-.33.12-.52.43-.49.77,0,.02,0,.06,0,.08-.01.01-.02.03-.04.05-.18.25-.49.7-.37,1.39,0,.02,0,.03,0,.05.13.66.64,1.05.98,1.3.12.09.29.23.34.3,0,.03.02.06.03.09.12.27.38.44.69.44.43-.03.72-.34.72-.72,0,0,0-.08,0-.09,0-.07.1-.29.16-.44l.03-.07.03-.07s0-.03.02-.04c.07.15.19.28.34.36.11.05.22.08.34.08,0,0,.02,0,.03,0-.44.45-.87.95-1.29,1.51-.61.8-1.17,1.7-1.71,2.75-.47.92-.9,1.89-1.27,2.9-.34.92-.64,1.9-.92,2.98-.25.98-.45,1.97-.62,3.02-.13.78-.22,1.53-.29,2.26-.18-.26-.33-.55-.44-.87-.24-.67-.34-1.47-.28-2.31.1-1.57.7-3.22,1.75-4.78.35-.53.23-1.24-.27-1.63-.05-.04-.1-.07-.16-.1.24-.01.46-.15.59-.35.02-.03.03-.05.04-.07.02-.05.03-.07.04-.1,0,0,.03-.02.07-.04.04-.01.1-.03.17-.06.15-.05.33-.11.52-.2.35-.17.66-.42.86-.71.12-.15.19-.31.26-.45.04-.1.08-.19.11-.28,0-.02.01-.05.02-.08,0-.03,0-.06.02-.08,0-.04.02-.09.02-.13.08-.66-.08-1.23-.22-1.68l-.02-.06-.06-.19c-.1-.32-.19-.62-.14-.81.07-.35-.12-.7-.44-.83-.06-.03-.17-.06-.28-.06h0c-.29,0-.56.18-.67.45,0,0,0,.01-.01.02-.12.15-.35.3-.6.46l-.18.12c-.41.28-.95.65-1.29,1.3-.08.16-.15.34-.2.54-.05.21-.07.4-.07.57,0,.39.1.79.28,1.11.1.19.22.35.32.48.03.05.07.09.09.13.04.05.04.06.04.06h0s0,0,0,.01c-.08.29.04.59.28.77-.03,0-.07,0-.1,0-.38,0-.72.17-.96.47-.12.15-.23.3-.33.46.11-.23.2-.49.25-.77.1-.6.07-1.16.03-1.68l-.05-.45c-.04-.34-.07-.67-.09-.99-.02-.38-.02-.75.13-1.02.15-.22.14-.5-.02-.71-.01-.02-.03-.04-.05-.05-.12-.12-.28-.19-.45-.19-.14,0-.27.05-.38.13-.26.23-.46.53-.6.91-.1.28-.15.56-.18.91-.04.54-.02,1.06,0,1.56.02.47.04.92,0,1.32-.04.37-.14.59-.32.73-.19.14-.3.38-.29.62-.01,0-.02-.01-.04-.02l-.06-.03s-.06-.03-.1-.05l-.09-.03c-.06-.02-.13-.05-.2-.07-.21-.07-.46-.1-.75-.1-.02,0-.03,0-.05,0-.3.03-.55.09-.77.18-.23.1-.45.23-.64.4-.72.65-1.01,1.48-1.17,2.06-.1-.07-.2-.15-.31-.23-.78-.53-1.6-.86-2.45-.99-.25-.03-.44-.04-.63-.04-.35,0-.66.05-.97.14-.65.17-1.27.71-1.54,1.33-.06.14-.11.27-.16.41-.04.17-.06.31-.08.44,0,.02-.01.1-.01.12v.09c0,.12,0,.24.01.37,0,.03,0,.06.01.09,0,.03.01.07.02.11.02.1.04.23.1.36.16.46.45.91.88,1.33.36.34.72.61,1,.8.35.24.68.45,1.01.63.55.3,1.09.58,1.63.86l.33.17c.63.33,1.25.65,1.84,1.01.67.42,1.11.79,1.42,1.21h0s.03.03.04.05c.1.12.21.17.3.19.08.03.16.04.25.04.07,0,.14,0,.21-.03.31-.09.51-.38.51-.71v-.07c0-.06,0-.11-.03-.17-.19-.52-.27-1.05-.23-1.55.02-.5.1-1.02.28-1.7.07-.28.16-.57.25-.86-.05,1.04.06,2.01.34,2.88.17.56.43,1.13.79,1.67.38.57.83,1.04,1.33,1.42.26.19.54.37.84.52,0,1.11.06,2.2.18,3.33.25,2.35.75,4.37,1.51,6.17.19.44.39.85.6,1.23-.23-.22-.52-.36-.85-.36-.72,0-1.3.66-1.3,1.47s.58,1.47,1.3,1.47,1.3-.66,1.3-1.47c0-.16-.02-.32-.07-.47.25.39.51.74.8,1.07.41.49.88.92,1.39,1.27.55.38,1.17.68,1.8.86.53.15,1.07.23,1.61.23.12,0,.24,0,.36-.01.64-.03,1.31-.18,1.93-.44,1.08-.45,2.04-1.24,2.84-2.34.58-.8,1.05-1.72,1.48-2.91.32-.91.58-1.88.78-2.99.09-.53-.2-1.04-.7-1.22-.11-.04-.24-.06-.36-.06-.46,0-.87.29-1.03.73-.16.44-.31.88-.49,1.31-.17.4-.35.8-.56,1.24-.41.84-.88,1.56-1.38,2.14-.54.62-1.12,1.04-1.67,1.22-.27.09-.56.14-.92.14-.3,0-.6-.05-.89-.16-.54-.2-1.03-.6-1.48-1.19-.41-.55-.77-1.25-1.07-2.1-.5-1.44-.8-3.13-.92-5.17-.05-.77-.07-1.58-.05-2.41.65-.09,1.32-.25,2-.49.94-.33,1.87-.76,2.92-1.36.49-.29.93-.57,1.33-.84.5-.35.94-.69,1.3-1.01.84-.75,1.58-1.56,2.19-2.41.62-.87,1.16-1.8,1.62-2.78.91-1.97,1.46-4.05,1.64-6.17.08-1.24.01-2.35-.21-3.39-.14-.66-.37-1.26-.66-1.8-.17-.32-.37-.61-.61-.89-.28-.31-.57-.58-.88-.8-.68-.47-1.53-.73-2.33-.73h-.13s0,0,0,0c-.78,0-1.44.19-1.92.35-.65.22-1.29.52-1.91.91.1-.13.17-.28.23-.44.22-.67-.04-1.17-.18-1.44-.02-.04-.04-.07-.05-.1,0-.03.01-.07.02-.11.06-.32-.1-.63-.38-.78-.1-.05-.22-.08-.33-.08h0Zm-.57,2.2s0-.02,0-.04c.03-.15.07-.17.11-.2,0,0,.01,0,.02,0,0,.03,0,.05-.01.09-.01.04-.06.09-.13.15h0Zm-3.18,1.1s0-.05,0-.08c.03.02.04.03.04.03,0,0,.01.02.02.03,0,0,0,.01,0,.02,0,.04,0,.08-.01.12-.03-.04-.05-.07-.06-.09,0,0,0-.01,0-.02h0Zm.31,17.9c.09-.83.2-1.72.35-2.6.16-.88.34-1.78.56-2.68.46-1.85,1.04-3.56,1.74-5.08.85-1.81,1.76-3.17,2.81-4.14.59-.55,1.21-.96,1.86-1.23.29-.12.57-.19.76-.19.14,0,.21.01.25.02.09.02.16.05.2.08.25.13.59.63.77,1.36.17.68.24,1.48.18,2.39-.09,1.62-.55,3.35-1.31,5-.77,1.63-1.78,3.02-3,4.14-.32.28-.65.54-.99.78-.39.28-.78.54-1.12.76-.79.49-1.56.88-2.31,1.16-.25.1-.5.18-.75.25h0Zm-3.13-13.52s.01-.04.02-.06c0-.02.01-.04.02-.06.09-.16.27-.36.48-.55.05.26.08.5.05.68l-.02.1s-.01.04-.02.05c-.02.05-.05.1-.08.14-.07.1-.14.17-.25.23-.03.02-.07.04-.11.06-.02-.05-.04-.1-.06-.14,0-.03-.02-.06-.04-.08-.03-.08-.03-.13-.02-.2,0-.02,0-.04,0-.06,0-.02.01-.06.02-.1h0Zm-3.6,4.61c.1,0,.19-.02.28-.06.25-.09.5-.27.7-.5-.3.47-.56.94-.8,1.43v-.06c-.01-.13-.03-.22-.05-.31l-.02-.1s0-.04-.02-.06c-.04-.12-.09-.24-.14-.34.01,0,.02,0,.04,0h0Zm-3.89,4.5s.11,0,.15-.02c.39-.09.63-.45.58-.85-.04-.19-.03-.41.01-.71.03-.26.1-.51.19-.76.09-.26.2-.48.32-.68.11-.2.25-.36.4-.47.06-.04.12-.08.18-.1.02,0,.08-.01.12-.01.03,0,.1.01.15.03l.05.02s0,0,0,0c0,.03,0,.06,0,.1,0,.24-.07.53-.13.75-.11.43-.25.87-.4,1.33-.24.75-.48,1.53-.64,2.35-.1.52-.17.98-.18,1.42-.52-.41-1.07-.77-1.59-1.11-.28-.18-.56-.36-.84-.53-.34-.21-.67-.42-.99-.63-.56-.37-1.13-.75-1.51-1.15-.18-.19-.28-.36-.31-.45,0-.01,0-.03,0-.04,0,0,0-.02,0-.03.02-.04.03-.07.04-.1,0-.01.02-.03.09-.05.04-.01.15-.04.38-.04.07,0,.15,0,.22,0,.5.05,1.09.21,1.7.47.43.19,1.06.49,1.45.95,0,0,.01.01.02.02.14.17.35.28.57.28h0Zm-8.56,1.05c-.13,0-.25,0-.38.02-.77.06-1.56.38-2.17.9-.28.23-.53.49-.78.8-.27.38-.46.73-.59,1.08-.27.77-.3,1.63-.08,2.42.4,1.45,1.56,2.66,3.04,3.16.51.17,1.05.26,1.59.26.18,0,.35,0,.53-.03.71-.08,1.36-.29,1.92-.61.24-.15.37-.39.37-.66-.03-.42-.36-.72-.74-.72-.01,0-.04,0-.06,0-.19.01-.37.02-.55.02-.84,0-1.56-.16-2.12-.46-.71-.38-1.24-1-1.41-1.66-.18-.64,0-1.26.52-1.78.02-.02.04-.04.05-.06.24-.23.5-.38.79-.44.14-.03.28-.05.43-.05.23,0,.49.03.78.1.94.22,1.9.73,2.8,1.24.77.44,1.55.94,2.31,1.42l.52.33c.97.62,1.92,1.22,2.96,1.76.47.24,1.04.51,1.67.72.67.23,1.3.35,1.92.37h.09s.04,0,.06,0c.53-.06.91-.54.85-1.07-.06-.49-.47-.86-.96-.86-.04,0-.08,0-.11,0-.12.02-.24.02-.37.02-.31,0-.64-.04-.98-.13-.44-.1-.9-.27-1.43-.52-.99-.47-1.92-1.07-2.78-1.65-.44-.3-.88-.61-1.32-.92-.48-.34-.96-.68-1.45-1-.51-.35-1-.65-1.5-.92-.44-.24-1.03-.55-1.7-.77-.6-.2-1.16-.3-1.71-.3h0Zm14.07,8.27c-.14,0-.28.04-.4.12-.32.14-.63.27-.93.34-.32.09-.63.13-.95.13-.43,0-.91-.08-1.41-.17-.27-.05-.54-.09-.82-.13-.21-.03-.42-.05-.64-.07h-.07c-.21-.03-.4-.04-.63-.04-.12,0-.26.01-.39.02-.15.01-.31.04-.44.07-.08.01-.21.05-.34.1l-.07.02s-.04.02-.07.03l-.09.04c-.11.05-.22.1-.34.19-.57.34-1.02,1.05-1.08,1.74-.07.56.04,1.17.34,1.75.28.53.68.96,1.16,1.25.45.29,1,.45,1.54.45h.12c.32-.03.58-.08.82-.16.16-.05.31-.12.45-.19.06-.03.12-.05.17-.08.38-.18.76-.39,1.16-.65.67-.44,1.3-.98,1.94-1.66.62-.67,1.13-1.31,1.57-1.97.05-.07.08-.15.08-.24.03-.12.03-.25,0-.38-.05-.19-.18-.35-.36-.45-.08-.05-.21-.09-.34-.09h0Zm-5.33,4.17s-.08,0-.12,0c-.51-.06-.85-.5-.99-.86-.08-.21-.11-.43-.08-.59.01-.07.03-.11.04-.13.04-.06.06-.07.06-.08.02,0,.03-.02.05-.03.04-.03.19-.11.58-.13.07,0,.1,0,.14,0,.05,0,.11,0,.17,0,.07,0,.14,0,.21,0,.16,0,.34.02.52.04l1.2.1c.22.02.44.03.67.03.21,0,.41,0,.61-.03-.45.43-.93.8-1.43,1.09-.33.19-.65.34-.96.45-.22.08-.47.15-.68.15h0Zm5.13-.44c-.19,0-.37.03-.54.1-.44.18-.77.56-.92,1.07-.12.44-.09.93.1,1.38.31.79,1.01,1.31,1.74,1.31.2,0,.39-.04.56-.11.42-.17.75-.55.89-1.06.12-.44.09-.93-.1-1.38-.18-.45-.49-.82-.87-1.06-.28-.17-.58-.25-.87-.25h0Zm.37,2.38c-.08,0-.27-.14-.37-.39-.06-.15-.07-.32-.04-.45.02-.06.04-.09.05-.1,0,.01.04.02.09.05.11.07.21.19.27.35.06.16.08.32.04.45-.01.04-.03.07-.04.08h0Z"/>
  </g>
  <g>
    <path class="cls-2" d="m105.3,53.2c-.14,0-.28-.02-.42-.04-.24-.04-.44-.09-.63-.16-.34-.13-.67-.33-.94-.57-.51-.44-.81-.93-1.01-1.3-.25-.45-.41-.89-.52-1.22-.22-.68-.37-1.39-.48-2.31-.08-.69-.11-1.43-.09-2.26.02-.82.09-1.56.21-2.25.13-.77.31-1.52.56-2.24.28-.81.64-1.55,1.09-2.22.61-.87,1.28-1.51,2.07-1.94.48-.25,1-.44,1.47-.52.24-.04.5-.06.75-.06.3,0,.6.03.89.1.59.13,1.15.41,1.59.8.43.37.78.86.98,1.39.2.49.28,1.03.25,1.59-.02.31-.09.6-.19.87.2-.07.42-.11.64-.11,1.1.04,1.92.91,1.88,1.96,0,.07-.01.15-.02.23l-.05.34c-.11.71-.22,1.38-.3,2.06-.1.87-.14,1.61-.11,2.27.02.76.15,1.42.35,1.84.11.22.22.36.34.45.06.05.14.09.23.12.1.03.17.05.25.05.2,0,.4-.06.59-.17.24-.14.48-.33.72-.58.46-.47.88-1.08,1.27-1.81.69-1.26,1.24-2.73,1.71-4.48.09-.37.42-.63.8-.63.08,0,.15.01.23.03.39.1.65.47.62.88.01.04.02.08.01.11-.33,1.9-.8,3.56-1.46,5.05-.3.68-.74,1.57-1.42,2.42-.4.47-.75.81-1.16,1.09-.52.37-1.14.59-1.76.64-.09,0-.18.01-.28.01-.24,0-.48-.03-.7-.07-.38-.08-.69-.18-.96-.33-.69-.35-1.16-.9-1.43-1.3-.29-.44-.51-.9-.71-1.5-.06-.2-.12-.39-.17-.57-.28.75-.57,1.33-.92,1.88-.23.37-.48.71-.76,1.03-.28.3-.66.67-1.2.96-.54.28-1.14.44-1.7.44,0,0-.1,0-.1,0Zm2.39-13.68c-.18,0-.54.11-.77.27-.27.19-.54.49-.77.88-.45.73-.81,1.79-1.03,3.05-.2,1.17-.26,2.38-.18,3.5.04.58.13,1.15.26,1.62.07.23.14.46.23.64.05.12.11.21.15.26,0,0,.02,0,.03,0,.17-.05.51-.31.87-.77.31-.38.61-.85.94-1.45.27-.49.53-1.03.82-1.69.54-1.22,1-2.52,1.39-3.64,0-.03.03-.08.06-.13-.05,0-.09,0-.14,0-.26,0-.52-.09-.72-.25-.3-.23-.47-.6-.45-.99l.03-.37c0-.07,0-.22-.05-.35-.04-.12-.11-.26-.19-.36-.08-.1-.17-.16-.22-.17-.07-.03-.14-.03-.25-.03Z"/>
    <path class="cls-1" d="m107.35,36.38c.27,0,.55.03.84.09.54.12,1.07.38,1.48.74.42.36.73.82.91,1.29.19.48.26.98.23,1.49-.04.51-.21,1.03-.55,1.47-.18.23-.44.35-.71.35-.2,0-.4-.06-.57-.2-.25-.19-.37-.49-.35-.78l.03-.37c0-.13-.01-.29-.06-.45-.05-.16-.14-.32-.24-.44-.1-.12-.22-.21-.33-.25-.11-.04-.21-.05-.34-.05-.23,0-.64.13-.91.32-.29.2-.58.52-.84.95-.52.84-.86,1.99-1.06,3.14-.2,1.17-.27,2.39-.18,3.56.04.58.13,1.16.27,1.67.07.25.15.49.24.68.09.19.19.33.23.37.01.01.01.02,0,.02,0,0-.01,0-.03,0h-.06s.04.02.06.02c.03,0,.06.01.09.01.05,0,.1,0,.18-.03.26-.08.65-.42.99-.85.35-.43.67-.95.96-1.49.3-.55.57-1.12.83-1.71.52-1.18.97-2.43,1.4-3.66v-.02s.04-.08.07-.12c.23-.65.84-1.1,1.56-1.1.02,0,.03,0,.05,0,.91.03,1.62.79,1.59,1.7,0,.07,0,.14-.02.21-.13.83-.26,1.62-.35,2.41-.09.79-.14,1.57-.11,2.31.02.73.14,1.45.38,1.94.12.24.25.42.42.54.08.06.18.11.29.15.12.04.22.06.33.06.21,0,.46-.05.72-.2.26-.15.52-.36.77-.62.5-.52.94-1.17,1.31-1.87.76-1.4,1.31-2.95,1.73-4.53.07-.27.3-.44.56-.44.05,0,.11,0,.16.02.3.08.48.37.43.67l.02.03c-.29,1.69-.73,3.37-1.44,4.99-.36.81-.78,1.61-1.39,2.36-.31.37-.66.73-1.11,1.04-.44.31-1.01.55-1.64.6-.09,0-.17.01-.26.01-.23,0-.45-.03-.66-.06-.3-.06-.6-.15-.88-.3-.57-.29-1.02-.75-1.34-1.22-.32-.48-.52-.96-.68-1.44-.16-.48-.26-.95-.34-1.41v-.02c-.07.22-.15.45-.23.67-.25.68-.54,1.35-.96,2.02-.21.34-.45.67-.74,1-.3.32-.66.65-1.13.9-.45.24-1.01.41-1.58.41-.03,0-.06,0-.09,0-.15,0-.29-.02-.44-.04-.18-.03-.36-.08-.54-.14-.34-.13-.63-.32-.86-.52-.46-.4-.74-.83-.96-1.23-.22-.4-.37-.79-.5-1.18-.25-.77-.38-1.52-.47-2.26-.09-.74-.11-1.48-.09-2.22s.08-1.47.21-2.21c.12-.73.3-1.47.55-2.2s.59-1.46,1.06-2.16c.48-.69,1.11-1.38,1.98-1.86.43-.23.92-.41,1.39-.49.23-.04.47-.06.71-.06m0-.5c-.26,0-.53.02-.8.07-.5.09-1.05.28-1.54.54-.82.45-1.53,1.11-2.15,2.02-.46.69-.84,1.46-1.12,2.28-.25.73-.44,1.5-.57,2.28-.12.7-.19,1.45-.22,2.28-.02.84,0,1.59.09,2.29.11.93.26,1.66.49,2.35.11.34.28.79.54,1.27.21.39.53.9,1.07,1.37.3.26.64.47,1.01.61.25.08.45.13.64.17.2.03.36.05.52.05h.09c.6,0,1.24-.17,1.81-.47.58-.31,1-.72,1.26-1,.31-.35.56-.7.8-1.08.24-.39.46-.8.66-1.26.2.58.42,1.03.7,1.46.29.43.79,1.01,1.53,1.39.28.15.62.27,1.01.34.28.05.53.07.76.07.1,0,.2,0,.31-.01.84-.07,1.49-.41,1.88-.69.55-.38.95-.83,1.21-1.13.71-.87,1.15-1.78,1.46-2.48.66-1.51,1.15-3.18,1.48-5.11.01-.06,0-.13,0-.19.01-.5-.32-.94-.81-1.08-.09-.03-.19-.04-.29-.04-.49,0-.92.34-1.04.82-.46,1.73-1.01,3.17-1.68,4.41-.38.71-.79,1.3-1.23,1.76-.22.23-.44.41-.66.53-.15.09-.31.13-.47.13-.04,0-.09,0-.17-.03-.08-.03-.13-.06-.15-.08-.1-.07-.18-.18-.27-.36-.19-.38-.31-1.02-.33-1.73-.03-.65,0-1.38.11-2.24.08-.67.18-1.34.29-2.05l.05-.34c.01-.1.03-.19.03-.29.02-.56-.19-1.1-.58-1.52-.39-.42-.92-.66-1.5-.68,0,0-.06,0-.06,0-.09,0-.18,0-.27.02.04-.16.06-.33.08-.51.04-.61-.05-1.18-.26-1.71-.22-.57-.58-1.08-1.05-1.49-.46-.41-1.07-.71-1.7-.85-.3-.07-.62-.1-.95-.1h0Zm-1.67,13.53s-.01-.02-.02-.04c-.07-.14-.14-.35-.21-.6-.13-.46-.21-1-.25-1.57-.08-1.09-.02-2.28.17-3.44.21-1.24.56-2.26.99-2.96.22-.36.46-.64.7-.8.2-.14.51-.23.63-.23.1,0,.13,0,.17.02.01,0,.06.03.12.1.06.07.12.18.15.27.03.11.04.22.04.3l-.03.33c-.03.48.17.93.55,1.22.19.15.42.24.65.28-.38,1.08-.82,2.29-1.32,3.43-.29.66-.55,1.19-.81,1.67-.32.59-.61,1.05-.91,1.41-.25.31-.47.51-.61.61h0Z"/>
  </g>
  <g>
    <path class="cls-2" d="m120.28,53.58c-.38,0-.78-.06-1.15-.18-.44-.14-.86-.4-1.17-.72-.53-.54-.84-1.21-.96-2.03-.09-.6-.07-1.22.06-1.88.23-1.12.74-2.16,1.52-3.1.41-.49.88-.93,1.4-1.32l-.74-.57c-.33-.26-.68-.53-1.02-.85-.38-.36-.83-.79-1.23-1.36-.3-.43-.7-1.12-.87-2.01-.07-.38-.1-.77-.06-1.15,0-.18.03-.36.06-.54,0-.08.03-.19.07-.31.02-.09.05-.2.08-.29.15-.44.37-.84.63-1.17.26-.32.58-.6.95-.83.62-.38,1.32-.6,2.09-.65.11,0,.23-.01.34-.01.56,0,1.11.08,1.64.25.68.21,1.27.54,1.76.97.53.47.94,1.05,1.2,1.68.24.6.34,1.26.3,1.93-.04.62-.56,1.12-1.19,1.12-.65-.04-1.11-.48-1.17-1.05-.08-.69-.36-1.18-.84-1.48-.35-.23-.81-.36-1.25-.36-.15,0-.29.01-.42.04-.25.05-.49.15-.6.26-.11.1-.12.16-.13.23l-.25.12h.25v.2c0,.09.04.19.06.28.05.17.16.35.35.59.39.47,1.06,1.02,1.78,1.58l.25.2c.54.43,1.16.92,1.74,1.52h.06c.12-.04.23-.07.35-.09.96-.19,1.99-.29,3.05-.29.95,0,1.93.07,3,.23.46.07.77.48.71.94,0,.03-.01.06-.03.09-.09.36-.42.62-.8.62-.7-.06-1.31-.08-1.88-.08-1.14,0-2.17.1-3.12.31.04.08.08.15.12.23.07.14.15.3.21.46.07.19.13.35.18.51.1.33.17.68.2,1.04.06.66,0,1.33-.16,1.99-.15.62-.38,1.21-.68,1.74-.7,1.21-1.55,2.08-2.62,2.66-.67.36-1.39.55-2.07.55Zm1.41-7.7c-.5.38-.93.8-1.26,1.26-.48.66-.78,1.37-.88,2.08-.05.35-.04.69.03.98.07.3.2.47.24.49.13.05.19.05.24.05,0,0,.1,0,.11,0,.21-.03.45-.12.66-.27.48-.33.93-.91,1.21-1.55.26-.61.37-1.3.27-1.84-.02-.14-.06-.25-.11-.37-.02-.07-.05-.12-.07-.17-.06-.12-.08-.15-.1-.18-.09-.16-.2-.31-.35-.48Z"/>
    <path class="cls-1" d="m120.29,34.85c.54,0,1.06.08,1.56.24.6.19,1.18.49,1.67.92s.89.98,1.13,1.58c.24.6.32,1.24.28,1.82-.03.5-.45.88-.94.88-.02,0-.04,0-.06,0-.46-.03-.82-.38-.87-.83v-.03c-.09-.75-.43-1.3-.96-1.63-.39-.26-.89-.4-1.38-.4-.16,0-.32.02-.47.05-.3.06-.57.18-.72.32-.16.14-.2.26-.21.39v.34c.01.13.04.24.07.35.07.22.2.43.4.68.4.49,1.08,1.04,1.82,1.62.65.52,1.37,1.07,2.06,1.79.18-.04.36-.09.53-.12,1.01-.2,2.01-.28,3.01-.28s1.99.09,2.96.23c.32.05.54.34.5.66h0c-.04.28-.29.49-.57.49-.02,0-.04,0-.06,0-.61-.05-1.22-.08-1.82-.08-1.2,0-2.38.11-3.51.4.1.16.2.33.29.51.07.14.14.29.2.44.06.16.12.32.17.49.1.33.16.66.19.99.06.66,0,1.31-.15,1.91-.15.6-.37,1.16-.66,1.68-.59,1.03-1.39,1.95-2.52,2.56-.56.3-1.23.52-1.95.52-.36,0-.73-.06-1.07-.17-.41-.13-.79-.37-1.07-.66-.57-.59-.8-1.27-.89-1.89-.09-.63-.05-1.23.06-1.8.23-1.14.77-2.15,1.47-2.99.48-.57,1.03-1.06,1.63-1.47-.26-.2-.54-.41-.82-.63-.38-.3-.79-.61-1.19-.98s-.82-.79-1.19-1.32c-.37-.52-.69-1.18-.83-1.91-.07-.36-.09-.73-.06-1.08.01-.18.03-.35.06-.52.01-.08.03-.18.06-.28.02-.1.05-.2.08-.29.13-.39.33-.77.59-1.09.26-.32.57-.58.89-.78.65-.4,1.33-.57,1.97-.61.11,0,.22-.01.33-.01m-.23,16.14s.09,0,.13-.01c.24-.03.51-.13.77-.31.53-.36,1.01-.99,1.3-1.66.29-.67.39-1.4.29-1.98h0c-.02-.16-.07-.29-.12-.42-.02-.07-.05-.13-.08-.19-.04-.07-.07-.14-.11-.2-.13-.23-.31-.45-.52-.68-.58.41-1.09.89-1.5,1.45-.49.67-.82,1.43-.92,2.19-.05.38-.04.75.03,1.07.07.32.22.57.35.65.06.05.11.06.16.07.07.01.14.02.22.02m.23-16.64c-.12,0-.24,0-.36.01-.81.05-1.55.28-2.2.68-.4.25-.74.55-1.02.89-.29.36-.52.79-.68,1.25-.04.11-.07.23-.1.35-.03.08-.05.21-.07.32-.03.17-.05.36-.06.55-.03.38,0,.8.07,1.2.18.93.6,1.66.91,2.1.41.58.86,1.03,1.26,1.4.35.32.69.59,1.03.86l.19.15c.1.08.2.16.3.23-.43.35-.83.73-1.18,1.15-.81.98-1.34,2.06-1.58,3.21-.13.69-.16,1.34-.06,1.97.13.88.46,1.58,1.03,2.17.34.36.8.64,1.28.79.39.13.81.19,1.22.19.72,0,1.48-.2,2.19-.58,1.1-.59,2.01-1.52,2.72-2.75.31-.56.55-1.17.71-1.81.17-.68.23-1.38.16-2.08-.03-.38-.1-.74-.21-1.09-.05-.18-.12-.35-.18-.52-.06-.15-.13-.3-.19-.43.84-.16,1.75-.24,2.75-.24.56,0,1.16.03,1.78.08.03,0,.06,0,.1,0,.49,0,.91-.33,1.04-.79.02-.04.03-.09.04-.14.07-.59-.33-1.12-.92-1.22-1.08-.16-2.08-.23-3.04-.23-1.08,0-2.12.1-3.11.29-.08.01-.18.04-.27.06-.57-.57-1.15-1.03-1.68-1.45l-.23-.18c-.68-.53-1.37-1.09-1.75-1.55-.17-.21-.26-.37-.31-.52-.02-.08-.04-.15-.05-.24v-.16s0-.08,0-.08v-.05s0,0,0,0c0,0,.02-.01.04-.03.08-.07.25-.16.49-.21.12-.03.24-.04.37-.04.39,0,.8.12,1.11.32.42.26.66.68.73,1.25,0,.02,0,.04,0,.05.08.69.64,1.23,1.33,1.27h.09c.77,0,1.4-.59,1.44-1.35.05-.69-.06-1.4-.31-2.03-.27-.67-.7-1.28-1.26-1.77-.52-.45-1.14-.8-1.85-1.02-.55-.17-1.13-.26-1.71-.26h0Zm-.33,16.13s0,0-.01,0c0,0-.08-.12-.12-.33-.06-.26-.07-.57-.02-.9.09-.66.37-1.34.83-1.96.28-.38.62-.74,1.02-1.06.07.09.12.17.16.24.03.05.04.08.06.1.02.03.04.07.05.1,0,0,.02.04.03.08.05.14.09.24.1.32,0,.02,0,.03,0,.04.09.49-.01,1.13-.26,1.7-.26.6-.69,1.15-1.12,1.44-.18.13-.38.21-.55.23-.04,0-.06,0-.07,0-.03,0-.07,0-.1,0h0Z"/>
  </g>
  <g>
    <path class="cls-2" d="m132.76,53.2c-.14,0-.27-.02-.42-.04-.25-.04-.44-.09-.63-.16-.34-.13-.67-.33-.94-.57-.51-.44-.81-.93-1.01-1.3-.25-.46-.41-.89-.52-1.22-.22-.68-.37-1.39-.48-2.31-.08-.7-.11-1.43-.09-2.26.02-.82.09-1.55.21-2.25.13-.77.32-1.52.56-2.24.28-.82.64-1.54,1.09-2.22.61-.87,1.28-1.51,2.07-1.94.48-.26,1-.44,1.48-.52.24-.04.49-.06.75-.06.3,0,.6.03.89.1.59.13,1.16.42,1.59.8.43.37.78.86.98,1.39.2.49.28,1.03.25,1.59-.02.31-.09.6-.19.87.2-.07.42-.11.64-.11,1.1.04,1.92.91,1.89,1.96,0,.07,0,.14-.02.22l-.06.36c-.11.7-.22,1.38-.3,2.06-.1.88-.13,1.62-.11,2.27.02.76.15,1.42.35,1.84.11.22.22.36.34.45.06.05.14.09.23.12.1.03.17.05.25.05.2,0,.4-.06.59-.17.24-.14.48-.33.72-.58.46-.48.88-1.09,1.27-1.81.68-1.26,1.24-2.72,1.71-4.48.09-.37.42-.63.8-.63.08,0,.15.01.23.03.4.11.66.49.62.9,0,.03,0,.06,0,.08-.33,1.9-.8,3.56-1.46,5.05-.3.68-.74,1.57-1.42,2.42-.4.47-.75.81-1.16,1.09-.52.37-1.14.59-1.76.64-.09,0-.18.01-.28.01-.24,0-.48-.03-.7-.07-.38-.08-.69-.18-.96-.33-.69-.35-1.16-.9-1.43-1.3-.29-.44-.51-.9-.71-1.5-.06-.2-.12-.39-.17-.57-.2.54-.49,1.21-.92,1.88-.23.37-.48.71-.76,1.03-.28.3-.66.67-1.2.96-.54.28-1.14.44-1.7.44,0,0-.1,0-.1,0Zm2.4-13.68c-.18,0-.54.11-.77.27-.27.19-.54.49-.77.88-.45.73-.81,1.79-1.03,3.05-.2,1.18-.26,2.39-.18,3.5.04.59.13,1.15.26,1.62.06.23.14.46.22.64.05.12.11.21.15.26,0,0,.02,0,.03,0,.17-.05.51-.31.87-.77.31-.38.62-.86.94-1.45.27-.49.53-1.02.82-1.69.54-1.22,1-2.52,1.39-3.64,0-.03.03-.08.06-.13-.05,0-.09,0-.14,0-.26,0-.52-.09-.72-.25-.3-.23-.47-.6-.45-.99l.03-.37c0-.07,0-.22-.05-.36-.04-.12-.11-.26-.19-.36-.08-.1-.17-.16-.22-.17-.07-.03-.14-.04-.25-.04Z"/>
    <path class="cls-1" d="m134.82,36.38c.27,0,.55.03.84.09.54.12,1.07.38,1.48.74.42.36.73.82.91,1.29.19.48.26.98.23,1.49-.04.51-.21,1.03-.55,1.47-.18.23-.44.35-.71.35-.2,0-.4-.06-.57-.2-.25-.19-.37-.49-.35-.78l.03-.37c0-.13,0-.29-.06-.45s-.14-.32-.24-.44c-.1-.12-.22-.21-.33-.25-.11-.04-.21-.05-.34-.05-.23,0-.64.13-.91.32-.29.2-.58.52-.84.95-.52.84-.86,1.99-1.06,3.14-.2,1.17-.27,2.39-.18,3.56.04.58.13,1.16.27,1.67.07.25.15.49.24.68.09.19.19.33.23.37.01.01.01.02,0,.02,0,0-.01,0-.03,0h-.06s.04.02.06.02c.03,0,.06.01.09.01.05,0,.1,0,.18-.03.26-.08.65-.42.99-.85.35-.43.67-.95.96-1.49.3-.55.57-1.12.83-1.71.52-1.18.97-2.43,1.4-3.66v-.02s.04-.08.07-.12c.23-.65.84-1.1,1.56-1.1.02,0,.03,0,.05,0,.91.03,1.62.79,1.59,1.7,0,.07,0,.14-.02.21-.13.83-.26,1.62-.35,2.41-.09.79-.14,1.57-.11,2.31.02.73.14,1.45.38,1.94.12.24.25.42.42.54.08.06.18.11.29.15.12.04.22.06.33.06.21,0,.46-.05.72-.2s.52-.36.77-.62c.5-.52.94-1.17,1.31-1.87.76-1.4,1.31-2.95,1.73-4.53.07-.27.3-.44.56-.44.05,0,.11,0,.16.02.3.08.48.37.43.67v.03c-.28,1.69-.72,3.37-1.43,4.99-.36.81-.78,1.61-1.39,2.36-.31.37-.66.73-1.11,1.04-.44.31-1.01.55-1.64.6-.09,0-.17.01-.26.01-.23,0-.45-.03-.66-.06-.3-.06-.6-.15-.88-.3-.57-.29-1.02-.75-1.34-1.22-.32-.48-.52-.96-.68-1.44-.16-.48-.26-.95-.34-1.41v-.02c-.07.22-.15.45-.23.67-.25.68-.54,1.35-.96,2.02-.21.34-.45.67-.74,1-.3.32-.66.65-1.13.9-.45.24-1.01.41-1.58.41-.03,0-.06,0-.09,0-.15,0-.29-.02-.44-.04-.18-.03-.36-.08-.54-.14-.34-.13-.63-.32-.86-.52-.46-.4-.74-.83-.96-1.23s-.37-.79-.5-1.18c-.25-.77-.38-1.52-.47-2.26s-.11-1.48-.09-2.22.08-1.47.21-2.21c.12-.73.3-1.47.55-2.2s.59-1.46,1.06-2.16c.48-.69,1.11-1.38,1.98-1.86.43-.23.92-.41,1.4-.49.23-.04.47-.06.71-.06m0-.5c-.26,0-.53.02-.8.07-.51.09-1.05.27-1.55.54-.82.45-1.53,1.11-2.15,2.02-.46.69-.84,1.46-1.12,2.28-.25.73-.44,1.5-.57,2.28-.12.7-.19,1.45-.22,2.28-.02.84,0,1.59.09,2.29.11.93.26,1.66.49,2.35.11.34.28.79.54,1.27.21.39.53.9,1.07,1.37.3.26.64.47,1.01.61.25.08.45.13.64.17.2.03.36.05.52.05h.09c.6,0,1.24-.17,1.81-.47.58-.31,1-.72,1.26-1,.31-.35.56-.7.8-1.08.24-.39.46-.8.66-1.26.2.58.42,1.03.7,1.46.29.43.79,1.01,1.53,1.39.28.15.62.27,1.01.34.28.05.53.07.76.07.1,0,.2,0,.31-.01.84-.07,1.49-.41,1.88-.69.55-.38.95-.83,1.21-1.13.71-.87,1.15-1.78,1.46-2.48.66-1.51,1.15-3.18,1.48-5.11,0-.05,0-.1,0-.15.03-.52-.3-.99-.81-1.12-.09-.03-.19-.04-.29-.04-.49,0-.92.34-1.04.82-.46,1.73-1.01,3.17-1.68,4.41-.38.71-.79,1.3-1.23,1.76-.22.23-.44.41-.66.53-.15.09-.31.13-.47.13-.04,0-.09,0-.17-.03-.08-.03-.13-.06-.15-.08-.1-.07-.18-.18-.27-.36-.19-.38-.31-1.02-.33-1.73-.03-.65,0-1.38.11-2.24.08-.67.18-1.34.29-2.05l.05-.34c.01-.1.03-.19.03-.29.04-1.17-.89-2.16-2.07-2.2,0,0-.06,0-.06,0-.09,0-.18,0-.27.02.04-.16.06-.33.08-.51.04-.61-.05-1.18-.26-1.71-.22-.57-.58-1.08-1.05-1.49-.46-.41-1.07-.71-1.7-.85-.3-.07-.62-.1-.95-.1h0Zm-1.67,13.53s-.01-.02-.02-.04c-.07-.14-.14-.35-.21-.6-.13-.46-.21-1-.25-1.57-.08-1.09-.02-2.28.17-3.44.21-1.24.56-2.26.99-2.96.22-.36.46-.64.7-.8.2-.14.51-.23.63-.23.1,0,.13,0,.17.02.01,0,.06.03.12.1.06.07.12.18.15.27.03.11.04.22.04.3l-.03.33c-.03.48.17.93.55,1.22.19.15.42.24.65.28-.38,1.08-.82,2.29-1.32,3.43-.29.66-.55,1.19-.81,1.67-.32.59-.61,1.05-.91,1.41-.25.31-.47.51-.61.61h0Z"/>
  </g>
  <g>
    <path class="cls-2" d="m165,55.79c-.1,0-.19-.01-.27-.02-.26-.04-.47-.09-.67-.16-.42-.14-.82-.39-1.15-.71-.29-.28-.54-.62-.75-1-.2-.37-.31-.73-.39-1-.16-.58-.25-1.17-.29-1.8-.04-.51-.04-1.03-.02-1.64.02-.53.06-1.05.11-1.56.09-.92.23-1.83.37-2.7l.04-.26c.07-.47.15-.93.23-1.39.08-.48.17-.96.24-1.44.08-.46.14-.9.18-1.34.06-.49.08-.89.07-1.24,0-.37-.04-.72-.12-.96-.03-.11-.07-.19-.09-.23-.05-.07-.07-.09-.1-.11,0,0-.1-.06-.11-.06,0,0-.13,0-.14,0-.19.05-.47.25-.75.52-.49.48-.98,1.15-1.54,2.12-.45.79-.87,1.64-1.24,2.52-.36.85-.69,1.75-.98,2.67-.14.45-.27.91-.38,1.35-.1.43-.2.88-.22,1.29-.01.31-.18.58-.43.71-.16.11-.34.17-.53.17-.21,0-.42-.07-.58-.2-.3-.24-.57-.54-.77-.86-.22-.35-.36-.7-.45-.97-.18-.57-.28-1.16-.33-1.9-.06-1.07.01-2.06.09-3.01l.09-1.16c.02-.25.03-.49.04-.73.02-.49-.03-.89-.08-1.06,0,0-.04-.11-.05-.11-.01,0-.05-.01-.11-.03,0,0-.09,0-.09,0-.05.04-.14.12-.26.25-.23.26-.48.63-.73,1.12-.2.39-.41.84-.62,1.38-.35.9-.66,1.88-.94,2.99-.56,2.2-.88,4.3-.96,6.25.03.32-.11.64-.38.83-.16.12-.36.19-.57.19-.13,0-.25-.02-.37-.07-.62-.25-1.21-.71-1.72-1.32-.41-.49-.75-1.06-1.06-1.74-.47-1.08-.76-2.28-.9-3.67-.12-1.2-.09-2.43.08-3.64.1-.68.23-1.27.4-1.8.18-.57.39-1.19.76-1.8.27-.47.79-.77,1.34-.77.27,0,.54.07.78.21.52.3.82.87.77,1.48v.11c-.09.96-.19,1.99-.26,3.01-.09,1.15-.14,2.15-.16,3.05,0,.27,0,.54,0,.79.08-.51.17-1.03.27-1.55.26-1.29.53-2.34.85-3.29.21-.63.41-1.15.63-1.63.23-.5.51-1.07.97-1.65.2-.24.47-.55.88-.82.21-.14.46-.25.73-.32.15-.04.3-.06.45-.07h.31c.53.01,1,.14,1.4.38.25.16.47.34.63.53.18.21.32.44.41.61.39.83.43,1.53.46,2.15,0,.4-.01.79-.04,1.14.29-.8.57-1.46.86-2.07.42-.9.92-1.85,1.69-2.78.39-.46.85-.93,1.53-1.28.39-.2.83-.32,1.27-.34h.12c.2,0,.39.02.59.05.21.04.41.11.61.2.38.16.77.42,1.09.73.28.28.51.61.71,1,.34.68.48,1.34.56,1.89.18,1.21.14,2.3.07,3.3-.08,1.03-.2,2.02-.36,3.02l-.47,2.86-.08.53c-.04.28-.09.56-.13.84-.06.44-.11.89-.14,1.3-.02.39-.03.79.02,1.13.04.34.13.55.17.62.03.04.05.07.09.1,0,0,.03.01.07.03.04,0,.07.01.11.03.06,0,.25-.07.47-.22.27-.18.56-.45.85-.78.26-.3.52-.64.8-1.05.47-.69.93-1.5,1.37-2.41.4-.84.77-1.72,1.09-2.62.35-.97.6-1.86.76-2.7.07-.39.42-.68.83-.68.05,0,.1,0,.16.01.43.09.72.48.67.91,0,.03,0,.05-.02.07-.11.94-.29,1.91-.57,2.95-.28,1.06-.58,2.01-.93,2.91-.39,1.03-.82,1.95-1.31,2.82-.3.51-.56.94-.88,1.37-.3.4-.68.87-1.21,1.31-.29.25-.58.43-.89.58-.38.19-.8.31-1.23.33,0,0-.01,0-.02,0h-.32Z"/>
    <path class="cls-1" d="m162.45,35.6c.18,0,.36.02.55.05.19.04.37.1.56.18.37.15.73.4,1.01.68.29.29.5.61.66.93.32.64.45,1.25.54,1.82.17,1.15.14,2.21.07,3.24-.08,1.03-.2,2.02-.36,3l-.47,2.86c-.07.47-.15.93-.21,1.38-.06.45-.11.9-.14,1.32-.02.42-.03.83.02,1.18.04.35.13.6.21.72.04.06.08.11.15.16.04.02.08.04.14.06.03,0,.05.02.06.02s.03,0,.04,0c.02,0,.04,0,.07,0,.14,0,.38-.09.63-.26.3-.2.61-.49.9-.82.29-.33.56-.69.82-1.07.52-.76.98-1.59,1.39-2.44.41-.85.78-1.74,1.1-2.64.32-.9.59-1.82.77-2.74.05-.28.3-.48.58-.48.04,0,.07,0,.11.01.3.06.5.34.47.64h0c-.11,1.01-.31,2-.57,2.98-.26.98-.56,1.94-.92,2.88-.36.95-.78,1.88-1.29,2.79-.26.45-.53.9-.86,1.34s-.69.87-1.17,1.27c-.24.2-.51.39-.84.55-.32.16-.71.28-1.14.31h-.32c-.11,0-.22-.02-.3-.03-.18-.03-.37-.07-.56-.14-.38-.13-.76-.36-1.06-.65-.3-.29-.53-.62-.7-.94-.17-.32-.28-.64-.37-.95-.17-.61-.25-1.19-.28-1.74-.04-.56-.04-1.09-.02-1.62.02-.52.06-1.04.11-1.54.1-1.01.26-1.99.41-2.95.15-.96.33-1.91.47-2.83.08-.46.14-.91.18-1.36.05-.44.08-.87.07-1.27,0-.4-.05-.77-.13-1.03-.04-.13-.08-.23-.13-.3s-.09-.13-.17-.18c-.04-.02-.08-.05-.13-.07-.02-.01-.04-.03-.07-.03-.02,0-.05-.01-.08-.01-.04,0-.1,0-.17.03-.24.07-.56.3-.85.58-.59.58-1.11,1.36-1.58,2.17-.46.81-.88,1.67-1.25,2.55s-.7,1.78-.99,2.69c-.14.46-.27.92-.38,1.37-.11.46-.21.92-.23,1.34v.02c0,.21-.13.39-.3.48,0,0,0,0-.02.02-.12.08-.26.12-.39.12-.15,0-.31-.05-.43-.15-.28-.22-.53-.5-.71-.79-.19-.3-.32-.61-.43-.92-.2-.63-.28-1.24-.32-1.83-.07-1.19.04-2.3.12-3.36.02-.26.04-.52.06-.78.02-.25.03-.5.04-.74.02-.47-.02-.92-.09-1.14-.04-.11-.05-.15-.08-.19-.03-.04-.12-.09-.27-.12h-.12v-.02s-.04,0-.09.03c-.1.05-.24.17-.38.32-.28.31-.54.73-.77,1.17-.23.44-.44.92-.63,1.4-.38.97-.69,1.99-.95,3.02-.52,2.06-.88,4.18-.97,6.3.02.24-.07.49-.28.64-.13.1-.28.14-.43.14-.09,0-.19-.02-.27-.05-.64-.26-1.19-.73-1.62-1.25-.43-.52-.76-1.1-1.02-1.68-.51-1.18-.76-2.39-.88-3.59-.12-1.2-.09-2.4.08-3.58.09-.59.21-1.18.39-1.76s.39-1.17.74-1.75c.24-.41.68-.65,1.13-.65.22,0,.45.06.66.18.45.26.68.75.64,1.24v.13c-.09.93-.19,1.97-.26,2.99-.08,1.02-.14,2.05-.16,3.06-.02,1.01.02,2.02.16,2.96,0,.09.03.19.05.28.11-1.32.3-2.64.55-3.94.22-1.09.48-2.18.84-3.26.18-.54.38-1.08.62-1.61.25-.54.52-1.07.94-1.6.21-.26.46-.53.82-.77.18-.12.4-.22.66-.29.13-.03.27-.05.4-.06h.29c.39,0,.84.09,1.27.35.21.13.41.29.57.48.16.18.28.38.38.57.37.78.4,1.44.43,2.06,0,.61-.04,1.19-.1,1.74l-.21,1.61c0,.09-.02.18-.03.27.16-.55.33-1.1.51-1.65.33-.95.69-1.9,1.13-2.82.44-.93.93-1.85,1.66-2.73.37-.43.8-.88,1.45-1.22.33-.17.73-.29,1.17-.31.04,0,.08,0,.11,0m0-.5s-.09,0-.14,0c-.48.02-.96.15-1.38.37-.72.38-1.19.86-1.6,1.34-.79.96-1.3,1.93-1.73,2.84-.12.26-.24.52-.36.8-.03-.6-.11-1.25-.47-2.01-.1-.19-.25-.45-.46-.69-.17-.21-.41-.4-.68-.57-.44-.27-.95-.41-1.52-.42h-.3c-.2.01-.36.04-.51.07-.32.09-.59.21-.82.36-.44.29-.73.62-.93.87-.43.54-.71,1.07-1,1.7-.22.5-.43,1.02-.64,1.66-.19.56-.36,1.15-.52,1.81.02-.23.03-.47.05-.71.07-1.04.18-2.12.26-2.98v-.18c.06-.67-.28-1.32-.89-1.67-.28-.16-.59-.24-.91-.24-.64,0-1.24.34-1.56.89-.38.63-.6,1.26-.79,1.85-.17.54-.3,1.14-.41,1.83-.18,1.23-.21,2.48-.08,3.71.14,1.41.44,2.64.92,3.74.31.69.68,1.3,1.09,1.8.53.65,1.16,1.13,1.82,1.39.15.06.3.09.46.09.27,0,.52-.08.73-.25.32-.23.5-.62.48-1.04.08-1.92.4-3.99.95-6.17.28-1.11.58-2.07.93-2.96.21-.52.41-.96.61-1.35.24-.46.48-.82.7-1.07.04-.05.08-.08.12-.11.03.17.06.51.04.88-.01.25-.02.49-.04.72l-.02.26-.04.52-.03.39c-.08.96-.15,1.96-.09,3.04.05.77.16,1.37.34,1.95.1.3.25.66.48,1.04.21.34.5.66.82.92.21.16.47.25.74.25.24,0,.47-.07.66-.2.02-.01.03-.02.05-.04.29-.18.48-.51.5-.86.02-.41.12-.87.22-1.27.1-.4.22-.84.37-1.34.29-.9.61-1.79.97-2.64.37-.87.78-1.71,1.22-2.5.54-.94,1.02-1.59,1.5-2.06.28-.27.52-.42.64-.46,0,0,0,0,0,0,0,0,0,0,0,0,.01,0,.02.01.03.02,0,.01.02.02.03.04.01.02.03.05.07.17.07.22.11.55.11.88,0,.35-.01.74-.07,1.21-.04.45-.1.88-.18,1.33-.07.49-.16.98-.24,1.47-.08.45-.16.91-.23,1.37l-.04.28c-.14.87-.28,1.77-.37,2.7-.06.56-.09,1.09-.11,1.57-.02.62-.02,1.15.02,1.67.04.64.13,1.25.3,1.84.08.29.2.66.41,1.05.22.41.48.76.79,1.06.35.34.79.61,1.25.76.23.09.46.13.64.16h.07c.09.02.2.04.31.04h.32c.5-.03.95-.16,1.36-.36.33-.16.62-.35.94-.61.55-.46.94-.94,1.25-1.35.36-.48.65-.97.89-1.39.5-.89.93-1.83,1.32-2.86.35-.91.65-1.87.94-2.93.28-1.04.46-2.01.57-2.95.01-.03.02-.07.02-.11.06-.56-.32-1.07-.87-1.18-.07-.01-.14-.02-.21-.02-.52,0-.98.37-1.07.89-.16.83-.41,1.7-.75,2.66-.32.89-.68,1.76-1.08,2.59-.43.9-.89,1.7-1.35,2.37-.27.4-.53.73-.78,1.02-.28.32-.55.57-.8.73-.16.11-.29.16-.34.17-.01,0-.02,0-.02,0,0,0-.01,0-.02,0-.05-.07-.11-.24-.14-.52-.05-.32-.04-.72-.02-1.1.03-.36.07-.8.14-1.28.04-.27.08-.55.12-.83.03-.18.06-.36.08-.54l.47-2.85c.17-1.01.28-2.01.37-3.04.07-1.02.11-2.12-.07-3.35-.09-.58-.23-1.26-.59-1.97-.21-.41-.45-.76-.75-1.06-.34-.34-.76-.62-1.18-.79-.23-.09-.43-.16-.64-.21-.24-.04-.45-.06-.65-.06h0Z"/>
  </g>
  <g>
    <path class="cls-2" d="m175.96,52.84c-.47,0-.9-.04-1.29-.13-.88-.18-1.75-.62-2.44-1.24-.65-.59-1.17-1.33-1.51-2.15-.15-.34-.27-.71-.39-1.16-.09-.37-.15-.75-.2-1.17-.08-.72-.07-1.46.02-2.27.18-1.48.67-2.89,1.43-4.17.27-.44.57-.86.9-1.25.04-.82.2-1.53.47-2.18.25-.6.74-1.41,1.62-1.91.23-.13.42-.21.62-.27.07-.03.15-.05.23-.06l.18.22-.05-.24.22-.05c.25-.04.5-.06.75-.06.16,0,.33,0,.49.03.78.1,1.55.47,2.19,1.04.52.46.96,1.03,1.34,1.75.32.58.59,1.22.81,1.9.39,1.2.63,2.54.73,3.96.03.58.04,1.17.02,1.76.52-.14,1.07-.34,1.62-.59.62-.29,1.09-.55,1.51-.83.42-.27.87-.6,1.4-1.05.15-.13.35-.21.55-.21.25,0,.48.11.63.3.27.32.26.79-.01,1.1-.02.02-.04.04-.07.06-.42.46-.89.89-1.42,1.31-.56.44-1.11.81-1.7,1.12-.91.5-1.86.87-2.84,1.1,0,.02-.01.04-.02.05-.17.71-.42,1.4-.73,2.03-.4.79-.87,1.42-1.45,1.92-.67.6-1.5,1.03-2.33,1.21-.43.1-.88.15-1.29.15Zm-2.03-8.44c-.03.23-.05.46-.07.69-.04.46-.03.95.03,1.5.03.23.07.46.12.68.05.23.11.43.18.63.17.43.35.76.55.98.22.25.48.44.82.57.27.1.61.16.93.16.07,0,.14,0,.21-.01.2-.02.37-.06.53-.12.18-.06.34-.16.49-.26.46-.33.88-.88,1.22-1.59-.04,0-.53-.12-.53-.12-.72-.19-1.4-.47-2.03-.84-.95-.55-1.8-1.35-2.45-2.29Zm1.02-3.27c.14.46.32.9.53,1.28.5.94,1.23,1.72,2.1,2.26.41.26.88.47,1.43.63l.2.06s.14.03.14.03c.09.01.17.03.27.04.13-.65.2-1.32.22-1.99.04-1.17-.1-2.36-.39-3.44,0-.03,0-.06,0-.09-.15-.52-.35-1.01-.58-1.48-.28-.52-.58-.92-.92-1.23-.33-.31-.73-.49-1.15-.54-.08-.01-.15-.02-.22-.02-.13,0-.27.02-.4.05l-.1.02-.16.05c-.15.05-.22.09-.29.13-.15.1-.29.24-.41.41.03,0,.06,0,.09,0,.45,0,.86.25,1.06.65.23.44.17.97-.16,1.34-.5.57-.9,1.15-1.25,1.82Z"/>
    <path class="cls-1" d="m176.52,34.99c.15,0,.31,0,.46.03.79.1,1.51.49,2.05.98.55.49.96,1.07,1.29,1.68.33.6.59,1.23.79,1.86.41,1.27.63,2.58.72,3.9.04.68.04,1.37,0,2.07.67-.16,1.34-.4,1.99-.69.53-.25,1.05-.52,1.55-.85.5-.32.97-.69,1.42-1.07.11-.1.25-.15.39-.15.17,0,.33.07.44.21.19.23.18.56,0,.78v-.02c-.44.49-.93.94-1.45,1.35-.52.41-1.07.78-1.66,1.1-.91.5-1.89.88-2.93,1.11,0,.06-.02.12-.04.17-.16.67-.39,1.35-.72,2.01-.33.65-.77,1.3-1.39,1.84-.61.54-1.39.97-2.22,1.15-.41.09-.84.14-1.24.14s-.82-.03-1.24-.12c-.84-.17-1.67-.59-2.33-1.18-.65-.59-1.14-1.32-1.45-2.06-.16-.37-.28-.75-.38-1.13-.09-.38-.15-.76-.19-1.13-.08-.75-.06-1.49.02-2.22.18-1.45.66-2.83,1.4-4.07.27-.45.58-.88.93-1.28v-.07c.03-.71.17-1.42.46-2.11.29-.68.77-1.37,1.51-1.79.18-.1.37-.19.57-.25.1-.04.19-.05.28-.07s.18-.04.28-.06c.23-.04.46-.06.7-.06m-1.83,2.78c.06-.03.11-.07.16-.09.14-.07.29-.11.44-.11.34,0,.67.18.84.51.19.36.13.78-.12,1.06l-.04.04c-.52.59-.94,1.23-1.29,1.92.14.5.33.98.58,1.43.52.97,1.27,1.78,2.19,2.35.46.29.96.5,1.49.66l.2.06c.06.01.11.03.17.04.12.02.24.04.37.05h.14c.16-.73.25-1.48.27-2.24.04-1.18-.09-2.38-.4-3.51h.02c-.16-.56-.37-1.1-.63-1.61-.27-.5-.59-.95-.98-1.3-.38-.35-.83-.55-1.29-.6-.08-.01-.17-.02-.25-.02-.15,0-.31.02-.46.06-.06,0-.12.03-.18.05-.06.02-.13.03-.17.05-.1.04-.19.08-.28.14-.34.22-.61.6-.78,1.06m1.8,12.1c.08,0,.16,0,.23-.01.2-.02.4-.06.59-.13.19-.07.38-.17.55-.3.59-.42,1.08-1.15,1.43-1.98h0c-.1-.02-.19-.03-.29-.05-.09-.01-.19-.04-.29-.06l-.26-.06c-.68-.18-1.34-.45-1.96-.81-1.13-.66-2.07-1.64-2.71-2.76-.09.45-.15.91-.18,1.36-.04.52-.02,1.04.03,1.54.03.25.07.49.13.72.05.23.11.45.19.66.16.41.35.78.6,1.06.24.28.54.49.91.64.3.11.68.18,1.02.18m.03-15.38c-.25,0-.52.02-.78.06-.12.02-.22.04-.31.07h-.06c-.1.03-.19.05-.3.09-.17.05-.39.14-.63.28-.94.53-1.46,1.4-1.73,2.03-.29.68-.45,1.41-.49,2.18-.32.38-.61.78-.86,1.21-.79,1.32-1.28,2.75-1.47,4.27-.09.84-.1,1.6-.02,2.33.05.43.11.82.2,1.19.12.47.26.86.41,1.21.35.85.9,1.62,1.57,2.23.73.65,1.64,1.11,2.57,1.3.41.09.85.13,1.34.13.43,0,.9-.05,1.35-.15.87-.19,1.74-.64,2.44-1.26.6-.52,1.09-1.17,1.5-1.99.3-.61.55-1.28.73-1.99.95-.24,1.88-.6,2.76-1.09.59-.32,1.16-.7,1.73-1.15.53-.41,1.01-.86,1.43-1.31.03-.02.07-.05.09-.08.35-.41.36-1.01.02-1.43-.21-.25-.51-.39-.83-.39-.26,0-.52.1-.72.27-.51.43-.95.76-1.36,1.02-.42.28-.88.53-1.49.82-.42.19-.84.35-1.25.48,0-.48,0-.96-.03-1.43-.1-1.47-.34-2.79-.74-4.02-.22-.69-.5-1.35-.83-1.95-.4-.74-.86-1.33-1.4-1.81-.67-.61-1.49-1-2.32-1.1-.17-.02-.35-.03-.52-.03h0Zm-.37,2.48s.05,0,.07-.01c.11-.03.22-.04.34-.04.06,0,.13,0,.19.01.38.04.72.2,1.02.47.32.29.61.67.88,1.17.22.43.41.9.55,1.39,0,.04,0,.08.02.12.29,1.05.42,2.22.38,3.36-.02.58-.07,1.16-.17,1.72,0,0-.02,0-.03,0-.06-.02-.1-.03-.13-.03l-.18-.05c-.53-.16-.98-.36-1.37-.6-.84-.52-1.54-1.27-2.02-2.16-.2-.35-.36-.73-.48-1.14.33-.61.7-1.15,1.13-1.64l.02-.02c.41-.46.49-1.12.21-1.65-.18-.34-.48-.6-.84-.71,0,0,0,0,.01,0,.06-.04.12-.06.19-.1.06-.02.1-.03.14-.04,0,0,.06-.02.06-.02,0,0,.01,0,.01,0h0Zm.34,12.4c-.28,0-.6-.06-.84-.15-.29-.12-.52-.28-.71-.5-.19-.21-.35-.51-.51-.92-.06-.16-.12-.36-.17-.58-.05-.21-.09-.42-.12-.67-.05-.53-.06-1-.03-1.44,0-.02,0-.03,0-.05.6.74,1.32,1.37,2.14,1.84.65.38,1.35.67,2.08.86l.23.05c-.29.53-.63.95-.99,1.21-.14.1-.28.18-.43.24-.14.05-.29.08-.47.1-.06,0-.12,0-.18,0h0Z"/>
  </g>
  <g>
    <path class="cls-2" d="m188.22,53.58c-.38,0-.78-.06-1.15-.18-.44-.14-.86-.4-1.17-.72-.53-.54-.84-1.21-.96-2.03-.09-.6-.07-1.22.06-1.88.23-1.12.74-2.16,1.52-3.1.41-.49.88-.93,1.4-1.32l-.74-.58c-.33-.26-.68-.53-1.02-.84-.39-.36-.83-.8-1.22-1.36-.3-.43-.7-1.12-.87-2.01-.07-.38-.1-.77-.06-1.15,0-.18.03-.36.06-.54,0-.08.03-.19.07-.31.02-.09.05-.2.08-.3.14-.43.36-.84.63-1.17.26-.32.58-.6.95-.83.62-.38,1.32-.6,2.09-.65.11,0,.23-.01.34-.01.56,0,1.11.08,1.64.25.68.21,1.27.54,1.76.97.53.47.95,1.05,1.2,1.68.24.6.34,1.27.3,1.93-.04.62-.56,1.11-1.19,1.11-.65-.04-1.11-.48-1.17-1.05-.08-.69-.36-1.18-.84-1.48-.35-.23-.8-.36-1.25-.36-.15,0-.29.01-.42.04-.25.05-.49.15-.6.26-.11.1-.12.16-.13.23v.32c0,.09.04.19.06.28.05.17.16.35.35.59.38.47,1.06,1.02,1.78,1.58l.23.19c.55.43,1.16.92,1.75,1.52h.05c.12-.04.24-.07.35-.09.96-.19,1.99-.29,3.05-.29.95,0,1.93.07,3,.23.46.07.77.48.71.94,0,.04-.02.08-.05.12-.1.35-.42.59-.8.59-.7-.06-1.31-.08-1.88-.08-1.14,0-2.17.1-3.12.31.04.07.08.15.13.22.08.16.15.31.21.47.06.17.13.34.18.51.1.33.17.67.2,1.04.06.67,0,1.34-.16,1.99-.15.62-.38,1.2-.68,1.74-.7,1.21-1.55,2.08-2.62,2.66-.67.36-1.39.55-2.07.55Zm1.4-7.7c-.5.38-.93.8-1.26,1.26-.48.66-.78,1.37-.87,2.07-.05.35-.04.69.03.99.07.3.2.46.24.49.13.05.19.05.24.05,0,0,.1,0,.11,0,.21-.03.45-.12.66-.27.48-.33.93-.91,1.21-1.55.26-.61.37-1.3.27-1.84-.02-.14-.06-.25-.11-.37-.02-.08-.05-.12-.07-.17-.06-.11-.08-.15-.09-.17-.09-.16-.2-.31-.35-.48Z"/>
    <path class="cls-1" d="m188.23,34.85c.54,0,1.06.08,1.56.24.6.19,1.18.49,1.67.92s.89.98,1.13,1.58c.24.6.32,1.24.28,1.82-.03.5-.45.88-.94.88-.02,0-.04,0-.06,0-.46-.03-.82-.38-.87-.83v-.03c-.09-.75-.43-1.3-.96-1.63-.39-.26-.89-.4-1.38-.4-.16,0-.32.02-.47.05-.3.06-.57.18-.72.32-.16.14-.2.26-.21.39v.34c0,.13.04.24.07.35.07.22.2.43.4.68.4.49,1.08,1.04,1.82,1.62.65.52,1.37,1.07,2.06,1.79.18-.04.36-.09.53-.12,1.01-.2,2.01-.28,3.01-.28s1.99.09,2.96.23c.32.05.54.34.5.66h-.02c-.04.28-.29.49-.57.49-.02,0-.04,0-.06,0-.61-.05-1.22-.08-1.82-.08-1.2,0-2.38.11-3.51.4.1.16.2.33.3.51.07.14.14.29.2.44.06.16.12.32.17.49.1.33.16.66.19.99.06.66,0,1.31-.15,1.91-.15.6-.37,1.16-.66,1.68-.59,1.03-1.39,1.95-2.52,2.56-.56.3-1.23.52-1.95.52-.36,0-.73-.06-1.07-.17-.41-.13-.79-.37-1.07-.66-.57-.59-.8-1.27-.89-1.89-.09-.63-.05-1.23.06-1.8.23-1.14.77-2.15,1.47-2.99.48-.57,1.03-1.06,1.63-1.47-.26-.2-.54-.41-.82-.63-.38-.3-.79-.61-1.19-.98-.4-.37-.82-.79-1.19-1.32-.37-.52-.69-1.18-.83-1.91-.07-.36-.09-.73-.06-1.08,0-.18.03-.35.06-.52,0-.08.03-.18.06-.28.02-.1.05-.2.08-.29.13-.39.33-.77.59-1.09.26-.32.57-.58.89-.78.65-.4,1.33-.57,1.97-.61.11,0,.22-.01.33-.01m-.24,16.14s.09,0,.13-.01c.24-.03.51-.13.77-.31.53-.36,1.01-.99,1.3-1.66.29-.67.39-1.4.29-1.98h0c-.02-.16-.07-.29-.12-.42-.02-.07-.05-.13-.08-.19-.04-.07-.07-.14-.11-.2-.13-.23-.31-.45-.52-.68-.58.41-1.09.89-1.5,1.45-.49.67-.82,1.43-.92,2.19-.05.38-.04.75.03,1.07.07.32.22.57.35.65.06.05.11.06.16.07.07.01.14.02.22.02m.24-16.64c-.12,0-.24,0-.36.01-.81.05-1.55.28-2.2.68-.4.25-.74.55-1.02.89-.29.36-.52.79-.68,1.25-.04.11-.07.23-.1.35-.03.08-.05.21-.07.32-.03.17-.05.36-.06.55-.03.38,0,.8.07,1.2.18.93.6,1.66.91,2.1.41.58.86,1.03,1.26,1.4.35.32.69.59,1.03.86l.19.15c.1.08.2.16.3.23-.43.35-.83.73-1.18,1.15-.81.98-1.34,2.06-1.58,3.21-.13.7-.16,1.34-.06,1.97.13.88.46,1.58,1.03,2.17.34.36.8.64,1.28.79.39.13.81.19,1.22.19.72,0,1.48-.2,2.19-.58,1.1-.59,2.01-1.52,2.72-2.75.31-.56.55-1.17.71-1.81.17-.68.23-1.38.16-2.08-.03-.38-.1-.74-.21-1.09-.05-.18-.12-.35-.18-.52-.06-.15-.13-.3-.19-.43.84-.16,1.74-.24,2.74-.24.56,0,1.16.03,1.78.08.03,0,.06,0,.1,0,.48,0,.89-.31,1.03-.76.03-.05.05-.11.06-.18.07-.59-.33-1.12-.92-1.22-1.08-.16-2.08-.23-3.04-.23-1.08,0-2.12.1-3.11.29-.08.01-.18.04-.27.06-.57-.57-1.15-1.03-1.68-1.45l-.23-.18c-.68-.53-1.37-1.09-1.75-1.55-.17-.21-.26-.37-.31-.52-.02-.08-.04-.15-.05-.24v-.16s0-.08,0-.08v-.05s0,0,0,0c0,0,.02-.01.04-.03.08-.07.25-.16.49-.21.12-.03.24-.04.37-.04.39,0,.8.12,1.11.32.42.26.66.68.73,1.25,0,.02,0,.04,0,.05.08.69.64,1.23,1.33,1.27h.09c.77,0,1.4-.59,1.44-1.35.05-.69-.06-1.4-.31-2.03-.27-.67-.7-1.28-1.26-1.77-.52-.45-1.14-.8-1.85-1.02-.55-.17-1.13-.26-1.71-.26h0Zm-.34,16.13s0,0-.01,0c0,0-.08-.12-.12-.33-.06-.26-.07-.57-.02-.9.09-.66.37-1.34.83-1.96.28-.38.62-.74,1.02-1.06.07.09.12.17.16.24.03.05.04.08.06.1.02.03.04.07.05.1,0,0,.02.04.03.08.05.14.09.24.1.32,0,.02,0,.03,0,.04.09.49-.01,1.13-.26,1.7-.26.6-.69,1.15-1.12,1.44-.18.13-.38.21-.55.23-.04,0-.06,0-.07,0-.03,0-.07,0-.1,0h0Z"/>
  </g>
  <g>
    <path class="cls-2" d="m201.93,52.34c-.88,0-1.59-.86-1.59-1.91s.71-1.91,1.59-1.91,1.59.86,1.59,1.91-.71,1.91-1.59,1.91Zm-.21-4.58c-.52,0-.98-.34-1.14-.84-.49-1.56-.83-3.3-1.07-5.5-.1-1.01-.17-1.91-.2-2.77-.03-.93-.05-1.84-.05-2.75.02-2.06.13-3.86.34-5.49.26-2.05.64-3.82,1.17-5.4.2-.59.75-.98,1.36-.98.15,0,.31.03.46.08.59.2.98.75.98,1.37,0,1.81-.12,3.59-.24,5.32-.04.58-.09,1.17-.14,1.75-.09,1.16-.19,2.33-.25,3.49-.05.88-.1,1.75-.13,2.61-.03.9-.06,1.76-.06,2.61-.02,1.8.03,3.5.16,5.19.05.67-.44,1.25-1.1,1.3,0,0-.08,0-.09,0Z"/>
    <path class="cls-1" d="m202.13,24.29c.12,0,.25.02.38.06.5.17.81.63.81,1.13,0,1.79-.12,3.55-.24,5.3-.13,1.75-.29,3.5-.39,5.25-.05.88-.1,1.75-.13,2.62-.03.87-.06,1.75-.06,2.62-.02,1.75.03,3.48.16,5.21v.02c.04.52-.35.97-.87,1.01-.02,0-.04,0-.07,0-.42,0-.78-.27-.9-.66-.56-1.78-.86-3.62-1.06-5.45-.09-.92-.16-1.83-.2-2.75-.03-.92-.05-1.83-.05-2.74.02-1.83.11-3.65.34-5.46.23-1.81.58-3.61,1.16-5.35.17-.5.63-.81,1.12-.81m-.2,24.48c.74,0,1.34.74,1.34,1.66s-.6,1.66-1.34,1.66-1.34-.74-1.34-1.66.6-1.66,1.34-1.66m.2-24.98h0c-.72,0-1.36.46-1.6,1.15-.53,1.6-.92,3.38-1.18,5.45-.21,1.64-.32,3.45-.34,5.52,0,.83.02,1.71.05,2.76.04.87.1,1.78.2,2.78.24,2.21.59,3.98,1.08,5.55.19.61.75,1.01,1.38,1.01.03,0,.07,0,.1,0,.8-.06,1.4-.76,1.34-1.55-.13-1.71-.18-3.4-.16-5.19,0-.88.03-1.76.06-2.61.03-.84.08-1.68.13-2.54v-.07c.07-1.16.17-2.34.26-3.49.05-.58.09-1.17.14-1.75.12-1.73.24-3.52.24-5.34,0-.73-.46-1.37-1.15-1.6-.17-.06-.35-.09-.54-.09h0Zm-.2,24.48c-1.01,0-1.84.97-1.84,2.16s.83,2.16,1.84,2.16,1.84-.97,1.84-2.16-.83-2.16-1.84-2.16h0Z"/>
  </g>
  <g>
    <path class="cls-2" d="m168.03,30.5c-6.28,0-11.44-4.69-12-10.91-.31-3.42.79-6.69,3.09-9.21,2.27-2.49,5.51-3.92,8.9-3.92.12,0,.25,0,.37,0,5.83.17,10.78,4.66,11.51,10.44.31,2.46-.1,4.85-1.23,7.09-.05.1-.2.39-.53.39-.08,0-.15-.01-.24-.04-.65-.22-1.3-.44-1.98-.66-.08-.03-.15-.09-.17-.18-.02-.08,0-.17.07-.24,1.57-2.83,1.77-5.6.58-8.44-1.4-3.31-4.74-5.53-8.33-5.53-.33,0-.66.02-.98.06-4.16.5-7.42,3.54-8.09,7.55-.45,2.68.29,5.4,2.03,7.46s4.29,3.24,6.98,3.24c.21,0,.42,0,.64-.02,1.86-.12,3.56-.79,5.05-1.98.08-.07.22-.17.41-.17.14,0,.27.06.37.11.57.3,1.15.57,1.75.85l.24.11c.07.03.12.1.14.18.01.08-.01.16-.07.22-.69.71-1.52,1.35-2.44,1.9-1.84,1.09-3.93,1.67-6.04,1.67Z"/>
    <path class="cls-1" d="m168.02,6.71c.12,0,.24,0,.36,0,5.71.17,10.55,4.56,11.27,10.22.31,2.44-.1,4.75-1.21,6.95-.08.16-.17.25-.31.25-.05,0-.1,0-.16-.03-.65-.22-1.3-.44-1.98-.66h0c1.61-2.9,1.86-5.76.62-8.71-1.45-3.42-4.94-5.68-8.56-5.68-.34,0-.67.02-1.01.06-4.29.52-7.61,3.61-8.31,7.76-.98,5.8,3.48,10.99,9.26,10.99.22,0,.43,0,.65-.02,1.94-.13,3.67-.82,5.19-2.03.09-.08.17-.11.25-.11.07,0,.15.03.25.08.65.34,1.32.65,2,.97-.7.72-1.51,1.34-2.39,1.86-1.89,1.12-3.93,1.63-5.91,1.63-5.77,0-11.18-4.32-11.76-10.68-.63-6.94,4.81-12.86,11.74-12.86m0-.5c-3.45,0-6.76,1.46-9.08,4-2.32,2.54-3.47,5.97-3.16,9.4.58,6.35,5.85,11.14,12.25,11.14,2.15,0,4.28-.59,6.17-1.7.95-.56,1.78-1.21,2.49-1.94.11-.12.16-.28.13-.44-.03-.16-.13-.29-.28-.36l-.24-.11c-.6-.28-1.18-.55-1.74-.85-.11-.06-.28-.14-.48-.14s-.39.07-.57.23c-1.44,1.15-3.09,1.79-4.9,1.92-.21.01-.42.02-.62.02-2.62,0-5.1-1.15-6.79-3.15-1.69-2.01-2.41-4.65-1.97-7.25.66-3.9,3.82-6.86,7.88-7.35.31-.04.63-.06.95-.06,3.49,0,6.74,2.16,8.1,5.37,1.16,2.75.96,5.45-.59,8.25-.07.11-.09.25-.06.38.04.17.16.31.33.36.68.22,1.33.44,1.97.66.12.04.22.06.32.06.33,0,.58-.18.76-.53,1.15-2.29,1.58-4.72,1.26-7.24-.75-5.9-5.8-10.48-11.75-10.66-.13,0-.25,0-.38,0h0Z"/>
  </g>
  <g>
    <path class="cls-2" d="m179.57,26.96c-3.84,0-7.3-2.11-9.03-5.52-2.15-4.22-.88-8.63,1.33-11.13.05-.05.12-.08.19-.08.03,0,.06,0,.09.02.04.01.07.04.1.07l1.58,1.04c.06.04.1.1.11.18,0,.07-.01.15-.06.2-1.53,1.68-2.21,3.94-1.88,6.2.34,2.3,1.65,4.29,3.6,5.46,1.19.72,2.56,1.1,3.95,1.1,2.71,0,5.15-1.37,6.53-3.67,1.11-1.84,1.4-3.97.81-6.02-.59-2.08-2-3.77-3.96-4.78-.08-.04-.13-.12-.14-.21,0-.09.04-.17.11-.22l1.8-1.23s.09-.04.14-.04c.04,0,.09.01.13.04,2.86,1.76,5.37,5.63,4.53,10.31-.78,4.3-4.19,7.6-8.47,8.2-.48.07-.97.1-1.45.1Z"/>
    <path class="cls-1" d="m184.84,8.56c3.07,1.89,5.18,5.8,4.41,10.05-.76,4.17-4.1,7.41-8.26,8-.47.07-.95.1-1.42.1-3.69,0-7.11-2.04-8.8-5.38-1.98-3.89-1.03-8.22,1.29-10.85h0c.55.37,1.08.72,1.63,1.08-3.41,3.76-2.31,9.58,1.78,12.04,1.27.77,2.68,1.13,4.07,1.13,2.67,0,5.27-1.35,6.75-3.79,2.37-3.93.93-9.01-3.25-11.15.62-.42,1.21-.83,1.8-1.23m0-.5c-.1,0-.2.03-.28.09-.29.19-.57.39-.87.59-.31.21-.62.42-.93.64-.15.1-.23.27-.22.44.01.18.11.33.27.41,1.9.97,3.26,2.62,3.84,4.62.56,1.98.28,4.05-.79,5.82-1.34,2.22-3.7,3.55-6.32,3.55-1.34,0-2.66-.37-3.82-1.06-1.89-1.13-3.15-3.06-3.48-5.28-.32-2.18.34-4.36,1.81-5.99.1-.11.14-.25.13-.4-.02-.15-.1-.27-.22-.35l-.81-.53-.77-.51s-.09-.07-.14-.09c-.06-.02-.12-.03-.18-.03-.14,0-.27.06-.37.17-2.26,2.56-3.56,7.09-1.36,11.41,1.77,3.49,5.32,5.65,9.25,5.65.5,0,1-.04,1.49-.11,4.39-.62,7.88-4,8.68-8.41.75-4.15-1.11-8.39-4.64-10.57-.08-.05-.17-.07-.26-.07h0Z"/>
  </g>
  <g>
    <path class="cls-2" d="m176.51,9.81c-.09,0-.22-.02-.32-.09-.41-.31-.8-.64-1.2-.98l-.37-.31c-.05-.04-.08-.11-.09-.18,0-.07.02-.14.07-.19,1.33-.75,2.65-1.15,4.1-1.29h.02c.34,0,.52.12.62.37.17.37.36.74.55,1.12l.29.58c.04.08.03.16,0,.24s-.12.12-.2.12c-.15,0-.3.02-.45.02-.33.01-.64.02-.93.08-.38.07-.75.17-1.13.27-.25.07-.49.13-.74.19-.05.02-.13.03-.21.03Z"/>
    <path class="cls-1" d="m178.79,7.04c.15,0,.25.06.31.22.26.56.55,1.12.84,1.71-.49.03-.96.02-1.41.1-.63.12-1.25.32-1.88.47-.04.01-.1.02-.15.02-.07,0-.14-.01-.18-.04-.52-.4-1.02-.83-1.55-1.27h.01c1.24-.69,2.54-1.08,3.93-1.21.03,0,.05,0,.08,0m0-.5s-.08,0-.13,0c-1.48.14-2.83.55-4.12,1.26-.04.02-.08.05-.11.08-.1.1-.16.24-.15.38,0,.14.07.28.18.37l.38.32c.4.33.78.66,1.18.96.17.12.35.14.48.14.1,0,.21-.01.3-.04.22-.05.47-.12.72-.19.38-.1.74-.2,1.11-.27.27-.05.58-.06.9-.07.15,0,.3-.01.45-.02.17-.01.32-.1.4-.25.08-.14.09-.32.02-.47l-.29-.58c-.19-.38-.37-.75-.54-1.12-.18-.42-.52-.51-.77-.51h0Z"/>
  </g>
  <g>
    <path class="cls-2" d="m182.03,9.59c-.06,0-.13-.02-.17-.07,0,0-.04-.04-.04-.04-.07-.07-.09-.18-.06-.28,0-.02.02-.04.04-.06l1.09-1.83c.5-.83.99-1.67,1.49-2.49.09-.14.28-.23.43-.23.66.16,1.23.31,1.81.46l1.04.27c.09.02.17.1.18.2.02.1-.02.19-.11.25l-5.56,3.79s-.09.04-.14.04Z"/>
    <path class="cls-1" d="m184.8,4.83s.02,0,.03,0c.9.23,1.8.47,2.76.72-1.89,1.29-3.73,2.54-5.56,3.79-.02-.02-.03-.03-.05-.05h0c.87-1.45,1.73-2.91,2.6-4.35.04-.05.14-.11.21-.11m0-.5h0c-.23,0-.5.14-.63.34-.52.85-1.02,1.69-1.52,2.54-.35.59-.71,1.19-1.06,1.78-.03.03-.05.07-.07.12-.08.19-.04.4.1.54l.05.05c.1.1.22.15.35.15.1,0,.2-.03.28-.09l2.95-2.01,2.61-1.78c.16-.11.24-.31.21-.5-.03-.19-.18-.35-.37-.4l-1.03-.27c-.59-.15-1.16-.3-1.73-.45-.04-.01-.11-.02-.15-.02h0Z"/>
  </g>
  <g>
    <path class="cls-2" d="m181.06,9.35c-.09,0-.18-.05-.22-.14l-3.01-6.04c-.04-.08-.03-.17.01-.24.05-.07.13-.12.21-.12l.27.06c.9.23,1.73.45,2.56.68.22.05.34.34.34.52.05,1.59.09,3.3.08,5.03,0,.12-.08.22-.19.24-.02,0-.04,0-.06,0Z"/>
    <path class="cls-1" d="m178.06,3.06c.97.25,1.87.48,2.76.73.08.02.16.18.16.28.05,1.67.09,3.33.08,5.03-.99-1.99-1.98-3.97-3.01-6.04h0m0-.5h0c-.17,0-.33.09-.43.24-.09.15-.1.33-.02.49l1.51,3.03,1.5,3.01c.09.17.26.28.45.28.04,0,.08,0,.11-.01.23-.05.39-.25.39-.48.01-1.74-.03-3.45-.08-5.05,0-.24-.17-.66-.54-.75-.81-.23-1.64-.44-2.52-.67l-.23-.06s-.08-.02-.12-.02h0Z"/>
  </g>
  <g>
    <path class="cls-2" d="m181.73,8.47c-.1-.03-.18-.11-.19-.22-.09-.93-.42-4.31-.42-4.31,0-.07.02-.14.06-.19.05-.05.12-.08.19-.08,1.05.27,1.98.51,2.95.76.08.02.14.08.17.16s.02.16-.03.23c0,0-1.93,2.79-2.47,3.56-.05.07-.12.11-.21.11-.02,0-.04,0-.06,0Z"/>
    <path class="cls-1" d="m181.39,3.92c.98.26,1.91.5,2.88.75-.82,1.18-1.61,2.33-2.47,3.56-.14-1.48-.28-2.87-.42-4.31h0m0-.5h0c-.14,0-.28.06-.37.16-.09.1-.14.24-.13.38l.15,1.53c.09.91.18,1.83.27,2.78.02.21.17.38.37.44.04.01.09.02.13.02.16,0,.31-.08.41-.21.53-.75,1.03-1.48,1.53-2.2l.94-1.36c.09-.13.12-.31.06-.46-.06-.15-.19-.27-.34-.31-.97-.25-1.9-.49-2.88-.75-.04-.01-.08-.02-.13-.02h0Z"/>
  </g>
  <g>
    <path class="cls-2" d="m180.82,3.66l-2.79-.73c-.09-.02-.16-.09-.18-.18-.02-.09,0-.18.07-.24,0,0,1.51-1.45,2.05-1.97.05-.05.11-.07.17-.07.02,0,.04,0,.07,0,.08.02.15.09.18.17l.08.28c.21.74.42,1.54.65,2.38.02.04.03.09.02.14-.02.12-.12.22-.24.22,0,0-.05,0-.07-.01Z"/>
    <path class="cls-1" d="m180.15.72c.23.83.48,1.73.74,2.7-.97-.25-1.86-.49-2.79-.73.71-.68,1.38-1.32,2.05-1.97m.74,2.7s0,0,.01,0h0s0,0,0,0m-.74-3.2c-.13,0-.25.05-.35.14-.57.56-1.14,1.1-1.74,1.67l-.31.29c-.13.13-.18.31-.14.49.05.18.18.31.36.36.45.12.89.23,1.34.35.46.12.92.24,1.4.37.05.02.11.03.17.03.25,0,.47-.19.5-.44.01-.09,0-.19-.04-.27-.24-.89-.47-1.71-.68-2.48l-.04-.15c-.05-.17-.18-.3-.35-.35-.04-.01-.09-.02-.13-.02h0Z"/>
  </g>
  <g>
    <path class="cls-2" d="m187.77,5.47s-.08,0-.11-.03l-1.13-.29c-.53-.14-1.06-.28-1.58-.41-.09-.02-.16-.09-.18-.18-.02-.09,0-.18.07-.24.69-.66,1.37-1.31,2.04-1.94.05-.04.11-.07.17-.07.02,0,.05,0,.07,0,.08.02.15.09.17.18l.73,2.66s.01.07.01.07c0,.13-.09.24-.22.25-.01,0-.02,0-.04,0Z"/>
    <path class="cls-1" d="m187.04,2.55c.22.81.47,1.7.73,2.66-.97-.25-1.86-.49-2.77-.72.69-.66,1.37-1.31,2.04-1.94m.73,2.66s0,0,0,0h0s0,0,0,0m-.73-3.16c-.13,0-.25.05-.34.14-.67.63-1.35,1.28-2.04,1.94-.13.13-.18.31-.14.49s.18.31.36.36c.53.13,1.05.27,1.58.41.36.09.73.19,1.11.29.06.03.13.04.2.04.02,0,.04,0,.07,0,.25-.03.43-.24.44-.49,0-.05,0-.1-.02-.15-.14-.52-.28-1.03-.41-1.51l-.31-1.14c-.05-.17-.18-.3-.35-.35-.04-.01-.09-.02-.14-.02h0Z"/>
  </g>
  <g>
    <path class="cls-2" d="m184.58,4.34c-.08-.02-.15-.09-.17-.17l.24-.07-.25.03c-.23-.82-.47-1.71-.73-2.66-.02-.09,0-.18.06-.24.05-.05.11-.07.18-.07.02,0,.04,0,.06,0,.96.25,1.83.48,2.73.71.09.02.19.1.21.19.02.09.03.19-.04.25l-2.06,1.97s-.11.07-.17.07c-.02,0-.04,0-.07,0Z"/>
    <path class="cls-1" d="m183.91,1.4c.98.26,1.87.49,2.8.73-.7.67-1.38,1.32-2.06,1.97-.23-.83-.48-1.73-.74-2.7m0-.5c-.13,0-.26.05-.35.15-.13.13-.18.31-.13.48.24.91.48,1.76.7,2.55l.04.15c.05.17.18.3.35.35.04.01.09.02.13.02.13,0,.25-.05.35-.14l.04-.04,2.02-1.93c.13-.13.18-.31.14-.49-.05-.18-.18-.31-.36-.36-.93-.24-1.82-.47-2.8-.73-.04-.01-.09-.02-.13-.02h0Z"/>
  </g>
  <g>
    <path class="cls-2" d="m184.27,4.55l-2.78-.72c-.09-.02-.16-.09-.18-.18-.02-.09,0-.18.07-.24l2-1.92s0-.01.01-.02c.05-.06.12-.1.2-.1.1,0,.2.06.24.16,0,.03.02.05.02.08l.73,2.64c.02.09,0,.18-.06.24-.05.05-.11.07-.18.07-.02,0-.04,0-.06,0Z"/>
    <path class="cls-1" d="m183.6,1.62h0m0,0s0,0,0,0c0,0,0,0,0,0h.01m0,0c.23.84.48,1.74.74,2.68-.96-.25-1.86-.48-2.78-.72.7-.67,1.36-1.31,2.04-1.96m.01-.51h-.01c-.16,0-.3.07-.4.2,0,0,0,0,0,0-.33.32-.66.63-.99.95l-.99.95c-.13.13-.18.31-.14.49.05.18.18.31.36.36l1.42.37,1.36.35s.08.02.13.02c.13,0,.26-.05.36-.15.13-.13.17-.31.13-.48l-.4-1.45-.31-1.13c-.01-.26-.23-.48-.5-.48h0Z"/>
  </g>
  <g>
    <path class="cls-2" d="m181.15,3.47c-.08-.02-.15-.09-.17-.17-.24-.86-.49-1.76-.75-2.73-.02-.09,0-.18.06-.24.05-.05.11-.07.18-.07.02,0,.04,0,.06,0,.95.25,1.85.48,2.83.73.11.03.19.13.19.24,0,.07-.03.14-.08.19l-2.08,1.99s-.11.07-.17.07c-.02,0-.04,0-.07,0Z"/>
    <path class="cls-1" d="m180.47.5c.95.25,1.85.48,2.83.73h0c-.72.7-1.39,1.34-2.08,2-.24-.86-.49-1.76-.75-2.73m0-.5c-.13,0-.26.05-.35.15-.13.13-.17.31-.13.48.26.97.51,1.87.75,2.73.05.17.18.3.35.35.04.01.09.02.13.02.13,0,.25-.05.35-.14l.59-.56,1.49-1.43c.1-.09.15-.22.15-.36,0-.23-.15-.44-.38-.49-.98-.25-1.88-.48-2.83-.73-.04-.01-.08-.02-.13-.02h0Z"/>
  </g>
</svg>