<?xml version="1.0" encoding="UTF-8"?>
<svg id="Capa_1" data-name="Capa 1" xmlns="http://www.w3.org/2000/svg" viewBox="0 0 295.08 101.99">
  <defs>
    <style>
      .cls-1, .cls-2 {
        fill: #fff;
      }

      .cls-1, .cls-2, .cls-3 {
        stroke-width: 0px;
      }

      .cls-2 {
        fill-rule: evenodd;
      }

      .cls-3 {
        fill: #471900;
      }
    </style>
  </defs>
  <path class="cls-2" d="m143.13,62.77c.4-.3,1.6-1.8,3.3-3.1,3.5-2.8,8-5.5,9.1-10.1.9-4.2-1.3-7.4-4.1-8.5-5-2.1-7.2,2.5-8.3,3.5-.4-.4-.9-1.2-1.3-1.7s-1.2-1.1-1.8-1.5c-6.4-3.9-15.5,6.9-3.8,15.5l5.3,4.3c.5.5,1.1,1.2,1.6,1.6h0Z"/>
  <path class="cls-1" d="m60.1,13.47H2c-.6,0-1-.5-1-1s.5-1,1-1h58.1c.6,0,1,.5,1,1s-.4,1-1,1Z"/>
  <path class="cls-1" d="m294.08,14.47h-57.9c-.6,0-1-.5-1-1s.5-1,1-1h57.9c.6,0,1,.5,1,1s-.4,1-1,1Z"/>
  <path class="cls-2" d="m76.51,85.55c-2.7.4-4.3.8-6.1,2.2-3.2,2.6-1.2,8.9,6.3,4.3,1-.6,1.6-1.1,2.4-1.8.9-.8,1.2-1.4,2.1-2.2,1.9.6,3.5,1.5,6.4,2.4,1.1.3,2.3.6,3.5.9.8.2,3.1.5,3.7.8-.5.3-8.1,2.3-7.3,7.4.2,1.3,1.3,2.2,2.6,2.4,3.5.5,7.4-3.4,9.1-5.9.8-1.2,1-2.1,1.6-3.4,2.5-.1,4.9,0,7.4-.2,3.4-.2,5.8,0,5.2-2.1-1.1-.5-4.4.2-6,.3-2.2.1-4.5.2-6.8.1-.6-2.6-3.4-8-5.9-9.2-2.4-1.2-6,.6-3.9,5.8.4,1.1,1,1.6,1.5,2.4-4-.4-8.3-2.8-10.5-3.3-.1-3.5-1.8-10-5-10.6-3.6-.6-5.1,5-.3,9.7h0Z"/>
  <path class="cls-2" d="m201.51,90.65c.4-.2.8-.7,1.2-1.1.9-.9.9-.7,1.1-1.4-2,.3-4.3,1.6-6.5,1.7.3-.7.9-1.2,1.4-2.3,2.1-5-1.1-7.2-3.8-5.9-2,.9-5.3,6.2-5.9,9.2-2.3,0-4.5,0-6.8-.1-1.6-.1-4.9-.8-6-.3-.4,1.5.3,1.6,1.7,1.7,4.4.5,7.1.3,10.9.5.9,1.6,1.5,3.9,3.9,6,1.4,1.2,3.7,3.6,6.7,3.3,3.4-.4,4.3-5.3-1-8.4-1.8-1.1-3-1.2-3.5-1.5.5,0,5.7-1.1,6.6-1.4h0Z"/>
  <path class="cls-2" d="m203.81,88.15c-.2.7-.2.6-1.1,1.4-.4.4-.8.9-1.2,1.1,2.9-.9,5-1.9,6.9-2.5,1.4,1.4,1.8,2.4,4.4,3.9,7.9,4.5,9.5-1.7,6.5-4.2-1.5-1.3-3.7-2-6.2-2.2,1-1.3,2.4-2.2,2.9-5,.4-2.5-.4-5-3-4.7-3.5.4-5.2,7.2-5.2,10.6l-4,1.6h0Z"/>
  <path class="cls-2" d="m138.11,91.85c.2,1.3,2.4,3.7,3.1,4.6q.4.5.9,1c2.4,2.3,2.4,5.4,6.9-1.3,1-1.5,2.1-3.1,2.9-5l-1.8-1.8c-.6-.8-.7-.6-1.3-1.3-.2-.2-.3-.4-.5-.6-.8-.7-.6-.4-1.2-1.5-.7.4-1.3,1.7-1.8,2.4-1-1-.9-2-1.5-2.4-.1.5-1,1.2-1.7,2-.2.2-.3.3-.4.3-.3.3-.4.4-.7.6l-2.9,3h0Zm0,0l2.8-2.8c.2-.3.4-.4.7-.6.1-.1.2-.2.4-.3.7-.8,1.6-1.5,1.7-2-.2-1.2-2.8-5.6-5.8-2.2-2,2.2-1,6.7.2,7.9h0Zm8.9-5.8c.6,1.1.4.7,1.2,1.5.3.2.4.4.5.6.6.7.6.5,1.3,1.3l1.8,1.8c.3-1.2.8-1.8,1-3.3.2-2.2-.9-6.1-3.8-4.1-.5.3-2,1.5-2,2.2h0Zm18.6,2.8h0Z"/>
  <path class="cls-2" d="m119.31,91.25c.1,1,1.7,2.6,2.2,3.3.3.3.2.3.6.7,1.7,1.7,1.7,3.9,4.9-.9.7-1.1,1.5-2.2,2.1-3.6l-1.3-1.3c-.4-.6-.5-.4-.9-.9-.1-.2-.2-.3-.4-.4-.6-.5-.4-.3-.9-1-.5.3-.9,1.2-1.3,1.7-.7-.7-.6-1.5-1.1-1.7-.1.4-.7.9-1.2,1.4l-.2.2c-.2.2-.3.3-.5.4l-2,2.1h0Zm0,0l2-2c.2-.2.3-.3.5-.4,0,0,.2-.1.2-.2.5-.5,1.2-1,1.2-1.4-.1-.9-2-4-4.1-1.6-1.4,1.6-.7,4.8.2,5.6h0Zm6.3-4.1c.4.8.3.5.9,1,.2.2.2.3.4.4.4.5.4.3.9.9l1.3,1.3c.2-.8.6-1.3.7-2.4.2-1.6-.6-4.4-2.7-2.9-.5.4-1.5,1.2-1.5,1.7h0Zm13.3,2h0Z"/>
  <path class="cls-2" d="m161.91,91.25c.1,1,1.7,2.6,2.2,3.3.3.3.2.3.6.7,1.7,1.7,1.7,3.9,4.9-.9.7-1.1,1.5-2.2,2.1-3.6l-1.3-1.3c-.4-.6-.5-.4-.9-.9-.1-.2-.2-.3-.4-.4-.6-.5-.4-.3-.9-1-.5.3-.9,1.2-1.3,1.7-.7-.7-.6-1.5-1.1-1.7-.1.4-.7.9-1.2,1.4-.1.1-.2.2-.2.2-.2.2-.3.3-.5.4l-2,2.1h0Zm0,0l2-2c.2-.2.3-.3.5-.4,0,0,.2-.1.2-.2.5-.5,1.2-1,1.2-1.4-.1-.9-2-4-4.1-1.6-1.4,1.6-.7,4.8.2,5.6h0c0,.1,0,0,0,0Zm6.4-4.1c.4.8.3.5.9,1,.2.2.2.3.4.4.4.5.4.3.9.9l1.3,1.3c.2-.8.6-1.3.7-2.4.2-1.6-.6-4.4-2.7-2.9-.5.4-1.5,1.2-1.5,1.7h0Zm13.2,2h0Z"/>
  <path class="cls-2" d="m98.21,93.65c-2.2,0-4.2.7-5.8,1.7-1,.6-4.3,2.6-2.7,4.4s7.8-2.7,8.5-6.1h0Z"/>
  <path class="cls-2" d="m191.51,93.65c.2,1.5,2.1,3.7,3.1,4.4,5.6,4.4,8.5.6,2.8-2.7-1.7-1-3.5-1.6-5.9-1.7h0Z"/>
  <path class="cls-2" d="m191.21,90.75c2.8-.1,3.4-.7,4.8-2.2,2.8-3.1,1.7-7-1.2-4.7-1.6,1.2-3.2,5-3.6,6.9h0Z"/>
  <path class="cls-2" d="m98.41,90.75c-.2-1.3-1.4-4-2-5-.5-.8-2.7-3.8-4.1-2.1-1,1.2.7,4.2,1.3,4.9,1.4,1.5,2.1,2,4.8,2.2h0Z"/>
  <path class="cls-2" d="m210.61,87.55c1,2.3,6.7,5.3,8,3.8,1.7-1.7-3.2-4.4-8-3.8h0Z"/>
  <path class="cls-2" d="m71.31,91.75c3.2.2,7.2-2.6,7.7-4.2-2.7-.2-5.8.2-7.7,2.1-1.1,1-.6,1.2,0,2.1h0Z"/>
  <path class="cls-2" d="m209.81,80.45c2.3-.3,5.9-5.4,4.1-7.1-2.2-2.2-3.9,4.7-4.1,7.1h0Z"/>
  <path class="cls-2" d="m79.91,80.45c-.2-1.7-.5-3.5-1.1-4.9-2.2-5.1-5.1-1.6-2.3,2.2.6.9,2,2.3,3.4,2.7h0Z"/>
  <g>
    <g>
      <path class="cls-1" d="m14.74,65.89c-.34,0-.68-.01-1.02-.04-1.13-.09-2.24-.32-3.31-.67-1.07-.35-2.11-.83-3.08-1.43-.98-.6-1.87-1.3-2.63-2.1-1.46-1.52-2.56-3.26-3.26-5.17-.7-1.9-1.01-3.93-.92-6.03.03-1.18.31-2.32.83-3.35.51-1.02,1.18-1.93,1.99-2.69.81-.76,1.77-1.37,2.84-1.81,1.08-.44,2.22-.66,3.41-.66,1.1,0,2.18.22,3.22.66,1.06.45,1.95,1.18,2.66,2.17.09.17.16.28.25.4.14.21.24.42.28.63.02.14.06.45-.15.69-.12.13-.28.21-.47.21h-.07l-.13-.03c-.18-.05-.36-.11-.52-.17-.9-.42-1.85-.63-2.83-.63-.88,0-1.76.16-2.6.48-.85.32-1.63.77-2.32,1.34-.69.57-1.29,1.25-1.76,2.01-.47.76-.79,1.58-.96,2.43-.19,1.11-.19,2.21.02,3.25.21,1.05.59,2.03,1.14,2.92.54.89,1.25,1.69,2.08,2.36.83.67,1.81,1.18,2.9,1.51.89.27,1.81.4,2.72.4.23,0,.46,0,.69-.03,1.14-.08,2.24-.41,3.26-.96,1-.56,1.87-1.28,2.58-2.16.72-.89,1.28-1.88,1.67-2.94.4-1.08.64-2.23.73-3.42.08-1.18-.02-2.36-.3-3.49-.21-.85-.45-1.68-.72-2.49-.24-.71-.47-1.42-.67-2.13-.07,0-.13,0-.2,0-.65,0-1.31-.08-1.97-.23-.86-.2-1.69-.53-2.46-.96-.62-.34-1.21-.77-1.76-1.27-.55-.5-1.02-1.06-1.4-1.66-.38-.61-.66-1.25-.84-1.92-.18-.68-.22-1.38-.12-2.06.1-.67.37-1.33.79-1.96.42-.63.92-1.13,1.48-1.5.46-.33,1.04-.55,1.71-.65h.67c.23,0,.41.04.57.13l.18.11.11.28c.03.12.03.31-.11.51-.34.69-.65,1.47-.89,2.27-.23.74-.23,1.48-.02,2.25.26.83.8,1.59,1.59,2.23.59.48,1.22.82,1.88,1.02-.09-.61-.14-1.23-.14-1.84,0-.88.14-1.77.42-2.64.28-.84.67-1.65,1.17-2.41.52-.79,1.21-1.42,2.05-1.88.52-.29,1.1-.49,1.74-.59.29-.04.58-.07.87-.07.33,0,.67.03.99.09.6.11,1.18.34,1.72.66.55.33,1.01.77,1.37,1.3.35.59.55,1.17.62,1.76.06.57.03,1.15-.1,1.7-.13.54-.33,1.08-.6,1.6-.27.51-.57,1-.92,1.44-.74.99-1.67,1.84-2.74,2.52.27.64.52,1.27.77,1.9.3.77.56,1.58.77,2.39.52,1.92.65,3.84.39,5.7-.26,1.86-.85,3.67-1.76,5.4-.91,1.77-2.15,3.3-3.68,4.55-1.54,1.26-3.33,2.1-5.33,2.5-.78.15-1.57.23-2.36.23Zm11.38-31.17c-.2,0-.41.04-.62.13-.48.19-.79.49-.98.93-.21.51-.33,1.03-.36,1.56-.05.63.03,1.28.26,1.95.19.55.38,1.08.57,1.6.17-.1.35-.23.54-.37.33-.25.66-.56.99-.95.33-.38.6-.79.82-1.23.21-.43.36-.88.44-1.33.07-.41.04-.79-.11-1.15-.19-.47-.49-.8-.92-1-.22-.1-.43-.15-.65-.15Z"/>
      <path class="cls-3" d="m25.59,32.64c.3,0,.6.03.9.08.55.1,1.07.3,1.55.6.49.3.9.68,1.22,1.15.3.5.47,1.01.53,1.53.06.52.03,1.03-.09,1.53-.12.5-.3,1-.56,1.49-.25.49-.54.94-.87,1.35-.8,1.07-1.79,1.94-2.98,2.62.33.77.64,1.53.93,2.29.3.75.55,1.53.75,2.33.5,1.87.63,3.7.38,5.51-.25,1.81-.82,3.55-1.71,5.24-.89,1.72-2.07,3.18-3.55,4.4-1.48,1.21-3.18,2.01-5.11,2.4-.75.14-1.5.22-2.26.22-.33,0-.65-.01-.98-.04-1.1-.09-2.16-.3-3.2-.64-1.04-.34-2.03-.8-2.98-1.38-.95-.58-1.79-1.25-2.53-2.02-1.42-1.48-2.47-3.15-3.15-5-.68-1.85-.98-3.8-.89-5.84.03-1.12.29-2.18.78-3.15.49-.98,1.12-1.83,1.89-2.55.77-.73,1.67-1.29,2.69-1.71,1.02-.41,2.09-.62,3.22-.62,1.04,0,2.04.21,3.02.62.98.42,1.79,1.08,2.44,2,.06.12.14.25.24.4.1.15.17.3.2.44.02.2-.02.3-.13.3-.02,0-.04,0-.07-.01-.16-.04-.32-.1-.47-.16-.95-.44-1.95-.67-3.02-.67-.95,0-1.87.17-2.78.51-.9.34-1.73.81-2.46,1.42-.74.61-1.36,1.32-1.87,2.13-.5.81-.84,1.68-1.02,2.6-.21,1.19-.2,2.33.02,3.44s.62,2.14,1.2,3.09c.58.95,1.31,1.78,2.2,2.49.89.71,1.91,1.24,3.06,1.6.95.28,1.9.43,2.87.43.24,0,.48,0,.73-.03,1.21-.09,2.37-.43,3.46-1.02,1.07-.59,1.98-1.35,2.73-2.29.75-.93,1.34-1.96,1.75-3.09.41-1.12.67-2.31.75-3.55.09-1.24-.02-2.46-.31-3.64-.21-.86-.45-1.7-.73-2.53-.28-.83-.54-1.66-.78-2.49-.19.01-.38.02-.57.02-.61,0-1.23-.07-1.85-.22-.81-.19-1.59-.5-2.33-.91-.59-.33-1.15-.73-1.67-1.2-.52-.47-.96-.99-1.31-1.55-.35-.56-.61-1.15-.78-1.78-.16-.62-.2-1.24-.11-1.87.09-.59.33-1.18.71-1.75.38-.58.83-1.03,1.33-1.35.41-.3.92-.49,1.51-.58h.6c.13,0,.24.02.31.07.07.04.08.11.02.2-.39.77-.7,1.57-.95,2.4-.25.83-.26,1.67-.02,2.53.3.95.88,1.78,1.75,2.49.87.71,1.81,1.14,2.82,1.29-.18-.83-.27-1.66-.27-2.49s.13-1.66.4-2.49c.27-.8.64-1.56,1.11-2.29.47-.73,1.1-1.29,1.87-1.71.47-.27,1-.44,1.58-.53.27-.04.53-.06.79-.06m-.86,8.94c.36-.15.73-.37,1.11-.67.36-.27.71-.61,1.07-1.02.36-.41.65-.86.89-1.33.24-.47.4-.96.49-1.47.09-.5.04-.98-.13-1.42-.24-.59-.63-1.01-1.18-1.27-.28-.13-.57-.19-.85-.19-.27,0-.54.06-.81.17-.59.24-1.01.64-1.24,1.2-.24.56-.37,1.14-.4,1.73-.06.68.04,1.39.29,2.13.25.74.51,1.45.78,2.13m.86-9.94c-.31,0-.63.02-.94.07-.69.11-1.34.32-1.92.65-.9.48-1.65,1.17-2.21,2.03-.52.79-.93,1.64-1.22,2.52-.3.93-.45,1.87-.45,2.8,0,.35.02.71.04,1.06-.33-.17-.65-.38-.97-.64-.73-.59-1.19-1.25-1.43-2.01-.18-.65-.17-1.29.02-1.94.23-.76.52-1.5.87-2.21.15-.26.2-.55.14-.83-.07-.3-.25-.55-.52-.71-.23-.14-.51-.21-.83-.21h-.75c-.75.12-1.4.38-1.94.76-.58.38-1.13.93-1.58,1.61-.46.7-.76,1.42-.87,2.16-.11.76-.06,1.52.13,2.27.19.72.49,1.41.9,2.06.21.32.43.64.69.94-1.03-.4-2.09-.6-3.17-.6-1.25,0-2.46.23-3.6.69-1.13.46-2.14,1.1-3,1.91-.85.8-1.56,1.76-2.1,2.83-.55,1.1-.85,2.31-.88,3.57-.09,2.15.23,4.25.95,6.21.72,1.97,1.86,3.77,3.37,5.34.79.83,1.71,1.56,2.73,2.18,1.01.61,2.08,1.11,3.18,1.47,1.11.36,2.26.6,3.43.69.35.03.71.04,1.06.04.82,0,1.65-.08,2.45-.24,2.08-.42,3.95-1.29,5.55-2.61,1.58-1.3,2.86-2.88,3.81-4.71.93-1.78,1.55-3.65,1.81-5.56.27-1.93.13-3.92-.4-5.91-.21-.82-.48-1.65-.79-2.44-.2-.51-.4-1.02-.62-1.53.98-.67,1.82-1.48,2.53-2.42.35-.45.68-.96.96-1.5.29-.56.5-1.14.64-1.72.14-.61.18-1.24.11-1.87-.08-.66-.3-1.3-.66-1.93l-.02-.03-.02-.03c-.41-.59-.92-1.07-1.53-1.44-.59-.36-1.23-.6-1.89-.73-.36-.07-.72-.1-1.08-.1h0Zm-.34,8.47c-.12-.32-.23-.65-.35-.98-.21-.6-.29-1.18-.24-1.72.03-.51.13-.98.32-1.43.13-.32.35-.52.69-.66.17-.07.3-.1.44-.1s.28.03.44.1c.31.14.52.37.67.73.11.27.13.56.08.88-.07.41-.21.81-.4,1.19-.2.4-.45.78-.75,1.13-.31.36-.61.65-.9.87h0Zm-9.88,7.08c.32,0,.63-.14.84-.38.24-.27.33-.62.28-1.05v-.04s-.01-.04-.01-.04c-.06-.28-.18-.56-.36-.82-.1-.13-.14-.22-.17-.27l-.04-.07-.05-.06s-.03-.04-.04-.06c.69.35,1.42.61,2.17.79.63.15,1.28.23,1.91.25.18.6.37,1.2.57,1.79.27.79.51,1.62.71,2.44.27,1.08.37,2.2.29,3.34-.08,1.14-.32,2.25-.7,3.28-.37,1.02-.91,1.96-1.59,2.8-.67.83-1.49,1.52-2.44,2.04-.96.52-1.99.82-3.05.9-.22.02-.44.02-.65.02-.86,0-1.73-.13-2.58-.38-1.02-.31-1.94-.79-2.73-1.42-.79-.63-1.46-1.38-1.97-2.23-.51-.84-.87-1.77-1.07-2.76-.2-.98-.2-2.02-.02-3.07.15-.78.45-1.54.89-2.24.44-.72,1-1.35,1.65-1.88.65-.53,1.39-.96,2.18-1.26.79-.3,1.6-.45,2.42-.45.91,0,1.79.19,2.6.57h.02s.03.02.03.02c.18.07.37.14.58.19.11.03.22.05.33.05h0Z"/>
    </g>
    <g>
      <path class="cls-1" d="m43.39,63.23c-1.25,0-2.24-.32-2.95-.95-.5-.44-.85-1.05-1.03-1.82-.54.57-1.14,1.1-1.8,1.6-1.03.77-2.24,1.17-3.59,1.17-1.45,0-2.61-.51-3.43-1.52-.79-.96-1.25-2.17-1.38-3.6-.12-1.39.06-2.91.55-4.52.49-1.61,1.3-3.12,2.4-4.5,1.1-1.38,2.54-2.54,4.26-3.46,1.74-.92,3.83-1.39,6.21-1.39,1.66,0,3,.23,3.97.69.99.47,1.8,1.2,2.41,2.16l.13.2-.08.23c-.59,1.78-1.14,3.38-1.65,4.81-.2.61-.41,1.23-.62,1.84-.21.61-.4,1.17-.58,1.67l-.47,1.31c-.12.35-.2.57-.23.68-.48,1.32-.47,1.85-.42,2.06.07.3.16.3.25.3.09,0,.31-.03.74-.24.35-.17.73-.46,1.13-.86.42-.42.86-.98,1.31-1.67.45-.69.88-1.56,1.29-2.6.13-.36.35-.61.64-.74.17-.08.33-.11.49-.11.11,0,.22.02.32.06.17.06.41.21.57.57.13.29.13.62,0,.98-.85,2.28-2.04,4.14-3.53,5.52-1.53,1.41-3.17,2.13-4.89,2.13Zm-1.24-16.74c-.74,0-1.43.31-2.13.96-.75.69-1.44,1.57-2.06,2.62-.63,1.06-1.18,2.24-1.62,3.49-.45,1.25-.76,2.42-.93,3.49-.17,1.04-.2,1.9-.09,2.57.11.67.35.67.48.67.26,0,.52-.08.78-.24.29-.18.58-.43.86-.75.29-.34.58-.73.87-1.16.28-.44.54-.89.77-1.35.55-1.08,1.1-2.33,1.62-3.73l2.23-6.25s-.09-.1-.17-.17c-.11-.1-.32-.15-.61-.15Z"/>
      <path class="cls-3" d="m42.63,44.74c1.6,0,2.85.22,3.75.64.9.43,1.64,1.09,2.2,1.98-.59,1.78-1.14,3.38-1.64,4.8-.21.62-.42,1.24-.62,1.84-.21.61-.4,1.16-.58,1.67-.18.5-.33.94-.47,1.31-.13.37-.22.61-.24.73-.39,1.07-.53,1.83-.42,2.29.1.46.35.69.73.69.24,0,.56-.1.96-.29.4-.19.82-.51,1.27-.96.44-.44.9-1.03,1.38-1.75.47-.73.92-1.62,1.33-2.69.09-.24.21-.39.38-.47.1-.05.19-.07.28-.07.05,0,.1,0,.14.02.12.04.21.15.29.31.07.16.07.36-.02.6-.83,2.22-1.96,4-3.4,5.33-1.44,1.33-2.95,2-4.55,2-1.13,0-2-.27-2.62-.82-.62-.55-.96-1.41-1.02-2.6-.68.86-1.5,1.64-2.44,2.35-.95.71-2.04,1.07-3.29,1.07s-2.32-.44-3.04-1.33c-.73-.89-1.15-2-1.27-3.33-.12-1.33.06-2.78.53-4.33.47-1.55,1.24-3,2.31-4.33,1.07-1.33,2.44-2.44,4.11-3.33,1.67-.89,3.66-1.33,5.97-1.33m-6.84,16.03c.36,0,.7-.1,1.04-.31.34-.21.67-.49.98-.84.31-.36.61-.76.91-1.22.3-.46.56-.92.8-1.4.56-1.1,1.11-2.35,1.64-3.78l2.31-6.48c-.06-.15-.19-.31-.4-.49-.21-.18-.52-.27-.93-.27-.86,0-1.68.36-2.46,1.09-.79.73-1.5,1.64-2.15,2.73-.65,1.1-1.21,2.29-1.67,3.58-.46,1.29-.78,2.48-.95,3.58-.18,1.1-.21,2.01-.09,2.73.12.73.44,1.09.98,1.09m6.84-17.03c-2.46,0-4.63.49-6.44,1.45-1.79.95-3.27,2.16-4.42,3.59-1.14,1.43-1.98,3-2.49,4.66-.51,1.67-.7,3.25-.57,4.71.14,1.53.64,2.83,1.49,3.88.92,1.13,2.2,1.7,3.82,1.7,1.46,0,2.77-.43,3.89-1.27.45-.34.88-.7,1.28-1.08.22.51.53.93.92,1.27.81.71,1.91,1.07,3.28,1.07,1.85,0,3.61-.76,5.23-2.27,1.54-1.43,2.77-3.36,3.65-5.71.23-.61.13-1.08,0-1.36-.24-.52-.59-.74-.85-.84-.16-.06-.32-.09-.49-.09-.23,0-.46.05-.69.16-.28.13-.67.41-.9,1.03-.38.99-.8,1.83-1.23,2.49-.43.66-.85,1.2-1.25,1.59-.36.36-.7.62-.99.76-.12.06-.21.1-.29.12,0-.22.07-.68.4-1.57l.02-.05v-.05s.05-.15.23-.63c.13-.37.29-.81.47-1.32.18-.51.37-1.06.58-1.67.21-.61.42-1.23.62-1.85.49-1.4,1.05-3.02,1.64-4.8l.15-.45-.25-.4c-.66-1.05-1.54-1.83-2.61-2.34-1.05-.5-2.42-.74-4.18-.74h0Zm-6.77,16.03s-.04-.13-.06-.25c-.1-.62-.07-1.43.09-2.41.17-1.03.47-2.18.91-3.4.43-1.22.97-2.36,1.58-3.4.6-1.01,1.26-1.85,1.97-2.51.6-.55,1.18-.82,1.79-.82.08,0,.14,0,.18.01l-2.1,5.89c-.51,1.36-1.05,2.59-1.59,3.65-.23.45-.48.89-.75,1.31-.27.42-.55.79-.82,1.11-.24.28-.49.49-.74.65-.16.1-.31.15-.45.16h0Z"/>
    </g>
    <g>
      <path class="cls-1" d="m52.02,63.23c-1.46-.02-2.5-.59-3.1-1.71-.58-1.09-.57-2.52.04-4.25l4.51-13.04h.84c.59,0,1.13.14,1.62.42.48.27.87.63,1.18,1.05.31.43.52.92.62,1.47,0,.02,0,.03,0,.05.55-.64,1.12-1.2,1.7-1.66,1.08-.85,2.25-1.28,3.49-1.28,2.55,0,4.1.93,4.59,2.78.46,1.73.06,4.15-1.24,7.4-.9,2.27-1.41,3.91-1.52,4.88-.09.81.06.98.06.98.38,0,.79-.13,1.24-.38.49-.27.98-.65,1.47-1.14.49-.49.97-1.09,1.43-1.77.46-.69.86-1.42,1.2-2.19.13-.34.34-.59.63-.72.17-.08.33-.11.49-.11.11,0,.22.02.32.06.18.07.42.23.56.61.1.28.09.6-.05.95-.31.83-.74,1.7-1.28,2.59-.55.9-1.21,1.73-1.97,2.47-.76.74-1.6,1.35-2.51,1.84-.94.5-1.95.75-3.01.75-.89,0-1.69-.21-2.37-.63-.7-.43-1.22-1.08-1.56-1.93-.32-.82-.44-1.83-.34-3,.09-1.14.46-2.5,1.1-4.02,1.02-2.45,1.65-4.2,1.88-5.22.25-1.09-.11-1.17-.25-1.2-.02,0-.06,0-.1,0-.2,0-.57.09-1.18.54-.63.47-1.35,1.31-2.15,2.52-.81,1.23-1.71,2.9-2.67,4.96-.96,2.06-1.96,4.63-2.95,7.65l-.25.77-.47-.47Z"/>
      <path class="cls-3" d="m54.31,44.74c.5,0,.96.12,1.38.36.41.24.76.54,1.02.91.27.37.44.79.53,1.27.09.47.04.95-.13,1.42l-.18.44c.89-1.33,1.83-2.39,2.82-3.18.99-.78,2.05-1.18,3.18-1.18,2.31,0,3.68.8,4.11,2.41.43,1.6.02,3.96-1.22,7.08-.92,2.32-1.44,3.99-1.55,5.01-.12,1.02.07,1.54.58,1.54.44,0,.93-.15,1.47-.44.53-.3,1.06-.7,1.58-1.22.52-.52,1.01-1.13,1.49-1.84.47-.71.89-1.47,1.24-2.27.09-.24.21-.39.38-.47.1-.05.19-.07.28-.07.05,0,.1,0,.14.02.12.04.21.15.27.31.06.16.04.36-.04.6-.3.8-.71,1.64-1.24,2.51-.53.87-1.16,1.66-1.89,2.37-.73.71-1.53,1.29-2.4,1.75-.87.46-1.8.69-2.78.69-.8,0-1.5-.18-2.11-.56-.61-.37-1.06-.93-1.35-1.69-.3-.75-.4-1.68-.31-2.78.09-1.09.44-2.38,1.07-3.86,1.04-2.49,1.67-4.26,1.91-5.31.24-1.05.03-1.65-.62-1.8-.07-.01-.14-.02-.21-.02-.41,0-.9.21-1.48.64-.68.5-1.44,1.38-2.27,2.64-.83,1.26-1.73,2.93-2.71,5.02-.98,2.09-1.97,4.66-2.98,7.71l-.04-.04h-.13c-1.3,0-2.21-.48-2.73-1.44-.52-.96-.5-2.24.07-3.84l4.4-12.7h.49m0-1h-1.2l-.23.67-4.4,12.7c-.66,1.86-.66,3.43,0,4.64.46.86,1.41,1.87,3.32,1.96l.91.91.51-1.54c.99-3,1.98-5.55,2.93-7.6.95-2.03,1.84-3.68,2.64-4.89.76-1.15,1.44-1.96,2.02-2.39.43-.32.69-.41.81-.44,0,.1,0,.29-.07.59-.22.99-.85,2.72-1.86,5.14-.66,1.57-1.04,2.97-1.14,4.17-.1,1.24.03,2.33.38,3.22.37.96.97,1.69,1.76,2.18.76.47,1.65.7,2.63.7,1.14,0,2.23-.27,3.25-.81.95-.51,1.84-1.15,2.63-1.92.78-.76,1.47-1.62,2.04-2.57.56-.92,1.01-1.82,1.33-2.68.17-.46.19-.89.05-1.29-.16-.44-.46-.76-.85-.91-.16-.06-.32-.09-.49-.09-.23,0-.46.05-.69.16-.28.13-.66.4-.89.99-.33.73-.72,1.44-1.15,2.09-.44.65-.89,1.22-1.36,1.69-.45.45-.91.81-1.35,1.05-.21.12-.41.2-.59.26,0-.09,0-.21.03-.36.11-.93.61-2.53,1.49-4.76,1.34-3.35,1.75-5.87,1.26-7.71-.38-1.44-1.58-3.15-5.07-3.15-1.35,0-2.63.47-3.8,1.39-.39.31-.78.66-1.16,1.05-.12-.29-.27-.56-.45-.81-.35-.48-.8-.89-1.34-1.19-.57-.32-1.2-.49-1.87-.49h0Z"/>
    </g>
    <g>
      <path class="cls-1" d="m84.07,63.23c-1.21,0-2.19-.31-2.92-.92-.53-.44-.89-1.06-1.08-1.84-.54.56-1.13,1.1-1.79,1.59-1.03.77-2.24,1.17-3.59,1.17-1.45,0-2.61-.51-3.43-1.52-.79-.96-1.25-2.17-1.38-3.6-.12-1.39.06-2.91.53-4.52.48-1.61,1.28-3.13,2.4-4.5,1.12-1.38,2.56-2.54,4.28-3.46,1.74-.92,3.81-1.39,6.16-1.39.31,0,.58,0,.83.02.11,0,.23.02.34.03l2.4-6.91c.53-1.59,1.27-2.76,2.19-3.45.93-.7,2.28-1.06,4.01-1.06h1.77l-.23.67c-1.52,4.34-2.9,8.31-4.08,11.81-.5,1.48-1.01,2.95-1.51,4.4-.5,1.45-.95,2.76-1.35,3.93-.4,1.17-.73,2.14-1,2.89-.34.97-.42,1.21-.43,1.26-.48,1.32-.47,1.85-.42,2.06.07.3.18.3.29.3.09,0,.3-.03.71-.24.34-.17.71-.46,1.11-.86.42-.42.86-.98,1.31-1.67.45-.69.88-1.56,1.29-2.6.13-.36.35-.61.64-.74.17-.08.33-.11.5-.11.11,0,.21.02.31.05.19.06.46.22.6.61.1.28.09.6-.05.95-.85,2.28-2.04,4.14-3.53,5.52-1.53,1.41-3.17,2.13-4.89,2.13Zm-1.38-16.43c-.74,0-1.43.31-2.13.94-.74.67-1.43,1.54-2.04,2.57-.62,1.05-1.15,2.19-1.58,3.4-.43,1.21-.73,2.35-.89,3.39-.15,1.02-.18,1.87-.07,2.53.11.65.35.65.48.65.26,0,.52-.08.78-.24.3-.18.6-.43.89-.76.3-.33.59-.71.85-1.14.28-.45.55-.91.81-1.38.54-1.06,1.09-2.31,1.61-3.71l2.01-5.94s-.09-.11-.17-.18c-.05-.05-.2-.13-.57-.13Z"/>
      <path class="cls-3" d="m94.11,33.37c-1.54,4.38-2.9,8.32-4.09,11.81-.5,1.48-1.01,2.95-1.51,4.4-.5,1.45-.95,2.76-1.35,3.93-.4,1.17-.73,2.13-1,2.89-.27.75-.42,1.19-.44,1.31-.39,1.07-.53,1.83-.42,2.29.1.46.36.69.78.69.24,0,.55-.1.93-.29.38-.19.8-.51,1.24-.96.44-.44.9-1.03,1.38-1.75.47-.73.92-1.62,1.33-2.69.09-.24.21-.39.38-.47.1-.05.2-.07.29-.07.05,0,.11,0,.16.02.13.04.23.15.29.31.06.16.04.36-.04.6-.83,2.22-1.96,4-3.4,5.33-1.44,1.33-2.95,2-4.55,2-1.1,0-1.96-.27-2.6-.8-.64-.53-.98-1.38-1.04-2.53v-.09c-.68.86-1.5,1.64-2.44,2.35-.95.71-2.04,1.07-3.29,1.07s-2.32-.44-3.04-1.33c-.73-.89-1.15-2-1.27-3.33-.12-1.33.05-2.78.51-4.33.46-1.55,1.23-3,2.31-4.33,1.08-1.33,2.46-2.44,4.13-3.33,1.67-.89,3.65-1.33,5.93-1.33.3,0,.56,0,.8.02.24.02.47.04.71.07l2.53-7.28c.5-1.51,1.18-2.58,2.02-3.22.84-.64,2.08-.96,3.71-.96h1.07m-17.63,27.4c.36,0,.7-.1,1.04-.31.34-.21.67-.49,1-.84.33-.36.63-.76.91-1.22.28-.46.56-.92.82-1.4.56-1.1,1.11-2.35,1.64-3.78l2.09-6.17c-.06-.15-.19-.31-.38-.49-.19-.18-.5-.27-.91-.27-.86,0-1.68.35-2.46,1.07-.78.71-1.5,1.61-2.13,2.69-.64,1.08-1.18,2.24-1.62,3.49-.44,1.24-.75,2.41-.91,3.49-.16,1.08-.19,1.98-.07,2.69.12.71.44,1.07.98,1.07m19.04-28.4h-2.48c-1.84,0-3.29.39-4.31,1.16-1,.76-1.8,2-2.37,3.7l-2.27,6.53c-.25-.01-.52-.02-.82-.02-2.43,0-4.59.49-6.4,1.45-1.78.95-3.28,2.15-4.44,3.58-1.16,1.43-2,3-2.49,4.68-.49,1.67-.68,3.25-.55,4.7.14,1.53.64,2.83,1.49,3.88.92,1.13,2.2,1.7,3.82,1.7,1.46,0,2.77-.43,3.89-1.27.45-.34.88-.69,1.27-1.07.23.52.56.95.97,1.3.82.68,1.91,1.03,3.24,1.03,1.85,0,3.61-.76,5.23-2.27,1.54-1.43,2.77-3.36,3.65-5.71.17-.46.19-.9.05-1.29-.17-.45-.49-.78-.91-.92-.15-.05-.31-.08-.47-.08-.23,0-.47.05-.7.16-.28.13-.67.41-.9,1.03-.38.99-.8,1.83-1.23,2.49-.43.66-.85,1.2-1.25,1.59-.37.37-.7.62-.98.77-.12.06-.22.1-.3.13,0-.21.07-.68.4-1.58l.02-.05v-.05s.09-.26.43-1.22c.27-.76.6-1.72,1-2.9.4-1.17.85-2.48,1.35-3.93.5-1.45,1.01-2.92,1.51-4.4,1.19-3.5,2.56-7.47,4.08-11.81l.47-1.33h0Zm-18.98,27.4s-.04-.12-.06-.23c-.1-.61-.08-1.4.07-2.37.15-1.01.44-2.12.86-3.3.42-1.18.94-2.29,1.54-3.32.58-.99,1.24-1.81,1.94-2.45.6-.54,1.19-.81,1.79-.81.06,0,.11,0,.15,0l-1.89,5.6c-.5,1.35-1.04,2.58-1.59,3.64-.24.43-.51.89-.78,1.33-.25.4-.51.76-.8,1.07-.26.29-.53.51-.78.66-.16.1-.31.15-.46.16h0Z"/>
    </g>
    <g>
      <path class="cls-1" d="m97.57,63.23c-.88,0-1.64-.17-2.28-.5-.66-.35-1.16-.89-1.47-1.62-.3-.69-.41-1.57-.35-2.6.06-1,.32-2.19.78-3.53l1.96-5.6c.16-.45.25-.92.26-1.4.01-.44-.08-.82-.27-1.16-.1-.18-.21-.34-.33-.49-.07-.08-.13-.16-.2-.24-.11.37-.24.78-.38,1.23l-.87,2.73c-.31.98-.64,1.96-.98,2.94-.34.99-.66,1.85-.96,2.6-.19.45-.4.76-.65.95-.21.16-.42.24-.63.24-.12,0-.24-.03-.34-.08-.26-.13-.43-.39-.51-.77-.06-.32-.02-.67.13-1.09.71-1.94,1.31-3.68,1.79-5.16.48-1.48.88-2.75,1.17-3.78.32-1.17.59-2.2.79-3.09l.17-.72.61.43c.8.56,1.57,1.11,2.31,1.65.65.52,1.29,1.06,1.94,1.63.68.59,1.23,1.19,1.64,1.78.58.83.91,1.64.99,2.4.08.75-.05,1.64-.4,2.62l-1.82,5.28c-.46,1.28-.45,1.81-.41,2.01.07.3.18.3.29.3.09,0,.3-.03.71-.24.34-.17.71-.46,1.11-.86.42-.42.87-.99,1.34-1.68.46-.69.9-1.56,1.3-2.59.13-.35.33-.6.6-.73.16-.08.33-.12.49-.12.11,0,.21.02.31.05.19.06.46.22.6.61.1.28.09.6-.05.95-.85,2.28-2.04,4.14-3.53,5.52-1.53,1.41-3.17,2.13-4.89,2.13Z"/>
      <path class="cls-3" d="m94.73,42.92c.8.56,1.57,1.11,2.31,1.64.62.5,1.26,1.04,1.91,1.6.65.56,1.17,1.13,1.55,1.69.53.77.84,1.5.91,2.18.07.68-.05,1.48-.38,2.4l-1.82,5.29c-.39,1.07-.53,1.83-.42,2.29.1.46.36.69.78.69.24,0,.55-.1.93-.29.38-.19.8-.51,1.24-.96.44-.44.91-1.03,1.4-1.75.49-.73.94-1.62,1.35-2.69.09-.24.21-.39.36-.47.09-.05.18-.07.27-.07.05,0,.1,0,.15.02.13.04.23.15.29.31.06.16.04.36-.04.6-.83,2.22-1.96,4-3.4,5.33-1.44,1.33-2.95,2-4.55,2-.8,0-1.48-.15-2.04-.44-.56-.3-.98-.75-1.24-1.38-.27-.62-.37-1.41-.31-2.38.06-.96.31-2.09.76-3.4l1.95-5.6c.18-.5.27-1.02.29-1.55.01-.53-.1-1.01-.33-1.42-.12-.21-.24-.39-.38-.56-.13-.16-.26-.32-.38-.47l-.44-.44c-.15.53-.36,1.22-.62,2.06-.27.84-.56,1.75-.87,2.73-.31.98-.64,1.95-.98,2.93-.34.98-.66,1.84-.96,2.58-.15.35-.31.6-.49.73-.12.09-.23.14-.33.14-.04,0-.08,0-.12-.03-.12-.06-.2-.2-.24-.42-.04-.22,0-.5.11-.82.71-1.95,1.31-3.68,1.8-5.17.49-1.49.88-2.76,1.18-3.8.33-1.18.59-2.22.8-3.11m-.64-1.67l-.34,1.44c-.2.87-.47,1.91-.79,3.07-.29,1.02-.68,2.28-1.16,3.75-.48,1.48-1.08,3.21-1.79,5.14-.18.51-.23.95-.15,1.36.13.67.5.98.78,1.12.17.09.36.13.56.13.32,0,.63-.11.93-.34.32-.24.59-.62.81-1.15.31-.76.63-1.64.98-2.63.35-1,.68-1.99.99-2.96.31-.98.6-1.89.87-2.73.03-.08.05-.17.08-.25.09.22.13.46.12.74-.01.43-.09.85-.23,1.25l-1.96,5.6c-.47,1.39-.75,2.62-.81,3.67-.07,1.11.06,2.07.39,2.83.36.84.93,1.47,1.7,1.87.7.37,1.55.56,2.51.56,1.85,0,3.61-.76,5.23-2.27,1.54-1.43,2.77-3.36,3.65-5.71.17-.46.19-.9.05-1.29-.17-.45-.49-.78-.91-.92-.15-.05-.31-.08-.47-.08-.24,0-.48.06-.72.17-.38.19-.66.53-.84,1.01-.38.98-.8,1.82-1.25,2.48-.45.67-.88,1.21-1.28,1.61-.37.37-.7.62-.98.77-.12.06-.22.1-.3.13,0-.21.07-.68.4-1.58l1.83-5.3c.37-1.05.52-2,.43-2.83-.09-.85-.46-1.73-1.08-2.64-.43-.63-1.01-1.26-1.72-1.88-.66-.57-1.31-1.11-1.93-1.62l-.02-.02-.02-.02c-.74-.53-1.52-1.08-2.32-1.65l-1.21-.85h0Z"/>
    </g>
    <g>
      <path class="cls-1" d="m117.96,63.23c-1.25,0-2.24-.32-2.95-.95-.5-.44-.85-1.05-1.03-1.82-.54.57-1.14,1.1-1.8,1.6-1.03.77-2.24,1.17-3.59,1.17-1.45,0-2.61-.51-3.43-1.52-.79-.96-1.25-2.17-1.38-3.6-.12-1.39.06-2.91.55-4.52.49-1.61,1.3-3.12,2.4-4.5,1.1-1.38,2.54-2.54,4.26-3.46,1.74-.92,3.83-1.39,6.21-1.39,1.66,0,3,.23,3.97.69.99.47,1.8,1.2,2.41,2.16l.13.2-.08.23c-.59,1.78-1.14,3.38-1.65,4.81-.2.61-.41,1.23-.62,1.84-.21.61-.4,1.17-.58,1.67l-.47,1.31c-.12.35-.2.57-.23.68-.48,1.32-.47,1.85-.42,2.06.07.3.16.3.25.3.09,0,.31-.03.74-.24.35-.17.73-.46,1.13-.86.42-.42.86-.98,1.31-1.67.45-.69.88-1.56,1.29-2.6.13-.36.35-.61.64-.74.17-.08.33-.11.49-.11.11,0,.22.02.32.06.17.06.41.21.57.57.13.29.13.62,0,.98-.85,2.28-2.04,4.14-3.53,5.52-1.53,1.41-3.17,2.13-4.89,2.13Zm-1.24-16.74c-.74,0-1.43.31-2.13.96-.75.69-1.44,1.57-2.06,2.62-.63,1.06-1.18,2.24-1.62,3.49-.45,1.25-.76,2.42-.93,3.49-.17,1.04-.2,1.9-.09,2.57.11.67.35.67.48.67.26,0,.52-.08.78-.24.29-.18.58-.43.86-.75.29-.34.58-.73.87-1.16.28-.44.54-.89.77-1.35.55-1.08,1.1-2.33,1.62-3.73l2.23-6.25s-.09-.1-.17-.17c-.11-.1-.32-.15-.61-.15Z"/>
      <path class="cls-3" d="m117.2,44.74c1.6,0,2.85.22,3.75.64.9.43,1.64,1.09,2.2,1.98-.59,1.78-1.14,3.38-1.64,4.8-.21.62-.42,1.24-.62,1.84-.21.61-.4,1.16-.58,1.67-.18.5-.33.94-.47,1.31-.13.37-.22.61-.24.73-.39,1.07-.53,1.83-.42,2.29.1.46.35.69.73.69.24,0,.56-.1.96-.29.4-.19.82-.51,1.27-.96.44-.44.9-1.03,1.38-1.75.47-.73.92-1.62,1.33-2.69.09-.24.21-.39.38-.47.1-.05.19-.07.28-.07.05,0,.1,0,.14.02.12.04.21.15.29.31.07.16.07.36-.02.6-.83,2.22-1.96,4-3.4,5.33-1.44,1.33-2.95,2-4.55,2-1.13,0-2-.27-2.62-.82-.62-.55-.96-1.41-1.02-2.6-.68.86-1.5,1.64-2.44,2.35-.95.71-2.04,1.07-3.29,1.07s-2.32-.44-3.04-1.33c-.73-.89-1.15-2-1.27-3.33-.12-1.33.06-2.78.53-4.33.47-1.55,1.24-3,2.31-4.33s2.44-2.44,4.11-3.33c1.67-.89,3.66-1.33,5.97-1.33m-6.84,16.03c.36,0,.7-.1,1.04-.31.34-.21.67-.49.98-.84.31-.36.61-.76.91-1.22.3-.46.56-.92.8-1.4.56-1.1,1.11-2.35,1.64-3.78l2.31-6.48c-.06-.15-.19-.31-.4-.49-.21-.18-.52-.27-.93-.27-.86,0-1.68.36-2.46,1.09-.79.73-1.5,1.64-2.15,2.73-.65,1.1-1.21,2.29-1.67,3.58-.46,1.29-.78,2.48-.95,3.58-.18,1.1-.21,2.01-.09,2.73.12.73.44,1.09.98,1.09m6.84-17.03c-2.46,0-4.63.49-6.44,1.45-1.79.95-3.27,2.16-4.42,3.59-1.14,1.43-1.98,3-2.49,4.66-.51,1.67-.7,3.25-.57,4.71.14,1.53.64,2.83,1.49,3.88.92,1.13,2.2,1.7,3.82,1.7,1.46,0,2.77-.43,3.89-1.27.45-.34.88-.7,1.28-1.08.22.51.53.93.92,1.27.81.71,1.91,1.07,3.28,1.07,1.85,0,3.61-.76,5.23-2.27,1.54-1.43,2.77-3.36,3.65-5.71.23-.61.13-1.08,0-1.36-.24-.52-.59-.74-.85-.84-.16-.06-.32-.09-.49-.09-.23,0-.46.05-.69.16-.28.13-.67.41-.9,1.03-.38.99-.8,1.83-1.23,2.49-.43.66-.85,1.2-1.25,1.59-.36.36-.7.62-.99.76-.12.06-.21.1-.29.12,0-.22.07-.68.4-1.57l.02-.05v-.05s.05-.15.23-.63c.13-.37.29-.81.47-1.32.18-.51.37-1.06.58-1.67.21-.61.42-1.23.62-1.85.49-1.4,1.05-3.02,1.64-4.8l.15-.45-.25-.4c-.66-1.05-1.54-1.83-2.61-2.34-1.05-.5-2.42-.74-4.18-.74h0Zm-6.77,16.03s-.04-.13-.06-.25c-.1-.62-.07-1.43.09-2.41.17-1.03.47-2.18.91-3.4.43-1.22.97-2.36,1.58-3.4.6-1.01,1.26-1.85,1.97-2.51.6-.55,1.18-.82,1.79-.82.08,0,.14,0,.18.01l-2.1,5.89c-.51,1.36-1.05,2.59-1.59,3.65-.23.45-.48.89-.75,1.31-.27.42-.55.79-.82,1.11-.24.28-.49.49-.74.65-.16.1-.31.15-.45.16h0Z"/>
    </g>
  </g>
  <g>
    <g>
      <path class="cls-1" d="m170.18,65.17c-.59,0-1.2-.06-1.8-.18-1.15-.22-2.16-.71-3.03-1.44-.92-.76-1.59-1.72-1.99-2.83-.39-1.08-.6-2.23-.63-3.4-.03-1.16.09-2.34.37-3.5.27-1.15.63-2.22,1.05-3.16.34-.71.76-1.41,1.25-2.09.45-.61.95-1.2,1.5-1.74,0-1.16.19-2.33.58-3.48.41-1.21.96-2.32,1.64-3.3,1.85-2.76,4.25-4.8,7.12-6.06,2.45-1.07,5.12-1.62,7.96-1.62.48,0,.96.02,1.45.05.89.06,1.9.22,3.01.48,1.13.26,2.22.65,3.26,1.15,1.05.51,1.99,1.18,2.8,1.98.84.84,1.38,1.87,1.6,3.06.22,1.14.17,2.22-.15,3.18-.31.94-.8,1.81-1.45,2.58-.64.76-1.39,1.44-2.26,2.02-.67.45-1.36.86-2.06,1.22.38.49.7,1.01.97,1.57.35.73.65,1.49.89,2.27.24.77.44,1.58.59,2.41.15.81.31,1.61.49,2.4.12.57.24,1.16.36,1.77.11.56.29,1.09.53,1.58.23.46.55.85.95,1.16.37.29.93.45,1.64.47h0c.34,0,.53.16.63.29.1.13.19.36.08.7-.1.3-.31.6-.63.93-.29.29-.65.57-1.07.83-.45.28-.93.44-1.43.47-.34.06-.71.09-1.06.09-.92,0-1.75-.22-2.44-.65-.94-.58-1.69-1.44-2.23-2.56-.53-1.08-.88-2.37-1.05-3.83-.17-1.43-.19-2.97-.07-4.56.06-.75.08-1.55.07-2.37-.01-.65-.18-1.22-.51-1.76-.4.05-.8.08-1.19.08h-.25c-.46-.02-.94-.07-1.44-.17-.61,1.43-1.17,2.68-1.64,3.7-.52,1.11-1.05,2.2-1.58,3.24-.47.95-1,1.91-1.54,2.84-.57.96-1.24,1.86-2,2.65-.79.82-1.66,1.55-2.57,2.16-.94.63-2.01,1.04-3.17,1.23-.5.09-1.01.13-1.52.13Zm-2.46-14.59c-.78.97-1.4,2.04-1.85,3.22-.53,1.4-.73,2.85-.59,4.31.11,1,.45,1.93,1,2.74.53.77,1.29,1.21,2.34,1.34.22.03.42.04.62.04.75,0,1.4-.19,1.99-.58.78-.52,1.46-1.22,2.01-2.08.63-.95,1.18-1.96,1.63-2.99.45-1.05.89-2.14,1.3-3.22.41-1.09.82-2.19,1.22-3.3.4-1.12.87-2.22,1.38-3.27.42-.86.92-1.78,1.51-2.73.59-.96,1.27-1.84,2.01-2.63.76-.8,1.62-1.48,2.56-2.02.97-.55,2.05-.87,3.22-.93.12,0,.24-.01.37-.01.6,0,1.17.11,1.69.33-.22-.44-.5-.85-.83-1.25-.64-.75-1.5-1.37-2.56-1.84-1.37-.6-2.86-.9-4.4-.9-.19,0-.39,0-.59.01-1.76.08-3.4.54-4.87,1.36-1.61.9-2.95,2.16-3.98,3.72-.88,1.33-1.46,2.79-1.74,4.35.44-.14.88-.25,1.33-.32.31-.05.63-.07.94-.07.45,0,.9.05,1.35.14.44.1.88.23,1.31.4.44.18.86.42,1.24.71.11.1.19.16.3.25.26.2.39.43.39.68,0,.35-.24.71-.78.71-.07,0-.15,0-.23-.02-.26-.04-.44-.06-.55-.06-.27-.02-.51-.03-.74-.03-1.58,0-3.13.4-4.62,1.18.13.74.37,1.46.72,2.14.41.8.91,1.53,1.5,2.18.12.15.24.27.37.39.27.24.27.5.24.63-.05.25-.23.43-.53.54-.19.08-.43.12-.71.12-.25,0-.46-.02-.63-.05-1.03-.09-2.02-.54-2.9-1.32-.41-.35-.77-.76-1.07-1.21-.13-.21-.26-.43-.37-.64Zm18.19-5.05c.79.09,1.55.33,2.26.71.39-.27.75-.58,1.06-.94.65-.76,1.09-1.62,1.31-2.54.2-.84.22-1.68.07-2.5l-.06.03c-1.2.64-2.19,1.48-2.94,2.5-.63.86-1.21,1.77-1.71,2.74Z"/>
      <path class="cls-3" d="m184.19,32.88c.47,0,.94.01,1.42.04.86.06,1.84.22,2.93.47,1.09.25,2.15.62,3.15,1.11,1.01.49,1.89,1.12,2.67,1.89.77.77,1.26,1.7,1.47,2.8.21,1.07.16,2.04-.13,2.93s-.75,1.7-1.35,2.42c-.61.73-1.33,1.37-2.15,1.93-.83.56-1.69,1.05-2.58,1.47.53.59.97,1.24,1.31,1.95.34.71.63,1.44.87,2.2.24.75.43,1.54.58,2.35.15.81.31,1.62.49,2.42.12.56.24,1.15.35,1.75.12.61.31,1.18.58,1.71.27.53.63.98,1.09,1.33s1.1.55,1.93.58c.24,0,.32.11.25.33-.07.22-.25.47-.51.73-.27.27-.59.52-.98.75-.38.24-.79.37-1.2.4-.36.06-.7.09-1.02.09-.83,0-1.56-.19-2.18-.58-.86-.53-1.54-1.32-2.04-2.35-.5-1.04-.84-2.26-1-3.66-.16-1.41-.19-2.89-.07-4.46.06-.77.08-1.58.07-2.42-.02-.84-.27-1.61-.78-2.29-.48.08-.96.11-1.43.11-.08,0-.16,0-.24,0-.55-.01-1.13-.1-1.75-.24-.68,1.6-1.28,2.95-1.8,4.06-.52,1.11-1.04,2.18-1.58,3.22-.47.95-.99,1.89-1.53,2.82-.55.93-1.19,1.78-1.93,2.55-.77.8-1.6,1.5-2.49,2.09-.89.59-1.88.98-2.98,1.15-.48.08-.96.12-1.44.12-.57,0-1.14-.06-1.71-.17-1.07-.21-2-.65-2.8-1.33-.86-.71-1.47-1.58-1.84-2.62-.37-1.04-.57-2.12-.6-3.24-.03-1.12.09-2.25.36-3.38.27-1.12.61-2.15,1.02-3.06.33-.68.73-1.35,1.2-2,.47-.65,1.01-1.26,1.6-1.82-.03-1.18.16-2.36.56-3.53.4-1.17.92-2.23,1.58-3.18,1.81-2.69,4.11-4.66,6.91-5.89,2.4-1.05,4.98-1.58,7.75-1.58m-13.64,12.13c.65-.3,1.33-.5,2.02-.6.29-.04.57-.06.86-.06.41,0,.83.04,1.25.13.41.09.82.22,1.22.38.4.16.78.38,1.13.64.06.06.16.14.29.24.13.1.2.2.2.29,0,.14-.09.21-.28.21-.05,0-.1,0-.16-.01-.3-.04-.5-.07-.62-.07-.25-.02-.5-.03-.74-.03-1.78,0-3.5.47-5.16,1.4.12.92.39,1.8.82,2.64.43.84.96,1.61,1.58,2.29.12.15.25.29.4.42.15.13.1.24-.13.33-.15.06-.33.09-.53.09s-.39-.01-.53-.04c-.98-.09-1.87-.49-2.67-1.2-.38-.33-.71-.7-.98-1.11-.27-.41-.49-.84-.67-1.29-1.07,1.15-1.88,2.47-2.44,3.95-.56,1.48-.77,2.99-.62,4.53.12,1.1.48,2.09,1.09,2.98.61.89,1.5,1.41,2.69,1.55.23.03.46.05.68.05.84,0,1.6-.22,2.27-.67.84-.56,1.56-1.3,2.15-2.22.65-.98,1.21-2,1.67-3.06.46-1.07.89-2.15,1.31-3.24.42-1.1.82-2.2,1.22-3.31s.85-2.18,1.35-3.22c.41-.86.91-1.75,1.49-2.69s1.23-1.78,1.95-2.55,1.54-1.41,2.44-1.93,1.9-.81,3-.87c.11,0,.23-.01.34-.01.67,0,1.28.15,1.84.46.21.12.22.27.04.44-1.27.68-2.31,1.56-3.11,2.64-.8,1.08-1.5,2.24-2.09,3.49,1.09,0,2.12.28,3.06.84.53-.33,1.01-.73,1.42-1.2.71-.83,1.18-1.75,1.42-2.75.24-1.01.24-2,.02-2.98-.22-.98-.68-1.87-1.38-2.69-.7-.81-1.61-1.47-2.73-1.98-1.45-.63-2.98-.95-4.61-.95-.2,0-.41,0-.61.01-1.85.09-3.55.56-5.09,1.42-1.69.95-3.07,2.24-4.15,3.89-1.08,1.64-1.73,3.44-1.93,5.4m14.42,2.74c.07,0,.14,0,.21,0,.37-.01.63-.05.78-.11-.06-.09-.25-.18-.58-.29-.33-.1-.59-.17-.8-.2l-.22.53c.14.05.34.07.61.07m-.78-15.86c-2.9,0-5.65.56-8.16,1.66-2.96,1.3-5.43,3.4-7.34,6.24-.69,1.01-1.26,2.16-1.69,3.41-.39,1.13-.59,2.29-.61,3.44-.51.52-.98,1.07-1.41,1.65-.51.7-.94,1.43-1.29,2.16-.45.99-.81,2.08-1.09,3.26-.28,1.2-.41,2.43-.38,3.63.03,1.23.25,2.42.66,3.55.43,1.2,1.15,2.23,2.15,3.05.92.78,2.01,1.3,3.24,1.54.63.12,1.27.19,1.9.19.54,0,1.08-.05,1.61-.14,1.22-.2,2.36-.64,3.36-1.31.94-.63,1.84-1.38,2.65-2.23.79-.82,1.49-1.74,2.07-2.74.56-.95,1.08-1.92,1.56-2.88.53-1.03,1.07-2.12,1.59-3.24.44-.94.94-2.06,1.49-3.35.39.06.77.1,1.13.11.09,0,.17,0,.26,0,.3,0,.61-.01.92-.04.19.38.28.79.29,1.23.01.8,0,1.59-.06,2.33-.12,1.62-.1,3.19.07,4.65.17,1.51.54,2.85,1.09,3.99.59,1.2,1.4,2.13,2.41,2.77.78.48,1.69.73,2.71.73.36,0,.75-.03,1.14-.09.56-.05,1.1-.23,1.6-.54.45-.28.84-.58,1.16-.9.38-.38.63-.75.75-1.12.19-.57,0-.97-.14-1.15-.13-.19-.45-.5-1.05-.5-.58-.02-1.03-.14-1.32-.37-.34-.26-.61-.59-.81-.99-.23-.45-.39-.94-.49-1.45-.12-.61-.24-1.2-.36-1.77-.18-.8-.34-1.6-.48-2.4-.16-.85-.36-1.68-.61-2.47-.25-.8-.56-1.58-.92-2.33-.2-.41-.42-.8-.68-1.18.55-.3,1.08-.63,1.6-.98.9-.61,1.69-1.32,2.36-2.12.69-.82,1.2-1.74,1.54-2.75.35-1.05.41-2.21.17-3.44-.24-1.29-.83-2.4-1.74-3.31-.85-.85-1.84-1.55-2.94-2.08-1.07-.52-2.2-.92-3.37-1.19-1.14-.26-2.18-.43-3.09-.49-.5-.03-1-.05-1.49-.05h0Zm-12.36,11.65c.3-1.19.8-2.32,1.49-3.37.99-1.5,2.27-2.7,3.81-3.56,1.39-.78,2.96-1.21,4.64-1.29.19,0,.38-.01.56-.01,1.48,0,2.89.29,4.21.86.97.44,1.78,1.01,2.37,1.71.04.04.07.08.1.12-.19-.02-.39-.03-.58-.03-.14,0-.27,0-.41.02-1.23.07-2.39.4-3.42,1-.98.56-1.88,1.27-2.67,2.11-.77.82-1.47,1.73-2.08,2.71-.5.81-.95,1.6-1.33,2.36,0-.04,0-.08,0-.12,0-.28-.1-.7-.59-1.08-.08-.07-.15-.12-.19-.16l-.05-.05-.06-.05c-.42-.32-.88-.57-1.35-.77-.46-.18-.92-.33-1.39-.43-.49-.1-.98-.15-1.46-.15-.34,0-.68.03-1.01.07-.2.03-.4.07-.6.11h0Zm14.85,1.63c.41-.72.85-1.41,1.34-2.06.58-.79,1.32-1.46,2.19-2.02.02.52-.03,1.04-.15,1.57-.2.86-.6,1.62-1.21,2.33-.22.25-.46.48-.73.68-.47-.22-.95-.39-1.44-.5h0Zm-9.43,2.08c.39,0,.69-.13.91-.33-.45.96-.87,1.96-1.23,2.98-.4,1.11-.8,2.2-1.22,3.29-.41,1.08-.84,2.15-1.29,3.2-.43,1.01-.97,1.98-1.58,2.91-.52.81-1.15,1.46-1.88,1.94-.5.34-1.07.5-1.71.5-.18,0-.36-.01-.55-.04-.9-.11-1.55-.48-1.99-1.13-.52-.76-.82-1.58-.92-2.52-.13-1.37.06-2.74.56-4.07.34-.89.78-1.73,1.32-2.49,0,0,0,0,0,.01.32.5.71.95,1.17,1.33.93.82,2,1.31,3.17,1.43.2.04.42.05.68.05.34,0,.64-.05.91-.16.61-.23.78-.67.82-.91.08-.4-.07-.8-.39-1.09-.11-.1-.21-.2-.29-.3l-.02-.03-.02-.02c-.56-.61-1.04-1.31-1.42-2.07-.27-.53-.47-1.08-.6-1.64,1.31-.63,2.67-.95,4.05-.95.22,0,.45,0,.67.02h.04s.04,0,.04,0c0,0,.11,0,.47.06.11.02.22.02.31.02h0Z"/>
    </g>
    <g>
      <path class="cls-1" d="m202.86,63.44c-.3,0-.6-.01-.9-.04-2.01-.13-3.56-.75-4.59-1.84-1.02-1.08-1.63-2.39-1.82-3.9-.19-1.47,0-3.06.58-4.71.57-1.63,1.42-3.14,2.53-4.49,1.12-1.35,2.52-2.46,4.15-3.3,1.41-.72,2.95-1.09,4.58-1.09.3,0,.6.01.9.04,2.04.16,3.61.78,4.65,1.86,1.04,1.07,1.65,2.38,1.83,3.89.17,1.48-.03,3.06-.6,4.71-.56,1.63-1.42,3.14-2.55,4.49-1.13,1.35-2.54,2.46-4.17,3.3-1.4.72-2.95,1.09-4.58,1.09Zm3.53-17c-.66.05-1.26.42-1.82,1.12-.62.77-1.14,1.73-1.57,2.86-.43,1.15-.76,2.39-.97,3.7-.21,1.3-.28,2.52-.2,3.61.08,1.06.31,1.94.67,2.6.28.51.66.75,1.18.75.05,0,.09,0,.14,0,.65-.07,1.25-.46,1.82-1.17.62-.77,1.14-1.73,1.57-2.84.43-1.14.76-2.37.97-3.68.21-1.3.29-2.52.22-3.62-.07-1.06-.29-1.93-.67-2.58-.29-.51-.68-.75-1.21-.75-.05,0-.09,0-.14,0Z"/>
      <path class="cls-3" d="m207.4,44.57c.28,0,.57.01.86.03,1.92.15,3.37.72,4.33,1.71.96.99,1.52,2.19,1.69,3.6.16,1.41-.03,2.9-.58,4.49-.55,1.58-1.37,3.03-2.46,4.33-1.1,1.3-2.44,2.36-4.02,3.18-1.34.69-2.79,1.03-4.35,1.03-.28,0-.57-.01-.86-.03-1.9-.12-3.32-.68-4.26-1.69-.95-1.01-1.51-2.21-1.69-3.62-.18-1.41,0-2.9.55-4.49.55-1.58,1.36-3.03,2.44-4.33,1.08-1.3,2.41-2.36,4-3.18,1.34-.69,2.79-1.03,4.36-1.03m-3.71,17.01c.06,0,.12,0,.18,0,.8-.09,1.53-.54,2.18-1.35.65-.81,1.2-1.81,1.64-2.98.44-1.17.78-2.43,1-3.77.22-1.35.3-2.59.22-3.73-.07-1.14-.32-2.07-.73-2.8-.38-.67-.93-1.01-1.64-1.01-.06,0-.12,0-.18,0-.8.06-1.53.5-2.18,1.31-.65.81-1.2,1.81-1.64,3-.44,1.18-.78,2.45-1,3.8-.22,1.35-.29,2.59-.2,3.73.09,1.14.33,2.07.73,2.8.37.67.91,1.01,1.62,1.01m3.71-18.01c-1.72,0-3.34.38-4.81,1.14-1.7.87-3.15,2.03-4.31,3.43-1.15,1.39-2.03,2.95-2.62,4.64-.6,1.73-.8,3.39-.6,4.94.2,1.62.86,3.02,1.95,4.18,1.12,1.19,2.78,1.87,4.93,2,.3.02.62.04.93.04,1.72,0,3.34-.39,4.81-1.14,1.7-.87,3.15-2.02,4.33-3.42,1.17-1.39,2.06-2.96,2.64-4.65.59-1.72.81-3.38.63-4.93-.19-1.62-.85-3.03-1.96-4.18-1.13-1.17-2.8-1.84-4.97-2.01-.31-.02-.63-.04-.94-.04h0Zm-3.71,17.01c-.29,0-.52-.08-.74-.49-.33-.6-.53-1.4-.61-2.39-.08-1.06-.02-2.23.19-3.49.21-1.28.53-2.49.95-3.61.41-1.08.91-2,1.49-2.72.47-.59.95-.9,1.47-.94.03,0,.07,0,.1,0,.29,0,.54.09.78.5.34.59.54,1.39.6,2.37.07,1.06,0,2.24-.21,3.5-.21,1.27-.53,2.48-.95,3.58-.4,1.06-.91,1.98-1.49,2.71-.48.6-.98.93-1.51.98,0,0,0,0,0,0,0,0-.04,0-.06,0h0Z"/>
    </g>
    <g>
      <path class="cls-1" d="m220.3,63.27c-.63,0-1.28-.09-1.93-.26-.65-.17-1.26-.43-1.8-.77-.54-.34-1.03-.75-1.45-1.23-.44-.51-.73-1.09-.87-1.74l-.03-.14,3.95-11.43c.62-1.93,1.36-3.86,2.19-5.73.84-1.89,1.8-3.59,2.85-5.07,1.06-1.49,2.24-2.71,3.49-3.63,1.3-.95,2.7-1.43,4.16-1.43s2.51.47,3.01,1.4c.47.87.55,1.97.22,3.28-.31,1.23-.94,2.62-1.88,4.13-.78,1.25-1.73,2.5-2.83,3.72.69.16,1.29.44,1.8.83.74.58,1.28,1.34,1.59,2.28.3.91.39,1.97.27,3.16-.12,1.17-.48,2.43-1.06,3.75-.79,1.82-1.73,3.32-2.8,4.47-1.06,1.14-2.16,2.05-3.26,2.71-1.1.66-2.17,1.11-3.16,1.35-.98.23-1.81.35-2.47.35Zm-1.13-2.98c.35.45.69.51.92.51.56-.02,1.13-.31,1.75-.84.67-.57,1.37-1.4,2.08-2.47.72-1.08,1.39-2.39,2-3.88.83-2.07,1.28-3.77,1.32-5.07.02-.65-.08-1.11-.3-1.34-.12-.13-.31-.19-.56-.19-.35,0-.79.27-1.28.8-.56.6-1.17,1.5-1.82,2.66-.65,1.18-1.34,2.63-2.04,4.32-.68,1.66-1.38,3.51-2.08,5.51Zm11.26-26.21c-.31,0-.7.25-1.11.73-.49.57-1.02,1.42-1.58,2.52-.57,1.12-1.17,2.49-1.78,4.06-.48,1.24-.98,2.6-1.48,4.08.35-.38.69-.77,1.02-1.18.78-.97,1.5-1.96,2.12-2.95.62-.98,1.17-1.97,1.61-2.92.45-.95.78-1.8,1-2.51.2-.68.29-1.22.27-1.62-.01-.17-.05-.23-.05-.23h-.03Z"/>
      <path class="cls-3" d="m230.87,32.35c1.3,0,2.16.38,2.58,1.14.41.76.47,1.73.18,2.92-.3,1.19-.9,2.52-1.82,3.99s-2.06,2.92-3.42,4.35c1.01.06,1.84.35,2.51.87s1.14,1.2,1.42,2.04.36,1.83.25,2.95c-.12,1.13-.46,2.32-1.02,3.6-.77,1.78-1.67,3.22-2.71,4.33s-2.09,1.98-3.15,2.62c-1.07.64-2.07,1.07-3.02,1.29s-1.73.33-2.35.33-1.19-.08-1.8-.24c-.61-.16-1.16-.4-1.67-.71-.5-.31-.95-.69-1.33-1.13s-.64-.95-.75-1.51l3.91-11.3c.62-1.93,1.35-3.83,2.18-5.69.83-1.87,1.76-3.53,2.8-4.98,1.04-1.45,2.16-2.62,3.38-3.51s2.5-1.33,3.86-1.33m-7.55,14.97c.92-.8,1.78-1.69,2.58-2.69.8-.99,1.52-1.99,2.15-3,.64-1.01,1.18-2,1.64-2.98s.8-1.84,1.02-2.58c.22-.74.32-1.34.29-1.8-.03-.46-.22-.69-.58-.69-.47,0-.97.3-1.49.91-.52.61-1.07,1.48-1.64,2.62-.58,1.14-1.18,2.51-1.8,4.11s-1.26,3.39-1.91,5.37c-.06.27-.15.5-.27.71m-3.23,13.99s.05,0,.08,0c.62-.03,1.29-.35,2-.95s1.44-1.47,2.18-2.58c.74-1.11,1.42-2.44,2.04-3.98.86-2.13,1.31-3.88,1.35-5.24.04-1.36-.41-2.04-1.35-2.04-.5,0-1.05.32-1.64.96-.59.64-1.22,1.55-1.89,2.75s-1.35,2.66-2.07,4.37c-.71,1.72-1.44,3.64-2.18,5.77.4.62.89.93,1.47.93m10.78-29.96c-1.57,0-3.07.51-4.46,1.53-1.29.95-2.5,2.21-3.6,3.74-1.07,1.5-2.05,3.24-2.9,5.16-.84,1.89-1.58,3.84-2.21,5.79l-3.9,11.28-.09.26.06.27c.15.73.48,1.39.98,1.96.45.52.98.97,1.56,1.33.59.36,1.24.64,1.93.83.69.18,1.38.28,2.06.28s1.55-.12,2.58-.36c1.05-.25,2.16-.72,3.31-1.4,1.14-.68,2.27-1.62,3.37-2.8,1.11-1.19,2.08-2.74,2.9-4.61.6-1.36.97-2.67,1.1-3.89.13-1.27.03-2.4-.29-3.38-.34-1.03-.93-1.88-1.76-2.52-.37-.29-.78-.52-1.22-.69.9-1.06,1.69-2.13,2.37-3.2.97-1.55,1.62-2.99,1.94-4.28.36-1.43.27-2.66-.27-3.64-.6-1.1-1.76-1.66-3.45-1.66h0Zm-4.97,11.65c.18-.48.36-.95.53-1.4.61-1.56,1.2-2.91,1.76-4.02.54-1.06,1.05-1.88,1.51-2.42.1-.12.19-.21.28-.29-.03.24-.1.54-.22.93-.21.69-.53,1.51-.97,2.44-.44.94-.97,1.9-1.58,2.87-.4.63-.84,1.27-1.31,1.9h0Zm-6.16,17.18c.66-1.88,1.32-3.63,1.97-5.2.69-1.67,1.37-3.11,2.02-4.27.62-1.12,1.21-1.98,1.75-2.56.56-.61.86-.64.91-.64.08,0,.17.01.2.04,0,0,.18.2.16.97-.04,1.24-.47,2.89-1.28,4.9-.59,1.47-1.25,2.74-1.95,3.79-.69,1.03-1.36,1.83-1.99,2.37-.53.45-1.01.7-1.4.72h-.03c-.06,0-.19,0-.35-.13h0Z"/>
    </g>
    <g>
      <path class="cls-1" d="m241.7,63.45c-2.26,0-4.08-.5-5.4-1.47-1.33-.98-2.22-2.24-2.65-3.73-.42-1.47-.45-3.06-.07-4.73.37-1.66,1.08-3.23,2.13-4.67,1.04-1.44,2.41-2.65,4.06-3.6,1.67-.96,3.61-1.44,5.76-1.44,1.61,0,2.86.31,3.73.91.9.63,1.43,1.43,1.58,2.39.15.93-.04,1.94-.55,3-.5,1.03-1.27,2.01-2.3,2.9-1.01.89-2.29,1.66-3.8,2.3-1.37.58-2.91.95-4.59,1.11.07.49.17.96.3,1.41.17.57.43,1.07.78,1.49.34.42.76.75,1.26,1,.49.24,1.09.37,1.78.37.59,0,1.23-.12,1.9-.35.67-.23,1.36-.6,2.02-1.09.67-.49,1.33-1.11,1.96-1.85.62-.73,1.18-1.62,1.66-2.64.17-.35.38-.57.63-.7.16-.08.33-.12.49-.12.11,0,.21.02.31.05.29.1.5.33.59.65.07.27.04.57-.08.91-.5,1.18-1.13,2.25-1.9,3.22-.77.97-1.66,1.81-2.66,2.51-1,.7-2.1,1.24-3.26,1.62-1.17.38-2.4.57-3.66.57Zm3.2-17.32c-.69,0-1.32.23-1.93.71-.64.51-1.22,1.18-1.7,1.99-.49.83-.9,1.78-1.22,2.82-.25.83-.41,1.67-.48,2.5.69-.13,1.35-.38,1.97-.74.81-.48,1.53-1.04,2.13-1.67.6-.63,1.11-1.31,1.5-2.03.38-.7.63-1.36.72-1.95.08-.53.04-.96-.14-1.27-.09-.16-.28-.37-.85-.37Z"/>
      <path class="cls-3" d="m245.52,44.3c1.51,0,2.66.27,3.44.82.78.55,1.24,1.23,1.38,2.06.13.83-.04,1.73-.51,2.7-.47.97-1.2,1.89-2.18,2.75-.98.86-2.2,1.59-3.66,2.21-1.47.62-3.12.99-4.95,1.11.06.71.19,1.38.38,2.02.19.64.48,1.19.87,1.66.38.47.86.85,1.42,1.13s1.23.42,2,.42c.65,0,1.34-.13,2.07-.38.72-.25,1.44-.64,2.15-1.15.71-.52,1.39-1.16,2.04-1.93.65-.77,1.23-1.69,1.73-2.75.12-.24.25-.39.4-.47.09-.05.18-.07.27-.07.05,0,.1,0,.15.02.13.04.22.15.27.31.04.16.02.36-.07.6-.47,1.13-1.08,2.15-1.82,3.09-.74.93-1.59,1.74-2.55,2.41-.96.67-2.01,1.19-3.13,1.55s-2.29.55-3.51.55c-2.16,0-3.86-.46-5.11-1.38-1.24-.92-2.07-2.07-2.46-3.46-.4-1.39-.42-2.89-.07-4.49s1.04-3.09,2.04-4.49c1.01-1.39,2.31-2.55,3.91-3.46,1.6-.92,3.43-1.38,5.51-1.38m-6.49,10.44c.98-.09,1.89-.38,2.75-.89.86-.5,1.61-1.09,2.24-1.75s1.16-1.38,1.58-2.13c.41-.76.67-1.46.78-2.11.1-.65.04-1.18-.2-1.6-.24-.41-.67-.62-1.29-.62-.8,0-1.55.27-2.24.82-.7.55-1.3,1.26-1.82,2.13-.52.87-.94,1.85-1.27,2.93-.33,1.08-.5,2.15-.53,3.22m6.49-11.44c-2.24,0-4.26.51-6.01,1.51-1.72.99-3.14,2.25-4.22,3.75-1.08,1.5-1.83,3.13-2.21,4.85-.39,1.76-.36,3.43.08,4.98.46,1.6,1.41,2.95,2.83,3.99,1.41,1.04,3.33,1.57,5.7,1.57,1.31,0,2.6-.2,3.82-.6,1.21-.39,2.35-.96,3.4-1.69,1.03-.72,1.96-1.6,2.76-2.61.79-1,1.45-2.12,1.96-3.32.18-.47.21-.88.11-1.25-.13-.49-.47-.85-.91-1-.15-.05-.31-.08-.47-.08-.24,0-.48.06-.72.17-.35.17-.63.48-.85.91-.47,1-1.01,1.85-1.6,2.55-.6.71-1.23,1.3-1.87,1.77-.63.46-1.26.8-1.89,1.02-.62.21-1.2.32-1.74.32-.61,0-1.13-.11-1.55-.32-.44-.22-.79-.5-1.09-.87-.3-.37-.53-.81-.68-1.32-.08-.27-.15-.54-.2-.83,1.53-.18,2.94-.55,4.21-1.09,1.56-.66,2.88-1.46,3.93-2.38,1.07-.94,1.89-1.97,2.42-3.06.56-1.16.77-2.27.6-3.3-.18-1.1-.78-2.01-1.79-2.72-.97-.67-2.28-1-4.01-1h0Zm-5.37,10.2c.08-.56.21-1.13.38-1.69.3-1,.69-1.91,1.17-2.71.45-.76.98-1.39,1.58-1.86.52-.41,1.05-.61,1.62-.61.23,0,.38.04.42.12.15.26.13.66.08.94-.08.53-.31,1.14-.67,1.79-.37.68-.85,1.32-1.42,1.92-.57.6-1.25,1.13-2.03,1.58-.37.22-.75.39-1.14.51h0Z"/>
    </g>
    <g>
      <path class="cls-1" d="m258.31,63.23c-.88,0-1.64-.17-2.28-.5-.66-.35-1.16-.89-1.47-1.62-.3-.69-.42-1.57-.35-2.6.06-1,.33-2.19.78-3.53l1.96-5.6c.16-.45.25-.92.26-1.4.01-.44-.08-.82-.27-1.16-.1-.18-.21-.34-.33-.49-.07-.08-.13-.16-.2-.24-.11.37-.24.78-.38,1.23l-.87,2.73c-.31.98-.64,1.96-.98,2.94-.34.99-.67,1.85-.96,2.6-.19.45-.4.76-.65.95-.21.16-.42.24-.63.24-.12,0-.24-.03-.34-.08-.26-.13-.43-.39-.51-.77-.06-.32-.02-.67.13-1.09.71-1.94,1.31-3.68,1.79-5.16.48-1.46.87-2.74,1.17-3.78.32-1.17.59-2.2.79-3.08l.17-.72.61.43c.8.56,1.57,1.11,2.31,1.65.65.52,1.29,1.06,1.94,1.63.68.59,1.23,1.19,1.64,1.78.58.83.91,1.64,1,2.4.08.75-.05,1.63-.4,2.62l-1.82,5.28c-.46,1.28-.45,1.81-.41,2.01.07.3.18.3.29.3.09,0,.3-.03.71-.24.34-.17.71-.46,1.11-.86.42-.42.87-.99,1.34-1.68.46-.69.9-1.56,1.3-2.59.13-.35.33-.6.6-.73.16-.08.33-.12.49-.12.11,0,.21.02.31.05.19.06.46.22.6.61.1.28.08.6-.05.95-.85,2.28-2.04,4.14-3.53,5.52-1.52,1.41-3.17,2.13-4.89,2.13Z"/>
      <path class="cls-3" d="m255.47,42.92c.8.56,1.57,1.11,2.31,1.64.62.5,1.26,1.04,1.91,1.6s1.17,1.13,1.55,1.69c.53.77.84,1.5.91,2.18.07.68-.05,1.48-.38,2.4l-1.82,5.29c-.38,1.07-.53,1.83-.42,2.29.1.46.36.69.78.69.24,0,.55-.1.93-.29.38-.19.8-.51,1.24-.96.44-.44.91-1.03,1.4-1.75.49-.73.94-1.62,1.35-2.69.09-.24.21-.39.36-.47.09-.05.18-.07.27-.07.05,0,.1,0,.15.02.13.04.23.15.29.31.06.16.04.36-.04.6-.83,2.22-1.96,4-3.4,5.33-1.44,1.33-2.95,2-4.55,2-.8,0-1.48-.15-2.04-.44-.56-.3-.98-.75-1.24-1.38-.27-.62-.37-1.41-.31-2.38.06-.96.31-2.09.76-3.4l1.95-5.6c.18-.5.27-1.02.29-1.55.01-.53-.1-1.01-.33-1.42-.12-.21-.24-.39-.38-.56-.13-.16-.26-.32-.38-.47l-.44-.44c-.15.53-.36,1.22-.62,2.06-.27.84-.56,1.75-.87,2.73-.31.98-.64,1.95-.98,2.93-.34.98-.66,1.84-.96,2.58-.15.35-.31.6-.49.73-.12.09-.23.14-.33.14-.04,0-.08,0-.12-.03-.12-.06-.2-.2-.24-.42-.04-.22,0-.5.11-.82.71-1.95,1.31-3.68,1.8-5.17.49-1.49.88-2.76,1.18-3.8.33-1.18.59-2.22.8-3.11m-.64-1.67l-.34,1.44c-.2.87-.47,1.91-.79,3.07-.29,1.03-.69,2.29-1.16,3.75-.48,1.48-1.08,3.21-1.79,5.14-.18.51-.23.95-.15,1.36.14.68.5.98.78,1.12.17.09.37.13.56.13.32,0,.63-.11.93-.34.32-.24.59-.62.81-1.15.31-.76.63-1.64.98-2.63.35-.99.68-1.99.99-2.96.31-.98.6-1.89.87-2.73.03-.08.05-.17.08-.25.09.22.13.46.12.74-.01.43-.09.85-.23,1.25l-1.96,5.6c-.47,1.39-.75,2.62-.81,3.67-.07,1.11.06,2.07.39,2.83.36.84.93,1.46,1.7,1.87.7.37,1.55.56,2.51.56,1.85,0,3.61-.76,5.23-2.27,1.54-1.43,2.77-3.36,3.65-5.71.17-.46.19-.9.05-1.29-.17-.46-.49-.78-.91-.92-.15-.05-.31-.08-.47-.08-.24,0-.48.06-.72.17-.38.19-.66.53-.84,1.01-.38.98-.8,1.82-1.25,2.48-.45.67-.88,1.21-1.28,1.61-.37.37-.7.62-.98.77-.12.06-.22.1-.3.13,0-.21.07-.68.4-1.58l1.83-5.3c.38-1.06.52-1.99.43-2.83-.09-.85-.46-1.73-1.08-2.64-.43-.63-1.01-1.26-1.72-1.88-.64-.56-1.29-1.1-1.93-1.62l-.02-.02-.02-.02c-.74-.53-1.52-1.08-2.32-1.65l-1.21-.85h0Z"/>
    </g>
    <g>
      <path class="cls-1" d="m268.04,63.23c-.88,0-1.65-.17-2.29-.5-.68-.35-1.18-.89-1.5-1.62-.3-.69-.41-1.57-.33-2.61.08-1,.35-2.19.8-3.52.18-.55.38-1.19.62-1.89.24-.7.49-1.43.76-2.2.27-.77.55-1.57.85-2.38.21-.58.41-1.15.61-1.71h-1.95l1.04-2.24h1.66l.28-.78c.33-.99.71-1.86,1.13-2.55.44-.73.97-1.31,1.59-1.73.61-.42,1.33-.72,2.13-.9.77-.17,1.69-.26,2.73-.26h.68l-.16.65c-.18.57-.39,1.18-.63,1.84-.21.56-.44,1.22-.71,1.97-.19.54-.39,1.1-.59,1.69l3.06-.28-1.45,2.6h-2.42l-3.79,11.08c-.46,1.28-.45,1.81-.41,2.01.07.3.16.3.25.3.09,0,.31-.03.74-.24.35-.17.73-.46,1.13-.86.42-.42.86-.98,1.31-1.67.45-.69.89-1.57,1.29-2.6.13-.35.33-.6.6-.73.16-.08.33-.12.49-.12.11,0,.21.02.31.05.18.06.44.21.61.58.13.29.13.62,0,.98-.85,2.28-2.04,4.14-3.53,5.52-1.52,1.41-3.17,2.13-4.89,2.13Z"/>
      <path class="cls-3" d="m276.21,38.83c-.18.56-.38,1.17-.62,1.82-.21.56-.44,1.22-.71,1.98-.27.76-.55,1.56-.84,2.42l2.89-.27-.84,1.51h-2.49l-3.91,11.41c-.39,1.07-.53,1.83-.42,2.29.1.46.35.69.73.69.24,0,.56-.1.96-.29.4-.19.82-.51,1.27-.96s.9-1.03,1.38-1.75c.47-.73.92-1.62,1.33-2.69.09-.24.21-.39.36-.47.09-.05.18-.07.27-.07.05,0,.1,0,.15.02.13.04.24.15.31.31.07.16.07.36-.02.6-.83,2.22-1.96,4-3.4,5.33-1.44,1.33-2.95,2-4.55,2-.8,0-1.49-.15-2.07-.44-.58-.3-1-.75-1.27-1.38-.27-.62-.36-1.41-.29-2.38.07-.96.33-2.09.78-3.4.18-.56.38-1.19.62-1.89.24-.7.49-1.43.75-2.2.27-.77.55-1.56.84-2.38.3-.81.58-1.61.84-2.38h-1.87l.58-1.24h1.69l.4-1.11c.33-.98.69-1.8,1.09-2.47.4-.67.88-1.19,1.44-1.58.56-.38,1.21-.66,1.96-.82.74-.16,1.61-.24,2.62-.24h.04m1.36-1h-1.41c-1.07,0-2.03.09-2.83.27-.86.19-1.64.52-2.3.97-.68.47-1.26,1.1-1.74,1.89-.44.73-.83,1.63-1.18,2.66l-.15.43h-1.62l-.27.58-.58,1.24-.66,1.42h2.02c-.12.34-.25.69-.37,1.03-.3.82-.58,1.62-.85,2.39-.27.77-.52,1.51-.76,2.2-.24.7-.45,1.34-.63,1.91-.46,1.35-.74,2.58-.82,3.62-.09,1.14.03,2.07.37,2.85.36.84.94,1.47,1.73,1.87.72.37,1.56.55,2.52.55,1.85,0,3.61-.76,5.23-2.27,1.54-1.43,2.77-3.36,3.65-5.71.23-.61.13-1.08,0-1.36-.24-.54-.63-.76-.91-.85-.15-.05-.31-.08-.47-.08-.24,0-.48.06-.71.17-.38.19-.67.53-.85,1.01-.38.99-.8,1.83-1.23,2.49-.43.66-.85,1.2-1.25,1.59-.36.36-.7.62-.99.76-.12.06-.21.1-.29.12,0-.22.07-.68.4-1.57l3.68-10.75h2.36l.29-.51.84-1.51.93-1.66-1.89.17-1.34.12c.11-.33.22-.64.33-.95.26-.75.5-1.4.71-1.96.24-.67.46-1.29.64-1.87l.41-1.3h0Z"/>
    </g>
    <g>
      <path class="cls-1" d="m281.65,63.44c-.3,0-.6-.01-.9-.04-2.01-.13-3.56-.75-4.59-1.84-1.02-1.08-1.63-2.39-1.82-3.9-.19-1.47,0-3.06.58-4.71.57-1.63,1.42-3.14,2.53-4.49,1.12-1.35,2.52-2.46,4.15-3.3,1.41-.72,2.95-1.09,4.58-1.09.3,0,.6.01.9.04,2.04.16,3.61.78,4.65,1.86,1.04,1.07,1.65,2.38,1.83,3.89.17,1.48-.03,3.06-.6,4.71-.56,1.63-1.42,3.14-2.55,4.49-1.13,1.35-2.54,2.46-4.17,3.3-1.4.72-2.95,1.09-4.58,1.09Zm3.53-17c-.66.05-1.26.42-1.82,1.12-.62.77-1.14,1.73-1.57,2.86-.43,1.15-.76,2.39-.97,3.7-.21,1.3-.28,2.52-.2,3.61.08,1.06.31,1.94.67,2.6.28.51.66.75,1.18.75.05,0,.09,0,.14,0,.65-.07,1.25-.46,1.82-1.17.62-.77,1.14-1.73,1.57-2.84.43-1.14.76-2.37.97-3.68.21-1.3.29-2.52.22-3.62-.07-1.06-.29-1.93-.67-2.58-.29-.51-.68-.75-1.21-.75-.05,0-.09,0-.14,0Z"/>
      <path class="cls-3" d="m286.19,44.57c.28,0,.57.01.86.03,1.92.15,3.37.72,4.33,1.71.96.99,1.52,2.19,1.69,3.6.16,1.41-.03,2.9-.58,4.49-.55,1.58-1.37,3.03-2.46,4.33-1.1,1.3-2.44,2.36-4.02,3.18-1.34.69-2.79,1.03-4.35,1.03-.28,0-.57-.01-.86-.03-1.9-.12-3.32-.68-4.26-1.69-.95-1.01-1.51-2.21-1.69-3.62-.18-1.41,0-2.9.55-4.49.55-1.58,1.36-3.03,2.44-4.33,1.08-1.3,2.41-2.36,4-3.18,1.34-.69,2.79-1.03,4.36-1.03m-3.71,17.01c.06,0,.12,0,.18,0,.8-.09,1.53-.54,2.18-1.35.65-.81,1.2-1.81,1.64-2.98.44-1.17.78-2.43,1-3.77.22-1.35.3-2.59.22-3.73-.07-1.14-.32-2.07-.73-2.8-.38-.67-.93-1.01-1.64-1.01-.06,0-.12,0-.18,0-.8.06-1.53.5-2.18,1.31-.65.81-1.2,1.81-1.64,3-.44,1.18-.78,2.45-1,3.8-.22,1.35-.29,2.59-.2,3.73.09,1.14.33,2.07.73,2.8.37.67.91,1.01,1.62,1.01m3.71-18.01c-1.72,0-3.34.38-4.81,1.14-1.7.87-3.15,2.03-4.31,3.43-1.15,1.39-2.03,2.95-2.62,4.64-.6,1.73-.8,3.39-.6,4.94.2,1.62.86,3.02,1.95,4.18,1.12,1.19,2.78,1.87,4.93,2,.3.02.62.04.93.04,1.72,0,3.34-.39,4.81-1.14,1.7-.87,3.15-2.02,4.33-3.42,1.17-1.39,2.06-2.96,2.64-4.65.59-1.72.81-3.38.63-4.93-.19-1.62-.85-3.03-1.96-4.18-1.13-1.17-2.8-1.84-4.97-2.01-.31-.02-.63-.04-.94-.04h0Zm-3.71,17.01c-.29,0-.52-.08-.74-.49-.33-.6-.53-1.4-.61-2.39-.08-1.06-.02-2.23.19-3.49.21-1.28.53-2.49.95-3.61.41-1.08.91-2,1.49-2.72.47-.59.95-.9,1.47-.94.03,0,.07,0,.1,0,.29,0,.54.09.78.5.34.59.54,1.39.6,2.37.07,1.06,0,2.24-.21,3.5-.21,1.27-.53,2.48-.95,3.58-.4,1.06-.91,1.98-1.49,2.71-.48.6-.98.93-1.51.98,0,0,0,0,0,0,0,0-.04,0-.06,0h0Z"/>
    </g>
  </g>
  <g>
    <g>
      <path class="cls-1" d="m88.09,18.97c-.72,0-1.3-.21-1.72-.63-.42-.42-.64-.92-.64-1.5,0-.36.12-.79.36-1.33.23-.51.5-.93.78-1.23,1.05-1.08,2-2.02,2.84-2.8.86-.79,1.47-1.31,1.85-1.56.6-.42,1.11-.86,1.51-1.29.39-.42.69-.85.88-1.28.19-.41.29-.82.29-1.2,0-.41-.09-.77-.29-1.08-.19-.32-.45-.56-.78-.74-.34-.18-.7-.27-1.11-.27-.85,0-1.5.37-2,1.12-.02.03-.1.17-.34.85-.2.58-.44,1.03-.71,1.36-.23.28-.65.6-1.4.6-.53,0-.97-.18-1.33-.53-.35-.35-.53-.83-.53-1.41s.13-1.23.4-1.88c.27-.65.67-1.24,1.19-1.76.53-.52,1.2-.95,2-1.26.79-.31,1.73-.47,2.78-.47,1.26,0,2.36.2,3.26.61.61.28,1.14.66,1.6,1.15.46.48.81,1.04,1.07,1.68.25.63.38,1.29.38,1.97,0,1.06-.27,2.03-.79,2.9-.5.83-1.03,1.5-1.56,1.98-.5.45-1.35,1.17-2.53,2.13-1.1.9-1.88,1.61-2.3,2.11h5.11c.72,0,1.29.16,1.7.48.44.34.67.83.67,1.41,0,.51-.17.96-.52,1.32-.35.37-.86.55-1.52.55h-8.62Z"/>
      <path class="cls-3" d="m92.15,1.19c1.2,0,2.21.19,3.06.56.55.25,1.03.59,1.44,1.03s.74.94.97,1.52c.23.57.35,1.17.35,1.79,0,.97-.24,1.85-.72,2.64-.48.79-.97,1.41-1.47,1.86s-1.34,1.15-2.51,2.12-1.98,1.71-2.42,2.24c-.19.21-.38.46-.57.76h6.12c.61,0,1.07.12,1.39.38s.48.59.48,1.02c0,.38-.13.71-.38.97-.25.27-.64.4-1.15.4h-8.63c-.59,0-1.04-.16-1.37-.49-.33-.32-.49-.71-.49-1.14,0-.28.11-.65.32-1.12.21-.46.44-.83.69-1.1,1.04-1.08,1.98-2,2.81-2.77.84-.77,1.43-1.28,1.79-1.52.64-.45,1.17-.91,1.6-1.37s.75-.93.97-1.41c.22-.48.33-.95.33-1.41,0-.5-.12-.95-.36-1.34s-.56-.7-.97-.92c-.41-.22-.86-.33-1.34-.33-1.02,0-1.83.45-2.41,1.35-.08.12-.21.44-.39.96-.18.52-.39.93-.62,1.21-.23.28-.57.42-1.01.42-.39,0-.71-.13-.97-.39-.26-.26-.39-.61-.39-1.05,0-.54.12-1.1.36-1.69.24-.59.6-1.12,1.08-1.59.48-.48,1.09-.86,1.83-1.15.74-.29,1.6-.44,2.6-.44m0-1c-1.11,0-2.11.17-2.96.51-.86.34-1.59.8-2.16,1.37-.57.57-1.01,1.21-1.3,1.92-.29.7-.44,1.4-.44,2.07,0,.89.37,1.45.68,1.76.44.44,1.03.68,1.68.68.94,0,1.49-.43,1.79-.79.31-.38.57-.87.79-1.51.21-.6.29-.75.3-.76.39-.6.88-.88,1.57-.88.32,0,.61.07.87.21.25.13.44.31.59.55.14.24.21.51.21.82s-.08.65-.24.99c-.18.38-.45.77-.8,1.15-.38.4-.86.82-1.45,1.23-.39.26-1.01.79-1.89,1.6-.85.78-1.81,1.73-2.86,2.81-.34.36-.62.81-.88,1.38-.27.6-.41,1.1-.41,1.53,0,.7.27,1.34.79,1.85.52.51,1.22.77,2.07.77h8.63c.8,0,1.43-.24,1.88-.71.43-.45.66-1.03.66-1.66,0-.74-.3-1.37-.87-1.81-.5-.39-1.17-.59-2.01-.59h-3.92c.39-.36.86-.76,1.42-1.23,1.2-.98,2.03-1.68,2.55-2.15.57-.51,1.13-1.22,1.66-2.09.57-.95.87-2.01.87-3.16,0-.74-.14-1.47-.42-2.16-.28-.69-.67-1.31-1.17-1.83-.5-.53-1.09-.95-1.75-1.25-.98-.43-2.14-.65-3.47-.65h0Z"/>
    </g>
    <g>
      <path class="cls-1" d="m106.31,19.24c-1.37,0-2.56-.25-3.55-.73-1.01-.49-1.78-1.19-2.3-2.06-.51-.87-.77-1.85-.77-2.92,0-1.98.81-3.44,2.4-4.36-1.21-.84-1.83-2.01-1.83-3.51,0-.87.24-1.7.71-2.47.47-.77,1.17-1.39,2.08-1.84.89-.45,1.94-.67,3.11-.67.98,0,1.86.13,2.61.39.77.26,1.41.64,1.93,1.1.52.47.91,1.02,1.17,1.62.25.59.38,1.23.38,1.9,0,.86-.23,1.64-.67,2.33-.29.44-.66.82-1.12,1.15.35.2.67.44.94.7.49.47.86,1.01,1.11,1.63.25.61.37,1.29.37,2.02,0,1.07-.26,2.06-.79,2.93-.52.88-1.3,1.58-2.31,2.07-.99.48-2.16.73-3.48.73Zm-.09-8.33c-.67,0-1.21.21-1.65.65-.44.44-.66,1.05-.66,1.87,0,.52.11.98.32,1.37.21.39.49.68.85.89.36.21.76.31,1.21.31s.86-.1,1.22-.32c.36-.21.64-.5.84-.89.21-.39.32-.86.32-1.38s-.11-.98-.31-1.35c-.2-.37-.48-.65-.85-.84-.38-.2-.8-.3-1.29-.3Zm.02-7.01c-.6,0-1.06.18-1.42.54-.36.36-.53.83-.53,1.41,0,.53.18.95.54,1.3.37.35.84.52,1.44.52.3,0,.58-.05.82-.14.24-.09.44-.22.61-.38.17-.16.29-.35.38-.57.09-.22.14-.48.14-.75,0-.38-.08-.7-.25-1-.16-.29-.39-.51-.68-.68-.3-.17-.64-.25-1.04-.25Z"/>
      <path class="cls-3" d="m106.17,1.16c.93,0,1.75.12,2.45.36s1.29.58,1.76,1c.47.43.82.91,1.04,1.44.23.54.34,1.1.34,1.71,0,.77-.2,1.45-.59,2.05s-.98,1.09-1.76,1.48c.66.26,1.21.6,1.65,1.01s.77.9.99,1.45c.22.55.33,1.16.33,1.83,0,.98-.24,1.88-.71,2.68s-1.18,1.43-2.1,1.88c-.92.45-2.01.68-3.26.68s-2.41-.23-3.33-.68-1.62-1.08-2.09-1.87-.7-1.68-.7-2.67c0-2.1.99-3.54,2.98-4.32-1.6-.75-2.4-1.93-2.4-3.55,0-.78.21-1.52.64-2.21s1.05-1.24,1.88-1.66,1.79-.62,2.89-.62m.09,7.01c.37,0,.7-.06,1-.18.3-.12.56-.28.77-.49s.38-.45.5-.74.18-.6.18-.94c0-.46-.1-.88-.31-1.24-.21-.37-.5-.66-.87-.87s-.8-.32-1.29-.32c-.73,0-1.33.23-1.78.69-.45.46-.67,1.04-.67,1.76,0,.66.23,1.22.69,1.66.46.44,1.05.66,1.78.66m.02,8.33c.55,0,1.04-.13,1.48-.39s.78-.62,1.03-1.09.38-1.01.38-1.62-.12-1.14-.38-1.59-.6-.8-1.05-1.04c-.45-.24-.96-.36-1.52-.36-.8,0-1.46.27-2,.8s-.81,1.27-.81,2.23c0,.61.13,1.15.38,1.61s.6.82,1.04,1.08.93.38,1.46.38m-.12-16.34c-1.25,0-2.38.24-3.34.73-.99.5-1.75,1.18-2.28,2.03-.52.85-.79,1.77-.79,2.73,0,1.41.51,2.58,1.48,3.48-1.35,1.02-2.06,2.52-2.06,4.4,0,1.16.28,2.23.84,3.17.57.96,1.41,1.72,2.51,2.26,1.06.52,2.32.78,3.77.78s2.64-.26,3.7-.78c1.09-.54,1.94-1.3,2.52-2.27.57-.95.86-2.03.86-3.19,0-.8-.14-1.54-.41-2.21-.28-.68-.69-1.29-1.23-1.8-.14-.13-.29-.26-.45-.38.27-.26.51-.54.71-.84.5-.76.76-1.64.76-2.6,0-.73-.14-1.44-.42-2.09-.28-.67-.72-1.27-1.29-1.79-.57-.52-1.28-.92-2.1-1.21-.8-.28-1.74-.42-2.77-.42h0Zm.09,7.01c-.47,0-.82-.12-1.09-.38-.26-.25-.38-.54-.38-.94,0-.46.12-.79.39-1.06.16-.17.45-.39,1.06-.39.31,0,.57.06.8.19.21.12.38.28.49.49.12.22.18.46.18.75,0,.21-.03.4-.1.56-.06.16-.15.29-.27.4-.12.12-.26.21-.44.27-.18.07-.4.11-.64.11h0Zm.02,8.33c-.36,0-.68-.08-.96-.25-.28-.16-.5-.39-.66-.69-.17-.32-.26-.69-.26-1.13,0-.68.17-1.18.51-1.51.35-.35.77-.51,1.3-.51.4,0,.74.08,1.05.25.28.15.49.36.65.64.17.31.25.67.25,1.11s-.08.82-.26,1.15c-.16.31-.38.53-.66.7-.28.17-.6.25-.97.25h0Z"/>
    </g>
    <g>
      <path class="cls-1" d="m114.94,19.27c-1.08,0-1.7-.56-1.7-1.53,0-.15.03-.45.25-1.45l3.27-13.52c.18-.77.36-1.3.55-1.61.17-.29.55-.65,1.35-.65.52,0,.93.14,1.23.41.31.28.48.68.48,1.14,0,.29-.08.75-.26,1.45l-3.28,13.51c-.11.46-.21.82-.3,1.09-.11.35-.29.63-.53.83-.26.22-.62.34-1.06.34Z"/>
      <path class="cls-3" d="m118.65,1c.39,0,.69.09.9.28.21.19.31.45.31.77,0,.24-.08.68-.25,1.32l-3.28,13.51c-.11.45-.21.8-.29,1.05s-.21.46-.38.6-.41.22-.73.22c-.8,0-1.2-.34-1.2-1.03,0-.18.08-.63.23-1.35l3.27-13.51c.17-.72.34-1.21.49-1.48s.46-.4.91-.4m0-1c-1.09,0-1.58.56-1.78.89-.21.36-.4.92-.6,1.75l-3.27,13.51c-.23,1.06-.26,1.39-.26,1.58,0,.98.58,2.03,2.2,2.03.56,0,1.03-.15,1.38-.46.31-.27.54-.62.68-1.06.09-.28.19-.65.31-1.12l3.28-13.51c.19-.74.27-1.22.27-1.56,0-.77-.35-1.25-.64-1.51-.4-.36-.92-.54-1.57-.54h0Z"/>
    </g>
    <g>
      <path class="cls-1" d="m128.52,19.27c-.62,0-1.13-.22-1.52-.65-.37-.41-.56-1-.56-1.75V7.2c-2.19,1.59-3.05,1.79-3.51,1.79s-.88-.18-1.23-.54c-.35-.36-.52-.78-.52-1.26,0-.7.31-1.08.58-1.28.28-.21.74-.46,1.41-.78.9-.42,1.62-.87,2.15-1.33.53-.46,1.02-.99,1.43-1.57.6-.84.8-1.08.9-1.18.23-.25.6-.37,1.11-.37.57,0,1.05.23,1.39.67.32.41.48.96.48,1.63v13.42c0,2.48-1.32,2.86-2.11,2.86Z"/>
      <path class="cls-3" d="m128.75,1.19c.41,0,.75.16,1,.48s.38.76.38,1.32v13.42c0,1.57-.54,2.36-1.61,2.36-.48,0-.86-.16-1.15-.48-.29-.32-.43-.79-.43-1.42V6.2c-1.98,1.52-3.32,2.29-4.01,2.29-.33,0-.62-.13-.87-.39s-.38-.56-.38-.91c0-.4.12-.69.38-.88s.69-.43,1.32-.73c.95-.45,1.7-.91,2.27-1.41s1.07-1.04,1.51-1.65c.44-.61.72-.98.86-1.13.13-.14.38-.21.75-.21m0-1c-.66,0-1.14.17-1.48.52-.11.12-.33.37-.94,1.23-.39.54-.84,1.04-1.35,1.48-.49.43-1.18.85-2.04,1.26-.71.33-1.19.6-1.5.83-.35.27-.78.77-.78,1.68,0,.6.23,1.16.66,1.6.44.46.99.7,1.59.7.53,0,1.31-.18,3.01-1.32v8.7c0,.88.23,1.58.69,2.09.48.53,1.13.81,1.89.81s2.61-.33,2.61-3.36V2.99c0-.79-.2-1.44-.59-1.94-.44-.57-1.06-.87-1.78-.87h0Z"/>
    </g>
    <g>
      <path class="cls-1" d="m137.61,18.97c-.72,0-1.3-.21-1.72-.63-.42-.42-.64-.92-.64-1.5,0-.36.12-.79.36-1.33.23-.51.5-.93.78-1.23,1.05-1.08,2-2.02,2.84-2.8.86-.79,1.47-1.31,1.85-1.56.6-.42,1.11-.86,1.51-1.29.39-.42.69-.85.88-1.28.19-.41.29-.82.29-1.2,0-.41-.09-.77-.29-1.08-.19-.32-.45-.56-.78-.74-.34-.18-.7-.27-1.11-.27-.85,0-1.5.37-2,1.12-.02.03-.1.17-.34.85-.2.58-.44,1.03-.71,1.36-.23.28-.65.6-1.4.6-.53,0-.97-.18-1.33-.53-.35-.35-.53-.83-.53-1.41s.13-1.23.4-1.88c.27-.65.67-1.24,1.19-1.76.53-.52,1.2-.95,2-1.26.79-.31,1.73-.47,2.78-.47,1.26,0,2.36.2,3.26.61.61.28,1.14.66,1.6,1.15.46.48.81,1.04,1.07,1.68.25.63.38,1.29.38,1.97,0,1.06-.27,2.03-.79,2.9-.5.83-1.03,1.5-1.56,1.98-.5.45-1.35,1.17-2.53,2.13-1.1.9-1.88,1.61-2.3,2.11h5.11c.72,0,1.29.16,1.7.48.44.34.67.83.67,1.41,0,.51-.17.96-.52,1.32-.35.37-.86.55-1.52.55h-8.62Z"/>
      <path class="cls-3" d="m141.67,1.19c1.2,0,2.21.19,3.06.56.55.25,1.03.59,1.44,1.03s.74.94.97,1.52c.23.57.35,1.17.35,1.79,0,.97-.24,1.85-.72,2.64-.48.79-.97,1.41-1.47,1.86s-1.34,1.15-2.51,2.12-1.98,1.71-2.42,2.24c-.19.21-.38.46-.57.76h6.12c.61,0,1.07.12,1.39.38s.48.59.48,1.02c0,.38-.13.71-.38.97-.25.27-.64.4-1.15.4h-8.62c-.59,0-1.04-.16-1.37-.49s-.49-.71-.49-1.14c0-.28.11-.65.32-1.12.21-.46.44-.83.69-1.1,1.04-1.08,1.98-2,2.81-2.77s1.43-1.28,1.79-1.52c.64-.45,1.17-.91,1.6-1.37s.75-.93.97-1.41c.22-.48.33-.95.33-1.41,0-.5-.12-.95-.36-1.34s-.56-.7-.97-.92c-.41-.22-.86-.33-1.34-.33-1.02,0-1.83.45-2.41,1.35-.08.12-.21.44-.39.96s-.39.93-.62,1.21c-.23.28-.57.42-1.01.42-.39,0-.71-.13-.97-.39-.26-.26-.39-.61-.39-1.05,0-.54.12-1.1.36-1.69.24-.59.6-1.12,1.08-1.59s1.09-.86,1.83-1.15c.74-.29,1.6-.44,2.6-.44m0-1c-1.11,0-2.11.17-2.96.51-.86.34-1.59.8-2.16,1.37-.57.57-1.01,1.21-1.3,1.92-.29.7-.44,1.4-.44,2.07,0,.89.37,1.45.68,1.76.44.44,1.03.68,1.68.68.94,0,1.49-.43,1.79-.79.31-.38.57-.87.79-1.51.21-.6.29-.75.3-.76.39-.6.88-.88,1.57-.88.32,0,.61.07.87.21.25.13.44.31.59.55.14.24.21.51.21.82s-.08.65-.24.99c-.18.38-.45.77-.8,1.15-.38.4-.86.82-1.45,1.23-.39.26-1.01.79-1.89,1.6-.85.78-1.81,1.73-2.86,2.81-.34.36-.62.81-.88,1.38-.27.6-.41,1.1-.41,1.53,0,.7.27,1.34.79,1.85.52.51,1.22.77,2.07.77h8.62c.8,0,1.43-.24,1.88-.71.43-.45.66-1.03.66-1.66,0-.74-.3-1.37-.87-1.81-.5-.39-1.17-.59-2.01-.59h-3.92c.39-.36.86-.76,1.42-1.23,1.2-.98,2.03-1.68,2.55-2.15.57-.51,1.13-1.22,1.66-2.09.57-.95.87-2.01.87-3.16,0-.74-.14-1.47-.42-2.16-.28-.69-.67-1.31-1.17-1.83-.5-.53-1.09-.95-1.75-1.25-.98-.43-2.14-.65-3.47-.65h0Z"/>
    </g>
    <g>
      <path class="cls-1" d="m150.2,19.27c-1.08,0-1.7-.56-1.7-1.53,0-.15.03-.45.25-1.45l3.27-13.52c.18-.77.36-1.3.55-1.61.17-.29.55-.65,1.35-.65.52,0,.93.14,1.23.41.31.28.48.68.48,1.14,0,.29-.08.75-.26,1.45l-3.28,13.51c-.11.46-.21.82-.3,1.09-.11.35-.29.63-.53.83-.26.22-.62.34-1.06.34Z"/>
      <path class="cls-3" d="m153.91,1c.39,0,.69.09.9.28s.31.45.31.77c0,.24-.08.68-.25,1.32l-3.28,13.51c-.11.45-.21.8-.29,1.05s-.21.46-.38.6-.41.22-.73.22c-.8,0-1.2-.34-1.2-1.03,0-.18.08-.63.23-1.35l3.27-13.51c.17-.72.34-1.21.49-1.48s.46-.4.91-.4m0-1c-1.09,0-1.58.56-1.78.89-.21.36-.4.92-.6,1.75l-3.27,13.51c-.23,1.06-.26,1.39-.26,1.58,0,.98.58,2.03,2.2,2.03.56,0,1.03-.15,1.38-.46.31-.27.54-.62.68-1.06.09-.28.19-.65.31-1.12l3.28-13.51c.19-.74.27-1.22.27-1.56,0-.77-.35-1.25-.64-1.51-.4-.36-.92-.54-1.57-.54h0Z"/>
    </g>
    <g>
      <path class="cls-1" d="m158.61,18.97c-.72,0-1.3-.21-1.72-.63-.42-.42-.64-.92-.64-1.5,0-.36.12-.79.36-1.33.23-.51.5-.93.78-1.23,1.05-1.08,2-2.02,2.84-2.8.86-.79,1.47-1.31,1.85-1.56.6-.42,1.11-.86,1.51-1.29.39-.42.69-.85.88-1.28.19-.41.29-.82.29-1.2,0-.41-.09-.77-.29-1.08-.19-.32-.45-.56-.78-.74-.34-.18-.7-.27-1.11-.27-.85,0-1.5.37-2,1.12-.02.03-.1.17-.34.85-.21.58-.44,1.03-.71,1.36-.23.28-.65.6-1.4.6-.53,0-.97-.18-1.33-.53-.35-.35-.53-.83-.53-1.41s.13-1.23.4-1.88c.27-.65.67-1.24,1.19-1.76.53-.52,1.2-.95,2-1.26.79-.31,1.73-.47,2.78-.47,1.26,0,2.36.2,3.26.61.61.28,1.14.66,1.6,1.15.46.48.81,1.04,1.07,1.68.25.63.38,1.29.38,1.97,0,1.06-.27,2.03-.79,2.9-.5.83-1.03,1.5-1.56,1.98-.5.45-1.36,1.17-2.53,2.13-1.1.9-1.88,1.61-2.3,2.11h5.11c.72,0,1.29.16,1.7.48.44.34.67.83.67,1.41,0,.51-.17.96-.52,1.32-.35.37-.86.55-1.52.55h-8.62Z"/>
      <path class="cls-3" d="m162.67,1.19c1.2,0,2.21.19,3.06.56.55.25,1.03.59,1.44,1.03s.74.94.97,1.52.35,1.17.35,1.79c0,.97-.24,1.85-.72,2.64s-.97,1.41-1.47,1.86-1.34,1.15-2.51,2.12-1.98,1.71-2.42,2.24c-.19.21-.38.46-.57.76h6.12c.61,0,1.07.12,1.39.38s.48.59.48,1.02c0,.38-.13.71-.38.97s-.64.4-1.15.4h-8.62c-.59,0-1.04-.16-1.37-.49s-.49-.71-.49-1.14c0-.28.11-.65.32-1.12s.44-.83.69-1.1c1.04-1.08,1.98-2,2.81-2.77s1.43-1.28,1.79-1.52c.64-.45,1.17-.91,1.6-1.37s.75-.93.97-1.41.33-.95.33-1.41c0-.5-.12-.95-.36-1.34s-.56-.7-.97-.92-.86-.33-1.34-.33c-1.02,0-1.83.45-2.41,1.35-.08.12-.21.44-.39.96s-.39.93-.62,1.21-.57.42-1.01.42c-.39,0-.71-.13-.97-.39s-.39-.61-.39-1.05c0-.54.12-1.1.36-1.69s.6-1.12,1.08-1.59,1.09-.86,1.83-1.15,1.6-.44,2.6-.44m0-1c-1.11,0-2.11.17-2.96.51-.86.34-1.59.8-2.16,1.37-.57.57-1.01,1.21-1.3,1.92-.29.7-.44,1.4-.44,2.07,0,.89.37,1.45.68,1.76.44.44,1.03.68,1.68.68.94,0,1.49-.43,1.79-.79.31-.38.57-.87.79-1.51.21-.6.29-.75.3-.76.39-.6.88-.88,1.57-.88.32,0,.61.07.87.21.25.13.44.31.59.55.14.24.21.51.21.82s-.08.65-.24.99c-.18.38-.45.77-.8,1.15-.38.4-.86.82-1.45,1.23-.39.26-1.01.79-1.89,1.6-.85.78-1.81,1.73-2.86,2.81-.34.36-.62.81-.88,1.38-.27.6-.41,1.1-.41,1.53,0,.7.27,1.34.79,1.85.52.51,1.22.77,2.07.77h8.62c.8,0,1.43-.24,1.88-.71.43-.45.66-1.03.66-1.66,0-.74-.3-1.37-.87-1.81-.5-.39-1.17-.59-2.01-.59h-3.92c.39-.36.86-.76,1.42-1.23,1.2-.98,2.03-1.68,2.55-2.15.57-.51,1.13-1.22,1.66-2.09.57-.95.87-2.01.87-3.16,0-.74-.14-1.47-.42-2.16-.28-.69-.67-1.31-1.17-1.83-.5-.53-1.09-.95-1.75-1.25-.98-.43-2.14-.65-3.47-.65h0Z"/>
    </g>
    <g>
      <path class="cls-1" d="m176.84,19.24c-1.29,0-2.46-.37-3.48-1.1-1.02-.73-1.79-1.74-2.3-3.01-.26-.69-.45-1.45-.56-2.27-.12-.81-.17-1.69-.17-2.62,0-1.2.06-2.29.19-3.25.13-.98.34-1.84.62-2.55.5-1.22,1.24-2.16,2.2-2.81.96-.64,2.11-.97,3.42-.97.86,0,1.66.14,2.38.43.72.29,1.36.71,1.9,1.26.53.54.99,1.22,1.36,2.01.62,1.35.94,3.26.94,5.68,0,1.3-.08,2.44-.24,3.39-.17.97-.48,1.87-.92,2.67-.57,1-1.33,1.78-2.24,2.32-.92.54-1.95.82-3.07.82Zm-.05-15.2c-.82,0-1.36.39-1.68,1.24-.38.98-.57,2.53-.57,4.62,0,1.43.08,2.62.25,3.52.15.85.41,1.48.76,1.89.31.37.72.54,1.27.54s.99-.19,1.3-.57c.35-.43.6-1.08.75-1.92.16-.9.24-2.1.24-3.57,0-1.39-.08-2.54-.25-3.42-.15-.82-.41-1.43-.75-1.83-.31-.35-.74-.53-1.31-.53Z"/>
      <path class="cls-3" d="m176.74,1.16c.8,0,1.54.13,2.19.39s1.23.64,1.73,1.15c.5.5.92,1.13,1.26,1.87.59,1.29.89,3.11.89,5.47,0,1.28-.08,2.38-.23,3.3s-.45,1.76-.87,2.51c-.53.92-1.22,1.63-2.06,2.13s-1.78.75-2.81.75c-1.19,0-2.25-.34-3.19-1.01s-1.65-1.6-2.13-2.79c-.24-.65-.42-1.37-.53-2.15s-.17-1.63-.17-2.55c0-1.18.06-2.24.19-3.19s.32-1.76.59-2.44c.46-1.12,1.13-1.98,2.01-2.57.88-.59,1.93-.88,3.15-.88m.07,15.2c.72,0,1.28-.25,1.69-.75s.69-1.21.86-2.14.25-2.15.25-3.66c0-1.43-.09-2.6-.26-3.51s-.46-1.6-.87-2.06-.97-.7-1.69-.7c-1.03,0-1.75.52-2.15,1.56s-.6,2.64-.6,4.8c0,1.47.09,2.67.26,3.61s.46,1.65.87,2.13.96.72,1.65.72m-.07-16.2c-1.42,0-2.66.35-3.7,1.05-1.04.7-1.84,1.72-2.38,3.02-.3.77-.52,1.66-.65,2.69-.13.98-.2,2.1-.2,3.32,0,.96.06,1.86.18,2.69.12.85.32,1.65.59,2.36.56,1.38,1.39,2.47,2.48,3.25,1.11.79,2.38,1.19,3.77,1.19,1.21,0,2.33-.3,3.32-.89.99-.59,1.8-1.43,2.42-2.49.48-.86.81-1.81.99-2.84.16-.97.25-2.14.25-3.47,0-2.53-.32-4.46-.98-5.89-.39-.85-.88-1.57-1.46-2.15-.59-.6-1.29-1.06-2.07-1.38-.77-.31-1.63-.46-2.56-.46h0Zm.07,15.2c-.51,0-.74-.2-.89-.37-.29-.34-.51-.91-.65-1.66-.16-.87-.24-2.03-.24-3.43,0-2.03.18-3.52.54-4.44.31-.81.77-.92,1.22-.92.56,0,.8.2.93.36.28.32.5.87.64,1.59.16.84.24,1.96.24,3.32,0,1.44-.08,2.61-.23,3.48-.13.76-.35,1.32-.65,1.69-.14.18-.38.38-.91.38h0Z"/>
    </g>
    <g>
      <path class="cls-1" d="m187.14,18.97c-.72,0-1.3-.21-1.72-.63-.42-.42-.64-.92-.64-1.5,0-.36.12-.79.36-1.33.23-.51.5-.93.78-1.23,1.04-1.08,2-2.02,2.84-2.8.86-.79,1.47-1.31,1.85-1.56.6-.42,1.11-.86,1.51-1.29.39-.42.69-.85.88-1.28.19-.41.29-.82.29-1.2,0-.41-.09-.77-.29-1.08-.19-.32-.45-.56-.78-.74-.34-.18-.7-.27-1.11-.27-.85,0-1.5.37-2,1.12-.02.03-.1.17-.34.85-.21.58-.44,1.03-.71,1.36-.23.28-.65.6-1.4.6-.53,0-.97-.18-1.33-.53-.35-.35-.53-.83-.53-1.41s.13-1.23.4-1.88c.27-.65.67-1.24,1.19-1.76.53-.52,1.2-.95,2-1.26.79-.31,1.73-.47,2.78-.47,1.26,0,2.36.2,3.26.61.61.28,1.14.66,1.6,1.15.46.48.81,1.04,1.07,1.68.25.63.38,1.29.38,1.97,0,1.06-.27,2.03-.79,2.9-.5.83-1.03,1.5-1.56,1.98-.5.45-1.36,1.17-2.53,2.13-1.1.9-1.88,1.61-2.3,2.11h5.11c.72,0,1.29.16,1.7.48.44.34.67.83.67,1.41,0,.51-.17.96-.52,1.32-.35.37-.86.55-1.52.55h-8.62Z"/>
      <path class="cls-3" d="m191.19,1.19c1.2,0,2.21.19,3.06.56.55.25,1.03.59,1.44,1.03s.74.94.97,1.52.35,1.17.35,1.79c0,.97-.24,1.85-.72,2.64s-.97,1.41-1.47,1.86-1.34,1.15-2.51,2.12-1.98,1.71-2.42,2.24c-.19.21-.38.46-.57.76h6.12c.61,0,1.07.12,1.39.38s.48.59.48,1.02c0,.38-.13.71-.38.97s-.64.4-1.15.4h-8.62c-.59,0-1.04-.16-1.37-.49s-.49-.71-.49-1.14c0-.28.11-.65.32-1.12s.44-.83.69-1.1c1.04-1.08,1.98-2,2.81-2.77s1.43-1.28,1.79-1.52c.64-.45,1.17-.91,1.6-1.37s.75-.93.97-1.41.33-.95.33-1.41c0-.5-.12-.95-.36-1.34s-.56-.7-.97-.92-.86-.33-1.34-.33c-1.02,0-1.83.45-2.41,1.35-.08.12-.21.44-.39.96s-.39.93-.62,1.21-.57.42-1.01.42c-.39,0-.71-.13-.97-.39s-.39-.61-.39-1.05c0-.54.12-1.1.36-1.69s.6-1.12,1.08-1.59,1.09-.86,1.83-1.15,1.6-.44,2.6-.44m0-1c-1.11,0-2.11.17-2.96.51-.86.34-1.59.8-2.16,1.37-.57.57-1.01,1.21-1.3,1.92-.29.7-.44,1.4-.44,2.07,0,.89.37,1.45.68,1.76.44.44,1.03.68,1.68.68.94,0,1.49-.43,1.79-.79.31-.38.57-.87.79-1.51.21-.6.29-.75.3-.76.39-.6.88-.88,1.57-.88.32,0,.61.07.87.21.25.13.44.31.59.55.14.24.21.51.21.82s-.08.65-.24.99c-.18.38-.45.77-.8,1.15-.38.4-.86.82-1.45,1.23-.39.26-1.01.79-1.89,1.6-.85.78-1.81,1.73-2.86,2.81-.34.36-.62.81-.88,1.38-.27.6-.41,1.1-.41,1.53,0,.7.27,1.34.79,1.85.52.51,1.22.77,2.07.77h8.62c.8,0,1.43-.24,1.88-.71.43-.45.66-1.03.66-1.66,0-.74-.3-1.37-.87-1.81-.5-.39-1.17-.59-2.01-.59h-3.92c.39-.36.86-.76,1.42-1.23,1.2-.98,2.03-1.68,2.55-2.15.57-.51,1.13-1.22,1.66-2.09.57-.95.87-2.01.87-3.16,0-.74-.14-1.47-.42-2.16-.28-.69-.67-1.31-1.17-1.83-.5-.53-1.09-.95-1.75-1.25-.98-.43-2.14-.65-3.47-.65h0Z"/>
    </g>
    <g>
      <path class="cls-1" d="m208.08,19.27c-.58,0-1.07-.21-1.43-.62-.35-.39-.53-.95-.53-1.66v-1.68h-5.38c-.87,0-1.54-.21-2.01-.63-.48-.43-.72-1.02-.72-1.74,0-.21.04-.41.11-.62.07-.19.17-.38.3-.58.12-.18.24-.35.36-.51l.44-.58,6.21-8.31c.43-.57.77-.99,1.06-1.25.36-.33.79-.5,1.29-.5.85,0,2.28.33,2.28,2.54v8.57h0c.68,0,1.22.1,1.65.29.38.17.84.58.84,1.53,0,.78-.36,1.19-.66,1.4-.39.27-.92.4-1.62.4h-.21v1.68c0,.73-.18,1.29-.53,1.68-.36.4-.85.6-1.44.6Zm-1.96-7.59v-4.79l-3.55,4.79h3.55Z"/>
      <path class="cls-3" d="m207.76,1.07c1.19,0,1.78.68,1.78,2.04v9.07h.5c.6,0,1.08.08,1.45.25s.54.52.54,1.08c0,.45-.15.78-.45.99s-.74.31-1.34.31h-.71v2.18c0,.6-.13,1.05-.4,1.34s-.62.44-1.07.44-.79-.15-1.06-.45-.4-.74-.4-1.33v-2.18h-5.88c-.74,0-1.3-.17-1.67-.5s-.56-.79-.56-1.37c0-.15.03-.3.08-.45s.14-.31.25-.48.22-.33.34-.49.26-.35.43-.57l6.21-8.31c.41-.55.74-.94,1-1.19s.58-.37.94-.37m-6.19,11.11h5.04v-6.81l-5.04,6.81M207.76.07c-.62,0-1.18.22-1.63.64-.31.29-.67.72-1.12,1.32l-6.21,8.31-.43.57c-.13.17-.26.35-.38.54-.15.23-.27.46-.35.69-.09.26-.14.53-.14.79,0,.86.31,1.59.89,2.11.56.51,1.35.76,2.34.76h4.88v1.18c0,.84.22,1.51.66,2,.46.51,1.08.78,1.81.78s1.35-.27,1.81-.77c.44-.48.66-1.16.66-2.01v-1.19c.67-.03,1.21-.19,1.62-.48.4-.28.87-.82.87-1.81,0-1.29-.71-1.8-1.13-1.99-.38-.17-.83-.28-1.36-.32V3.11c0-1.9-1.04-3.04-2.78-3.04h0Zm-4.2,11.11l2.05-2.78v2.78h-2.05Z"/>
    </g>
  </g>
</svg>