<?xml version="1.0" encoding="UTF-8"?><svg id="Capa_1" xmlns="http://www.w3.org/2000/svg" viewBox="0 0 597.51 87.66"><defs><style>.cls-1{fill:#ebc8b2;}.cls-1,.cls-2{fill-rule:evenodd;stroke-width:0px;}.cls-2{fill:#ebc8b2;}</style></defs><path class="cls-2" d="M0,0v74.52l14.49-1.08c1.69-.59,2.63-.94,4.75-.82,1.78.1,2.68-.91,4.71-.89,1.7.02,3.35.05,5.05.01,3.35-.08,6.73-.03,10.08-.15.19-.81.42-1.3.31-2.57,4.03.74,11.16,2.26,15.43.56,2.18-.87,2.44.43,4.74,0l11.37-1.78c1.23-.51.53-1.5,3.1-.79,2.06.57,3.61-.69,5.12-.89,1.05-.14,6.01,1.81,10.05.88,4.45-1.03,11.71.29,15.76-1.27,2.45-.94,1.48-1.41,4.71-1.3,7.02.24,13.85-2.57,20.55-.66,1.68.48,3.27-.94,4.74-1.37,1.65-.49,3.6-.14,5.29-.14l20.76-.28c6.24-2.14,14.08.38,20.36-2.09,3.18-1.25,7.7,2.54,10.14.05,1.63-1.66,2.97-1.27,4.84-1.21.76.02,1.84.31,2.56.09,2.08-.62.74-1.41,2.16-1.86.03.02.04.03.06.05.07-.25.96.83,0,0-.02.09.05.34.33.88,1.73,3.31,4.58,1.71,6.16-.11,1.44-1.65,5.53-2.64,7.31-2.72l.33,2.14c.23,1.77-.04.66.3,2.62,2.55-1.32-.24-3,2.21-3.89l.49,5.4,1.67.31c.71.63.33.07.79,1.13-.36,2.78-.95,1.8-1.27,3.75l5.88.56c.04-.36.14-.97.16-1.13.02-.1.07-.41.1-.53l.23-1.08c.26-1.15.48-1.88.66-2.72l3.73.47c-.06.55-.14.62-.17,1.02-.04.44-.31,1.19-.35,1.31-.43,1.21-.27.69-.81,1.69-.9,1.69-.21-.76-1.12,2.95.17.27-.07-.19.3.92l2.26,3.84c2.78,2.81,7.03-.99,8.55-1.34,1.97-.44,2.42.39,2.83,3.83l11.03-.14c.04-.29.13-.82.16-.96.02-.09.07-.38.1-.49l.24-1.01c1.25-4.63,2.71-4.07,4.77-4.09-.17,7.15-.15,2.86-.69,5.74l2.04.11.63,4.52c.41-1.66-.02-.48.7-1.37,1.19-1.48,1.06-2.3,2.83-2.53l.39-5.35c1.32.17,1.47-.05,2.5.9,1.16,1.07.94.99,2.52,1.14l-.21,7.89c1.93-.46,2.27-2.63,3.24-3.72,1.45,4.47,3.15,1.86,5.4,2.12.83.1,1.53,1.41,2.78,1.35,1.16-.05,1.84-.83,3.48-.74,4.84.26,10.11-.87,14.84-.03-.15,7.69-.65-1.44-.85,5.37,1.39.12,3.3.52,4.23-.86-.33-2.36-.89-1.01-1.27-3.79,3.21.04,7.03-.63,10.17.14l29.3-2.31c.9,3.32,1.24,5.64,3.25,4.24l3.14-1.74c2.09-1.74,4.85-5.2,7.91-.51,1.09,1.68,2.03,2.7,2.73,4.91.97,3.05-.56.55.93,2.56,2.87-.24.73-1.52,2.51-4.14,1.02-1.51,2.62-.68,3.8-.73.06-.17.14-.73.17-.56.01.08.6-3.48,2.24-3,4.36,1.29,4.18,3.53,6.4,3.63,2.68.12,1.79-.64,3.39-2.32.99-1.05,2.41-.29,3.56-.53,1.48-.32,1.91-2,3.3-1.49,3.7,1.36,3.18-1.56,6.87-1.05,1.32,13.53,1.79,7.56,2.85,5.55.91,3.43.69,1.68,2.39,1.92,1.97.27,3.05,6.67,4.34-3.59.02-.14.04-.45.08-.65,1.62,0,2.82-.64,4.18.53,1.56,1.34,6.04,2.43,7.32-2.04l1.74-7.97,1.89-.07c.05.23.11.31.13.64l.37,1.75c.27,1.24.19,1.06.45,2.01,1.74.15,2.35-.74,3.77-.82,1.3-.07,2.73.36,4.11.31,1.47-4.99.82-4.88,3.75-5.86,2.27-.76,2.19-2.68,4.92-1.31,2.32,1.17,2.32-1.76,4.88-1.55,1.27.1,1.74.99,2.56,1.1,1.43.21.88-.92,2.49-.84.55,3.39.56,4.82,2.06,6.12,1.19,1.03,2.48.55,2.99-3.36l-.47-.49c-1.5-.98-3.09.76-3.4-4.19.45-.91-.02-.56.76-.87,1.05-.42,1.68,1.6,2.62,2.35,1.35,1.08,3.03-2.91,3.7,1.34-.63,3.87-.98.49-2.27,2.81.2,4.11.14,2.36,1.2,3.89l1.31,3.37c2.18.22,3.36-.37,5.71.13,1.16.25,4.29-.93,5.84-1.33,1.62-6-.42-5.29,3.21-6.26,1.64-.44,3.62.45,4.7.02,3.24-1.27,2.81,2.09,4.19.23.15-.21,1.25-2.59,1.5-3.08,1-1.95.79-1.44,1.95-2.72l1.74-3.17c.05-.11.13-.27.19-.38l1.32-2.58c1.8-1.59,2.45,1.2,4.68-2.08,1.69-2.49,2.9-.46,5-.89,2.77-.58,3.55-3.99,3.78-4.09,1.5-.02,3.91-.64,5.29-.06.3.13,1.75,1.5,1.86,1.71,1.07,1.95.08,4.25,2.31,4.6l3.42-1.16c3.05-2.44,11.17,1.69,14.26-1.76,4.99-5.57,6.26.7,10.59-1.3,1.86-.86,3.85.37,5.62-1.16,1.25-1.08,4.04-2.69,5.41-1.97,1.92,1.02,4.06,4.08,6.12,6.19,3.33,3.42,6.98,3.21,10.82,3.44.03-.06.06-.12.09-.2.55-1.26.4.21.4.24-.17,0-.33-.02-.5-.03-.14.28-.23.41-.29.45.05.15.1.44.16,1.01,2.19,1.6,1.74-.34,3.44.16,1.36.39.51.94,1.49,1.85l1.18-.87.83,5.42c2.7-1.08,2.46-.81,3.78-5.54,1.91-.02,5.83.33,7.52-.46,1.22-.57,1.38-1.3,3.18-1.79,1.49-.41,1.69-1.16,3.43-1.16.48-2.9.33-5.02,1.53-6.68,1.54-2.14,3.71-.71,5.39-1.73.7-.43,1.14-1.64,1.53-2.09,1.05-1.22,2.64-.54,3.89-.62V0H0Z"/><path class="cls-1" d="M560.16,60.3c-.11-.34-.16.1,0,0h0Z"/></svg>